G04 #@! TF.GenerationSoftware,KiCad,Pcbnew,5.1.5+dfsg1-2build2*
G04 #@! TF.CreationDate,2020-08-03T15:49:09+10:00*
G04 #@! TF.ProjectId,macr0,6d616372-302e-46b6-9963-61645f706362,rev?*
G04 #@! TF.SameCoordinates,Original*
G04 #@! TF.FileFunction,Soldermask,Top*
G04 #@! TF.FilePolarity,Negative*
%FSLAX46Y46*%
G04 Gerber Fmt 4.6, Leading zero omitted, Abs format (unit mm)*
G04 Created by KiCad (PCBNEW 5.1.5+dfsg1-2build2) date 2020-08-03 15:49:09*
%MOMM*%
%LPD*%
G04 APERTURE LIST*
%ADD10C,0.100000*%
G04 APERTURE END LIST*
D10*
G36*
X138543512Y-115689927D02*
G01*
X138692812Y-115719624D01*
X138856784Y-115787544D01*
X139004354Y-115886147D01*
X139129853Y-116011646D01*
X139228456Y-116159216D01*
X139296376Y-116323188D01*
X139331000Y-116497259D01*
X139331000Y-116674741D01*
X139296376Y-116848812D01*
X139228456Y-117012784D01*
X139129853Y-117160354D01*
X139004354Y-117285853D01*
X138856784Y-117384456D01*
X138692812Y-117452376D01*
X138543512Y-117482073D01*
X138518742Y-117487000D01*
X138341258Y-117487000D01*
X138316488Y-117482073D01*
X138167188Y-117452376D01*
X138003216Y-117384456D01*
X137855646Y-117285853D01*
X137730147Y-117160354D01*
X137631544Y-117012784D01*
X137563624Y-116848812D01*
X137529000Y-116674741D01*
X137529000Y-116497259D01*
X137563624Y-116323188D01*
X137631544Y-116159216D01*
X137730147Y-116011646D01*
X137855646Y-115886147D01*
X138003216Y-115787544D01*
X138167188Y-115719624D01*
X138316488Y-115689927D01*
X138341258Y-115685000D01*
X138518742Y-115685000D01*
X138543512Y-115689927D01*
G37*
G36*
X136003512Y-115689927D02*
G01*
X136152812Y-115719624D01*
X136316784Y-115787544D01*
X136464354Y-115886147D01*
X136589853Y-116011646D01*
X136688456Y-116159216D01*
X136756376Y-116323188D01*
X136791000Y-116497259D01*
X136791000Y-116674741D01*
X136756376Y-116848812D01*
X136688456Y-117012784D01*
X136589853Y-117160354D01*
X136464354Y-117285853D01*
X136316784Y-117384456D01*
X136152812Y-117452376D01*
X136003512Y-117482073D01*
X135978742Y-117487000D01*
X135801258Y-117487000D01*
X135776488Y-117482073D01*
X135627188Y-117452376D01*
X135463216Y-117384456D01*
X135315646Y-117285853D01*
X135190147Y-117160354D01*
X135091544Y-117012784D01*
X135023624Y-116848812D01*
X134989000Y-116674741D01*
X134989000Y-116497259D01*
X135023624Y-116323188D01*
X135091544Y-116159216D01*
X135190147Y-116011646D01*
X135315646Y-115886147D01*
X135463216Y-115787544D01*
X135627188Y-115719624D01*
X135776488Y-115689927D01*
X135801258Y-115685000D01*
X135978742Y-115685000D01*
X136003512Y-115689927D01*
G37*
G36*
X138543512Y-113149927D02*
G01*
X138692812Y-113179624D01*
X138856784Y-113247544D01*
X139004354Y-113346147D01*
X139129853Y-113471646D01*
X139228456Y-113619216D01*
X139296376Y-113783188D01*
X139331000Y-113957259D01*
X139331000Y-114134741D01*
X139296376Y-114308812D01*
X139228456Y-114472784D01*
X139129853Y-114620354D01*
X139004354Y-114745853D01*
X138856784Y-114844456D01*
X138692812Y-114912376D01*
X138543512Y-114942073D01*
X138518742Y-114947000D01*
X138341258Y-114947000D01*
X138316488Y-114942073D01*
X138167188Y-114912376D01*
X138003216Y-114844456D01*
X137855646Y-114745853D01*
X137730147Y-114620354D01*
X137631544Y-114472784D01*
X137563624Y-114308812D01*
X137529000Y-114134741D01*
X137529000Y-113957259D01*
X137563624Y-113783188D01*
X137631544Y-113619216D01*
X137730147Y-113471646D01*
X137855646Y-113346147D01*
X138003216Y-113247544D01*
X138167188Y-113179624D01*
X138316488Y-113149927D01*
X138341258Y-113145000D01*
X138518742Y-113145000D01*
X138543512Y-113149927D01*
G37*
G36*
X136003512Y-113149927D02*
G01*
X136152812Y-113179624D01*
X136316784Y-113247544D01*
X136464354Y-113346147D01*
X136589853Y-113471646D01*
X136688456Y-113619216D01*
X136756376Y-113783188D01*
X136791000Y-113957259D01*
X136791000Y-114134741D01*
X136756376Y-114308812D01*
X136688456Y-114472784D01*
X136589853Y-114620354D01*
X136464354Y-114745853D01*
X136316784Y-114844456D01*
X136152812Y-114912376D01*
X136003512Y-114942073D01*
X135978742Y-114947000D01*
X135801258Y-114947000D01*
X135776488Y-114942073D01*
X135627188Y-114912376D01*
X135463216Y-114844456D01*
X135315646Y-114745853D01*
X135190147Y-114620354D01*
X135091544Y-114472784D01*
X135023624Y-114308812D01*
X134989000Y-114134741D01*
X134989000Y-113957259D01*
X135023624Y-113783188D01*
X135091544Y-113619216D01*
X135190147Y-113471646D01*
X135315646Y-113346147D01*
X135463216Y-113247544D01*
X135627188Y-113179624D01*
X135776488Y-113149927D01*
X135801258Y-113145000D01*
X135978742Y-113145000D01*
X136003512Y-113149927D01*
G37*
G36*
X126475142Y-113010242D02*
G01*
X126623101Y-113071529D01*
X126756255Y-113160499D01*
X126869501Y-113273745D01*
X126958471Y-113406899D01*
X127019758Y-113554858D01*
X127051000Y-113711925D01*
X127051000Y-113872075D01*
X127019758Y-114029142D01*
X126958471Y-114177101D01*
X126869501Y-114310255D01*
X126756255Y-114423501D01*
X126623101Y-114512471D01*
X126475142Y-114573758D01*
X126318075Y-114605000D01*
X126157925Y-114605000D01*
X126000858Y-114573758D01*
X125852899Y-114512471D01*
X125719745Y-114423501D01*
X125606499Y-114310255D01*
X125517529Y-114177101D01*
X125456242Y-114029142D01*
X125425000Y-113872075D01*
X125425000Y-113711925D01*
X125456242Y-113554858D01*
X125517529Y-113406899D01*
X125606499Y-113273745D01*
X125719745Y-113160499D01*
X125852899Y-113071529D01*
X126000858Y-113010242D01*
X126157925Y-112979000D01*
X126318075Y-112979000D01*
X126475142Y-113010242D01*
G37*
G36*
X129015142Y-113010242D02*
G01*
X129163101Y-113071529D01*
X129296255Y-113160499D01*
X129409501Y-113273745D01*
X129498471Y-113406899D01*
X129559758Y-113554858D01*
X129591000Y-113711925D01*
X129591000Y-113872075D01*
X129559758Y-114029142D01*
X129498471Y-114177101D01*
X129409501Y-114310255D01*
X129296255Y-114423501D01*
X129163101Y-114512471D01*
X129015142Y-114573758D01*
X128858075Y-114605000D01*
X128697925Y-114605000D01*
X128540858Y-114573758D01*
X128392899Y-114512471D01*
X128259745Y-114423501D01*
X128146499Y-114310255D01*
X128057529Y-114177101D01*
X127996242Y-114029142D01*
X127965000Y-113872075D01*
X127965000Y-113711925D01*
X127996242Y-113554858D01*
X128057529Y-113406899D01*
X128146499Y-113273745D01*
X128259745Y-113160499D01*
X128392899Y-113071529D01*
X128540858Y-113010242D01*
X128697925Y-112979000D01*
X128858075Y-112979000D01*
X129015142Y-113010242D01*
G37*
G36*
X145525142Y-113010242D02*
G01*
X145673101Y-113071529D01*
X145806255Y-113160499D01*
X145919501Y-113273745D01*
X146008471Y-113406899D01*
X146069758Y-113554858D01*
X146101000Y-113711925D01*
X146101000Y-113872075D01*
X146069758Y-114029142D01*
X146008471Y-114177101D01*
X145919501Y-114310255D01*
X145806255Y-114423501D01*
X145673101Y-114512471D01*
X145525142Y-114573758D01*
X145368075Y-114605000D01*
X145207925Y-114605000D01*
X145050858Y-114573758D01*
X144902899Y-114512471D01*
X144769745Y-114423501D01*
X144656499Y-114310255D01*
X144567529Y-114177101D01*
X144506242Y-114029142D01*
X144475000Y-113872075D01*
X144475000Y-113711925D01*
X144506242Y-113554858D01*
X144567529Y-113406899D01*
X144656499Y-113273745D01*
X144769745Y-113160499D01*
X144902899Y-113071529D01*
X145050858Y-113010242D01*
X145207925Y-112979000D01*
X145368075Y-112979000D01*
X145525142Y-113010242D01*
G37*
G36*
X148065142Y-113010242D02*
G01*
X148213101Y-113071529D01*
X148346255Y-113160499D01*
X148459501Y-113273745D01*
X148548471Y-113406899D01*
X148609758Y-113554858D01*
X148641000Y-113711925D01*
X148641000Y-113872075D01*
X148609758Y-114029142D01*
X148548471Y-114177101D01*
X148459501Y-114310255D01*
X148346255Y-114423501D01*
X148213101Y-114512471D01*
X148065142Y-114573758D01*
X147908075Y-114605000D01*
X147747925Y-114605000D01*
X147590858Y-114573758D01*
X147442899Y-114512471D01*
X147309745Y-114423501D01*
X147196499Y-114310255D01*
X147107529Y-114177101D01*
X147046242Y-114029142D01*
X147015000Y-113872075D01*
X147015000Y-113711925D01*
X147046242Y-113554858D01*
X147107529Y-113406899D01*
X147196499Y-113273745D01*
X147309745Y-113160499D01*
X147442899Y-113071529D01*
X147590858Y-113010242D01*
X147747925Y-112979000D01*
X147908075Y-112979000D01*
X148065142Y-113010242D01*
G37*
G36*
X139331000Y-112407000D02*
G01*
X137529000Y-112407000D01*
X137529000Y-110605000D01*
X139331000Y-110605000D01*
X139331000Y-112407000D01*
G37*
G36*
X136003512Y-110609927D02*
G01*
X136152812Y-110639624D01*
X136316784Y-110707544D01*
X136464354Y-110806147D01*
X136589853Y-110931646D01*
X136688456Y-111079216D01*
X136756376Y-111243188D01*
X136791000Y-111417259D01*
X136791000Y-111594741D01*
X136756376Y-111768812D01*
X136688456Y-111932784D01*
X136589853Y-112080354D01*
X136464354Y-112205853D01*
X136316784Y-112304456D01*
X136152812Y-112372376D01*
X136003512Y-112402073D01*
X135978742Y-112407000D01*
X135801258Y-112407000D01*
X135776488Y-112402073D01*
X135627188Y-112372376D01*
X135463216Y-112304456D01*
X135315646Y-112205853D01*
X135190147Y-112080354D01*
X135091544Y-111932784D01*
X135023624Y-111768812D01*
X134989000Y-111594741D01*
X134989000Y-111417259D01*
X135023624Y-111243188D01*
X135091544Y-111079216D01*
X135190147Y-110931646D01*
X135315646Y-110806147D01*
X135463216Y-110707544D01*
X135627188Y-110639624D01*
X135776488Y-110609927D01*
X135801258Y-110605000D01*
X135978742Y-110605000D01*
X136003512Y-110609927D01*
G37*
G36*
X147156254Y-106739818D02*
G01*
X147529511Y-106894426D01*
X147529513Y-106894427D01*
X147865436Y-107118884D01*
X148151116Y-107404564D01*
X148375574Y-107740489D01*
X148530182Y-108113746D01*
X148609000Y-108509993D01*
X148609000Y-108914007D01*
X148530182Y-109310254D01*
X148375574Y-109683511D01*
X148375573Y-109683513D01*
X148151116Y-110019436D01*
X147865436Y-110305116D01*
X147529513Y-110529573D01*
X147529512Y-110529574D01*
X147529511Y-110529574D01*
X147156254Y-110684182D01*
X146760007Y-110763000D01*
X146355993Y-110763000D01*
X145959746Y-110684182D01*
X145586489Y-110529574D01*
X145586488Y-110529574D01*
X145586487Y-110529573D01*
X145250564Y-110305116D01*
X144964884Y-110019436D01*
X144740427Y-109683513D01*
X144740426Y-109683511D01*
X144585818Y-109310254D01*
X144507000Y-108914007D01*
X144507000Y-108509993D01*
X144585818Y-108113746D01*
X144740426Y-107740489D01*
X144964884Y-107404564D01*
X145250564Y-107118884D01*
X145586487Y-106894427D01*
X145586489Y-106894426D01*
X145959746Y-106739818D01*
X146355993Y-106661000D01*
X146760007Y-106661000D01*
X147156254Y-106739818D01*
G37*
G36*
X128106254Y-106739818D02*
G01*
X128479511Y-106894426D01*
X128479513Y-106894427D01*
X128815436Y-107118884D01*
X129101116Y-107404564D01*
X129325574Y-107740489D01*
X129480182Y-108113746D01*
X129559000Y-108509993D01*
X129559000Y-108914007D01*
X129480182Y-109310254D01*
X129325574Y-109683511D01*
X129325573Y-109683513D01*
X129101116Y-110019436D01*
X128815436Y-110305116D01*
X128479513Y-110529573D01*
X128479512Y-110529574D01*
X128479511Y-110529574D01*
X128106254Y-110684182D01*
X127710007Y-110763000D01*
X127305993Y-110763000D01*
X126909746Y-110684182D01*
X126536489Y-110529574D01*
X126536488Y-110529574D01*
X126536487Y-110529573D01*
X126200564Y-110305116D01*
X125914884Y-110019436D01*
X125690427Y-109683513D01*
X125690426Y-109683511D01*
X125535818Y-109310254D01*
X125457000Y-108914007D01*
X125457000Y-108509993D01*
X125535818Y-108113746D01*
X125690426Y-107740489D01*
X125914884Y-107404564D01*
X126200564Y-107118884D01*
X126536487Y-106894427D01*
X126536489Y-106894426D01*
X126909746Y-106739818D01*
X127305993Y-106661000D01*
X127710007Y-106661000D01*
X128106254Y-106739818D01*
G37*
G36*
X142972549Y-105043116D02*
G01*
X143083734Y-105065232D01*
X143293203Y-105151997D01*
X143481720Y-105277960D01*
X143642040Y-105438280D01*
X143768003Y-105626797D01*
X143854768Y-105836266D01*
X143899000Y-106058636D01*
X143899000Y-106285364D01*
X143854768Y-106507734D01*
X143768003Y-106717203D01*
X143642040Y-106905720D01*
X143481720Y-107066040D01*
X143293203Y-107192003D01*
X143083734Y-107278768D01*
X142972549Y-107300884D01*
X142861365Y-107323000D01*
X142634635Y-107323000D01*
X142523451Y-107300884D01*
X142412266Y-107278768D01*
X142202797Y-107192003D01*
X142014280Y-107066040D01*
X141853960Y-106905720D01*
X141727997Y-106717203D01*
X141641232Y-106507734D01*
X141597000Y-106285364D01*
X141597000Y-106058636D01*
X141641232Y-105836266D01*
X141727997Y-105626797D01*
X141853960Y-105438280D01*
X142014280Y-105277960D01*
X142202797Y-105151997D01*
X142412266Y-105065232D01*
X142523451Y-105043116D01*
X142634635Y-105021000D01*
X142861365Y-105021000D01*
X142972549Y-105043116D01*
G37*
G36*
X123922549Y-105043116D02*
G01*
X124033734Y-105065232D01*
X124243203Y-105151997D01*
X124431720Y-105277960D01*
X124592040Y-105438280D01*
X124718003Y-105626797D01*
X124804768Y-105836266D01*
X124849000Y-106058636D01*
X124849000Y-106285364D01*
X124804768Y-106507734D01*
X124718003Y-106717203D01*
X124592040Y-106905720D01*
X124431720Y-107066040D01*
X124243203Y-107192003D01*
X124033734Y-107278768D01*
X123922549Y-107300884D01*
X123811365Y-107323000D01*
X123584635Y-107323000D01*
X123473451Y-107300884D01*
X123362266Y-107278768D01*
X123152797Y-107192003D01*
X122964280Y-107066040D01*
X122803960Y-106905720D01*
X122677997Y-106717203D01*
X122591232Y-106507734D01*
X122547000Y-106285364D01*
X122547000Y-106058636D01*
X122591232Y-105836266D01*
X122677997Y-105626797D01*
X122803960Y-105438280D01*
X122964280Y-105277960D01*
X123152797Y-105151997D01*
X123362266Y-105065232D01*
X123473451Y-105043116D01*
X123584635Y-105021000D01*
X123811365Y-105021000D01*
X123922549Y-105043116D01*
G37*
G36*
X130272549Y-102503116D02*
G01*
X130383734Y-102525232D01*
X130593203Y-102611997D01*
X130781720Y-102737960D01*
X130942040Y-102898280D01*
X131068003Y-103086797D01*
X131154768Y-103296266D01*
X131199000Y-103518636D01*
X131199000Y-103745364D01*
X131154768Y-103967734D01*
X131068003Y-104177203D01*
X130942040Y-104365720D01*
X130781720Y-104526040D01*
X130593203Y-104652003D01*
X130383734Y-104738768D01*
X130272549Y-104760884D01*
X130161365Y-104783000D01*
X129934635Y-104783000D01*
X129823451Y-104760884D01*
X129712266Y-104738768D01*
X129502797Y-104652003D01*
X129314280Y-104526040D01*
X129153960Y-104365720D01*
X129027997Y-104177203D01*
X128941232Y-103967734D01*
X128897000Y-103745364D01*
X128897000Y-103518636D01*
X128941232Y-103296266D01*
X129027997Y-103086797D01*
X129153960Y-102898280D01*
X129314280Y-102737960D01*
X129502797Y-102611997D01*
X129712266Y-102525232D01*
X129823451Y-102503116D01*
X129934635Y-102481000D01*
X130161365Y-102481000D01*
X130272549Y-102503116D01*
G37*
G36*
X149322549Y-102503116D02*
G01*
X149433734Y-102525232D01*
X149643203Y-102611997D01*
X149831720Y-102737960D01*
X149992040Y-102898280D01*
X150118003Y-103086797D01*
X150204768Y-103296266D01*
X150249000Y-103518636D01*
X150249000Y-103745364D01*
X150204768Y-103967734D01*
X150118003Y-104177203D01*
X149992040Y-104365720D01*
X149831720Y-104526040D01*
X149643203Y-104652003D01*
X149433734Y-104738768D01*
X149322549Y-104760884D01*
X149211365Y-104783000D01*
X148984635Y-104783000D01*
X148873451Y-104760884D01*
X148762266Y-104738768D01*
X148552797Y-104652003D01*
X148364280Y-104526040D01*
X148203960Y-104365720D01*
X148077997Y-104177203D01*
X147991232Y-103967734D01*
X147947000Y-103745364D01*
X147947000Y-103518636D01*
X147991232Y-103296266D01*
X148077997Y-103086797D01*
X148203960Y-102898280D01*
X148364280Y-102737960D01*
X148552797Y-102611997D01*
X148762266Y-102525232D01*
X148873451Y-102503116D01*
X148984635Y-102481000D01*
X149211365Y-102481000D01*
X149322549Y-102503116D01*
G37*
G36*
X126475142Y-93960242D02*
G01*
X126623101Y-94021529D01*
X126756255Y-94110499D01*
X126869501Y-94223745D01*
X126958471Y-94356899D01*
X127019758Y-94504858D01*
X127051000Y-94661925D01*
X127051000Y-94822075D01*
X127019758Y-94979142D01*
X126958471Y-95127101D01*
X126869501Y-95260255D01*
X126756255Y-95373501D01*
X126623101Y-95462471D01*
X126475142Y-95523758D01*
X126318075Y-95555000D01*
X126157925Y-95555000D01*
X126000858Y-95523758D01*
X125852899Y-95462471D01*
X125719745Y-95373501D01*
X125606499Y-95260255D01*
X125517529Y-95127101D01*
X125456242Y-94979142D01*
X125425000Y-94822075D01*
X125425000Y-94661925D01*
X125456242Y-94504858D01*
X125517529Y-94356899D01*
X125606499Y-94223745D01*
X125719745Y-94110499D01*
X125852899Y-94021529D01*
X126000858Y-93960242D01*
X126157925Y-93929000D01*
X126318075Y-93929000D01*
X126475142Y-93960242D01*
G37*
G36*
X129015142Y-93960242D02*
G01*
X129163101Y-94021529D01*
X129296255Y-94110499D01*
X129409501Y-94223745D01*
X129498471Y-94356899D01*
X129559758Y-94504858D01*
X129591000Y-94661925D01*
X129591000Y-94822075D01*
X129559758Y-94979142D01*
X129498471Y-95127101D01*
X129409501Y-95260255D01*
X129296255Y-95373501D01*
X129163101Y-95462471D01*
X129015142Y-95523758D01*
X128858075Y-95555000D01*
X128697925Y-95555000D01*
X128540858Y-95523758D01*
X128392899Y-95462471D01*
X128259745Y-95373501D01*
X128146499Y-95260255D01*
X128057529Y-95127101D01*
X127996242Y-94979142D01*
X127965000Y-94822075D01*
X127965000Y-94661925D01*
X127996242Y-94504858D01*
X128057529Y-94356899D01*
X128146499Y-94223745D01*
X128259745Y-94110499D01*
X128392899Y-94021529D01*
X128540858Y-93960242D01*
X128697925Y-93929000D01*
X128858075Y-93929000D01*
X129015142Y-93960242D01*
G37*
G36*
X145525142Y-93960242D02*
G01*
X145673101Y-94021529D01*
X145806255Y-94110499D01*
X145919501Y-94223745D01*
X146008471Y-94356899D01*
X146069758Y-94504858D01*
X146101000Y-94661925D01*
X146101000Y-94822075D01*
X146069758Y-94979142D01*
X146008471Y-95127101D01*
X145919501Y-95260255D01*
X145806255Y-95373501D01*
X145673101Y-95462471D01*
X145525142Y-95523758D01*
X145368075Y-95555000D01*
X145207925Y-95555000D01*
X145050858Y-95523758D01*
X144902899Y-95462471D01*
X144769745Y-95373501D01*
X144656499Y-95260255D01*
X144567529Y-95127101D01*
X144506242Y-94979142D01*
X144475000Y-94822075D01*
X144475000Y-94661925D01*
X144506242Y-94504858D01*
X144567529Y-94356899D01*
X144656499Y-94223745D01*
X144769745Y-94110499D01*
X144902899Y-94021529D01*
X145050858Y-93960242D01*
X145207925Y-93929000D01*
X145368075Y-93929000D01*
X145525142Y-93960242D01*
G37*
G36*
X148065142Y-93960242D02*
G01*
X148213101Y-94021529D01*
X148346255Y-94110499D01*
X148459501Y-94223745D01*
X148548471Y-94356899D01*
X148609758Y-94504858D01*
X148641000Y-94661925D01*
X148641000Y-94822075D01*
X148609758Y-94979142D01*
X148548471Y-95127101D01*
X148459501Y-95260255D01*
X148346255Y-95373501D01*
X148213101Y-95462471D01*
X148065142Y-95523758D01*
X147908075Y-95555000D01*
X147747925Y-95555000D01*
X147590858Y-95523758D01*
X147442899Y-95462471D01*
X147309745Y-95373501D01*
X147196499Y-95260255D01*
X147107529Y-95127101D01*
X147046242Y-94979142D01*
X147015000Y-94822075D01*
X147015000Y-94661925D01*
X147046242Y-94504858D01*
X147107529Y-94356899D01*
X147196499Y-94223745D01*
X147309745Y-94110499D01*
X147442899Y-94021529D01*
X147590858Y-93960242D01*
X147747925Y-93929000D01*
X147908075Y-93929000D01*
X148065142Y-93960242D01*
G37*
G36*
X147156254Y-87689818D02*
G01*
X147529511Y-87844426D01*
X147529513Y-87844427D01*
X147865436Y-88068884D01*
X148151116Y-88354564D01*
X148375574Y-88690489D01*
X148530182Y-89063746D01*
X148609000Y-89459993D01*
X148609000Y-89864007D01*
X148530182Y-90260254D01*
X148375574Y-90633511D01*
X148375573Y-90633513D01*
X148151116Y-90969436D01*
X147865436Y-91255116D01*
X147529513Y-91479573D01*
X147529512Y-91479574D01*
X147529511Y-91479574D01*
X147156254Y-91634182D01*
X146760007Y-91713000D01*
X146355993Y-91713000D01*
X145959746Y-91634182D01*
X145586489Y-91479574D01*
X145586488Y-91479574D01*
X145586487Y-91479573D01*
X145250564Y-91255116D01*
X144964884Y-90969436D01*
X144740427Y-90633513D01*
X144740426Y-90633511D01*
X144585818Y-90260254D01*
X144507000Y-89864007D01*
X144507000Y-89459993D01*
X144585818Y-89063746D01*
X144740426Y-88690489D01*
X144964884Y-88354564D01*
X145250564Y-88068884D01*
X145586487Y-87844427D01*
X145586489Y-87844426D01*
X145959746Y-87689818D01*
X146355993Y-87611000D01*
X146760007Y-87611000D01*
X147156254Y-87689818D01*
G37*
G36*
X128106254Y-87689818D02*
G01*
X128479511Y-87844426D01*
X128479513Y-87844427D01*
X128815436Y-88068884D01*
X129101116Y-88354564D01*
X129325574Y-88690489D01*
X129480182Y-89063746D01*
X129559000Y-89459993D01*
X129559000Y-89864007D01*
X129480182Y-90260254D01*
X129325574Y-90633511D01*
X129325573Y-90633513D01*
X129101116Y-90969436D01*
X128815436Y-91255116D01*
X128479513Y-91479573D01*
X128479512Y-91479574D01*
X128479511Y-91479574D01*
X128106254Y-91634182D01*
X127710007Y-91713000D01*
X127305993Y-91713000D01*
X126909746Y-91634182D01*
X126536489Y-91479574D01*
X126536488Y-91479574D01*
X126536487Y-91479573D01*
X126200564Y-91255116D01*
X125914884Y-90969436D01*
X125690427Y-90633513D01*
X125690426Y-90633511D01*
X125535818Y-90260254D01*
X125457000Y-89864007D01*
X125457000Y-89459993D01*
X125535818Y-89063746D01*
X125690426Y-88690489D01*
X125914884Y-88354564D01*
X126200564Y-88068884D01*
X126536487Y-87844427D01*
X126536489Y-87844426D01*
X126909746Y-87689818D01*
X127305993Y-87611000D01*
X127710007Y-87611000D01*
X128106254Y-87689818D01*
G37*
G36*
X123922549Y-85993116D02*
G01*
X124033734Y-86015232D01*
X124243203Y-86101997D01*
X124431720Y-86227960D01*
X124592040Y-86388280D01*
X124718003Y-86576797D01*
X124804768Y-86786266D01*
X124849000Y-87008636D01*
X124849000Y-87235364D01*
X124804768Y-87457734D01*
X124718003Y-87667203D01*
X124592040Y-87855720D01*
X124431720Y-88016040D01*
X124243203Y-88142003D01*
X124033734Y-88228768D01*
X123922549Y-88250884D01*
X123811365Y-88273000D01*
X123584635Y-88273000D01*
X123473451Y-88250884D01*
X123362266Y-88228768D01*
X123152797Y-88142003D01*
X122964280Y-88016040D01*
X122803960Y-87855720D01*
X122677997Y-87667203D01*
X122591232Y-87457734D01*
X122547000Y-87235364D01*
X122547000Y-87008636D01*
X122591232Y-86786266D01*
X122677997Y-86576797D01*
X122803960Y-86388280D01*
X122964280Y-86227960D01*
X123152797Y-86101997D01*
X123362266Y-86015232D01*
X123473451Y-85993116D01*
X123584635Y-85971000D01*
X123811365Y-85971000D01*
X123922549Y-85993116D01*
G37*
G36*
X141510212Y-83882249D02*
G01*
X141604651Y-83910897D01*
X141691687Y-83957418D01*
X141767975Y-84020025D01*
X141830582Y-84096313D01*
X141877103Y-84183348D01*
X141905751Y-84277787D01*
X141913000Y-84351388D01*
X141913000Y-85900612D01*
X141905751Y-85974213D01*
X141883027Y-86049124D01*
X141878248Y-86073147D01*
X141878248Y-86097651D01*
X141883028Y-86121684D01*
X141892406Y-86144323D01*
X141906019Y-86164697D01*
X141923346Y-86182024D01*
X141943721Y-86195638D01*
X141966359Y-86205015D01*
X141990393Y-86209796D01*
X142014897Y-86209796D01*
X142038930Y-86205016D01*
X142061569Y-86195638D01*
X142072091Y-86189332D01*
X142139452Y-86144323D01*
X142202797Y-86101997D01*
X142412266Y-86015232D01*
X142523451Y-85993116D01*
X142634635Y-85971000D01*
X142861365Y-85971000D01*
X142972549Y-85993116D01*
X143083734Y-86015232D01*
X143293203Y-86101997D01*
X143481720Y-86227960D01*
X143642040Y-86388280D01*
X143768003Y-86576797D01*
X143854768Y-86786266D01*
X143899000Y-87008636D01*
X143899000Y-87235364D01*
X143854768Y-87457734D01*
X143768003Y-87667203D01*
X143642040Y-87855720D01*
X143481720Y-88016040D01*
X143293203Y-88142003D01*
X143083734Y-88228768D01*
X142972549Y-88250884D01*
X142861365Y-88273000D01*
X142634635Y-88273000D01*
X142523451Y-88250884D01*
X142412266Y-88228768D01*
X142202797Y-88142003D01*
X142014280Y-88016040D01*
X141853960Y-87855720D01*
X141727997Y-87667203D01*
X141641232Y-87457734D01*
X141597000Y-87235364D01*
X141597000Y-87008636D01*
X141641232Y-86786266D01*
X141727997Y-86576797D01*
X141764263Y-86522521D01*
X141775813Y-86500912D01*
X141782926Y-86477463D01*
X141785328Y-86453077D01*
X141782926Y-86428691D01*
X141775813Y-86405242D01*
X141764262Y-86383631D01*
X141748717Y-86364689D01*
X141729775Y-86349144D01*
X141708164Y-86337593D01*
X141684715Y-86330480D01*
X141660329Y-86328078D01*
X141635943Y-86330480D01*
X141615197Y-86337903D01*
X141604657Y-86341100D01*
X141604652Y-86341103D01*
X141510213Y-86369751D01*
X141412000Y-86379424D01*
X141313788Y-86369751D01*
X141219349Y-86341103D01*
X141132314Y-86294582D01*
X141056026Y-86231975D01*
X140993419Y-86155687D01*
X140946898Y-86068652D01*
X140918250Y-85974213D01*
X140911001Y-85900612D01*
X140911000Y-84351389D01*
X140918249Y-84277788D01*
X140946897Y-84183349D01*
X140993418Y-84096313D01*
X141056025Y-84020025D01*
X141132313Y-83957418D01*
X141219348Y-83910897D01*
X141313787Y-83882249D01*
X141412000Y-83872576D01*
X141510212Y-83882249D01*
G37*
G36*
X134190231Y-85712705D02*
G01*
X134228967Y-85720410D01*
X134259195Y-85732931D01*
X134301944Y-85750638D01*
X134367622Y-85794523D01*
X134423478Y-85850379D01*
X134433067Y-85864730D01*
X134448613Y-85883672D01*
X134467555Y-85899217D01*
X134489165Y-85910768D01*
X134512614Y-85917881D01*
X134537001Y-85920283D01*
X134561387Y-85917881D01*
X134584836Y-85910768D01*
X134606446Y-85899217D01*
X134625388Y-85883671D01*
X134640933Y-85864730D01*
X134650522Y-85850379D01*
X134706378Y-85794523D01*
X134772056Y-85750638D01*
X134814805Y-85732931D01*
X134845033Y-85720410D01*
X134883769Y-85712705D01*
X134922504Y-85705000D01*
X135001496Y-85705000D01*
X135040231Y-85712705D01*
X135078967Y-85720410D01*
X135109195Y-85732931D01*
X135151944Y-85750638D01*
X135217622Y-85794523D01*
X135273478Y-85850379D01*
X135283067Y-85864730D01*
X135298613Y-85883672D01*
X135317555Y-85899217D01*
X135339165Y-85910768D01*
X135362614Y-85917881D01*
X135387001Y-85920283D01*
X135411387Y-85917881D01*
X135434836Y-85910768D01*
X135456446Y-85899217D01*
X135475388Y-85883671D01*
X135490933Y-85864730D01*
X135500522Y-85850379D01*
X135556378Y-85794523D01*
X135622056Y-85750638D01*
X135664805Y-85732931D01*
X135695033Y-85720410D01*
X135733769Y-85712705D01*
X135772504Y-85705000D01*
X135851496Y-85705000D01*
X135890231Y-85712705D01*
X135928967Y-85720410D01*
X135959195Y-85732931D01*
X136001944Y-85750638D01*
X136067622Y-85794523D01*
X136123478Y-85850379D01*
X136133067Y-85864730D01*
X136148613Y-85883672D01*
X136167555Y-85899217D01*
X136189165Y-85910768D01*
X136212614Y-85917881D01*
X136237001Y-85920283D01*
X136261387Y-85917881D01*
X136284836Y-85910768D01*
X136306446Y-85899217D01*
X136325388Y-85883671D01*
X136340933Y-85864730D01*
X136350522Y-85850379D01*
X136406378Y-85794523D01*
X136472056Y-85750638D01*
X136514805Y-85732931D01*
X136545033Y-85720410D01*
X136583769Y-85712705D01*
X136622504Y-85705000D01*
X136701496Y-85705000D01*
X136740231Y-85712705D01*
X136778967Y-85720410D01*
X136809195Y-85732931D01*
X136851944Y-85750638D01*
X136917622Y-85794523D01*
X136973478Y-85850379D01*
X136983067Y-85864730D01*
X136998613Y-85883672D01*
X137017555Y-85899217D01*
X137039165Y-85910768D01*
X137062614Y-85917881D01*
X137087001Y-85920283D01*
X137111387Y-85917881D01*
X137134836Y-85910768D01*
X137156446Y-85899217D01*
X137175388Y-85883671D01*
X137190933Y-85864730D01*
X137200522Y-85850379D01*
X137256378Y-85794523D01*
X137322056Y-85750638D01*
X137364805Y-85732931D01*
X137395033Y-85720410D01*
X137433769Y-85712705D01*
X137472504Y-85705000D01*
X137551496Y-85705000D01*
X137590231Y-85712705D01*
X137628967Y-85720410D01*
X137659195Y-85732931D01*
X137701944Y-85750638D01*
X137767622Y-85794523D01*
X137823478Y-85850379D01*
X137833067Y-85864730D01*
X137848613Y-85883672D01*
X137867555Y-85899217D01*
X137889165Y-85910768D01*
X137912614Y-85917881D01*
X137937001Y-85920283D01*
X137961387Y-85917881D01*
X137984836Y-85910768D01*
X138006446Y-85899217D01*
X138025388Y-85883671D01*
X138040933Y-85864730D01*
X138050522Y-85850379D01*
X138106378Y-85794523D01*
X138172056Y-85750638D01*
X138214805Y-85732931D01*
X138245033Y-85720410D01*
X138283769Y-85712705D01*
X138322504Y-85705000D01*
X138401496Y-85705000D01*
X138440231Y-85712705D01*
X138478967Y-85720410D01*
X138509195Y-85732931D01*
X138551944Y-85750638D01*
X138617622Y-85794523D01*
X138673478Y-85850379D01*
X138683067Y-85864730D01*
X138698613Y-85883672D01*
X138717555Y-85899217D01*
X138739165Y-85910768D01*
X138762614Y-85917881D01*
X138787001Y-85920283D01*
X138811387Y-85917881D01*
X138834836Y-85910768D01*
X138856446Y-85899217D01*
X138875388Y-85883671D01*
X138890933Y-85864730D01*
X138900522Y-85850379D01*
X138956378Y-85794523D01*
X139022056Y-85750638D01*
X139064805Y-85732931D01*
X139095033Y-85720410D01*
X139133769Y-85712705D01*
X139172504Y-85705000D01*
X139251496Y-85705000D01*
X139290231Y-85712705D01*
X139328967Y-85720410D01*
X139359195Y-85732931D01*
X139401944Y-85750638D01*
X139467622Y-85794523D01*
X139523478Y-85850379D01*
X139533067Y-85864730D01*
X139548613Y-85883672D01*
X139567555Y-85899217D01*
X139589165Y-85910768D01*
X139612614Y-85917881D01*
X139637001Y-85920283D01*
X139661387Y-85917881D01*
X139684836Y-85910768D01*
X139706446Y-85899217D01*
X139725388Y-85883671D01*
X139740933Y-85864730D01*
X139750522Y-85850379D01*
X139806378Y-85794523D01*
X139872056Y-85750638D01*
X139914805Y-85732931D01*
X139945033Y-85720410D01*
X139983769Y-85712705D01*
X140022504Y-85705000D01*
X140101496Y-85705000D01*
X140140231Y-85712705D01*
X140178967Y-85720410D01*
X140209195Y-85732931D01*
X140251944Y-85750638D01*
X140317622Y-85794523D01*
X140373477Y-85850378D01*
X140417362Y-85916056D01*
X140435069Y-85958805D01*
X140447590Y-85989033D01*
X140463000Y-86066505D01*
X140463000Y-86145495D01*
X140447590Y-86222967D01*
X140435069Y-86253195D01*
X140417362Y-86295944D01*
X140373477Y-86361622D01*
X140317622Y-86417477D01*
X140251944Y-86461362D01*
X140213072Y-86477463D01*
X140178967Y-86491590D01*
X140140231Y-86499295D01*
X140101496Y-86507000D01*
X140022504Y-86507000D01*
X139983769Y-86499295D01*
X139945033Y-86491590D01*
X139910928Y-86477463D01*
X139872056Y-86461362D01*
X139806378Y-86417477D01*
X139750522Y-86361621D01*
X139740933Y-86347270D01*
X139725387Y-86328328D01*
X139706445Y-86312783D01*
X139684835Y-86301232D01*
X139661386Y-86294119D01*
X139636999Y-86291717D01*
X139612613Y-86294119D01*
X139589164Y-86301232D01*
X139567554Y-86312783D01*
X139548612Y-86328329D01*
X139533067Y-86347270D01*
X139523478Y-86361621D01*
X139467622Y-86417477D01*
X139401944Y-86461362D01*
X139363072Y-86477463D01*
X139328967Y-86491590D01*
X139290231Y-86499295D01*
X139251496Y-86507000D01*
X139172504Y-86507000D01*
X139133769Y-86499295D01*
X139095033Y-86491590D01*
X139060928Y-86477463D01*
X139022056Y-86461362D01*
X138956378Y-86417477D01*
X138900522Y-86361621D01*
X138890933Y-86347270D01*
X138875387Y-86328328D01*
X138856445Y-86312783D01*
X138834835Y-86301232D01*
X138811386Y-86294119D01*
X138786999Y-86291717D01*
X138762613Y-86294119D01*
X138739164Y-86301232D01*
X138717554Y-86312783D01*
X138698612Y-86328329D01*
X138683067Y-86347270D01*
X138673478Y-86361621D01*
X138617622Y-86417477D01*
X138551944Y-86461362D01*
X138513072Y-86477463D01*
X138478967Y-86491590D01*
X138440231Y-86499295D01*
X138401496Y-86507000D01*
X138322504Y-86507000D01*
X138283769Y-86499295D01*
X138245033Y-86491590D01*
X138210928Y-86477463D01*
X138172056Y-86461362D01*
X138106378Y-86417477D01*
X138050522Y-86361621D01*
X138040933Y-86347270D01*
X138025387Y-86328328D01*
X138006445Y-86312783D01*
X137984835Y-86301232D01*
X137961386Y-86294119D01*
X137936999Y-86291717D01*
X137912613Y-86294119D01*
X137889164Y-86301232D01*
X137867554Y-86312783D01*
X137848612Y-86328329D01*
X137833067Y-86347270D01*
X137823478Y-86361621D01*
X137767622Y-86417477D01*
X137701944Y-86461362D01*
X137663072Y-86477463D01*
X137628967Y-86491590D01*
X137590231Y-86499295D01*
X137551496Y-86507000D01*
X137472504Y-86507000D01*
X137433769Y-86499295D01*
X137395033Y-86491590D01*
X137360928Y-86477463D01*
X137322056Y-86461362D01*
X137256378Y-86417477D01*
X137200522Y-86361621D01*
X137190933Y-86347270D01*
X137175387Y-86328328D01*
X137156445Y-86312783D01*
X137134835Y-86301232D01*
X137111386Y-86294119D01*
X137086999Y-86291717D01*
X137062613Y-86294119D01*
X137039164Y-86301232D01*
X137017554Y-86312783D01*
X136998612Y-86328329D01*
X136983067Y-86347270D01*
X136973478Y-86361621D01*
X136917622Y-86417477D01*
X136851944Y-86461362D01*
X136813072Y-86477463D01*
X136778967Y-86491590D01*
X136740231Y-86499295D01*
X136701496Y-86507000D01*
X136622504Y-86507000D01*
X136583769Y-86499295D01*
X136545033Y-86491590D01*
X136510928Y-86477463D01*
X136472056Y-86461362D01*
X136406378Y-86417477D01*
X136350522Y-86361621D01*
X136340933Y-86347270D01*
X136325387Y-86328328D01*
X136306445Y-86312783D01*
X136284835Y-86301232D01*
X136261386Y-86294119D01*
X136236999Y-86291717D01*
X136212613Y-86294119D01*
X136189164Y-86301232D01*
X136167554Y-86312783D01*
X136148612Y-86328329D01*
X136133067Y-86347270D01*
X136123478Y-86361621D01*
X136067622Y-86417477D01*
X136001944Y-86461362D01*
X135963072Y-86477463D01*
X135928967Y-86491590D01*
X135890231Y-86499295D01*
X135851496Y-86507000D01*
X135772504Y-86507000D01*
X135733769Y-86499295D01*
X135695033Y-86491590D01*
X135660928Y-86477463D01*
X135622056Y-86461362D01*
X135556378Y-86417477D01*
X135500522Y-86361621D01*
X135490933Y-86347270D01*
X135475387Y-86328328D01*
X135456445Y-86312783D01*
X135434835Y-86301232D01*
X135411386Y-86294119D01*
X135386999Y-86291717D01*
X135362613Y-86294119D01*
X135339164Y-86301232D01*
X135317554Y-86312783D01*
X135298612Y-86328329D01*
X135283067Y-86347270D01*
X135273478Y-86361621D01*
X135217622Y-86417477D01*
X135151944Y-86461362D01*
X135113072Y-86477463D01*
X135078967Y-86491590D01*
X135040231Y-86499295D01*
X135001496Y-86507000D01*
X134922504Y-86507000D01*
X134883769Y-86499295D01*
X134845033Y-86491590D01*
X134810928Y-86477463D01*
X134772056Y-86461362D01*
X134706378Y-86417477D01*
X134650522Y-86361621D01*
X134640933Y-86347270D01*
X134625387Y-86328328D01*
X134606445Y-86312783D01*
X134584835Y-86301232D01*
X134561386Y-86294119D01*
X134536999Y-86291717D01*
X134512613Y-86294119D01*
X134489164Y-86301232D01*
X134467554Y-86312783D01*
X134448612Y-86328329D01*
X134433067Y-86347270D01*
X134423478Y-86361621D01*
X134367622Y-86417477D01*
X134301944Y-86461362D01*
X134263072Y-86477463D01*
X134228967Y-86491590D01*
X134190231Y-86499295D01*
X134151496Y-86507000D01*
X134072504Y-86507000D01*
X134033769Y-86499295D01*
X133995033Y-86491590D01*
X133960928Y-86477463D01*
X133922056Y-86461362D01*
X133856378Y-86417477D01*
X133800523Y-86361622D01*
X133756638Y-86295944D01*
X133738931Y-86253195D01*
X133726410Y-86222967D01*
X133711000Y-86145495D01*
X133711000Y-86066505D01*
X133726410Y-85989033D01*
X133738931Y-85958805D01*
X133756638Y-85916056D01*
X133800523Y-85850378D01*
X133856378Y-85794523D01*
X133922056Y-85750638D01*
X133964805Y-85732931D01*
X133995033Y-85720410D01*
X134033769Y-85712705D01*
X134072504Y-85705000D01*
X134151496Y-85705000D01*
X134190231Y-85712705D01*
G37*
G36*
X132860212Y-83882249D02*
G01*
X132954651Y-83910897D01*
X133041687Y-83957418D01*
X133117975Y-84020025D01*
X133180582Y-84096313D01*
X133227103Y-84183348D01*
X133255751Y-84277787D01*
X133263000Y-84351388D01*
X133263000Y-85900612D01*
X133255751Y-85974213D01*
X133227103Y-86068652D01*
X133180582Y-86155687D01*
X133117975Y-86231975D01*
X133041687Y-86294582D01*
X132954652Y-86341103D01*
X132860213Y-86369751D01*
X132762000Y-86379424D01*
X132663788Y-86369751D01*
X132569349Y-86341103D01*
X132482314Y-86294582D01*
X132406026Y-86231975D01*
X132343419Y-86155687D01*
X132296898Y-86068652D01*
X132268250Y-85974213D01*
X132261001Y-85900612D01*
X132261000Y-84351389D01*
X132268249Y-84277788D01*
X132296897Y-84183349D01*
X132343418Y-84096313D01*
X132406025Y-84020025D01*
X132482313Y-83957418D01*
X132569348Y-83910897D01*
X132663787Y-83882249D01*
X132762000Y-83872576D01*
X132860212Y-83882249D01*
G37*
G36*
X149322549Y-83453116D02*
G01*
X149433734Y-83475232D01*
X149643203Y-83561997D01*
X149831720Y-83687960D01*
X149992040Y-83848280D01*
X150118003Y-84036797D01*
X150204768Y-84246266D01*
X150249000Y-84468636D01*
X150249000Y-84695364D01*
X150204768Y-84917734D01*
X150118003Y-85127203D01*
X149992040Y-85315720D01*
X149831720Y-85476040D01*
X149643203Y-85602003D01*
X149433734Y-85688768D01*
X149352130Y-85705000D01*
X149211365Y-85733000D01*
X148984635Y-85733000D01*
X148843870Y-85705000D01*
X148762266Y-85688768D01*
X148552797Y-85602003D01*
X148364280Y-85476040D01*
X148203960Y-85315720D01*
X148077997Y-85127203D01*
X147991232Y-84917734D01*
X147947000Y-84695364D01*
X147947000Y-84468636D01*
X147991232Y-84246266D01*
X148077997Y-84036797D01*
X148203960Y-83848280D01*
X148364280Y-83687960D01*
X148552797Y-83561997D01*
X148762266Y-83475232D01*
X148873451Y-83453116D01*
X148984635Y-83431000D01*
X149211365Y-83431000D01*
X149322549Y-83453116D01*
G37*
G36*
X130272549Y-83453116D02*
G01*
X130383734Y-83475232D01*
X130593203Y-83561997D01*
X130781720Y-83687960D01*
X130942040Y-83848280D01*
X131068003Y-84036797D01*
X131154768Y-84246266D01*
X131199000Y-84468636D01*
X131199000Y-84695364D01*
X131154768Y-84917734D01*
X131068003Y-85127203D01*
X130942040Y-85315720D01*
X130781720Y-85476040D01*
X130593203Y-85602003D01*
X130383734Y-85688768D01*
X130302130Y-85705000D01*
X130161365Y-85733000D01*
X129934635Y-85733000D01*
X129793870Y-85705000D01*
X129712266Y-85688768D01*
X129502797Y-85602003D01*
X129314280Y-85476040D01*
X129153960Y-85315720D01*
X129027997Y-85127203D01*
X128941232Y-84917734D01*
X128897000Y-84695364D01*
X128897000Y-84468636D01*
X128941232Y-84246266D01*
X129027997Y-84036797D01*
X129153960Y-83848280D01*
X129314280Y-83687960D01*
X129502797Y-83561997D01*
X129712266Y-83475232D01*
X129823451Y-83453116D01*
X129934635Y-83431000D01*
X130161365Y-83431000D01*
X130272549Y-83453116D01*
G37*
G36*
X134190231Y-84362705D02*
G01*
X134228967Y-84370410D01*
X134259195Y-84382931D01*
X134301944Y-84400638D01*
X134367622Y-84444523D01*
X134423478Y-84500379D01*
X134433067Y-84514730D01*
X134448613Y-84533672D01*
X134467555Y-84549217D01*
X134489165Y-84560768D01*
X134512614Y-84567881D01*
X134537001Y-84570283D01*
X134561387Y-84567881D01*
X134584836Y-84560768D01*
X134606446Y-84549217D01*
X134625388Y-84533671D01*
X134640933Y-84514730D01*
X134650522Y-84500379D01*
X134706378Y-84444523D01*
X134772056Y-84400638D01*
X134814805Y-84382931D01*
X134845033Y-84370410D01*
X134883769Y-84362705D01*
X134922504Y-84355000D01*
X135001496Y-84355000D01*
X135040231Y-84362705D01*
X135078967Y-84370410D01*
X135109195Y-84382931D01*
X135151944Y-84400638D01*
X135217622Y-84444523D01*
X135273478Y-84500379D01*
X135283067Y-84514730D01*
X135298613Y-84533672D01*
X135317555Y-84549217D01*
X135339165Y-84560768D01*
X135362614Y-84567881D01*
X135387001Y-84570283D01*
X135411387Y-84567881D01*
X135434836Y-84560768D01*
X135456446Y-84549217D01*
X135475388Y-84533671D01*
X135490933Y-84514730D01*
X135500522Y-84500379D01*
X135556378Y-84444523D01*
X135622056Y-84400638D01*
X135664805Y-84382931D01*
X135695033Y-84370410D01*
X135733769Y-84362705D01*
X135772504Y-84355000D01*
X135851496Y-84355000D01*
X135890231Y-84362705D01*
X135928967Y-84370410D01*
X135959195Y-84382931D01*
X136001944Y-84400638D01*
X136067622Y-84444523D01*
X136123478Y-84500379D01*
X136133067Y-84514730D01*
X136148613Y-84533672D01*
X136167555Y-84549217D01*
X136189165Y-84560768D01*
X136212614Y-84567881D01*
X136237001Y-84570283D01*
X136261387Y-84567881D01*
X136284836Y-84560768D01*
X136306446Y-84549217D01*
X136325388Y-84533671D01*
X136340933Y-84514730D01*
X136350522Y-84500379D01*
X136406378Y-84444523D01*
X136472056Y-84400638D01*
X136514805Y-84382931D01*
X136545033Y-84370410D01*
X136583769Y-84362705D01*
X136622504Y-84355000D01*
X136701496Y-84355000D01*
X136740231Y-84362705D01*
X136778967Y-84370410D01*
X136809195Y-84382931D01*
X136851944Y-84400638D01*
X136917622Y-84444523D01*
X136973478Y-84500379D01*
X136983067Y-84514730D01*
X136998613Y-84533672D01*
X137017555Y-84549217D01*
X137039165Y-84560768D01*
X137062614Y-84567881D01*
X137087001Y-84570283D01*
X137111387Y-84567881D01*
X137134836Y-84560768D01*
X137156446Y-84549217D01*
X137175388Y-84533671D01*
X137190933Y-84514730D01*
X137200522Y-84500379D01*
X137256378Y-84444523D01*
X137322056Y-84400638D01*
X137364805Y-84382931D01*
X137395033Y-84370410D01*
X137433769Y-84362705D01*
X137472504Y-84355000D01*
X137551496Y-84355000D01*
X137590231Y-84362705D01*
X137628967Y-84370410D01*
X137659195Y-84382931D01*
X137701944Y-84400638D01*
X137767622Y-84444523D01*
X137823478Y-84500379D01*
X137833067Y-84514730D01*
X137848613Y-84533672D01*
X137867555Y-84549217D01*
X137889165Y-84560768D01*
X137912614Y-84567881D01*
X137937001Y-84570283D01*
X137961387Y-84567881D01*
X137984836Y-84560768D01*
X138006446Y-84549217D01*
X138025388Y-84533671D01*
X138040933Y-84514730D01*
X138050522Y-84500379D01*
X138106378Y-84444523D01*
X138172056Y-84400638D01*
X138214805Y-84382931D01*
X138245033Y-84370410D01*
X138283769Y-84362705D01*
X138322504Y-84355000D01*
X138401496Y-84355000D01*
X138440231Y-84362705D01*
X138478967Y-84370410D01*
X138509195Y-84382931D01*
X138551944Y-84400638D01*
X138617622Y-84444523D01*
X138673478Y-84500379D01*
X138683067Y-84514730D01*
X138698613Y-84533672D01*
X138717555Y-84549217D01*
X138739165Y-84560768D01*
X138762614Y-84567881D01*
X138787001Y-84570283D01*
X138811387Y-84567881D01*
X138834836Y-84560768D01*
X138856446Y-84549217D01*
X138875388Y-84533671D01*
X138890933Y-84514730D01*
X138900522Y-84500379D01*
X138956378Y-84444523D01*
X139022056Y-84400638D01*
X139064805Y-84382931D01*
X139095033Y-84370410D01*
X139133769Y-84362705D01*
X139172504Y-84355000D01*
X139251496Y-84355000D01*
X139290231Y-84362705D01*
X139328967Y-84370410D01*
X139359195Y-84382931D01*
X139401944Y-84400638D01*
X139467622Y-84444523D01*
X139523478Y-84500379D01*
X139533067Y-84514730D01*
X139548613Y-84533672D01*
X139567555Y-84549217D01*
X139589165Y-84560768D01*
X139612614Y-84567881D01*
X139637001Y-84570283D01*
X139661387Y-84567881D01*
X139684836Y-84560768D01*
X139706446Y-84549217D01*
X139725388Y-84533671D01*
X139740933Y-84514730D01*
X139750522Y-84500379D01*
X139806378Y-84444523D01*
X139872056Y-84400638D01*
X139914805Y-84382931D01*
X139945033Y-84370410D01*
X139983769Y-84362705D01*
X140022504Y-84355000D01*
X140101496Y-84355000D01*
X140140231Y-84362705D01*
X140178967Y-84370410D01*
X140209195Y-84382931D01*
X140251944Y-84400638D01*
X140317622Y-84444523D01*
X140373477Y-84500378D01*
X140417362Y-84566056D01*
X140447590Y-84639034D01*
X140463000Y-84716504D01*
X140463000Y-84795496D01*
X140447590Y-84872966D01*
X140417362Y-84945944D01*
X140373477Y-85011622D01*
X140317622Y-85067477D01*
X140251944Y-85111362D01*
X140213705Y-85127201D01*
X140178967Y-85141590D01*
X140140231Y-85149295D01*
X140101496Y-85157000D01*
X140022504Y-85157000D01*
X139983769Y-85149295D01*
X139945033Y-85141590D01*
X139910295Y-85127201D01*
X139872056Y-85111362D01*
X139806378Y-85067477D01*
X139750522Y-85011621D01*
X139740933Y-84997270D01*
X139725387Y-84978328D01*
X139706445Y-84962783D01*
X139684835Y-84951232D01*
X139661386Y-84944119D01*
X139636999Y-84941717D01*
X139612613Y-84944119D01*
X139589164Y-84951232D01*
X139567554Y-84962783D01*
X139548612Y-84978329D01*
X139533067Y-84997270D01*
X139523478Y-85011621D01*
X139467622Y-85067477D01*
X139401944Y-85111362D01*
X139363705Y-85127201D01*
X139328967Y-85141590D01*
X139290231Y-85149295D01*
X139251496Y-85157000D01*
X139172504Y-85157000D01*
X139133769Y-85149295D01*
X139095033Y-85141590D01*
X139060295Y-85127201D01*
X139022056Y-85111362D01*
X138956378Y-85067477D01*
X138900522Y-85011621D01*
X138890933Y-84997270D01*
X138875387Y-84978328D01*
X138856445Y-84962783D01*
X138834835Y-84951232D01*
X138811386Y-84944119D01*
X138786999Y-84941717D01*
X138762613Y-84944119D01*
X138739164Y-84951232D01*
X138717554Y-84962783D01*
X138698612Y-84978329D01*
X138683067Y-84997270D01*
X138673478Y-85011621D01*
X138617622Y-85067477D01*
X138551944Y-85111362D01*
X138513705Y-85127201D01*
X138478967Y-85141590D01*
X138440231Y-85149295D01*
X138401496Y-85157000D01*
X138322504Y-85157000D01*
X138283769Y-85149295D01*
X138245033Y-85141590D01*
X138210295Y-85127201D01*
X138172056Y-85111362D01*
X138106378Y-85067477D01*
X138050522Y-85011621D01*
X138040933Y-84997270D01*
X138025387Y-84978328D01*
X138006445Y-84962783D01*
X137984835Y-84951232D01*
X137961386Y-84944119D01*
X137936999Y-84941717D01*
X137912613Y-84944119D01*
X137889164Y-84951232D01*
X137867554Y-84962783D01*
X137848612Y-84978329D01*
X137833067Y-84997270D01*
X137823478Y-85011621D01*
X137767622Y-85067477D01*
X137701944Y-85111362D01*
X137663705Y-85127201D01*
X137628967Y-85141590D01*
X137590231Y-85149295D01*
X137551496Y-85157000D01*
X137472504Y-85157000D01*
X137433769Y-85149295D01*
X137395033Y-85141590D01*
X137360295Y-85127201D01*
X137322056Y-85111362D01*
X137256378Y-85067477D01*
X137200522Y-85011621D01*
X137190933Y-84997270D01*
X137175387Y-84978328D01*
X137156445Y-84962783D01*
X137134835Y-84951232D01*
X137111386Y-84944119D01*
X137086999Y-84941717D01*
X137062613Y-84944119D01*
X137039164Y-84951232D01*
X137017554Y-84962783D01*
X136998612Y-84978329D01*
X136983067Y-84997270D01*
X136973478Y-85011621D01*
X136917622Y-85067477D01*
X136851944Y-85111362D01*
X136813705Y-85127201D01*
X136778967Y-85141590D01*
X136740231Y-85149295D01*
X136701496Y-85157000D01*
X136622504Y-85157000D01*
X136583769Y-85149295D01*
X136545033Y-85141590D01*
X136510295Y-85127201D01*
X136472056Y-85111362D01*
X136406378Y-85067477D01*
X136350522Y-85011621D01*
X136340933Y-84997270D01*
X136325387Y-84978328D01*
X136306445Y-84962783D01*
X136284835Y-84951232D01*
X136261386Y-84944119D01*
X136236999Y-84941717D01*
X136212613Y-84944119D01*
X136189164Y-84951232D01*
X136167554Y-84962783D01*
X136148612Y-84978329D01*
X136133067Y-84997270D01*
X136123478Y-85011621D01*
X136067622Y-85067477D01*
X136001944Y-85111362D01*
X135963705Y-85127201D01*
X135928967Y-85141590D01*
X135890231Y-85149295D01*
X135851496Y-85157000D01*
X135772504Y-85157000D01*
X135733769Y-85149295D01*
X135695033Y-85141590D01*
X135660295Y-85127201D01*
X135622056Y-85111362D01*
X135556378Y-85067477D01*
X135500522Y-85011621D01*
X135490933Y-84997270D01*
X135475387Y-84978328D01*
X135456445Y-84962783D01*
X135434835Y-84951232D01*
X135411386Y-84944119D01*
X135386999Y-84941717D01*
X135362613Y-84944119D01*
X135339164Y-84951232D01*
X135317554Y-84962783D01*
X135298612Y-84978329D01*
X135283067Y-84997270D01*
X135273478Y-85011621D01*
X135217622Y-85067477D01*
X135151944Y-85111362D01*
X135113705Y-85127201D01*
X135078967Y-85141590D01*
X135040231Y-85149295D01*
X135001496Y-85157000D01*
X134922504Y-85157000D01*
X134883769Y-85149295D01*
X134845033Y-85141590D01*
X134810295Y-85127201D01*
X134772056Y-85111362D01*
X134706378Y-85067477D01*
X134650522Y-85011621D01*
X134640933Y-84997270D01*
X134625387Y-84978328D01*
X134606445Y-84962783D01*
X134584835Y-84951232D01*
X134561386Y-84944119D01*
X134536999Y-84941717D01*
X134512613Y-84944119D01*
X134489164Y-84951232D01*
X134467554Y-84962783D01*
X134448612Y-84978329D01*
X134433067Y-84997270D01*
X134423478Y-85011621D01*
X134367622Y-85067477D01*
X134301944Y-85111362D01*
X134263705Y-85127201D01*
X134228967Y-85141590D01*
X134190231Y-85149295D01*
X134151496Y-85157000D01*
X134072504Y-85157000D01*
X134033769Y-85149295D01*
X133995033Y-85141590D01*
X133960295Y-85127201D01*
X133922056Y-85111362D01*
X133856378Y-85067477D01*
X133800523Y-85011622D01*
X133756638Y-84945944D01*
X133726410Y-84872966D01*
X133711000Y-84795496D01*
X133711000Y-84716504D01*
X133726410Y-84639034D01*
X133756638Y-84566056D01*
X133800523Y-84500378D01*
X133856378Y-84444523D01*
X133922056Y-84400638D01*
X133964805Y-84382931D01*
X133995033Y-84370410D01*
X134033769Y-84362705D01*
X134072504Y-84355000D01*
X134151496Y-84355000D01*
X134190231Y-84362705D01*
G37*
G36*
X141510212Y-80852249D02*
G01*
X141604651Y-80880897D01*
X141691687Y-80927418D01*
X141767975Y-80990025D01*
X141830582Y-81066313D01*
X141877103Y-81153348D01*
X141905751Y-81247787D01*
X141913000Y-81321388D01*
X141913000Y-82170612D01*
X141905751Y-82244213D01*
X141877103Y-82338652D01*
X141830582Y-82425687D01*
X141767975Y-82501975D01*
X141691687Y-82564582D01*
X141604652Y-82611103D01*
X141510213Y-82639751D01*
X141412000Y-82649424D01*
X141313788Y-82639751D01*
X141219349Y-82611103D01*
X141132314Y-82564582D01*
X141056026Y-82501975D01*
X140993419Y-82425687D01*
X140946898Y-82338652D01*
X140918250Y-82244213D01*
X140911001Y-82170612D01*
X140911000Y-82170602D01*
X140911000Y-81321389D01*
X140918249Y-81247788D01*
X140946897Y-81153349D01*
X140993418Y-81066313D01*
X141056025Y-80990025D01*
X141132313Y-80927418D01*
X141219348Y-80880897D01*
X141313787Y-80852249D01*
X141412000Y-80842576D01*
X141510212Y-80852249D01*
G37*
G36*
X132860212Y-80852249D02*
G01*
X132954651Y-80880897D01*
X133041687Y-80927418D01*
X133117975Y-80990025D01*
X133180582Y-81066313D01*
X133227103Y-81153348D01*
X133255751Y-81247787D01*
X133263000Y-81321388D01*
X133263000Y-82170612D01*
X133255751Y-82244213D01*
X133227103Y-82338652D01*
X133180582Y-82425687D01*
X133117975Y-82501975D01*
X133041687Y-82564582D01*
X132954652Y-82611103D01*
X132860213Y-82639751D01*
X132762000Y-82649424D01*
X132663788Y-82639751D01*
X132569349Y-82611103D01*
X132482314Y-82564582D01*
X132406026Y-82501975D01*
X132343419Y-82425687D01*
X132296898Y-82338652D01*
X132268250Y-82244213D01*
X132261001Y-82170612D01*
X132261000Y-82170602D01*
X132261000Y-81321389D01*
X132268249Y-81247788D01*
X132296897Y-81153349D01*
X132343418Y-81066313D01*
X132406025Y-80990025D01*
X132482313Y-80927418D01*
X132569348Y-80880897D01*
X132663787Y-80852249D01*
X132762000Y-80842576D01*
X132860212Y-80852249D01*
G37*
M02*
