G04 #@! TF.GenerationSoftware,KiCad,Pcbnew,5.1.5+dfsg1-2build2*
G04 #@! TF.CreationDate,2020-09-11T14:14:25+10:00*
G04 #@! TF.ProjectId,macr0,6d616372-302e-46b6-9963-61645f706362,rev?*
G04 #@! TF.SameCoordinates,Original*
G04 #@! TF.FileFunction,Legend,Top*
G04 #@! TF.FilePolarity,Positive*
%FSLAX46Y46*%
G04 Gerber Fmt 4.6, Leading zero omitted, Abs format (unit mm)*
G04 Created by KiCad (PCBNEW 5.1.5+dfsg1-2build2) date 2020-09-11 14:14:25*
%MOMM*%
%LPD*%
G04 APERTURE LIST*
%ADD10C,0.120000*%
%ADD11C,0.150000*%
G04 APERTURE END LIST*
D10*
X28575000Y-1905000D02*
X14605000Y-1905000D01*
X14605000Y-1905000D02*
X14605000Y12065000D01*
X14605000Y12065000D02*
X28575000Y12065000D01*
X28575000Y12065000D02*
X28575000Y-1905000D01*
X22098000Y10160000D02*
X21082000Y10160000D01*
X21336000Y10160000D02*
X21844000Y9652000D01*
X21844000Y9652000D02*
X21844000Y10668000D01*
X21844000Y10668000D02*
X21336000Y10160000D01*
X21336000Y9652000D02*
X21336000Y10668000D01*
X21717000Y9398000D02*
X21463000Y9144000D01*
X21463000Y9398000D02*
X21209000Y9144000D01*
X22606000Y2032000D02*
X20574000Y2032000D01*
X21590000Y2032000D02*
X21590000Y1524000D01*
X20753605Y2540000D02*
G75*
G03X20753605Y2540000I-179605J0D01*
G01*
X22785605Y2540000D02*
G75*
G03X22785605Y2540000I-179605J0D01*
G01*
X24257000Y2540000D02*
X22785605Y2540000D01*
X20394395Y2540000D02*
X19050000Y2540000D01*
X19050000Y2540000D02*
X19050000Y1143000D01*
X9525000Y-1905000D02*
X-4445000Y-1905000D01*
X-4445000Y-1905000D02*
X-4445000Y12065000D01*
X-4445000Y12065000D02*
X9525000Y12065000D01*
X9525000Y12065000D02*
X9525000Y-1905000D01*
X3048000Y10160000D02*
X2032000Y10160000D01*
X2286000Y10160000D02*
X2794000Y9652000D01*
X2794000Y9652000D02*
X2794000Y10668000D01*
X2794000Y10668000D02*
X2286000Y10160000D01*
X2286000Y9652000D02*
X2286000Y10668000D01*
X2667000Y9398000D02*
X2413000Y9144000D01*
X2413000Y9398000D02*
X2159000Y9144000D01*
X3556000Y2032000D02*
X1524000Y2032000D01*
X2540000Y2032000D02*
X2540000Y1524000D01*
X1703605Y2540000D02*
G75*
G03X1703605Y2540000I-179605J0D01*
G01*
X3735605Y2540000D02*
G75*
G03X3735605Y2540000I-179605J0D01*
G01*
X5207000Y2540000D02*
X3735605Y2540000D01*
X1344395Y2540000D02*
X0Y2540000D01*
X0Y2540000D02*
X0Y1143000D01*
X0Y-16510000D02*
X0Y-17907000D01*
X1344395Y-16510000D02*
X0Y-16510000D01*
X5207000Y-16510000D02*
X3735605Y-16510000D01*
X3735605Y-16510000D02*
G75*
G03X3735605Y-16510000I-179605J0D01*
G01*
X1703605Y-16510000D02*
G75*
G03X1703605Y-16510000I-179605J0D01*
G01*
X2540000Y-17018000D02*
X2540000Y-17526000D01*
X3556000Y-17018000D02*
X1524000Y-17018000D01*
X2413000Y-9652000D02*
X2159000Y-9906000D01*
X2667000Y-9652000D02*
X2413000Y-9906000D01*
X2286000Y-9398000D02*
X2286000Y-8382000D01*
X2794000Y-8382000D02*
X2286000Y-8890000D01*
X2794000Y-9398000D02*
X2794000Y-8382000D01*
X2286000Y-8890000D02*
X2794000Y-9398000D01*
X3048000Y-8890000D02*
X2032000Y-8890000D01*
X9525000Y-6985000D02*
X9525000Y-20955000D01*
X-4445000Y-6985000D02*
X9525000Y-6985000D01*
X-4445000Y-20955000D02*
X-4445000Y-6985000D01*
X9525000Y-20955000D02*
X-4445000Y-20955000D01*
X19050000Y-16510000D02*
X19050000Y-17907000D01*
X20394395Y-16510000D02*
X19050000Y-16510000D01*
X24257000Y-16510000D02*
X22785605Y-16510000D01*
X22785605Y-16510000D02*
G75*
G03X22785605Y-16510000I-179605J0D01*
G01*
X20753605Y-16510000D02*
G75*
G03X20753605Y-16510000I-179605J0D01*
G01*
X21590000Y-17018000D02*
X21590000Y-17526000D01*
X22606000Y-17018000D02*
X20574000Y-17018000D01*
X21463000Y-9652000D02*
X21209000Y-9906000D01*
X21717000Y-9652000D02*
X21463000Y-9906000D01*
X21336000Y-9398000D02*
X21336000Y-8382000D01*
X21844000Y-8382000D02*
X21336000Y-8890000D01*
X21844000Y-9398000D02*
X21844000Y-8382000D01*
X21336000Y-8890000D02*
X21844000Y-9398000D01*
X22098000Y-8890000D02*
X21082000Y-8890000D01*
X28575000Y-6985000D02*
X28575000Y-20955000D01*
X14605000Y-6985000D02*
X28575000Y-6985000D01*
X14605000Y-20955000D02*
X14605000Y-6985000D01*
X28575000Y-20955000D02*
X14605000Y-20955000D01*
D11*
X20828095Y-3198761D02*
X20970952Y-3246380D01*
X21209047Y-3246380D01*
X21304285Y-3198761D01*
X21351904Y-3151142D01*
X21399523Y-3055904D01*
X21399523Y-2960666D01*
X21351904Y-2865428D01*
X21304285Y-2817809D01*
X21209047Y-2770190D01*
X21018571Y-2722571D01*
X20923333Y-2674952D01*
X20875714Y-2627333D01*
X20828095Y-2532095D01*
X20828095Y-2436857D01*
X20875714Y-2341619D01*
X20923333Y-2294000D01*
X21018571Y-2246380D01*
X21256666Y-2246380D01*
X21399523Y-2294000D01*
X21780476Y-2341619D02*
X21828095Y-2294000D01*
X21923333Y-2246380D01*
X22161428Y-2246380D01*
X22256666Y-2294000D01*
X22304285Y-2341619D01*
X22351904Y-2436857D01*
X22351904Y-2532095D01*
X22304285Y-2674952D01*
X21732857Y-3246380D01*
X22351904Y-3246380D01*
X1778095Y-3198761D02*
X1920952Y-3246380D01*
X2159047Y-3246380D01*
X2254285Y-3198761D01*
X2301904Y-3151142D01*
X2349523Y-3055904D01*
X2349523Y-2960666D01*
X2301904Y-2865428D01*
X2254285Y-2817809D01*
X2159047Y-2770190D01*
X1968571Y-2722571D01*
X1873333Y-2674952D01*
X1825714Y-2627333D01*
X1778095Y-2532095D01*
X1778095Y-2436857D01*
X1825714Y-2341619D01*
X1873333Y-2294000D01*
X1968571Y-2246380D01*
X2206666Y-2246380D01*
X2349523Y-2294000D01*
X3301904Y-3246380D02*
X2730476Y-3246380D01*
X3016190Y-3246380D02*
X3016190Y-2246380D01*
X2920952Y-2389238D01*
X2825714Y-2484476D01*
X2730476Y-2532095D01*
X1778095Y-22248761D02*
X1920952Y-22296380D01*
X2159047Y-22296380D01*
X2254285Y-22248761D01*
X2301904Y-22201142D01*
X2349523Y-22105904D01*
X2349523Y-22010666D01*
X2301904Y-21915428D01*
X2254285Y-21867809D01*
X2159047Y-21820190D01*
X1968571Y-21772571D01*
X1873333Y-21724952D01*
X1825714Y-21677333D01*
X1778095Y-21582095D01*
X1778095Y-21486857D01*
X1825714Y-21391619D01*
X1873333Y-21344000D01*
X1968571Y-21296380D01*
X2206666Y-21296380D01*
X2349523Y-21344000D01*
X2682857Y-21296380D02*
X3301904Y-21296380D01*
X2968571Y-21677333D01*
X3111428Y-21677333D01*
X3206666Y-21724952D01*
X3254285Y-21772571D01*
X3301904Y-21867809D01*
X3301904Y-22105904D01*
X3254285Y-22201142D01*
X3206666Y-22248761D01*
X3111428Y-22296380D01*
X2825714Y-22296380D01*
X2730476Y-22248761D01*
X2682857Y-22201142D01*
X20828095Y-22248761D02*
X20970952Y-22296380D01*
X21209047Y-22296380D01*
X21304285Y-22248761D01*
X21351904Y-22201142D01*
X21399523Y-22105904D01*
X21399523Y-22010666D01*
X21351904Y-21915428D01*
X21304285Y-21867809D01*
X21209047Y-21820190D01*
X21018571Y-21772571D01*
X20923333Y-21724952D01*
X20875714Y-21677333D01*
X20828095Y-21582095D01*
X20828095Y-21486857D01*
X20875714Y-21391619D01*
X20923333Y-21344000D01*
X21018571Y-21296380D01*
X21256666Y-21296380D01*
X21399523Y-21344000D01*
X22256666Y-21629714D02*
X22256666Y-22296380D01*
X22018571Y-21248761D02*
X21780476Y-21963047D01*
X22399523Y-21963047D01*
X10193523Y15708285D02*
X10193523Y15041619D01*
X9764952Y15708285D02*
X9764952Y15184476D01*
X9812571Y15089238D01*
X9907809Y15041619D01*
X10050666Y15041619D01*
X10145904Y15089238D01*
X10193523Y15136857D01*
X10622095Y15089238D02*
X10717333Y15041619D01*
X10907809Y15041619D01*
X11003047Y15089238D01*
X11050666Y15184476D01*
X11050666Y15232095D01*
X11003047Y15327333D01*
X10907809Y15374952D01*
X10764952Y15374952D01*
X10669714Y15422571D01*
X10622095Y15517809D01*
X10622095Y15565428D01*
X10669714Y15660666D01*
X10764952Y15708285D01*
X10907809Y15708285D01*
X11003047Y15660666D01*
X11479238Y15041619D02*
X11479238Y16041619D01*
X11479238Y15660666D02*
X11574476Y15708285D01*
X11764952Y15708285D01*
X11860190Y15660666D01*
X11907809Y15613047D01*
X11955428Y15517809D01*
X11955428Y15232095D01*
X11907809Y15136857D01*
X11860190Y15089238D01*
X11764952Y15041619D01*
X11574476Y15041619D01*
X11479238Y15089238D01*
X12384000Y15422571D02*
X13145904Y15422571D01*
X14050666Y15089238D02*
X13955428Y15041619D01*
X13764952Y15041619D01*
X13669714Y15089238D01*
X13622095Y15136857D01*
X13574476Y15232095D01*
X13574476Y15517809D01*
X13622095Y15613047D01*
X13669714Y15660666D01*
X13764952Y15708285D01*
X13955428Y15708285D01*
X14050666Y15660666D01*
M02*
