G04 #@! TF.GenerationSoftware,KiCad,Pcbnew,5.1.5+dfsg1-2build2*
G04 #@! TF.CreationDate,2020-09-11T14:14:25+10:00*
G04 #@! TF.ProjectId,macr0,6d616372-302e-46b6-9963-61645f706362,rev?*
G04 #@! TF.SameCoordinates,Original*
G04 #@! TF.FileFunction,Copper,L1,Top*
G04 #@! TF.FilePolarity,Positive*
%FSLAX46Y46*%
G04 Gerber Fmt 4.6, Leading zero omitted, Abs format (unit mm)*
G04 Created by KiCad (PCBNEW 5.1.5+dfsg1-2build2) date 2020-09-11 14:14:25*
%MOMM*%
%LPD*%
G04 APERTURE LIST*
%ADD10O,1.700000X1.700000*%
%ADD11R,1.700000X1.700000*%
%ADD12C,2.200000*%
%ADD13C,1.524000*%
%ADD14O,0.900000X1.700000*%
%ADD15O,0.900000X2.400000*%
%ADD16C,0.700000*%
%ADD17C,0.800000*%
%ADD18C,0.250000*%
%ADD19C,0.254000*%
G04 APERTURE END LIST*
D10*
X13335000Y-18415000D03*
X10795000Y-18415000D03*
X13335000Y-20955000D03*
X10795000Y-20955000D03*
X13335000Y-23495000D03*
D11*
X10795000Y-23495000D03*
D12*
X19050000Y0D03*
X25400000Y2540000D03*
D13*
X20320000Y10160000D03*
X22860000Y10160000D03*
D12*
X0Y0D03*
X6350000Y2540000D03*
D13*
X1270000Y10160000D03*
X3810000Y10160000D03*
X3810000Y-8890000D03*
X1270000Y-8890000D03*
D12*
X6350000Y-16510000D03*
X0Y-19050000D03*
D13*
X22860000Y-8890000D03*
X20320000Y-8890000D03*
D12*
X25400000Y-16510000D03*
X19050000Y-19050000D03*
D14*
X16390000Y15980500D03*
X7740000Y15980500D03*
D15*
X16390000Y12600500D03*
X7740000Y12600500D03*
D16*
X12490000Y12970500D03*
X15040000Y12970500D03*
X14190000Y12970500D03*
X13340000Y12970500D03*
X9090000Y12970500D03*
X10790000Y12970500D03*
X11640000Y12970500D03*
X9940000Y12970500D03*
X15040000Y11620500D03*
X14190000Y11620500D03*
X13340000Y11620500D03*
X12490000Y11620500D03*
X11640000Y11620500D03*
X10790000Y11620500D03*
X9940000Y11620500D03*
X9090000Y11620500D03*
D17*
X12954000Y-5842000D03*
X4318000Y-11684000D03*
X4318000Y-1270000D03*
X12065000Y4064000D03*
X12065000Y14478000D03*
X31750000Y8382000D03*
X26670000Y-4572000D03*
X12065000Y10541000D03*
X22352000Y14224000D03*
X9144000Y3048000D03*
X8128000Y-6096000D03*
X5080000Y-8128000D03*
X6918918Y-5318077D03*
D18*
X9090000Y12970500D02*
X9090000Y11620500D01*
X15040000Y12970500D02*
X15040000Y11620500D01*
X9090000Y12970500D02*
X9090000Y13662000D01*
X15040000Y12970500D02*
X15040000Y13662000D01*
X15040000Y13662000D02*
X14224000Y14478000D01*
X9090000Y13662000D02*
X9906000Y14478000D01*
X14224000Y14478000D02*
X12065000Y14478000D01*
X12065000Y14478000D02*
X9906000Y14478000D01*
X14190000Y11620500D02*
X14190000Y12970500D01*
X9940000Y11620500D02*
X9940000Y12970500D01*
X23749000Y-23495000D02*
X13335000Y-23495000D01*
X31750000Y-15494000D02*
X23749000Y-23495000D01*
X26670000Y-4572000D02*
X31750000Y-4572000D01*
X31750000Y-4572000D02*
X31750000Y-15494000D01*
X31750000Y8382000D02*
X31750000Y-4572000D01*
X13110500Y10541000D02*
X14190000Y11620500D01*
X12065000Y10541000D02*
X13110500Y10541000D01*
X11019500Y10541000D02*
X9940000Y11620500D01*
X12065000Y10541000D02*
X11019500Y10541000D01*
X7740000Y12600500D02*
X7740000Y15980500D01*
X16390000Y12600500D02*
X16390000Y15980500D01*
X16390000Y15980500D02*
X7740000Y15980500D01*
X12490000Y12120500D02*
X11640000Y12970500D01*
X12490000Y11620500D02*
X12490000Y12120500D01*
X9144000Y3048000D02*
X20320000Y14224000D01*
X20320000Y14224000D02*
X22352000Y14224000D01*
X16764000Y2540000D02*
X25400000Y2540000D01*
X8128000Y-6096000D02*
X16764000Y2540000D01*
X5080000Y-15240000D02*
X6350000Y-16510000D01*
X5080000Y-8128000D02*
X5080000Y-15240000D01*
X23844366Y-16510000D02*
X25400000Y-16510000D01*
X17545156Y-16510000D02*
X23844366Y-16510000D01*
X6918918Y-5883762D02*
X17545156Y-16510000D01*
X6918918Y-5318077D02*
X6918918Y-5883762D01*
D19*
G36*
X6833491Y16986210D02*
G01*
X6732741Y16797719D01*
X6670700Y16593196D01*
X6655000Y16433793D01*
X6655000Y15527206D01*
X6670700Y15367803D01*
X6732742Y15163280D01*
X6833492Y14974790D01*
X6969079Y14809578D01*
X6980001Y14800615D01*
X6980000Y14130386D01*
X6969078Y14121422D01*
X6833491Y13956210D01*
X6732741Y13767719D01*
X6670700Y13563196D01*
X6655000Y13403793D01*
X6655000Y11797206D01*
X6670700Y11637803D01*
X6732742Y11433280D01*
X6833492Y11244790D01*
X6969079Y11079578D01*
X7134291Y10943991D01*
X7322781Y10843241D01*
X7527304Y10781200D01*
X7740000Y10760251D01*
X7952697Y10781200D01*
X8157220Y10843241D01*
X8345710Y10943991D01*
X8510922Y11079578D01*
X8646509Y11244790D01*
X8747259Y11433280D01*
X8757746Y11467851D01*
X8910395Y11620500D01*
X8896253Y11634643D01*
X8955000Y11693390D01*
X8955000Y11523486D01*
X8991101Y11341996D01*
X8599088Y10949983D01*
X8615784Y10751733D01*
X8794384Y10675911D01*
X8984344Y10636390D01*
X9178364Y10634687D01*
X9368989Y10670868D01*
X9515651Y10730115D01*
X9652686Y10673353D01*
X9842986Y10635500D01*
X9850199Y10635500D01*
X10455701Y10029997D01*
X10479499Y10000999D01*
X10508497Y9977201D01*
X10595224Y9906026D01*
X10727253Y9835454D01*
X10870514Y9791997D01*
X11019500Y9777323D01*
X11056833Y9781000D01*
X11361289Y9781000D01*
X11405226Y9737063D01*
X11574744Y9623795D01*
X11763102Y9545774D01*
X11963061Y9506000D01*
X12166939Y9506000D01*
X12366898Y9545774D01*
X12555256Y9623795D01*
X12724774Y9737063D01*
X12768711Y9781000D01*
X13073178Y9781000D01*
X13110500Y9777324D01*
X13147822Y9781000D01*
X13147833Y9781000D01*
X13259486Y9791997D01*
X13402747Y9835454D01*
X13534776Y9906026D01*
X13650501Y10000999D01*
X13674304Y10030002D01*
X14279802Y10635500D01*
X14287014Y10635500D01*
X14477314Y10673353D01*
X14615542Y10730609D01*
X14744384Y10675911D01*
X14934344Y10636390D01*
X15128364Y10634687D01*
X15318989Y10670868D01*
X15498893Y10743543D01*
X15514216Y10751733D01*
X15530912Y10949983D01*
X15138899Y11341996D01*
X15175000Y11523486D01*
X15175000Y11693390D01*
X15233748Y11634643D01*
X15219605Y11620500D01*
X15372255Y11467850D01*
X15382742Y11433280D01*
X15483492Y11244790D01*
X15619079Y11079578D01*
X15784291Y10943991D01*
X15902178Y10880979D01*
X9104199Y4083000D01*
X9042061Y4083000D01*
X8842102Y4043226D01*
X8653744Y3965205D01*
X8484226Y3851937D01*
X8340063Y3707774D01*
X8226795Y3538256D01*
X8148774Y3349898D01*
X8109000Y3149939D01*
X8109000Y2946061D01*
X8148774Y2746102D01*
X8226795Y2557744D01*
X8340063Y2388226D01*
X8484226Y2244063D01*
X8653744Y2130795D01*
X8842102Y2052774D01*
X9042061Y2013000D01*
X9245939Y2013000D01*
X9445898Y2052774D01*
X9634256Y2130795D01*
X9803774Y2244063D01*
X9947937Y2388226D01*
X10061205Y2557744D01*
X10139226Y2746102D01*
X10179000Y2946061D01*
X10179000Y3008199D01*
X16365236Y9194435D01*
X19534040Y9194435D01*
X19601020Y8954344D01*
X19850048Y8837244D01*
X20117135Y8770977D01*
X20392017Y8758090D01*
X20664133Y8799078D01*
X20923023Y8892364D01*
X21038980Y8954344D01*
X21105960Y9194435D01*
X20320000Y9980395D01*
X19534040Y9194435D01*
X16365236Y9194435D01*
X17258784Y10087983D01*
X18918090Y10087983D01*
X18959078Y9815867D01*
X19052364Y9556977D01*
X19114344Y9441020D01*
X19354435Y9374040D01*
X20140395Y10160000D01*
X20499605Y10160000D01*
X21285565Y9374040D01*
X21525656Y9441020D01*
X21589485Y9576760D01*
X21621995Y9498273D01*
X21774880Y9269465D01*
X21969465Y9074880D01*
X22198273Y8921995D01*
X22452510Y8816686D01*
X22722408Y8763000D01*
X22997592Y8763000D01*
X23267490Y8816686D01*
X23521727Y8921995D01*
X23750535Y9074880D01*
X23945120Y9269465D01*
X24098005Y9498273D01*
X24203314Y9752510D01*
X24257000Y10022408D01*
X24257000Y10297592D01*
X24203314Y10567490D01*
X24098005Y10821727D01*
X23945120Y11050535D01*
X23750535Y11245120D01*
X23521727Y11398005D01*
X23267490Y11503314D01*
X22997592Y11557000D01*
X22722408Y11557000D01*
X22452510Y11503314D01*
X22198273Y11398005D01*
X21969465Y11245120D01*
X21774880Y11050535D01*
X21621995Y10821727D01*
X21592308Y10750057D01*
X21587636Y10763023D01*
X21525656Y10878980D01*
X21285565Y10945960D01*
X20499605Y10160000D01*
X20140395Y10160000D01*
X19354435Y10945960D01*
X19114344Y10878980D01*
X18997244Y10629952D01*
X18930977Y10362865D01*
X18918090Y10087983D01*
X17258784Y10087983D01*
X18296366Y11125565D01*
X19534040Y11125565D01*
X20320000Y10339605D01*
X21105960Y11125565D01*
X21038980Y11365656D01*
X20789952Y11482756D01*
X20522865Y11549023D01*
X20247983Y11561910D01*
X19975867Y11520922D01*
X19716977Y11427636D01*
X19601020Y11365656D01*
X19534040Y11125565D01*
X18296366Y11125565D01*
X20634802Y13464000D01*
X21648289Y13464000D01*
X21692226Y13420063D01*
X21861744Y13306795D01*
X22050102Y13228774D01*
X22250061Y13189000D01*
X22453939Y13189000D01*
X22653898Y13228774D01*
X22842256Y13306795D01*
X23011774Y13420063D01*
X23155937Y13564226D01*
X23269205Y13733744D01*
X23347226Y13922102D01*
X23387000Y14122061D01*
X23387000Y14325939D01*
X23347226Y14525898D01*
X23269205Y14714256D01*
X23155937Y14883774D01*
X23011774Y15027937D01*
X22842256Y15141205D01*
X22653898Y15219226D01*
X22453939Y15259000D01*
X22250061Y15259000D01*
X22050102Y15219226D01*
X21861744Y15141205D01*
X21692226Y15027937D01*
X21648289Y14984000D01*
X20357325Y14984000D01*
X20320000Y14987676D01*
X20282675Y14984000D01*
X20282667Y14984000D01*
X20171014Y14973003D01*
X20027753Y14929546D01*
X19895724Y14858974D01*
X19779999Y14764001D01*
X19756201Y14735003D01*
X17475000Y12453802D01*
X17475000Y13403794D01*
X17459300Y13563197D01*
X17397259Y13767720D01*
X17296509Y13956210D01*
X17160922Y14121422D01*
X17150000Y14130386D01*
X17150000Y14800614D01*
X17160922Y14809578D01*
X17296509Y14974790D01*
X17397259Y15163280D01*
X17459300Y15367804D01*
X17475000Y15527207D01*
X17475000Y16433794D01*
X17459300Y16593197D01*
X17397259Y16797720D01*
X17296509Y16986210D01*
X17186710Y17120000D01*
X33630001Y17120000D01*
X33630000Y-26010000D01*
X-9500000Y-26010000D01*
X-9500000Y-22645000D01*
X9306928Y-22645000D01*
X9306928Y-24345000D01*
X9319188Y-24469482D01*
X9355498Y-24589180D01*
X9414463Y-24699494D01*
X9493815Y-24796185D01*
X9590506Y-24875537D01*
X9700820Y-24934502D01*
X9820518Y-24970812D01*
X9945000Y-24983072D01*
X11645000Y-24983072D01*
X11769482Y-24970812D01*
X11889180Y-24934502D01*
X11999494Y-24875537D01*
X12096185Y-24796185D01*
X12175537Y-24699494D01*
X12234502Y-24589180D01*
X12256513Y-24516620D01*
X12388368Y-24648475D01*
X12631589Y-24810990D01*
X12901842Y-24922932D01*
X13188740Y-24980000D01*
X13481260Y-24980000D01*
X13768158Y-24922932D01*
X14038411Y-24810990D01*
X14281632Y-24648475D01*
X14488475Y-24441632D01*
X14613178Y-24255000D01*
X23711678Y-24255000D01*
X23749000Y-24258676D01*
X23786322Y-24255000D01*
X23786333Y-24255000D01*
X23897986Y-24244003D01*
X24041247Y-24200546D01*
X24173276Y-24129974D01*
X24289001Y-24035001D01*
X24312804Y-24005997D01*
X32261003Y-16057799D01*
X32290001Y-16034001D01*
X32384974Y-15918276D01*
X32455546Y-15786247D01*
X32499003Y-15642986D01*
X32510000Y-15531333D01*
X32510000Y-15531325D01*
X32513676Y-15494000D01*
X32510000Y-15456675D01*
X32510000Y-4609333D01*
X32513677Y-4572000D01*
X32510000Y-4534667D01*
X32510000Y7678289D01*
X32553937Y7722226D01*
X32667205Y7891744D01*
X32745226Y8080102D01*
X32785000Y8280061D01*
X32785000Y8483939D01*
X32745226Y8683898D01*
X32667205Y8872256D01*
X32553937Y9041774D01*
X32409774Y9185937D01*
X32240256Y9299205D01*
X32051898Y9377226D01*
X31851939Y9417000D01*
X31648061Y9417000D01*
X31448102Y9377226D01*
X31259744Y9299205D01*
X31090226Y9185937D01*
X30946063Y9041774D01*
X30832795Y8872256D01*
X30754774Y8683898D01*
X30715000Y8483939D01*
X30715000Y8280061D01*
X30754774Y8080102D01*
X30832795Y7891744D01*
X30946063Y7722226D01*
X30990000Y7678289D01*
X30990001Y-3812000D01*
X27373711Y-3812000D01*
X27329774Y-3768063D01*
X27160256Y-3654795D01*
X26971898Y-3576774D01*
X26771939Y-3537000D01*
X26568061Y-3537000D01*
X26368102Y-3576774D01*
X26179744Y-3654795D01*
X26010226Y-3768063D01*
X25866063Y-3912226D01*
X25752795Y-4081744D01*
X25674774Y-4270102D01*
X25635000Y-4470061D01*
X25635000Y-4673939D01*
X25674774Y-4873898D01*
X25752795Y-5062256D01*
X25866063Y-5231774D01*
X26010226Y-5375937D01*
X26179744Y-5489205D01*
X26368102Y-5567226D01*
X26568061Y-5607000D01*
X26771939Y-5607000D01*
X26971898Y-5567226D01*
X27160256Y-5489205D01*
X27329774Y-5375937D01*
X27373711Y-5332000D01*
X30990000Y-5332000D01*
X30990001Y-15179197D01*
X23434199Y-22735000D01*
X14613178Y-22735000D01*
X14488475Y-22548368D01*
X14281632Y-22341525D01*
X14107240Y-22225000D01*
X14281632Y-22108475D01*
X14488475Y-21901632D01*
X14650990Y-21658411D01*
X14762932Y-21388158D01*
X14820000Y-21101260D01*
X14820000Y-20808740D01*
X14762932Y-20521842D01*
X14653113Y-20256712D01*
X18022893Y-20256712D01*
X18130726Y-20531338D01*
X18437384Y-20682216D01*
X18767585Y-20770369D01*
X19108639Y-20792409D01*
X19447439Y-20747489D01*
X19770966Y-20637336D01*
X19969274Y-20531338D01*
X20077107Y-20256712D01*
X19050000Y-19229605D01*
X18022893Y-20256712D01*
X14653113Y-20256712D01*
X14650990Y-20251589D01*
X14488475Y-20008368D01*
X14281632Y-19801525D01*
X14099466Y-19679805D01*
X14216355Y-19610178D01*
X14432588Y-19415269D01*
X14606641Y-19181920D01*
X14641545Y-19108639D01*
X17307591Y-19108639D01*
X17352511Y-19447439D01*
X17462664Y-19770966D01*
X17568662Y-19969274D01*
X17843288Y-20077107D01*
X18870395Y-19050000D01*
X19229605Y-19050000D01*
X20256712Y-20077107D01*
X20531338Y-19969274D01*
X20682216Y-19662616D01*
X20770369Y-19332415D01*
X20792409Y-18991361D01*
X20747489Y-18652561D01*
X20637336Y-18329034D01*
X20531338Y-18130726D01*
X20256712Y-18022893D01*
X19229605Y-19050000D01*
X18870395Y-19050000D01*
X17843288Y-18022893D01*
X17568662Y-18130726D01*
X17417784Y-18437384D01*
X17329631Y-18767585D01*
X17307591Y-19108639D01*
X14641545Y-19108639D01*
X14731825Y-18919099D01*
X14776476Y-18771890D01*
X14655155Y-18542000D01*
X13462000Y-18542000D01*
X13462000Y-18562000D01*
X13208000Y-18562000D01*
X13208000Y-18542000D01*
X13188000Y-18542000D01*
X13188000Y-18288000D01*
X13208000Y-18288000D01*
X13208000Y-17094186D01*
X13462000Y-17094186D01*
X13462000Y-18288000D01*
X14655155Y-18288000D01*
X14776476Y-18058110D01*
X14731825Y-17910901D01*
X14699621Y-17843288D01*
X18022893Y-17843288D01*
X19050000Y-18870395D01*
X20077107Y-17843288D01*
X19969274Y-17568662D01*
X19662616Y-17417784D01*
X19332415Y-17329631D01*
X18991361Y-17307591D01*
X18652561Y-17352511D01*
X18329034Y-17462664D01*
X18130726Y-17568662D01*
X18022893Y-17843288D01*
X14699621Y-17843288D01*
X14606641Y-17648080D01*
X14432588Y-17414731D01*
X14216355Y-17219822D01*
X13966252Y-17070843D01*
X13691891Y-16973519D01*
X13462000Y-17094186D01*
X13208000Y-17094186D01*
X12978109Y-16973519D01*
X12703748Y-17070843D01*
X12453645Y-17219822D01*
X12237412Y-17414731D01*
X12066100Y-17644406D01*
X11948475Y-17468368D01*
X11741632Y-17261525D01*
X11498411Y-17099010D01*
X11228158Y-16987068D01*
X10941260Y-16930000D01*
X10648740Y-16930000D01*
X10361842Y-16987068D01*
X10091589Y-17099010D01*
X9848368Y-17261525D01*
X9641525Y-17468368D01*
X9479010Y-17711589D01*
X9367068Y-17981842D01*
X9310000Y-18268740D01*
X9310000Y-18561260D01*
X9367068Y-18848158D01*
X9479010Y-19118411D01*
X9641525Y-19361632D01*
X9848368Y-19568475D01*
X10022760Y-19685000D01*
X9848368Y-19801525D01*
X9641525Y-20008368D01*
X9479010Y-20251589D01*
X9367068Y-20521842D01*
X9310000Y-20808740D01*
X9310000Y-21101260D01*
X9367068Y-21388158D01*
X9479010Y-21658411D01*
X9641525Y-21901632D01*
X9773380Y-22033487D01*
X9700820Y-22055498D01*
X9590506Y-22114463D01*
X9493815Y-22193815D01*
X9414463Y-22290506D01*
X9355498Y-22400820D01*
X9319188Y-22520518D01*
X9306928Y-22645000D01*
X-9500000Y-22645000D01*
X-9500000Y-20256712D01*
X-1027107Y-20256712D01*
X-919274Y-20531338D01*
X-612616Y-20682216D01*
X-282415Y-20770369D01*
X58639Y-20792409D01*
X397439Y-20747489D01*
X720966Y-20637336D01*
X919274Y-20531338D01*
X1027107Y-20256712D01*
X0Y-19229605D01*
X-1027107Y-20256712D01*
X-9500000Y-20256712D01*
X-9500000Y-19108639D01*
X-1742409Y-19108639D01*
X-1697489Y-19447439D01*
X-1587336Y-19770966D01*
X-1481338Y-19969274D01*
X-1206712Y-20077107D01*
X-179605Y-19050000D01*
X179605Y-19050000D01*
X1206712Y-20077107D01*
X1481338Y-19969274D01*
X1632216Y-19662616D01*
X1720369Y-19332415D01*
X1742409Y-18991361D01*
X1697489Y-18652561D01*
X1587336Y-18329034D01*
X1481338Y-18130726D01*
X1206712Y-18022893D01*
X179605Y-19050000D01*
X-179605Y-19050000D01*
X-1206712Y-18022893D01*
X-1481338Y-18130726D01*
X-1632216Y-18437384D01*
X-1720369Y-18767585D01*
X-1742409Y-19108639D01*
X-9500000Y-19108639D01*
X-9500000Y-17843288D01*
X-1027107Y-17843288D01*
X0Y-18870395D01*
X1027107Y-17843288D01*
X919274Y-17568662D01*
X612616Y-17417784D01*
X282415Y-17329631D01*
X-58639Y-17307591D01*
X-397439Y-17352511D01*
X-720966Y-17462664D01*
X-919274Y-17568662D01*
X-1027107Y-17843288D01*
X-9500000Y-17843288D01*
X-9500000Y-13710475D01*
X-95000Y-13710475D01*
X-95000Y-14229525D01*
X6261Y-14738601D01*
X204893Y-15218141D01*
X493262Y-15649715D01*
X860285Y-16016738D01*
X1291859Y-16305107D01*
X1771399Y-16503739D01*
X2280475Y-16605000D01*
X2799525Y-16605000D01*
X3308601Y-16503739D01*
X3788141Y-16305107D01*
X4219715Y-16016738D01*
X4502340Y-15734113D01*
X4540000Y-15780001D01*
X4568998Y-15803799D01*
X4707286Y-15942088D01*
X4681675Y-16003919D01*
X4615000Y-16339117D01*
X4615000Y-16680883D01*
X4681675Y-17016081D01*
X4812463Y-17331831D01*
X5002337Y-17615998D01*
X5244002Y-17857663D01*
X5528169Y-18047537D01*
X5843919Y-18178325D01*
X6179117Y-18245000D01*
X6520883Y-18245000D01*
X6856081Y-18178325D01*
X7171831Y-18047537D01*
X7455998Y-17857663D01*
X7697663Y-17615998D01*
X7887537Y-17331831D01*
X8018325Y-17016081D01*
X8085000Y-16680883D01*
X8085000Y-16339117D01*
X8018325Y-16003919D01*
X7887537Y-15688169D01*
X7697663Y-15404002D01*
X7455998Y-15162337D01*
X7171831Y-14972463D01*
X6856081Y-14841675D01*
X6520883Y-14775000D01*
X6179117Y-14775000D01*
X5843919Y-14841675D01*
X5840000Y-14843298D01*
X5840000Y-8831711D01*
X5883937Y-8787774D01*
X5997205Y-8618256D01*
X6075226Y-8429898D01*
X6115000Y-8229939D01*
X6115000Y-8026061D01*
X6075226Y-7826102D01*
X5997205Y-7637744D01*
X5883937Y-7468226D01*
X5739774Y-7324063D01*
X5570256Y-7210795D01*
X5381898Y-7132774D01*
X5181939Y-7093000D01*
X4978061Y-7093000D01*
X4778102Y-7132774D01*
X4589744Y-7210795D01*
X4420226Y-7324063D01*
X4276063Y-7468226D01*
X4222305Y-7548681D01*
X4217490Y-7546686D01*
X3947592Y-7493000D01*
X3672408Y-7493000D01*
X3402510Y-7546686D01*
X3148273Y-7651995D01*
X2919465Y-7804880D01*
X2724880Y-7999465D01*
X2571995Y-8228273D01*
X2542308Y-8299943D01*
X2537636Y-8286977D01*
X2475656Y-8171020D01*
X2235565Y-8104040D01*
X1449605Y-8890000D01*
X2235565Y-9675960D01*
X2475656Y-9608980D01*
X2539485Y-9473240D01*
X2571995Y-9551727D01*
X2724880Y-9780535D01*
X2919465Y-9975120D01*
X3148273Y-10128005D01*
X3402510Y-10233314D01*
X3672408Y-10287000D01*
X3947592Y-10287000D01*
X4217490Y-10233314D01*
X4320000Y-10190853D01*
X4320001Y-12023548D01*
X4219715Y-11923262D01*
X3788141Y-11634893D01*
X3308601Y-11436261D01*
X2799525Y-11335000D01*
X2280475Y-11335000D01*
X1771399Y-11436261D01*
X1291859Y-11634893D01*
X860285Y-11923262D01*
X493262Y-12290285D01*
X204893Y-12721859D01*
X6261Y-13201399D01*
X-95000Y-13710475D01*
X-9500000Y-13710475D01*
X-9500000Y-9855565D01*
X484040Y-9855565D01*
X551020Y-10095656D01*
X800048Y-10212756D01*
X1067135Y-10279023D01*
X1342017Y-10291910D01*
X1614133Y-10250922D01*
X1873023Y-10157636D01*
X1988980Y-10095656D01*
X2055960Y-9855565D01*
X1270000Y-9069605D01*
X484040Y-9855565D01*
X-9500000Y-9855565D01*
X-9500000Y-8962017D01*
X-131910Y-8962017D01*
X-90922Y-9234133D01*
X2364Y-9493023D01*
X64344Y-9608980D01*
X304435Y-9675960D01*
X1090395Y-8890000D01*
X304435Y-8104040D01*
X64344Y-8171020D01*
X-52756Y-8420048D01*
X-119023Y-8687135D01*
X-131910Y-8962017D01*
X-9500000Y-8962017D01*
X-9500000Y-7924435D01*
X484040Y-7924435D01*
X1270000Y-8710395D01*
X2055960Y-7924435D01*
X1988980Y-7684344D01*
X1739952Y-7567244D01*
X1472865Y-7500977D01*
X1197983Y-7488090D01*
X925867Y-7529078D01*
X666977Y-7622364D01*
X551020Y-7684344D01*
X484040Y-7924435D01*
X-9500000Y-7924435D01*
X-9500000Y-5216138D01*
X5883918Y-5216138D01*
X5883918Y-5420016D01*
X5923692Y-5619975D01*
X6001713Y-5808333D01*
X6114981Y-5977851D01*
X6169931Y-6032801D01*
X6213372Y-6176009D01*
X6225094Y-6197939D01*
X6283944Y-6308038D01*
X6349770Y-6388246D01*
X6378918Y-6423763D01*
X6407916Y-6447561D01*
X16981357Y-17021003D01*
X17005155Y-17050001D01*
X17034153Y-17073799D01*
X17120879Y-17144974D01*
X17252909Y-17215546D01*
X17396170Y-17259003D01*
X17507823Y-17270000D01*
X17507833Y-17270000D01*
X17545156Y-17273676D01*
X17582479Y-17270000D01*
X23836852Y-17270000D01*
X23862463Y-17331831D01*
X24052337Y-17615998D01*
X24294002Y-17857663D01*
X24578169Y-18047537D01*
X24893919Y-18178325D01*
X25229117Y-18245000D01*
X25570883Y-18245000D01*
X25906081Y-18178325D01*
X26221831Y-18047537D01*
X26505998Y-17857663D01*
X26747663Y-17615998D01*
X26937537Y-17331831D01*
X27068325Y-17016081D01*
X27135000Y-16680883D01*
X27135000Y-16339117D01*
X27068325Y-16003919D01*
X26937537Y-15688169D01*
X26747663Y-15404002D01*
X26505998Y-15162337D01*
X26221831Y-14972463D01*
X25906081Y-14841675D01*
X25570883Y-14775000D01*
X25229117Y-14775000D01*
X24893919Y-14841675D01*
X24578169Y-14972463D01*
X24294002Y-15162337D01*
X24052337Y-15404002D01*
X23862463Y-15688169D01*
X23836852Y-15750000D01*
X23536453Y-15750000D01*
X23636738Y-15649715D01*
X23925107Y-15218141D01*
X24123739Y-14738601D01*
X24225000Y-14229525D01*
X24225000Y-13710475D01*
X24123739Y-13201399D01*
X23925107Y-12721859D01*
X23636738Y-12290285D01*
X23269715Y-11923262D01*
X22838141Y-11634893D01*
X22358601Y-11436261D01*
X21849525Y-11335000D01*
X21330475Y-11335000D01*
X20821399Y-11436261D01*
X20341859Y-11634893D01*
X19910285Y-11923262D01*
X19543262Y-12290285D01*
X19254893Y-12721859D01*
X19056261Y-13201399D01*
X18955000Y-13710475D01*
X18955000Y-14229525D01*
X19056261Y-14738601D01*
X19254893Y-15218141D01*
X19543262Y-15649715D01*
X19643547Y-15750000D01*
X17859958Y-15750000D01*
X11965523Y-9855565D01*
X19534040Y-9855565D01*
X19601020Y-10095656D01*
X19850048Y-10212756D01*
X20117135Y-10279023D01*
X20392017Y-10291910D01*
X20664133Y-10250922D01*
X20923023Y-10157636D01*
X21038980Y-10095656D01*
X21105960Y-9855565D01*
X20320000Y-9069605D01*
X19534040Y-9855565D01*
X11965523Y-9855565D01*
X11071975Y-8962017D01*
X18918090Y-8962017D01*
X18959078Y-9234133D01*
X19052364Y-9493023D01*
X19114344Y-9608980D01*
X19354435Y-9675960D01*
X20140395Y-8890000D01*
X20499605Y-8890000D01*
X21285565Y-9675960D01*
X21525656Y-9608980D01*
X21589485Y-9473240D01*
X21621995Y-9551727D01*
X21774880Y-9780535D01*
X21969465Y-9975120D01*
X22198273Y-10128005D01*
X22452510Y-10233314D01*
X22722408Y-10287000D01*
X22997592Y-10287000D01*
X23267490Y-10233314D01*
X23521727Y-10128005D01*
X23750535Y-9975120D01*
X23945120Y-9780535D01*
X24098005Y-9551727D01*
X24203314Y-9297490D01*
X24257000Y-9027592D01*
X24257000Y-8752408D01*
X24203314Y-8482510D01*
X24098005Y-8228273D01*
X23945120Y-7999465D01*
X23750535Y-7804880D01*
X23521727Y-7651995D01*
X23267490Y-7546686D01*
X22997592Y-7493000D01*
X22722408Y-7493000D01*
X22452510Y-7546686D01*
X22198273Y-7651995D01*
X21969465Y-7804880D01*
X21774880Y-7999465D01*
X21621995Y-8228273D01*
X21592308Y-8299943D01*
X21587636Y-8286977D01*
X21525656Y-8171020D01*
X21285565Y-8104040D01*
X20499605Y-8890000D01*
X20140395Y-8890000D01*
X19354435Y-8104040D01*
X19114344Y-8171020D01*
X18997244Y-8420048D01*
X18930977Y-8687135D01*
X18918090Y-8962017D01*
X11071975Y-8962017D01*
X10034393Y-7924435D01*
X19534040Y-7924435D01*
X20320000Y-8710395D01*
X21105960Y-7924435D01*
X21038980Y-7684344D01*
X20789952Y-7567244D01*
X20522865Y-7500977D01*
X20247983Y-7488090D01*
X19975867Y-7529078D01*
X19716977Y-7622364D01*
X19601020Y-7684344D01*
X19534040Y-7924435D01*
X10034393Y-7924435D01*
X8898834Y-6788877D01*
X8931937Y-6755774D01*
X9045205Y-6586256D01*
X9123226Y-6397898D01*
X9163000Y-6197939D01*
X9163000Y-6135801D01*
X14092089Y-1206712D01*
X18022893Y-1206712D01*
X18130726Y-1481338D01*
X18437384Y-1632216D01*
X18767585Y-1720369D01*
X19108639Y-1742409D01*
X19447439Y-1697489D01*
X19770966Y-1587336D01*
X19969274Y-1481338D01*
X20077107Y-1206712D01*
X19050000Y-179605D01*
X18022893Y-1206712D01*
X14092089Y-1206712D01*
X15240162Y-58639D01*
X17307591Y-58639D01*
X17352511Y-397439D01*
X17462664Y-720966D01*
X17568662Y-919274D01*
X17843288Y-1027107D01*
X18870395Y0D01*
X19229605Y0D01*
X20256712Y-1027107D01*
X20531338Y-919274D01*
X20682216Y-612616D01*
X20770369Y-282415D01*
X20792409Y58639D01*
X20747489Y397439D01*
X20637336Y720966D01*
X20531338Y919274D01*
X20256712Y1027107D01*
X19229605Y0D01*
X18870395Y0D01*
X17843288Y1027107D01*
X17568662Y919274D01*
X17417784Y612616D01*
X17329631Y282415D01*
X17307591Y-58639D01*
X15240162Y-58639D01*
X16505513Y1206712D01*
X18022893Y1206712D01*
X19050000Y179605D01*
X20077107Y1206712D01*
X19969274Y1481338D01*
X19662616Y1632216D01*
X19332415Y1720369D01*
X18991361Y1742409D01*
X18652561Y1697489D01*
X18329034Y1587336D01*
X18130726Y1481338D01*
X18022893Y1206712D01*
X16505513Y1206712D01*
X17078802Y1780000D01*
X23836852Y1780000D01*
X23862463Y1718169D01*
X24052337Y1434002D01*
X24294002Y1192337D01*
X24578169Y1002463D01*
X24893919Y871675D01*
X25229117Y805000D01*
X25570883Y805000D01*
X25906081Y871675D01*
X26221831Y1002463D01*
X26505998Y1192337D01*
X26747663Y1434002D01*
X26937537Y1718169D01*
X27068325Y2033919D01*
X27135000Y2369117D01*
X27135000Y2710883D01*
X27068325Y3046081D01*
X26937537Y3361831D01*
X26747663Y3645998D01*
X26505998Y3887663D01*
X26221831Y4077537D01*
X25906081Y4208325D01*
X25570883Y4275000D01*
X25229117Y4275000D01*
X24893919Y4208325D01*
X24578169Y4077537D01*
X24294002Y3887663D01*
X24052337Y3645998D01*
X23862463Y3361831D01*
X23836852Y3300000D01*
X23536453Y3300000D01*
X23636738Y3400285D01*
X23925107Y3831859D01*
X24123739Y4311399D01*
X24225000Y4820475D01*
X24225000Y5339525D01*
X24123739Y5848601D01*
X23925107Y6328141D01*
X23636738Y6759715D01*
X23269715Y7126738D01*
X22838141Y7415107D01*
X22358601Y7613739D01*
X21849525Y7715000D01*
X21330475Y7715000D01*
X20821399Y7613739D01*
X20341859Y7415107D01*
X19910285Y7126738D01*
X19543262Y6759715D01*
X19254893Y6328141D01*
X19056261Y5848601D01*
X18955000Y5339525D01*
X18955000Y4820475D01*
X19056261Y4311399D01*
X19254893Y3831859D01*
X19543262Y3400285D01*
X19643547Y3300000D01*
X16801322Y3300000D01*
X16763999Y3303676D01*
X16726676Y3300000D01*
X16726667Y3300000D01*
X16615014Y3289003D01*
X16471753Y3245546D01*
X16339724Y3174974D01*
X16223999Y3080001D01*
X16200201Y3051003D01*
X8088199Y-5061000D01*
X8026061Y-5061000D01*
X7926980Y-5080708D01*
X7914144Y-5016179D01*
X7836123Y-4827821D01*
X7722855Y-4658303D01*
X7578692Y-4514140D01*
X7409174Y-4400872D01*
X7220816Y-4322851D01*
X7020857Y-4283077D01*
X6816979Y-4283077D01*
X6617020Y-4322851D01*
X6428662Y-4400872D01*
X6259144Y-4514140D01*
X6114981Y-4658303D01*
X6001713Y-4827821D01*
X5923692Y-5016179D01*
X5883918Y-5216138D01*
X-9500000Y-5216138D01*
X-9500000Y-1206712D01*
X-1027107Y-1206712D01*
X-919274Y-1481338D01*
X-612616Y-1632216D01*
X-282415Y-1720369D01*
X58639Y-1742409D01*
X397439Y-1697489D01*
X720966Y-1587336D01*
X919274Y-1481338D01*
X1027107Y-1206712D01*
X0Y-179605D01*
X-1027107Y-1206712D01*
X-9500000Y-1206712D01*
X-9500000Y-58639D01*
X-1742409Y-58639D01*
X-1697489Y-397439D01*
X-1587336Y-720966D01*
X-1481338Y-919274D01*
X-1206712Y-1027107D01*
X-179605Y0D01*
X179605Y0D01*
X1206712Y-1027107D01*
X1481338Y-919274D01*
X1632216Y-612616D01*
X1720369Y-282415D01*
X1742409Y58639D01*
X1697489Y397439D01*
X1587336Y720966D01*
X1481338Y919274D01*
X1206712Y1027107D01*
X179605Y0D01*
X-179605Y0D01*
X-1206712Y1027107D01*
X-1481338Y919274D01*
X-1632216Y612616D01*
X-1720369Y282415D01*
X-1742409Y-58639D01*
X-9500000Y-58639D01*
X-9500000Y1206712D01*
X-1027107Y1206712D01*
X0Y179605D01*
X1027107Y1206712D01*
X919274Y1481338D01*
X612616Y1632216D01*
X282415Y1720369D01*
X-58639Y1742409D01*
X-397439Y1697489D01*
X-720966Y1587336D01*
X-919274Y1481338D01*
X-1027107Y1206712D01*
X-9500000Y1206712D01*
X-9500000Y5339525D01*
X-95000Y5339525D01*
X-95000Y4820475D01*
X6261Y4311399D01*
X204893Y3831859D01*
X493262Y3400285D01*
X860285Y3033262D01*
X1291859Y2744893D01*
X1771399Y2546261D01*
X2280475Y2445000D01*
X2799525Y2445000D01*
X3308601Y2546261D01*
X3706033Y2710883D01*
X4615000Y2710883D01*
X4615000Y2369117D01*
X4681675Y2033919D01*
X4812463Y1718169D01*
X5002337Y1434002D01*
X5244002Y1192337D01*
X5528169Y1002463D01*
X5843919Y871675D01*
X6179117Y805000D01*
X6520883Y805000D01*
X6856081Y871675D01*
X7171831Y1002463D01*
X7455998Y1192337D01*
X7697663Y1434002D01*
X7887537Y1718169D01*
X8018325Y2033919D01*
X8085000Y2369117D01*
X8085000Y2710883D01*
X8018325Y3046081D01*
X7887537Y3361831D01*
X7697663Y3645998D01*
X7455998Y3887663D01*
X7171831Y4077537D01*
X6856081Y4208325D01*
X6520883Y4275000D01*
X6179117Y4275000D01*
X5843919Y4208325D01*
X5528169Y4077537D01*
X5244002Y3887663D01*
X5002337Y3645998D01*
X4812463Y3361831D01*
X4681675Y3046081D01*
X4615000Y2710883D01*
X3706033Y2710883D01*
X3788141Y2744893D01*
X4219715Y3033262D01*
X4586738Y3400285D01*
X4875107Y3831859D01*
X5073739Y4311399D01*
X5175000Y4820475D01*
X5175000Y5339525D01*
X5073739Y5848601D01*
X4875107Y6328141D01*
X4586738Y6759715D01*
X4219715Y7126738D01*
X3788141Y7415107D01*
X3308601Y7613739D01*
X2799525Y7715000D01*
X2280475Y7715000D01*
X1771399Y7613739D01*
X1291859Y7415107D01*
X860285Y7126738D01*
X493262Y6759715D01*
X204893Y6328141D01*
X6261Y5848601D01*
X-95000Y5339525D01*
X-9500000Y5339525D01*
X-9500000Y9194435D01*
X484040Y9194435D01*
X551020Y8954344D01*
X800048Y8837244D01*
X1067135Y8770977D01*
X1342017Y8758090D01*
X1614133Y8799078D01*
X1873023Y8892364D01*
X1988980Y8954344D01*
X2055960Y9194435D01*
X1270000Y9980395D01*
X484040Y9194435D01*
X-9500000Y9194435D01*
X-9500000Y10087983D01*
X-131910Y10087983D01*
X-90922Y9815867D01*
X2364Y9556977D01*
X64344Y9441020D01*
X304435Y9374040D01*
X1090395Y10160000D01*
X1449605Y10160000D01*
X2235565Y9374040D01*
X2475656Y9441020D01*
X2539485Y9576760D01*
X2571995Y9498273D01*
X2724880Y9269465D01*
X2919465Y9074880D01*
X3148273Y8921995D01*
X3402510Y8816686D01*
X3672408Y8763000D01*
X3947592Y8763000D01*
X4217490Y8816686D01*
X4471727Y8921995D01*
X4700535Y9074880D01*
X4895120Y9269465D01*
X5048005Y9498273D01*
X5153314Y9752510D01*
X5207000Y10022408D01*
X5207000Y10297592D01*
X5153314Y10567490D01*
X5048005Y10821727D01*
X4895120Y11050535D01*
X4700535Y11245120D01*
X4471727Y11398005D01*
X4217490Y11503314D01*
X3947592Y11557000D01*
X3672408Y11557000D01*
X3402510Y11503314D01*
X3148273Y11398005D01*
X2919465Y11245120D01*
X2724880Y11050535D01*
X2571995Y10821727D01*
X2542308Y10750057D01*
X2537636Y10763023D01*
X2475656Y10878980D01*
X2235565Y10945960D01*
X1449605Y10160000D01*
X1090395Y10160000D01*
X304435Y10945960D01*
X64344Y10878980D01*
X-52756Y10629952D01*
X-119023Y10362865D01*
X-131910Y10087983D01*
X-9500000Y10087983D01*
X-9500000Y11125565D01*
X484040Y11125565D01*
X1270000Y10339605D01*
X2055960Y11125565D01*
X1988980Y11365656D01*
X1739952Y11482756D01*
X1472865Y11549023D01*
X1197983Y11561910D01*
X925867Y11520922D01*
X666977Y11427636D01*
X551020Y11365656D01*
X484040Y11125565D01*
X-9500000Y11125565D01*
X-9500000Y17120000D01*
X6943290Y17120000D01*
X6833491Y16986210D01*
G37*
X6833491Y16986210D02*
X6732741Y16797719D01*
X6670700Y16593196D01*
X6655000Y16433793D01*
X6655000Y15527206D01*
X6670700Y15367803D01*
X6732742Y15163280D01*
X6833492Y14974790D01*
X6969079Y14809578D01*
X6980001Y14800615D01*
X6980000Y14130386D01*
X6969078Y14121422D01*
X6833491Y13956210D01*
X6732741Y13767719D01*
X6670700Y13563196D01*
X6655000Y13403793D01*
X6655000Y11797206D01*
X6670700Y11637803D01*
X6732742Y11433280D01*
X6833492Y11244790D01*
X6969079Y11079578D01*
X7134291Y10943991D01*
X7322781Y10843241D01*
X7527304Y10781200D01*
X7740000Y10760251D01*
X7952697Y10781200D01*
X8157220Y10843241D01*
X8345710Y10943991D01*
X8510922Y11079578D01*
X8646509Y11244790D01*
X8747259Y11433280D01*
X8757746Y11467851D01*
X8910395Y11620500D01*
X8896253Y11634643D01*
X8955000Y11693390D01*
X8955000Y11523486D01*
X8991101Y11341996D01*
X8599088Y10949983D01*
X8615784Y10751733D01*
X8794384Y10675911D01*
X8984344Y10636390D01*
X9178364Y10634687D01*
X9368989Y10670868D01*
X9515651Y10730115D01*
X9652686Y10673353D01*
X9842986Y10635500D01*
X9850199Y10635500D01*
X10455701Y10029997D01*
X10479499Y10000999D01*
X10508497Y9977201D01*
X10595224Y9906026D01*
X10727253Y9835454D01*
X10870514Y9791997D01*
X11019500Y9777323D01*
X11056833Y9781000D01*
X11361289Y9781000D01*
X11405226Y9737063D01*
X11574744Y9623795D01*
X11763102Y9545774D01*
X11963061Y9506000D01*
X12166939Y9506000D01*
X12366898Y9545774D01*
X12555256Y9623795D01*
X12724774Y9737063D01*
X12768711Y9781000D01*
X13073178Y9781000D01*
X13110500Y9777324D01*
X13147822Y9781000D01*
X13147833Y9781000D01*
X13259486Y9791997D01*
X13402747Y9835454D01*
X13534776Y9906026D01*
X13650501Y10000999D01*
X13674304Y10030002D01*
X14279802Y10635500D01*
X14287014Y10635500D01*
X14477314Y10673353D01*
X14615542Y10730609D01*
X14744384Y10675911D01*
X14934344Y10636390D01*
X15128364Y10634687D01*
X15318989Y10670868D01*
X15498893Y10743543D01*
X15514216Y10751733D01*
X15530912Y10949983D01*
X15138899Y11341996D01*
X15175000Y11523486D01*
X15175000Y11693390D01*
X15233748Y11634643D01*
X15219605Y11620500D01*
X15372255Y11467850D01*
X15382742Y11433280D01*
X15483492Y11244790D01*
X15619079Y11079578D01*
X15784291Y10943991D01*
X15902178Y10880979D01*
X9104199Y4083000D01*
X9042061Y4083000D01*
X8842102Y4043226D01*
X8653744Y3965205D01*
X8484226Y3851937D01*
X8340063Y3707774D01*
X8226795Y3538256D01*
X8148774Y3349898D01*
X8109000Y3149939D01*
X8109000Y2946061D01*
X8148774Y2746102D01*
X8226795Y2557744D01*
X8340063Y2388226D01*
X8484226Y2244063D01*
X8653744Y2130795D01*
X8842102Y2052774D01*
X9042061Y2013000D01*
X9245939Y2013000D01*
X9445898Y2052774D01*
X9634256Y2130795D01*
X9803774Y2244063D01*
X9947937Y2388226D01*
X10061205Y2557744D01*
X10139226Y2746102D01*
X10179000Y2946061D01*
X10179000Y3008199D01*
X16365236Y9194435D01*
X19534040Y9194435D01*
X19601020Y8954344D01*
X19850048Y8837244D01*
X20117135Y8770977D01*
X20392017Y8758090D01*
X20664133Y8799078D01*
X20923023Y8892364D01*
X21038980Y8954344D01*
X21105960Y9194435D01*
X20320000Y9980395D01*
X19534040Y9194435D01*
X16365236Y9194435D01*
X17258784Y10087983D01*
X18918090Y10087983D01*
X18959078Y9815867D01*
X19052364Y9556977D01*
X19114344Y9441020D01*
X19354435Y9374040D01*
X20140395Y10160000D01*
X20499605Y10160000D01*
X21285565Y9374040D01*
X21525656Y9441020D01*
X21589485Y9576760D01*
X21621995Y9498273D01*
X21774880Y9269465D01*
X21969465Y9074880D01*
X22198273Y8921995D01*
X22452510Y8816686D01*
X22722408Y8763000D01*
X22997592Y8763000D01*
X23267490Y8816686D01*
X23521727Y8921995D01*
X23750535Y9074880D01*
X23945120Y9269465D01*
X24098005Y9498273D01*
X24203314Y9752510D01*
X24257000Y10022408D01*
X24257000Y10297592D01*
X24203314Y10567490D01*
X24098005Y10821727D01*
X23945120Y11050535D01*
X23750535Y11245120D01*
X23521727Y11398005D01*
X23267490Y11503314D01*
X22997592Y11557000D01*
X22722408Y11557000D01*
X22452510Y11503314D01*
X22198273Y11398005D01*
X21969465Y11245120D01*
X21774880Y11050535D01*
X21621995Y10821727D01*
X21592308Y10750057D01*
X21587636Y10763023D01*
X21525656Y10878980D01*
X21285565Y10945960D01*
X20499605Y10160000D01*
X20140395Y10160000D01*
X19354435Y10945960D01*
X19114344Y10878980D01*
X18997244Y10629952D01*
X18930977Y10362865D01*
X18918090Y10087983D01*
X17258784Y10087983D01*
X18296366Y11125565D01*
X19534040Y11125565D01*
X20320000Y10339605D01*
X21105960Y11125565D01*
X21038980Y11365656D01*
X20789952Y11482756D01*
X20522865Y11549023D01*
X20247983Y11561910D01*
X19975867Y11520922D01*
X19716977Y11427636D01*
X19601020Y11365656D01*
X19534040Y11125565D01*
X18296366Y11125565D01*
X20634802Y13464000D01*
X21648289Y13464000D01*
X21692226Y13420063D01*
X21861744Y13306795D01*
X22050102Y13228774D01*
X22250061Y13189000D01*
X22453939Y13189000D01*
X22653898Y13228774D01*
X22842256Y13306795D01*
X23011774Y13420063D01*
X23155937Y13564226D01*
X23269205Y13733744D01*
X23347226Y13922102D01*
X23387000Y14122061D01*
X23387000Y14325939D01*
X23347226Y14525898D01*
X23269205Y14714256D01*
X23155937Y14883774D01*
X23011774Y15027937D01*
X22842256Y15141205D01*
X22653898Y15219226D01*
X22453939Y15259000D01*
X22250061Y15259000D01*
X22050102Y15219226D01*
X21861744Y15141205D01*
X21692226Y15027937D01*
X21648289Y14984000D01*
X20357325Y14984000D01*
X20320000Y14987676D01*
X20282675Y14984000D01*
X20282667Y14984000D01*
X20171014Y14973003D01*
X20027753Y14929546D01*
X19895724Y14858974D01*
X19779999Y14764001D01*
X19756201Y14735003D01*
X17475000Y12453802D01*
X17475000Y13403794D01*
X17459300Y13563197D01*
X17397259Y13767720D01*
X17296509Y13956210D01*
X17160922Y14121422D01*
X17150000Y14130386D01*
X17150000Y14800614D01*
X17160922Y14809578D01*
X17296509Y14974790D01*
X17397259Y15163280D01*
X17459300Y15367804D01*
X17475000Y15527207D01*
X17475000Y16433794D01*
X17459300Y16593197D01*
X17397259Y16797720D01*
X17296509Y16986210D01*
X17186710Y17120000D01*
X33630001Y17120000D01*
X33630000Y-26010000D01*
X-9500000Y-26010000D01*
X-9500000Y-22645000D01*
X9306928Y-22645000D01*
X9306928Y-24345000D01*
X9319188Y-24469482D01*
X9355498Y-24589180D01*
X9414463Y-24699494D01*
X9493815Y-24796185D01*
X9590506Y-24875537D01*
X9700820Y-24934502D01*
X9820518Y-24970812D01*
X9945000Y-24983072D01*
X11645000Y-24983072D01*
X11769482Y-24970812D01*
X11889180Y-24934502D01*
X11999494Y-24875537D01*
X12096185Y-24796185D01*
X12175537Y-24699494D01*
X12234502Y-24589180D01*
X12256513Y-24516620D01*
X12388368Y-24648475D01*
X12631589Y-24810990D01*
X12901842Y-24922932D01*
X13188740Y-24980000D01*
X13481260Y-24980000D01*
X13768158Y-24922932D01*
X14038411Y-24810990D01*
X14281632Y-24648475D01*
X14488475Y-24441632D01*
X14613178Y-24255000D01*
X23711678Y-24255000D01*
X23749000Y-24258676D01*
X23786322Y-24255000D01*
X23786333Y-24255000D01*
X23897986Y-24244003D01*
X24041247Y-24200546D01*
X24173276Y-24129974D01*
X24289001Y-24035001D01*
X24312804Y-24005997D01*
X32261003Y-16057799D01*
X32290001Y-16034001D01*
X32384974Y-15918276D01*
X32455546Y-15786247D01*
X32499003Y-15642986D01*
X32510000Y-15531333D01*
X32510000Y-15531325D01*
X32513676Y-15494000D01*
X32510000Y-15456675D01*
X32510000Y-4609333D01*
X32513677Y-4572000D01*
X32510000Y-4534667D01*
X32510000Y7678289D01*
X32553937Y7722226D01*
X32667205Y7891744D01*
X32745226Y8080102D01*
X32785000Y8280061D01*
X32785000Y8483939D01*
X32745226Y8683898D01*
X32667205Y8872256D01*
X32553937Y9041774D01*
X32409774Y9185937D01*
X32240256Y9299205D01*
X32051898Y9377226D01*
X31851939Y9417000D01*
X31648061Y9417000D01*
X31448102Y9377226D01*
X31259744Y9299205D01*
X31090226Y9185937D01*
X30946063Y9041774D01*
X30832795Y8872256D01*
X30754774Y8683898D01*
X30715000Y8483939D01*
X30715000Y8280061D01*
X30754774Y8080102D01*
X30832795Y7891744D01*
X30946063Y7722226D01*
X30990000Y7678289D01*
X30990001Y-3812000D01*
X27373711Y-3812000D01*
X27329774Y-3768063D01*
X27160256Y-3654795D01*
X26971898Y-3576774D01*
X26771939Y-3537000D01*
X26568061Y-3537000D01*
X26368102Y-3576774D01*
X26179744Y-3654795D01*
X26010226Y-3768063D01*
X25866063Y-3912226D01*
X25752795Y-4081744D01*
X25674774Y-4270102D01*
X25635000Y-4470061D01*
X25635000Y-4673939D01*
X25674774Y-4873898D01*
X25752795Y-5062256D01*
X25866063Y-5231774D01*
X26010226Y-5375937D01*
X26179744Y-5489205D01*
X26368102Y-5567226D01*
X26568061Y-5607000D01*
X26771939Y-5607000D01*
X26971898Y-5567226D01*
X27160256Y-5489205D01*
X27329774Y-5375937D01*
X27373711Y-5332000D01*
X30990000Y-5332000D01*
X30990001Y-15179197D01*
X23434199Y-22735000D01*
X14613178Y-22735000D01*
X14488475Y-22548368D01*
X14281632Y-22341525D01*
X14107240Y-22225000D01*
X14281632Y-22108475D01*
X14488475Y-21901632D01*
X14650990Y-21658411D01*
X14762932Y-21388158D01*
X14820000Y-21101260D01*
X14820000Y-20808740D01*
X14762932Y-20521842D01*
X14653113Y-20256712D01*
X18022893Y-20256712D01*
X18130726Y-20531338D01*
X18437384Y-20682216D01*
X18767585Y-20770369D01*
X19108639Y-20792409D01*
X19447439Y-20747489D01*
X19770966Y-20637336D01*
X19969274Y-20531338D01*
X20077107Y-20256712D01*
X19050000Y-19229605D01*
X18022893Y-20256712D01*
X14653113Y-20256712D01*
X14650990Y-20251589D01*
X14488475Y-20008368D01*
X14281632Y-19801525D01*
X14099466Y-19679805D01*
X14216355Y-19610178D01*
X14432588Y-19415269D01*
X14606641Y-19181920D01*
X14641545Y-19108639D01*
X17307591Y-19108639D01*
X17352511Y-19447439D01*
X17462664Y-19770966D01*
X17568662Y-19969274D01*
X17843288Y-20077107D01*
X18870395Y-19050000D01*
X19229605Y-19050000D01*
X20256712Y-20077107D01*
X20531338Y-19969274D01*
X20682216Y-19662616D01*
X20770369Y-19332415D01*
X20792409Y-18991361D01*
X20747489Y-18652561D01*
X20637336Y-18329034D01*
X20531338Y-18130726D01*
X20256712Y-18022893D01*
X19229605Y-19050000D01*
X18870395Y-19050000D01*
X17843288Y-18022893D01*
X17568662Y-18130726D01*
X17417784Y-18437384D01*
X17329631Y-18767585D01*
X17307591Y-19108639D01*
X14641545Y-19108639D01*
X14731825Y-18919099D01*
X14776476Y-18771890D01*
X14655155Y-18542000D01*
X13462000Y-18542000D01*
X13462000Y-18562000D01*
X13208000Y-18562000D01*
X13208000Y-18542000D01*
X13188000Y-18542000D01*
X13188000Y-18288000D01*
X13208000Y-18288000D01*
X13208000Y-17094186D01*
X13462000Y-17094186D01*
X13462000Y-18288000D01*
X14655155Y-18288000D01*
X14776476Y-18058110D01*
X14731825Y-17910901D01*
X14699621Y-17843288D01*
X18022893Y-17843288D01*
X19050000Y-18870395D01*
X20077107Y-17843288D01*
X19969274Y-17568662D01*
X19662616Y-17417784D01*
X19332415Y-17329631D01*
X18991361Y-17307591D01*
X18652561Y-17352511D01*
X18329034Y-17462664D01*
X18130726Y-17568662D01*
X18022893Y-17843288D01*
X14699621Y-17843288D01*
X14606641Y-17648080D01*
X14432588Y-17414731D01*
X14216355Y-17219822D01*
X13966252Y-17070843D01*
X13691891Y-16973519D01*
X13462000Y-17094186D01*
X13208000Y-17094186D01*
X12978109Y-16973519D01*
X12703748Y-17070843D01*
X12453645Y-17219822D01*
X12237412Y-17414731D01*
X12066100Y-17644406D01*
X11948475Y-17468368D01*
X11741632Y-17261525D01*
X11498411Y-17099010D01*
X11228158Y-16987068D01*
X10941260Y-16930000D01*
X10648740Y-16930000D01*
X10361842Y-16987068D01*
X10091589Y-17099010D01*
X9848368Y-17261525D01*
X9641525Y-17468368D01*
X9479010Y-17711589D01*
X9367068Y-17981842D01*
X9310000Y-18268740D01*
X9310000Y-18561260D01*
X9367068Y-18848158D01*
X9479010Y-19118411D01*
X9641525Y-19361632D01*
X9848368Y-19568475D01*
X10022760Y-19685000D01*
X9848368Y-19801525D01*
X9641525Y-20008368D01*
X9479010Y-20251589D01*
X9367068Y-20521842D01*
X9310000Y-20808740D01*
X9310000Y-21101260D01*
X9367068Y-21388158D01*
X9479010Y-21658411D01*
X9641525Y-21901632D01*
X9773380Y-22033487D01*
X9700820Y-22055498D01*
X9590506Y-22114463D01*
X9493815Y-22193815D01*
X9414463Y-22290506D01*
X9355498Y-22400820D01*
X9319188Y-22520518D01*
X9306928Y-22645000D01*
X-9500000Y-22645000D01*
X-9500000Y-20256712D01*
X-1027107Y-20256712D01*
X-919274Y-20531338D01*
X-612616Y-20682216D01*
X-282415Y-20770369D01*
X58639Y-20792409D01*
X397439Y-20747489D01*
X720966Y-20637336D01*
X919274Y-20531338D01*
X1027107Y-20256712D01*
X0Y-19229605D01*
X-1027107Y-20256712D01*
X-9500000Y-20256712D01*
X-9500000Y-19108639D01*
X-1742409Y-19108639D01*
X-1697489Y-19447439D01*
X-1587336Y-19770966D01*
X-1481338Y-19969274D01*
X-1206712Y-20077107D01*
X-179605Y-19050000D01*
X179605Y-19050000D01*
X1206712Y-20077107D01*
X1481338Y-19969274D01*
X1632216Y-19662616D01*
X1720369Y-19332415D01*
X1742409Y-18991361D01*
X1697489Y-18652561D01*
X1587336Y-18329034D01*
X1481338Y-18130726D01*
X1206712Y-18022893D01*
X179605Y-19050000D01*
X-179605Y-19050000D01*
X-1206712Y-18022893D01*
X-1481338Y-18130726D01*
X-1632216Y-18437384D01*
X-1720369Y-18767585D01*
X-1742409Y-19108639D01*
X-9500000Y-19108639D01*
X-9500000Y-17843288D01*
X-1027107Y-17843288D01*
X0Y-18870395D01*
X1027107Y-17843288D01*
X919274Y-17568662D01*
X612616Y-17417784D01*
X282415Y-17329631D01*
X-58639Y-17307591D01*
X-397439Y-17352511D01*
X-720966Y-17462664D01*
X-919274Y-17568662D01*
X-1027107Y-17843288D01*
X-9500000Y-17843288D01*
X-9500000Y-13710475D01*
X-95000Y-13710475D01*
X-95000Y-14229525D01*
X6261Y-14738601D01*
X204893Y-15218141D01*
X493262Y-15649715D01*
X860285Y-16016738D01*
X1291859Y-16305107D01*
X1771399Y-16503739D01*
X2280475Y-16605000D01*
X2799525Y-16605000D01*
X3308601Y-16503739D01*
X3788141Y-16305107D01*
X4219715Y-16016738D01*
X4502340Y-15734113D01*
X4540000Y-15780001D01*
X4568998Y-15803799D01*
X4707286Y-15942088D01*
X4681675Y-16003919D01*
X4615000Y-16339117D01*
X4615000Y-16680883D01*
X4681675Y-17016081D01*
X4812463Y-17331831D01*
X5002337Y-17615998D01*
X5244002Y-17857663D01*
X5528169Y-18047537D01*
X5843919Y-18178325D01*
X6179117Y-18245000D01*
X6520883Y-18245000D01*
X6856081Y-18178325D01*
X7171831Y-18047537D01*
X7455998Y-17857663D01*
X7697663Y-17615998D01*
X7887537Y-17331831D01*
X8018325Y-17016081D01*
X8085000Y-16680883D01*
X8085000Y-16339117D01*
X8018325Y-16003919D01*
X7887537Y-15688169D01*
X7697663Y-15404002D01*
X7455998Y-15162337D01*
X7171831Y-14972463D01*
X6856081Y-14841675D01*
X6520883Y-14775000D01*
X6179117Y-14775000D01*
X5843919Y-14841675D01*
X5840000Y-14843298D01*
X5840000Y-8831711D01*
X5883937Y-8787774D01*
X5997205Y-8618256D01*
X6075226Y-8429898D01*
X6115000Y-8229939D01*
X6115000Y-8026061D01*
X6075226Y-7826102D01*
X5997205Y-7637744D01*
X5883937Y-7468226D01*
X5739774Y-7324063D01*
X5570256Y-7210795D01*
X5381898Y-7132774D01*
X5181939Y-7093000D01*
X4978061Y-7093000D01*
X4778102Y-7132774D01*
X4589744Y-7210795D01*
X4420226Y-7324063D01*
X4276063Y-7468226D01*
X4222305Y-7548681D01*
X4217490Y-7546686D01*
X3947592Y-7493000D01*
X3672408Y-7493000D01*
X3402510Y-7546686D01*
X3148273Y-7651995D01*
X2919465Y-7804880D01*
X2724880Y-7999465D01*
X2571995Y-8228273D01*
X2542308Y-8299943D01*
X2537636Y-8286977D01*
X2475656Y-8171020D01*
X2235565Y-8104040D01*
X1449605Y-8890000D01*
X2235565Y-9675960D01*
X2475656Y-9608980D01*
X2539485Y-9473240D01*
X2571995Y-9551727D01*
X2724880Y-9780535D01*
X2919465Y-9975120D01*
X3148273Y-10128005D01*
X3402510Y-10233314D01*
X3672408Y-10287000D01*
X3947592Y-10287000D01*
X4217490Y-10233314D01*
X4320000Y-10190853D01*
X4320001Y-12023548D01*
X4219715Y-11923262D01*
X3788141Y-11634893D01*
X3308601Y-11436261D01*
X2799525Y-11335000D01*
X2280475Y-11335000D01*
X1771399Y-11436261D01*
X1291859Y-11634893D01*
X860285Y-11923262D01*
X493262Y-12290285D01*
X204893Y-12721859D01*
X6261Y-13201399D01*
X-95000Y-13710475D01*
X-9500000Y-13710475D01*
X-9500000Y-9855565D01*
X484040Y-9855565D01*
X551020Y-10095656D01*
X800048Y-10212756D01*
X1067135Y-10279023D01*
X1342017Y-10291910D01*
X1614133Y-10250922D01*
X1873023Y-10157636D01*
X1988980Y-10095656D01*
X2055960Y-9855565D01*
X1270000Y-9069605D01*
X484040Y-9855565D01*
X-9500000Y-9855565D01*
X-9500000Y-8962017D01*
X-131910Y-8962017D01*
X-90922Y-9234133D01*
X2364Y-9493023D01*
X64344Y-9608980D01*
X304435Y-9675960D01*
X1090395Y-8890000D01*
X304435Y-8104040D01*
X64344Y-8171020D01*
X-52756Y-8420048D01*
X-119023Y-8687135D01*
X-131910Y-8962017D01*
X-9500000Y-8962017D01*
X-9500000Y-7924435D01*
X484040Y-7924435D01*
X1270000Y-8710395D01*
X2055960Y-7924435D01*
X1988980Y-7684344D01*
X1739952Y-7567244D01*
X1472865Y-7500977D01*
X1197983Y-7488090D01*
X925867Y-7529078D01*
X666977Y-7622364D01*
X551020Y-7684344D01*
X484040Y-7924435D01*
X-9500000Y-7924435D01*
X-9500000Y-5216138D01*
X5883918Y-5216138D01*
X5883918Y-5420016D01*
X5923692Y-5619975D01*
X6001713Y-5808333D01*
X6114981Y-5977851D01*
X6169931Y-6032801D01*
X6213372Y-6176009D01*
X6225094Y-6197939D01*
X6283944Y-6308038D01*
X6349770Y-6388246D01*
X6378918Y-6423763D01*
X6407916Y-6447561D01*
X16981357Y-17021003D01*
X17005155Y-17050001D01*
X17034153Y-17073799D01*
X17120879Y-17144974D01*
X17252909Y-17215546D01*
X17396170Y-17259003D01*
X17507823Y-17270000D01*
X17507833Y-17270000D01*
X17545156Y-17273676D01*
X17582479Y-17270000D01*
X23836852Y-17270000D01*
X23862463Y-17331831D01*
X24052337Y-17615998D01*
X24294002Y-17857663D01*
X24578169Y-18047537D01*
X24893919Y-18178325D01*
X25229117Y-18245000D01*
X25570883Y-18245000D01*
X25906081Y-18178325D01*
X26221831Y-18047537D01*
X26505998Y-17857663D01*
X26747663Y-17615998D01*
X26937537Y-17331831D01*
X27068325Y-17016081D01*
X27135000Y-16680883D01*
X27135000Y-16339117D01*
X27068325Y-16003919D01*
X26937537Y-15688169D01*
X26747663Y-15404002D01*
X26505998Y-15162337D01*
X26221831Y-14972463D01*
X25906081Y-14841675D01*
X25570883Y-14775000D01*
X25229117Y-14775000D01*
X24893919Y-14841675D01*
X24578169Y-14972463D01*
X24294002Y-15162337D01*
X24052337Y-15404002D01*
X23862463Y-15688169D01*
X23836852Y-15750000D01*
X23536453Y-15750000D01*
X23636738Y-15649715D01*
X23925107Y-15218141D01*
X24123739Y-14738601D01*
X24225000Y-14229525D01*
X24225000Y-13710475D01*
X24123739Y-13201399D01*
X23925107Y-12721859D01*
X23636738Y-12290285D01*
X23269715Y-11923262D01*
X22838141Y-11634893D01*
X22358601Y-11436261D01*
X21849525Y-11335000D01*
X21330475Y-11335000D01*
X20821399Y-11436261D01*
X20341859Y-11634893D01*
X19910285Y-11923262D01*
X19543262Y-12290285D01*
X19254893Y-12721859D01*
X19056261Y-13201399D01*
X18955000Y-13710475D01*
X18955000Y-14229525D01*
X19056261Y-14738601D01*
X19254893Y-15218141D01*
X19543262Y-15649715D01*
X19643547Y-15750000D01*
X17859958Y-15750000D01*
X11965523Y-9855565D01*
X19534040Y-9855565D01*
X19601020Y-10095656D01*
X19850048Y-10212756D01*
X20117135Y-10279023D01*
X20392017Y-10291910D01*
X20664133Y-10250922D01*
X20923023Y-10157636D01*
X21038980Y-10095656D01*
X21105960Y-9855565D01*
X20320000Y-9069605D01*
X19534040Y-9855565D01*
X11965523Y-9855565D01*
X11071975Y-8962017D01*
X18918090Y-8962017D01*
X18959078Y-9234133D01*
X19052364Y-9493023D01*
X19114344Y-9608980D01*
X19354435Y-9675960D01*
X20140395Y-8890000D01*
X20499605Y-8890000D01*
X21285565Y-9675960D01*
X21525656Y-9608980D01*
X21589485Y-9473240D01*
X21621995Y-9551727D01*
X21774880Y-9780535D01*
X21969465Y-9975120D01*
X22198273Y-10128005D01*
X22452510Y-10233314D01*
X22722408Y-10287000D01*
X22997592Y-10287000D01*
X23267490Y-10233314D01*
X23521727Y-10128005D01*
X23750535Y-9975120D01*
X23945120Y-9780535D01*
X24098005Y-9551727D01*
X24203314Y-9297490D01*
X24257000Y-9027592D01*
X24257000Y-8752408D01*
X24203314Y-8482510D01*
X24098005Y-8228273D01*
X23945120Y-7999465D01*
X23750535Y-7804880D01*
X23521727Y-7651995D01*
X23267490Y-7546686D01*
X22997592Y-7493000D01*
X22722408Y-7493000D01*
X22452510Y-7546686D01*
X22198273Y-7651995D01*
X21969465Y-7804880D01*
X21774880Y-7999465D01*
X21621995Y-8228273D01*
X21592308Y-8299943D01*
X21587636Y-8286977D01*
X21525656Y-8171020D01*
X21285565Y-8104040D01*
X20499605Y-8890000D01*
X20140395Y-8890000D01*
X19354435Y-8104040D01*
X19114344Y-8171020D01*
X18997244Y-8420048D01*
X18930977Y-8687135D01*
X18918090Y-8962017D01*
X11071975Y-8962017D01*
X10034393Y-7924435D01*
X19534040Y-7924435D01*
X20320000Y-8710395D01*
X21105960Y-7924435D01*
X21038980Y-7684344D01*
X20789952Y-7567244D01*
X20522865Y-7500977D01*
X20247983Y-7488090D01*
X19975867Y-7529078D01*
X19716977Y-7622364D01*
X19601020Y-7684344D01*
X19534040Y-7924435D01*
X10034393Y-7924435D01*
X8898834Y-6788877D01*
X8931937Y-6755774D01*
X9045205Y-6586256D01*
X9123226Y-6397898D01*
X9163000Y-6197939D01*
X9163000Y-6135801D01*
X14092089Y-1206712D01*
X18022893Y-1206712D01*
X18130726Y-1481338D01*
X18437384Y-1632216D01*
X18767585Y-1720369D01*
X19108639Y-1742409D01*
X19447439Y-1697489D01*
X19770966Y-1587336D01*
X19969274Y-1481338D01*
X20077107Y-1206712D01*
X19050000Y-179605D01*
X18022893Y-1206712D01*
X14092089Y-1206712D01*
X15240162Y-58639D01*
X17307591Y-58639D01*
X17352511Y-397439D01*
X17462664Y-720966D01*
X17568662Y-919274D01*
X17843288Y-1027107D01*
X18870395Y0D01*
X19229605Y0D01*
X20256712Y-1027107D01*
X20531338Y-919274D01*
X20682216Y-612616D01*
X20770369Y-282415D01*
X20792409Y58639D01*
X20747489Y397439D01*
X20637336Y720966D01*
X20531338Y919274D01*
X20256712Y1027107D01*
X19229605Y0D01*
X18870395Y0D01*
X17843288Y1027107D01*
X17568662Y919274D01*
X17417784Y612616D01*
X17329631Y282415D01*
X17307591Y-58639D01*
X15240162Y-58639D01*
X16505513Y1206712D01*
X18022893Y1206712D01*
X19050000Y179605D01*
X20077107Y1206712D01*
X19969274Y1481338D01*
X19662616Y1632216D01*
X19332415Y1720369D01*
X18991361Y1742409D01*
X18652561Y1697489D01*
X18329034Y1587336D01*
X18130726Y1481338D01*
X18022893Y1206712D01*
X16505513Y1206712D01*
X17078802Y1780000D01*
X23836852Y1780000D01*
X23862463Y1718169D01*
X24052337Y1434002D01*
X24294002Y1192337D01*
X24578169Y1002463D01*
X24893919Y871675D01*
X25229117Y805000D01*
X25570883Y805000D01*
X25906081Y871675D01*
X26221831Y1002463D01*
X26505998Y1192337D01*
X26747663Y1434002D01*
X26937537Y1718169D01*
X27068325Y2033919D01*
X27135000Y2369117D01*
X27135000Y2710883D01*
X27068325Y3046081D01*
X26937537Y3361831D01*
X26747663Y3645998D01*
X26505998Y3887663D01*
X26221831Y4077537D01*
X25906081Y4208325D01*
X25570883Y4275000D01*
X25229117Y4275000D01*
X24893919Y4208325D01*
X24578169Y4077537D01*
X24294002Y3887663D01*
X24052337Y3645998D01*
X23862463Y3361831D01*
X23836852Y3300000D01*
X23536453Y3300000D01*
X23636738Y3400285D01*
X23925107Y3831859D01*
X24123739Y4311399D01*
X24225000Y4820475D01*
X24225000Y5339525D01*
X24123739Y5848601D01*
X23925107Y6328141D01*
X23636738Y6759715D01*
X23269715Y7126738D01*
X22838141Y7415107D01*
X22358601Y7613739D01*
X21849525Y7715000D01*
X21330475Y7715000D01*
X20821399Y7613739D01*
X20341859Y7415107D01*
X19910285Y7126738D01*
X19543262Y6759715D01*
X19254893Y6328141D01*
X19056261Y5848601D01*
X18955000Y5339525D01*
X18955000Y4820475D01*
X19056261Y4311399D01*
X19254893Y3831859D01*
X19543262Y3400285D01*
X19643547Y3300000D01*
X16801322Y3300000D01*
X16763999Y3303676D01*
X16726676Y3300000D01*
X16726667Y3300000D01*
X16615014Y3289003D01*
X16471753Y3245546D01*
X16339724Y3174974D01*
X16223999Y3080001D01*
X16200201Y3051003D01*
X8088199Y-5061000D01*
X8026061Y-5061000D01*
X7926980Y-5080708D01*
X7914144Y-5016179D01*
X7836123Y-4827821D01*
X7722855Y-4658303D01*
X7578692Y-4514140D01*
X7409174Y-4400872D01*
X7220816Y-4322851D01*
X7020857Y-4283077D01*
X6816979Y-4283077D01*
X6617020Y-4322851D01*
X6428662Y-4400872D01*
X6259144Y-4514140D01*
X6114981Y-4658303D01*
X6001713Y-4827821D01*
X5923692Y-5016179D01*
X5883918Y-5216138D01*
X-9500000Y-5216138D01*
X-9500000Y-1206712D01*
X-1027107Y-1206712D01*
X-919274Y-1481338D01*
X-612616Y-1632216D01*
X-282415Y-1720369D01*
X58639Y-1742409D01*
X397439Y-1697489D01*
X720966Y-1587336D01*
X919274Y-1481338D01*
X1027107Y-1206712D01*
X0Y-179605D01*
X-1027107Y-1206712D01*
X-9500000Y-1206712D01*
X-9500000Y-58639D01*
X-1742409Y-58639D01*
X-1697489Y-397439D01*
X-1587336Y-720966D01*
X-1481338Y-919274D01*
X-1206712Y-1027107D01*
X-179605Y0D01*
X179605Y0D01*
X1206712Y-1027107D01*
X1481338Y-919274D01*
X1632216Y-612616D01*
X1720369Y-282415D01*
X1742409Y58639D01*
X1697489Y397439D01*
X1587336Y720966D01*
X1481338Y919274D01*
X1206712Y1027107D01*
X179605Y0D01*
X-179605Y0D01*
X-1206712Y1027107D01*
X-1481338Y919274D01*
X-1632216Y612616D01*
X-1720369Y282415D01*
X-1742409Y-58639D01*
X-9500000Y-58639D01*
X-9500000Y1206712D01*
X-1027107Y1206712D01*
X0Y179605D01*
X1027107Y1206712D01*
X919274Y1481338D01*
X612616Y1632216D01*
X282415Y1720369D01*
X-58639Y1742409D01*
X-397439Y1697489D01*
X-720966Y1587336D01*
X-919274Y1481338D01*
X-1027107Y1206712D01*
X-9500000Y1206712D01*
X-9500000Y5339525D01*
X-95000Y5339525D01*
X-95000Y4820475D01*
X6261Y4311399D01*
X204893Y3831859D01*
X493262Y3400285D01*
X860285Y3033262D01*
X1291859Y2744893D01*
X1771399Y2546261D01*
X2280475Y2445000D01*
X2799525Y2445000D01*
X3308601Y2546261D01*
X3706033Y2710883D01*
X4615000Y2710883D01*
X4615000Y2369117D01*
X4681675Y2033919D01*
X4812463Y1718169D01*
X5002337Y1434002D01*
X5244002Y1192337D01*
X5528169Y1002463D01*
X5843919Y871675D01*
X6179117Y805000D01*
X6520883Y805000D01*
X6856081Y871675D01*
X7171831Y1002463D01*
X7455998Y1192337D01*
X7697663Y1434002D01*
X7887537Y1718169D01*
X8018325Y2033919D01*
X8085000Y2369117D01*
X8085000Y2710883D01*
X8018325Y3046081D01*
X7887537Y3361831D01*
X7697663Y3645998D01*
X7455998Y3887663D01*
X7171831Y4077537D01*
X6856081Y4208325D01*
X6520883Y4275000D01*
X6179117Y4275000D01*
X5843919Y4208325D01*
X5528169Y4077537D01*
X5244002Y3887663D01*
X5002337Y3645998D01*
X4812463Y3361831D01*
X4681675Y3046081D01*
X4615000Y2710883D01*
X3706033Y2710883D01*
X3788141Y2744893D01*
X4219715Y3033262D01*
X4586738Y3400285D01*
X4875107Y3831859D01*
X5073739Y4311399D01*
X5175000Y4820475D01*
X5175000Y5339525D01*
X5073739Y5848601D01*
X4875107Y6328141D01*
X4586738Y6759715D01*
X4219715Y7126738D01*
X3788141Y7415107D01*
X3308601Y7613739D01*
X2799525Y7715000D01*
X2280475Y7715000D01*
X1771399Y7613739D01*
X1291859Y7415107D01*
X860285Y7126738D01*
X493262Y6759715D01*
X204893Y6328141D01*
X6261Y5848601D01*
X-95000Y5339525D01*
X-9500000Y5339525D01*
X-9500000Y9194435D01*
X484040Y9194435D01*
X551020Y8954344D01*
X800048Y8837244D01*
X1067135Y8770977D01*
X1342017Y8758090D01*
X1614133Y8799078D01*
X1873023Y8892364D01*
X1988980Y8954344D01*
X2055960Y9194435D01*
X1270000Y9980395D01*
X484040Y9194435D01*
X-9500000Y9194435D01*
X-9500000Y10087983D01*
X-131910Y10087983D01*
X-90922Y9815867D01*
X2364Y9556977D01*
X64344Y9441020D01*
X304435Y9374040D01*
X1090395Y10160000D01*
X1449605Y10160000D01*
X2235565Y9374040D01*
X2475656Y9441020D01*
X2539485Y9576760D01*
X2571995Y9498273D01*
X2724880Y9269465D01*
X2919465Y9074880D01*
X3148273Y8921995D01*
X3402510Y8816686D01*
X3672408Y8763000D01*
X3947592Y8763000D01*
X4217490Y8816686D01*
X4471727Y8921995D01*
X4700535Y9074880D01*
X4895120Y9269465D01*
X5048005Y9498273D01*
X5153314Y9752510D01*
X5207000Y10022408D01*
X5207000Y10297592D01*
X5153314Y10567490D01*
X5048005Y10821727D01*
X4895120Y11050535D01*
X4700535Y11245120D01*
X4471727Y11398005D01*
X4217490Y11503314D01*
X3947592Y11557000D01*
X3672408Y11557000D01*
X3402510Y11503314D01*
X3148273Y11398005D01*
X2919465Y11245120D01*
X2724880Y11050535D01*
X2571995Y10821727D01*
X2542308Y10750057D01*
X2537636Y10763023D01*
X2475656Y10878980D01*
X2235565Y10945960D01*
X1449605Y10160000D01*
X1090395Y10160000D01*
X304435Y10945960D01*
X64344Y10878980D01*
X-52756Y10629952D01*
X-119023Y10362865D01*
X-131910Y10087983D01*
X-9500000Y10087983D01*
X-9500000Y11125565D01*
X484040Y11125565D01*
X1270000Y10339605D01*
X2055960Y11125565D01*
X1988980Y11365656D01*
X1739952Y11482756D01*
X1472865Y11549023D01*
X1197983Y11561910D01*
X925867Y11520922D01*
X666977Y11427636D01*
X551020Y11365656D01*
X484040Y11125565D01*
X-9500000Y11125565D01*
X-9500000Y17120000D01*
X6943290Y17120000D01*
X6833491Y16986210D01*
G36*
X15382742Y15163280D02*
G01*
X15483492Y14974790D01*
X15619079Y14809578D01*
X15630001Y14800615D01*
X15630000Y14130386D01*
X15619078Y14121422D01*
X15483491Y13956210D01*
X15438227Y13871527D01*
X15335616Y13915089D01*
X15145656Y13954610D01*
X14951636Y13956313D01*
X14761011Y13920132D01*
X14614349Y13860885D01*
X14477314Y13917647D01*
X14287014Y13955500D01*
X14092986Y13955500D01*
X13902686Y13917647D01*
X13765000Y13860616D01*
X13627314Y13917647D01*
X13437014Y13955500D01*
X13242986Y13955500D01*
X13052686Y13917647D01*
X12915000Y13860616D01*
X12777314Y13917647D01*
X12587014Y13955500D01*
X12392986Y13955500D01*
X12202686Y13917647D01*
X12065000Y13860616D01*
X11927314Y13917647D01*
X11737014Y13955500D01*
X11542986Y13955500D01*
X11352686Y13917647D01*
X11215000Y13860616D01*
X11077314Y13917647D01*
X10887014Y13955500D01*
X10692986Y13955500D01*
X10502686Y13917647D01*
X10365000Y13860616D01*
X10227314Y13917647D01*
X10037014Y13955500D01*
X9842986Y13955500D01*
X9652686Y13917647D01*
X9514458Y13860391D01*
X9385616Y13915089D01*
X9195656Y13954610D01*
X9001636Y13956313D01*
X8811011Y13920132D01*
X8691581Y13871886D01*
X8646509Y13956210D01*
X8510922Y14121422D01*
X8500000Y14130386D01*
X8500000Y14800614D01*
X8510922Y14809578D01*
X8646509Y14974790D01*
X8747259Y15163280D01*
X8764616Y15220500D01*
X15365384Y15220500D01*
X15382742Y15163280D01*
G37*
X15382742Y15163280D02*
X15483492Y14974790D01*
X15619079Y14809578D01*
X15630001Y14800615D01*
X15630000Y14130386D01*
X15619078Y14121422D01*
X15483491Y13956210D01*
X15438227Y13871527D01*
X15335616Y13915089D01*
X15145656Y13954610D01*
X14951636Y13956313D01*
X14761011Y13920132D01*
X14614349Y13860885D01*
X14477314Y13917647D01*
X14287014Y13955500D01*
X14092986Y13955500D01*
X13902686Y13917647D01*
X13765000Y13860616D01*
X13627314Y13917647D01*
X13437014Y13955500D01*
X13242986Y13955500D01*
X13052686Y13917647D01*
X12915000Y13860616D01*
X12777314Y13917647D01*
X12587014Y13955500D01*
X12392986Y13955500D01*
X12202686Y13917647D01*
X12065000Y13860616D01*
X11927314Y13917647D01*
X11737014Y13955500D01*
X11542986Y13955500D01*
X11352686Y13917647D01*
X11215000Y13860616D01*
X11077314Y13917647D01*
X10887014Y13955500D01*
X10692986Y13955500D01*
X10502686Y13917647D01*
X10365000Y13860616D01*
X10227314Y13917647D01*
X10037014Y13955500D01*
X9842986Y13955500D01*
X9652686Y13917647D01*
X9514458Y13860391D01*
X9385616Y13915089D01*
X9195656Y13954610D01*
X9001636Y13956313D01*
X8811011Y13920132D01*
X8691581Y13871886D01*
X8646509Y13956210D01*
X8510922Y14121422D01*
X8500000Y14130386D01*
X8500000Y14800614D01*
X8510922Y14809578D01*
X8646509Y14974790D01*
X8747259Y15163280D01*
X8764616Y15220500D01*
X15365384Y15220500D01*
X15382742Y15163280D01*
M02*
