M48
; DRILL file {KiCad 5.1.5+dfsg1-2build2} date Fri 11 Sep 2020 14:14:42
; FORMAT={-:-/ absolute / inch / decimal}
; #@! TF.CreationDate,2020-09-11T14:14:42+10:00
; #@! TF.GenerationSoftware,Kicad,Pcbnew,5.1.5+dfsg1-2build2
FMAT,2
INCH
T1C0.0157
T2C0.0236
T3C0.0300
T4C0.0394
T5C0.0591
T6C0.1575
%
G90
G05
T1
X0.17Y-0.05
X0.17Y-0.46
X0.2Y-0.32
X0.2724Y-0.2094
X0.32Y-0.24
X0.36Y0.12
X0.475Y0.57
X0.475Y0.415
X0.475Y0.16
X0.51Y-0.23
X0.88Y0.56
X1.05Y-0.18
X1.25Y0.33
X0.3579Y0.5106
X0.3579Y0.4575
X0.3913Y0.5106
X0.3913Y0.4575
X0.4248Y0.5106
X0.4248Y0.4575
X0.4583Y0.5106
X0.4583Y0.4575
X0.4917Y0.5106
X0.4917Y0.4575
X0.5252Y0.5106
X0.5252Y0.4575
X0.5587Y0.5106
X0.5587Y0.4575
X0.5921Y0.5106
X0.5921Y0.4575
T3
X0.8Y-0.35
X0.9Y-0.35
X0.05Y0.4
X0.15Y0.4
X0.05Y-0.35
X0.15Y-0.35
X0.8Y0.4
X0.9Y0.4
T4
X0.425Y-0.725
X0.425Y-0.825
X0.425Y-0.925
X0.525Y-0.725
X0.525Y-0.825
X0.525Y-0.925
T5
X0.75Y-0.75
X1.0Y-0.65
X0.0Y0.0
X0.25Y0.1
X0.0Y-0.75
X0.25Y-0.65
X0.75Y0.0
X1.0Y0.1
T6
X0.85Y-0.55
X0.1Y0.2
X0.1Y-0.55
X0.85Y0.2
T2
G00X0.3047Y0.6449
M15
G01X0.3047Y0.6134
M16
G05
G00X0.3047Y0.5256
M15
G01X0.3047Y0.4666
M16
G05
G00X0.6453Y0.6449
M15
G01X0.6453Y0.6134
M16
G05
G00X0.6453Y0.5256
M15
G01X0.6453Y0.4666
M16
G05
T0
M30
