G04 #@! TF.GenerationSoftware,KiCad,Pcbnew,5.1.5+dfsg1-2build2*
G04 #@! TF.CreationDate,2020-09-11T14:14:25+10:00*
G04 #@! TF.ProjectId,macr0,6d616372-302e-46b6-9963-61645f706362,rev?*
G04 #@! TF.SameCoordinates,Original*
G04 #@! TF.FileFunction,Soldermask,Top*
G04 #@! TF.FilePolarity,Negative*
%FSLAX46Y46*%
G04 Gerber Fmt 4.6, Leading zero omitted, Abs format (unit mm)*
G04 Created by KiCad (PCBNEW 5.1.5+dfsg1-2build2) date 2020-09-11 14:14:25*
%MOMM*%
%LPD*%
G04 APERTURE LIST*
%ADD10C,0.100000*%
G04 APERTURE END LIST*
D10*
G36*
X13448512Y-22598927D02*
G01*
X13597812Y-22628624D01*
X13761784Y-22696544D01*
X13909354Y-22795147D01*
X14034853Y-22920646D01*
X14133456Y-23068216D01*
X14201376Y-23232188D01*
X14236000Y-23406259D01*
X14236000Y-23583741D01*
X14201376Y-23757812D01*
X14133456Y-23921784D01*
X14034853Y-24069354D01*
X13909354Y-24194853D01*
X13761784Y-24293456D01*
X13597812Y-24361376D01*
X13448512Y-24391073D01*
X13423742Y-24396000D01*
X13246258Y-24396000D01*
X13221488Y-24391073D01*
X13072188Y-24361376D01*
X12908216Y-24293456D01*
X12760646Y-24194853D01*
X12635147Y-24069354D01*
X12536544Y-23921784D01*
X12468624Y-23757812D01*
X12434000Y-23583741D01*
X12434000Y-23406259D01*
X12468624Y-23232188D01*
X12536544Y-23068216D01*
X12635147Y-22920646D01*
X12760646Y-22795147D01*
X12908216Y-22696544D01*
X13072188Y-22628624D01*
X13221488Y-22598927D01*
X13246258Y-22594000D01*
X13423742Y-22594000D01*
X13448512Y-22598927D01*
G37*
G36*
X11696000Y-24396000D02*
G01*
X9894000Y-24396000D01*
X9894000Y-22594000D01*
X11696000Y-22594000D01*
X11696000Y-24396000D01*
G37*
G36*
X10908512Y-20058927D02*
G01*
X11057812Y-20088624D01*
X11221784Y-20156544D01*
X11369354Y-20255147D01*
X11494853Y-20380646D01*
X11593456Y-20528216D01*
X11661376Y-20692188D01*
X11696000Y-20866259D01*
X11696000Y-21043741D01*
X11661376Y-21217812D01*
X11593456Y-21381784D01*
X11494853Y-21529354D01*
X11369354Y-21654853D01*
X11221784Y-21753456D01*
X11057812Y-21821376D01*
X10908512Y-21851073D01*
X10883742Y-21856000D01*
X10706258Y-21856000D01*
X10681488Y-21851073D01*
X10532188Y-21821376D01*
X10368216Y-21753456D01*
X10220646Y-21654853D01*
X10095147Y-21529354D01*
X9996544Y-21381784D01*
X9928624Y-21217812D01*
X9894000Y-21043741D01*
X9894000Y-20866259D01*
X9928624Y-20692188D01*
X9996544Y-20528216D01*
X10095147Y-20380646D01*
X10220646Y-20255147D01*
X10368216Y-20156544D01*
X10532188Y-20088624D01*
X10681488Y-20058927D01*
X10706258Y-20054000D01*
X10883742Y-20054000D01*
X10908512Y-20058927D01*
G37*
G36*
X13448512Y-20058927D02*
G01*
X13597812Y-20088624D01*
X13761784Y-20156544D01*
X13909354Y-20255147D01*
X14034853Y-20380646D01*
X14133456Y-20528216D01*
X14201376Y-20692188D01*
X14236000Y-20866259D01*
X14236000Y-21043741D01*
X14201376Y-21217812D01*
X14133456Y-21381784D01*
X14034853Y-21529354D01*
X13909354Y-21654853D01*
X13761784Y-21753456D01*
X13597812Y-21821376D01*
X13448512Y-21851073D01*
X13423742Y-21856000D01*
X13246258Y-21856000D01*
X13221488Y-21851073D01*
X13072188Y-21821376D01*
X12908216Y-21753456D01*
X12760646Y-21654853D01*
X12635147Y-21529354D01*
X12536544Y-21381784D01*
X12468624Y-21217812D01*
X12434000Y-21043741D01*
X12434000Y-20866259D01*
X12468624Y-20692188D01*
X12536544Y-20528216D01*
X12635147Y-20380646D01*
X12760646Y-20255147D01*
X12908216Y-20156544D01*
X13072188Y-20088624D01*
X13221488Y-20058927D01*
X13246258Y-20054000D01*
X13423742Y-20054000D01*
X13448512Y-20058927D01*
G37*
G36*
X19274549Y-17921116D02*
G01*
X19385734Y-17943232D01*
X19595203Y-18029997D01*
X19783720Y-18155960D01*
X19944040Y-18316280D01*
X20070003Y-18504797D01*
X20156768Y-18714266D01*
X20201000Y-18936636D01*
X20201000Y-19163364D01*
X20156768Y-19385734D01*
X20070003Y-19595203D01*
X19944040Y-19783720D01*
X19783720Y-19944040D01*
X19595203Y-20070003D01*
X19385734Y-20156768D01*
X19274549Y-20178884D01*
X19163365Y-20201000D01*
X18936635Y-20201000D01*
X18825451Y-20178884D01*
X18714266Y-20156768D01*
X18504797Y-20070003D01*
X18316280Y-19944040D01*
X18155960Y-19783720D01*
X18029997Y-19595203D01*
X17943232Y-19385734D01*
X17899000Y-19163364D01*
X17899000Y-18936636D01*
X17943232Y-18714266D01*
X18029997Y-18504797D01*
X18155960Y-18316280D01*
X18316280Y-18155960D01*
X18504797Y-18029997D01*
X18714266Y-17943232D01*
X18825451Y-17921116D01*
X18936635Y-17899000D01*
X19163365Y-17899000D01*
X19274549Y-17921116D01*
G37*
G36*
X224549Y-17921116D02*
G01*
X335734Y-17943232D01*
X545203Y-18029997D01*
X733720Y-18155960D01*
X894040Y-18316280D01*
X1020003Y-18504797D01*
X1106768Y-18714266D01*
X1151000Y-18936636D01*
X1151000Y-19163364D01*
X1106768Y-19385734D01*
X1020003Y-19595203D01*
X894040Y-19783720D01*
X733720Y-19944040D01*
X545203Y-20070003D01*
X335734Y-20156768D01*
X224549Y-20178884D01*
X113365Y-20201000D01*
X-113365Y-20201000D01*
X-224549Y-20178884D01*
X-335734Y-20156768D01*
X-545203Y-20070003D01*
X-733720Y-19944040D01*
X-894040Y-19783720D01*
X-1020003Y-19595203D01*
X-1106768Y-19385734D01*
X-1151000Y-19163364D01*
X-1151000Y-18936636D01*
X-1106768Y-18714266D01*
X-1020003Y-18504797D01*
X-894040Y-18316280D01*
X-733720Y-18155960D01*
X-545203Y-18029997D01*
X-335734Y-17943232D01*
X-224549Y-17921116D01*
X-113365Y-17899000D01*
X113365Y-17899000D01*
X224549Y-17921116D01*
G37*
G36*
X13448512Y-17518927D02*
G01*
X13597812Y-17548624D01*
X13761784Y-17616544D01*
X13909354Y-17715147D01*
X14034853Y-17840646D01*
X14133456Y-17988216D01*
X14201376Y-18152188D01*
X14236000Y-18326259D01*
X14236000Y-18503741D01*
X14201376Y-18677812D01*
X14133456Y-18841784D01*
X14034853Y-18989354D01*
X13909354Y-19114853D01*
X13761784Y-19213456D01*
X13597812Y-19281376D01*
X13448512Y-19311073D01*
X13423742Y-19316000D01*
X13246258Y-19316000D01*
X13221488Y-19311073D01*
X13072188Y-19281376D01*
X12908216Y-19213456D01*
X12760646Y-19114853D01*
X12635147Y-18989354D01*
X12536544Y-18841784D01*
X12468624Y-18677812D01*
X12434000Y-18503741D01*
X12434000Y-18326259D01*
X12468624Y-18152188D01*
X12536544Y-17988216D01*
X12635147Y-17840646D01*
X12760646Y-17715147D01*
X12908216Y-17616544D01*
X13072188Y-17548624D01*
X13221488Y-17518927D01*
X13246258Y-17514000D01*
X13423742Y-17514000D01*
X13448512Y-17518927D01*
G37*
G36*
X10908512Y-17518927D02*
G01*
X11057812Y-17548624D01*
X11221784Y-17616544D01*
X11369354Y-17715147D01*
X11494853Y-17840646D01*
X11593456Y-17988216D01*
X11661376Y-18152188D01*
X11696000Y-18326259D01*
X11696000Y-18503741D01*
X11661376Y-18677812D01*
X11593456Y-18841784D01*
X11494853Y-18989354D01*
X11369354Y-19114853D01*
X11221784Y-19213456D01*
X11057812Y-19281376D01*
X10908512Y-19311073D01*
X10883742Y-19316000D01*
X10706258Y-19316000D01*
X10681488Y-19311073D01*
X10532188Y-19281376D01*
X10368216Y-19213456D01*
X10220646Y-19114853D01*
X10095147Y-18989354D01*
X9996544Y-18841784D01*
X9928624Y-18677812D01*
X9894000Y-18503741D01*
X9894000Y-18326259D01*
X9928624Y-18152188D01*
X9996544Y-17988216D01*
X10095147Y-17840646D01*
X10220646Y-17715147D01*
X10368216Y-17616544D01*
X10532188Y-17548624D01*
X10681488Y-17518927D01*
X10706258Y-17514000D01*
X10883742Y-17514000D01*
X10908512Y-17518927D01*
G37*
G36*
X25624549Y-15381116D02*
G01*
X25735734Y-15403232D01*
X25945203Y-15489997D01*
X26133720Y-15615960D01*
X26294040Y-15776280D01*
X26420003Y-15964797D01*
X26506768Y-16174266D01*
X26551000Y-16396636D01*
X26551000Y-16623364D01*
X26506768Y-16845734D01*
X26420003Y-17055203D01*
X26294040Y-17243720D01*
X26133720Y-17404040D01*
X25945203Y-17530003D01*
X25735734Y-17616768D01*
X25624549Y-17638884D01*
X25513365Y-17661000D01*
X25286635Y-17661000D01*
X25175451Y-17638884D01*
X25064266Y-17616768D01*
X24854797Y-17530003D01*
X24666280Y-17404040D01*
X24505960Y-17243720D01*
X24379997Y-17055203D01*
X24293232Y-16845734D01*
X24249000Y-16623364D01*
X24249000Y-16396636D01*
X24293232Y-16174266D01*
X24379997Y-15964797D01*
X24505960Y-15776280D01*
X24666280Y-15615960D01*
X24854797Y-15489997D01*
X25064266Y-15403232D01*
X25175451Y-15381116D01*
X25286635Y-15359000D01*
X25513365Y-15359000D01*
X25624549Y-15381116D01*
G37*
G36*
X6574549Y-15381116D02*
G01*
X6685734Y-15403232D01*
X6895203Y-15489997D01*
X7083720Y-15615960D01*
X7244040Y-15776280D01*
X7370003Y-15964797D01*
X7456768Y-16174266D01*
X7501000Y-16396636D01*
X7501000Y-16623364D01*
X7456768Y-16845734D01*
X7370003Y-17055203D01*
X7244040Y-17243720D01*
X7083720Y-17404040D01*
X6895203Y-17530003D01*
X6685734Y-17616768D01*
X6574549Y-17638884D01*
X6463365Y-17661000D01*
X6236635Y-17661000D01*
X6125451Y-17638884D01*
X6014266Y-17616768D01*
X5804797Y-17530003D01*
X5616280Y-17404040D01*
X5455960Y-17243720D01*
X5329997Y-17055203D01*
X5243232Y-16845734D01*
X5199000Y-16623364D01*
X5199000Y-16396636D01*
X5243232Y-16174266D01*
X5329997Y-15964797D01*
X5455960Y-15776280D01*
X5616280Y-15615960D01*
X5804797Y-15489997D01*
X6014266Y-15403232D01*
X6125451Y-15381116D01*
X6236635Y-15359000D01*
X6463365Y-15359000D01*
X6574549Y-15381116D01*
G37*
G36*
X22188254Y-11997818D02*
G01*
X22561511Y-12152426D01*
X22561513Y-12152427D01*
X22897436Y-12376884D01*
X23183116Y-12662564D01*
X23407574Y-12998489D01*
X23562182Y-13371746D01*
X23641000Y-13767993D01*
X23641000Y-14172007D01*
X23562182Y-14568254D01*
X23407574Y-14941511D01*
X23407573Y-14941513D01*
X23183116Y-15277436D01*
X22897436Y-15563116D01*
X22561513Y-15787573D01*
X22561512Y-15787574D01*
X22561511Y-15787574D01*
X22188254Y-15942182D01*
X21792007Y-16021000D01*
X21387993Y-16021000D01*
X20991746Y-15942182D01*
X20618489Y-15787574D01*
X20618488Y-15787574D01*
X20618487Y-15787573D01*
X20282564Y-15563116D01*
X19996884Y-15277436D01*
X19772427Y-14941513D01*
X19772426Y-14941511D01*
X19617818Y-14568254D01*
X19539000Y-14172007D01*
X19539000Y-13767993D01*
X19617818Y-13371746D01*
X19772426Y-12998489D01*
X19996884Y-12662564D01*
X20282564Y-12376884D01*
X20618487Y-12152427D01*
X20618489Y-12152426D01*
X20991746Y-11997818D01*
X21387993Y-11919000D01*
X21792007Y-11919000D01*
X22188254Y-11997818D01*
G37*
G36*
X3138254Y-11997818D02*
G01*
X3511511Y-12152426D01*
X3511513Y-12152427D01*
X3847436Y-12376884D01*
X4133116Y-12662564D01*
X4357574Y-12998489D01*
X4512182Y-13371746D01*
X4591000Y-13767993D01*
X4591000Y-14172007D01*
X4512182Y-14568254D01*
X4357574Y-14941511D01*
X4357573Y-14941513D01*
X4133116Y-15277436D01*
X3847436Y-15563116D01*
X3511513Y-15787573D01*
X3511512Y-15787574D01*
X3511511Y-15787574D01*
X3138254Y-15942182D01*
X2742007Y-16021000D01*
X2337993Y-16021000D01*
X1941746Y-15942182D01*
X1568489Y-15787574D01*
X1568488Y-15787574D01*
X1568487Y-15787573D01*
X1232564Y-15563116D01*
X946884Y-15277436D01*
X722427Y-14941513D01*
X722426Y-14941511D01*
X567818Y-14568254D01*
X489000Y-14172007D01*
X489000Y-13767993D01*
X567818Y-13371746D01*
X722426Y-12998489D01*
X946884Y-12662564D01*
X1232564Y-12376884D01*
X1568487Y-12152427D01*
X1568489Y-12152426D01*
X1941746Y-11997818D01*
X2337993Y-11919000D01*
X2742007Y-11919000D01*
X3138254Y-11997818D01*
G37*
G36*
X1507142Y-8108242D02*
G01*
X1655101Y-8169529D01*
X1788255Y-8258499D01*
X1901501Y-8371745D01*
X1990471Y-8504899D01*
X2051758Y-8652858D01*
X2083000Y-8809925D01*
X2083000Y-8970075D01*
X2051758Y-9127142D01*
X1990471Y-9275101D01*
X1901501Y-9408255D01*
X1788255Y-9521501D01*
X1655101Y-9610471D01*
X1507142Y-9671758D01*
X1350075Y-9703000D01*
X1189925Y-9703000D01*
X1032858Y-9671758D01*
X884899Y-9610471D01*
X751745Y-9521501D01*
X638499Y-9408255D01*
X549529Y-9275101D01*
X488242Y-9127142D01*
X457000Y-8970075D01*
X457000Y-8809925D01*
X488242Y-8652858D01*
X549529Y-8504899D01*
X638499Y-8371745D01*
X751745Y-8258499D01*
X884899Y-8169529D01*
X1032858Y-8108242D01*
X1189925Y-8077000D01*
X1350075Y-8077000D01*
X1507142Y-8108242D01*
G37*
G36*
X4047142Y-8108242D02*
G01*
X4195101Y-8169529D01*
X4328255Y-8258499D01*
X4441501Y-8371745D01*
X4530471Y-8504899D01*
X4591758Y-8652858D01*
X4623000Y-8809925D01*
X4623000Y-8970075D01*
X4591758Y-9127142D01*
X4530471Y-9275101D01*
X4441501Y-9408255D01*
X4328255Y-9521501D01*
X4195101Y-9610471D01*
X4047142Y-9671758D01*
X3890075Y-9703000D01*
X3729925Y-9703000D01*
X3572858Y-9671758D01*
X3424899Y-9610471D01*
X3291745Y-9521501D01*
X3178499Y-9408255D01*
X3089529Y-9275101D01*
X3028242Y-9127142D01*
X2997000Y-8970075D01*
X2997000Y-8809925D01*
X3028242Y-8652858D01*
X3089529Y-8504899D01*
X3178499Y-8371745D01*
X3291745Y-8258499D01*
X3424899Y-8169529D01*
X3572858Y-8108242D01*
X3729925Y-8077000D01*
X3890075Y-8077000D01*
X4047142Y-8108242D01*
G37*
G36*
X23097142Y-8108242D02*
G01*
X23245101Y-8169529D01*
X23378255Y-8258499D01*
X23491501Y-8371745D01*
X23580471Y-8504899D01*
X23641758Y-8652858D01*
X23673000Y-8809925D01*
X23673000Y-8970075D01*
X23641758Y-9127142D01*
X23580471Y-9275101D01*
X23491501Y-9408255D01*
X23378255Y-9521501D01*
X23245101Y-9610471D01*
X23097142Y-9671758D01*
X22940075Y-9703000D01*
X22779925Y-9703000D01*
X22622858Y-9671758D01*
X22474899Y-9610471D01*
X22341745Y-9521501D01*
X22228499Y-9408255D01*
X22139529Y-9275101D01*
X22078242Y-9127142D01*
X22047000Y-8970075D01*
X22047000Y-8809925D01*
X22078242Y-8652858D01*
X22139529Y-8504899D01*
X22228499Y-8371745D01*
X22341745Y-8258499D01*
X22474899Y-8169529D01*
X22622858Y-8108242D01*
X22779925Y-8077000D01*
X22940075Y-8077000D01*
X23097142Y-8108242D01*
G37*
G36*
X20557142Y-8108242D02*
G01*
X20705101Y-8169529D01*
X20838255Y-8258499D01*
X20951501Y-8371745D01*
X21040471Y-8504899D01*
X21101758Y-8652858D01*
X21133000Y-8809925D01*
X21133000Y-8970075D01*
X21101758Y-9127142D01*
X21040471Y-9275101D01*
X20951501Y-9408255D01*
X20838255Y-9521501D01*
X20705101Y-9610471D01*
X20557142Y-9671758D01*
X20400075Y-9703000D01*
X20239925Y-9703000D01*
X20082858Y-9671758D01*
X19934899Y-9610471D01*
X19801745Y-9521501D01*
X19688499Y-9408255D01*
X19599529Y-9275101D01*
X19538242Y-9127142D01*
X19507000Y-8970075D01*
X19507000Y-8809925D01*
X19538242Y-8652858D01*
X19599529Y-8504899D01*
X19688499Y-8371745D01*
X19801745Y-8258499D01*
X19934899Y-8169529D01*
X20082858Y-8108242D01*
X20239925Y-8077000D01*
X20400075Y-8077000D01*
X20557142Y-8108242D01*
G37*
G36*
X19274549Y1128884D02*
G01*
X19385734Y1106768D01*
X19595203Y1020003D01*
X19783720Y894040D01*
X19944040Y733720D01*
X20070003Y545203D01*
X20156768Y335734D01*
X20201000Y113364D01*
X20201000Y-113364D01*
X20156768Y-335734D01*
X20070003Y-545203D01*
X19944040Y-733720D01*
X19783720Y-894040D01*
X19595203Y-1020003D01*
X19385734Y-1106768D01*
X19274549Y-1128884D01*
X19163365Y-1151000D01*
X18936635Y-1151000D01*
X18825451Y-1128884D01*
X18714266Y-1106768D01*
X18504797Y-1020003D01*
X18316280Y-894040D01*
X18155960Y-733720D01*
X18029997Y-545203D01*
X17943232Y-335734D01*
X17899000Y-113364D01*
X17899000Y113364D01*
X17943232Y335734D01*
X18029997Y545203D01*
X18155960Y733720D01*
X18316280Y894040D01*
X18504797Y1020003D01*
X18714266Y1106768D01*
X18825451Y1128884D01*
X18936635Y1151000D01*
X19163365Y1151000D01*
X19274549Y1128884D01*
G37*
G36*
X224549Y1128884D02*
G01*
X335734Y1106768D01*
X545203Y1020003D01*
X733720Y894040D01*
X894040Y733720D01*
X1020003Y545203D01*
X1106768Y335734D01*
X1151000Y113364D01*
X1151000Y-113364D01*
X1106768Y-335734D01*
X1020003Y-545203D01*
X894040Y-733720D01*
X733720Y-894040D01*
X545203Y-1020003D01*
X335734Y-1106768D01*
X224549Y-1128884D01*
X113365Y-1151000D01*
X-113365Y-1151000D01*
X-224549Y-1128884D01*
X-335734Y-1106768D01*
X-545203Y-1020003D01*
X-733720Y-894040D01*
X-894040Y-733720D01*
X-1020003Y-545203D01*
X-1106768Y-335734D01*
X-1151000Y-113364D01*
X-1151000Y113364D01*
X-1106768Y335734D01*
X-1020003Y545203D01*
X-894040Y733720D01*
X-733720Y894040D01*
X-545203Y1020003D01*
X-335734Y1106768D01*
X-224549Y1128884D01*
X-113365Y1151000D01*
X113365Y1151000D01*
X224549Y1128884D01*
G37*
G36*
X25624549Y3668884D02*
G01*
X25735734Y3646768D01*
X25945203Y3560003D01*
X26133720Y3434040D01*
X26294040Y3273720D01*
X26420003Y3085203D01*
X26506768Y2875734D01*
X26551000Y2653364D01*
X26551000Y2426636D01*
X26506768Y2204266D01*
X26420003Y1994797D01*
X26294040Y1806280D01*
X26133720Y1645960D01*
X25945203Y1519997D01*
X25735734Y1433232D01*
X25624549Y1411116D01*
X25513365Y1389000D01*
X25286635Y1389000D01*
X25175451Y1411116D01*
X25064266Y1433232D01*
X24854797Y1519997D01*
X24666280Y1645960D01*
X24505960Y1806280D01*
X24379997Y1994797D01*
X24293232Y2204266D01*
X24249000Y2426636D01*
X24249000Y2653364D01*
X24293232Y2875734D01*
X24379997Y3085203D01*
X24505960Y3273720D01*
X24666280Y3434040D01*
X24854797Y3560003D01*
X25064266Y3646768D01*
X25175451Y3668884D01*
X25286635Y3691000D01*
X25513365Y3691000D01*
X25624549Y3668884D01*
G37*
G36*
X6574549Y3668884D02*
G01*
X6685734Y3646768D01*
X6895203Y3560003D01*
X7083720Y3434040D01*
X7244040Y3273720D01*
X7370003Y3085203D01*
X7456768Y2875734D01*
X7501000Y2653364D01*
X7501000Y2426636D01*
X7456768Y2204266D01*
X7370003Y1994797D01*
X7244040Y1806280D01*
X7083720Y1645960D01*
X6895203Y1519997D01*
X6685734Y1433232D01*
X6574549Y1411116D01*
X6463365Y1389000D01*
X6236635Y1389000D01*
X6125451Y1411116D01*
X6014266Y1433232D01*
X5804797Y1519997D01*
X5616280Y1645960D01*
X5455960Y1806280D01*
X5329997Y1994797D01*
X5243232Y2204266D01*
X5199000Y2426636D01*
X5199000Y2653364D01*
X5243232Y2875734D01*
X5329997Y3085203D01*
X5455960Y3273720D01*
X5616280Y3434040D01*
X5804797Y3560003D01*
X6014266Y3646768D01*
X6125451Y3668884D01*
X6236635Y3691000D01*
X6463365Y3691000D01*
X6574549Y3668884D01*
G37*
G36*
X3138254Y7052182D02*
G01*
X3511511Y6897574D01*
X3511513Y6897573D01*
X3847436Y6673116D01*
X4133116Y6387436D01*
X4357574Y6051511D01*
X4512182Y5678254D01*
X4591000Y5282007D01*
X4591000Y4877993D01*
X4512182Y4481746D01*
X4357574Y4108489D01*
X4357573Y4108487D01*
X4133116Y3772564D01*
X3847436Y3486884D01*
X3511513Y3262427D01*
X3511512Y3262426D01*
X3511511Y3262426D01*
X3138254Y3107818D01*
X2742007Y3029000D01*
X2337993Y3029000D01*
X1941746Y3107818D01*
X1568489Y3262426D01*
X1568488Y3262426D01*
X1568487Y3262427D01*
X1232564Y3486884D01*
X946884Y3772564D01*
X722427Y4108487D01*
X722426Y4108489D01*
X567818Y4481746D01*
X489000Y4877993D01*
X489000Y5282007D01*
X567818Y5678254D01*
X722426Y6051511D01*
X946884Y6387436D01*
X1232564Y6673116D01*
X1568487Y6897573D01*
X1568489Y6897574D01*
X1941746Y7052182D01*
X2337993Y7131000D01*
X2742007Y7131000D01*
X3138254Y7052182D01*
G37*
G36*
X22188254Y7052182D02*
G01*
X22561511Y6897574D01*
X22561513Y6897573D01*
X22897436Y6673116D01*
X23183116Y6387436D01*
X23407574Y6051511D01*
X23562182Y5678254D01*
X23641000Y5282007D01*
X23641000Y4877993D01*
X23562182Y4481746D01*
X23407574Y4108489D01*
X23407573Y4108487D01*
X23183116Y3772564D01*
X22897436Y3486884D01*
X22561513Y3262427D01*
X22561512Y3262426D01*
X22561511Y3262426D01*
X22188254Y3107818D01*
X21792007Y3029000D01*
X21387993Y3029000D01*
X20991746Y3107818D01*
X20618489Y3262426D01*
X20618488Y3262426D01*
X20618487Y3262427D01*
X20282564Y3486884D01*
X19996884Y3772564D01*
X19772427Y4108487D01*
X19772426Y4108489D01*
X19617818Y4481746D01*
X19539000Y4877993D01*
X19539000Y5282007D01*
X19617818Y5678254D01*
X19772426Y6051511D01*
X19996884Y6387436D01*
X20282564Y6673116D01*
X20618487Y6897573D01*
X20618489Y6897574D01*
X20991746Y7052182D01*
X21387993Y7131000D01*
X21792007Y7131000D01*
X22188254Y7052182D01*
G37*
G36*
X4047142Y10941758D02*
G01*
X4195101Y10880471D01*
X4328255Y10791501D01*
X4441501Y10678255D01*
X4530471Y10545101D01*
X4591758Y10397142D01*
X4623000Y10240075D01*
X4623000Y10079925D01*
X4591758Y9922858D01*
X4530471Y9774899D01*
X4441501Y9641745D01*
X4328255Y9528499D01*
X4195101Y9439529D01*
X4047142Y9378242D01*
X3890075Y9347000D01*
X3729925Y9347000D01*
X3572858Y9378242D01*
X3424899Y9439529D01*
X3291745Y9528499D01*
X3178499Y9641745D01*
X3089529Y9774899D01*
X3028242Y9922858D01*
X2997000Y10079925D01*
X2997000Y10240075D01*
X3028242Y10397142D01*
X3089529Y10545101D01*
X3178499Y10678255D01*
X3291745Y10791501D01*
X3424899Y10880471D01*
X3572858Y10941758D01*
X3729925Y10973000D01*
X3890075Y10973000D01*
X4047142Y10941758D01*
G37*
G36*
X1507142Y10941758D02*
G01*
X1655101Y10880471D01*
X1788255Y10791501D01*
X1901501Y10678255D01*
X1990471Y10545101D01*
X2051758Y10397142D01*
X2083000Y10240075D01*
X2083000Y10079925D01*
X2051758Y9922858D01*
X1990471Y9774899D01*
X1901501Y9641745D01*
X1788255Y9528499D01*
X1655101Y9439529D01*
X1507142Y9378242D01*
X1350075Y9347000D01*
X1189925Y9347000D01*
X1032858Y9378242D01*
X884899Y9439529D01*
X751745Y9528499D01*
X638499Y9641745D01*
X549529Y9774899D01*
X488242Y9922858D01*
X457000Y10079925D01*
X457000Y10240075D01*
X488242Y10397142D01*
X549529Y10545101D01*
X638499Y10678255D01*
X751745Y10791501D01*
X884899Y10880471D01*
X1032858Y10941758D01*
X1189925Y10973000D01*
X1350075Y10973000D01*
X1507142Y10941758D01*
G37*
G36*
X23097142Y10941758D02*
G01*
X23245101Y10880471D01*
X23378255Y10791501D01*
X23491501Y10678255D01*
X23580471Y10545101D01*
X23641758Y10397142D01*
X23673000Y10240075D01*
X23673000Y10079925D01*
X23641758Y9922858D01*
X23580471Y9774899D01*
X23491501Y9641745D01*
X23378255Y9528499D01*
X23245101Y9439529D01*
X23097142Y9378242D01*
X22940075Y9347000D01*
X22779925Y9347000D01*
X22622858Y9378242D01*
X22474899Y9439529D01*
X22341745Y9528499D01*
X22228499Y9641745D01*
X22139529Y9774899D01*
X22078242Y9922858D01*
X22047000Y10079925D01*
X22047000Y10240075D01*
X22078242Y10397142D01*
X22139529Y10545101D01*
X22228499Y10678255D01*
X22341745Y10791501D01*
X22474899Y10880471D01*
X22622858Y10941758D01*
X22779925Y10973000D01*
X22940075Y10973000D01*
X23097142Y10941758D01*
G37*
G36*
X20557142Y10941758D02*
G01*
X20705101Y10880471D01*
X20838255Y10791501D01*
X20951501Y10678255D01*
X21040471Y10545101D01*
X21101758Y10397142D01*
X21133000Y10240075D01*
X21133000Y10079925D01*
X21101758Y9922858D01*
X21040471Y9774899D01*
X20951501Y9641745D01*
X20838255Y9528499D01*
X20705101Y9439529D01*
X20557142Y9378242D01*
X20400075Y9347000D01*
X20239925Y9347000D01*
X20082858Y9378242D01*
X19934899Y9439529D01*
X19801745Y9528499D01*
X19688499Y9641745D01*
X19599529Y9774899D01*
X19538242Y9922858D01*
X19507000Y10079925D01*
X19507000Y10240075D01*
X19538242Y10397142D01*
X19599529Y10545101D01*
X19688499Y10678255D01*
X19801745Y10791501D01*
X19934899Y10880471D01*
X20082858Y10941758D01*
X20239925Y10973000D01*
X20400075Y10973000D01*
X20557142Y10941758D01*
G37*
G36*
X9168231Y12013795D02*
G01*
X9206967Y12006090D01*
X9237195Y11993569D01*
X9279944Y11975862D01*
X9345622Y11931977D01*
X9401478Y11876121D01*
X9411067Y11861770D01*
X9426613Y11842828D01*
X9445555Y11827283D01*
X9467165Y11815732D01*
X9490614Y11808619D01*
X9515001Y11806217D01*
X9539387Y11808619D01*
X9562836Y11815732D01*
X9584446Y11827283D01*
X9603388Y11842829D01*
X9618933Y11861770D01*
X9628522Y11876121D01*
X9684378Y11931977D01*
X9750056Y11975862D01*
X9792805Y11993569D01*
X9823033Y12006090D01*
X9861769Y12013795D01*
X9900504Y12021500D01*
X9979496Y12021500D01*
X10018231Y12013795D01*
X10056967Y12006090D01*
X10087195Y11993569D01*
X10129944Y11975862D01*
X10195622Y11931977D01*
X10251478Y11876121D01*
X10261067Y11861770D01*
X10276613Y11842828D01*
X10295555Y11827283D01*
X10317165Y11815732D01*
X10340614Y11808619D01*
X10365001Y11806217D01*
X10389387Y11808619D01*
X10412836Y11815732D01*
X10434446Y11827283D01*
X10453388Y11842829D01*
X10468933Y11861770D01*
X10478522Y11876121D01*
X10534378Y11931977D01*
X10600056Y11975862D01*
X10642805Y11993569D01*
X10673033Y12006090D01*
X10711769Y12013795D01*
X10750504Y12021500D01*
X10829496Y12021500D01*
X10868231Y12013795D01*
X10906967Y12006090D01*
X10937195Y11993569D01*
X10979944Y11975862D01*
X11045622Y11931977D01*
X11101478Y11876121D01*
X11111067Y11861770D01*
X11126613Y11842828D01*
X11145555Y11827283D01*
X11167165Y11815732D01*
X11190614Y11808619D01*
X11215001Y11806217D01*
X11239387Y11808619D01*
X11262836Y11815732D01*
X11284446Y11827283D01*
X11303388Y11842829D01*
X11318933Y11861770D01*
X11328522Y11876121D01*
X11384378Y11931977D01*
X11450056Y11975862D01*
X11492805Y11993569D01*
X11523033Y12006090D01*
X11561769Y12013795D01*
X11600504Y12021500D01*
X11679496Y12021500D01*
X11718231Y12013795D01*
X11756967Y12006090D01*
X11787195Y11993569D01*
X11829944Y11975862D01*
X11895622Y11931977D01*
X11951478Y11876121D01*
X11961067Y11861770D01*
X11976613Y11842828D01*
X11995555Y11827283D01*
X12017165Y11815732D01*
X12040614Y11808619D01*
X12065001Y11806217D01*
X12089387Y11808619D01*
X12112836Y11815732D01*
X12134446Y11827283D01*
X12153388Y11842829D01*
X12168933Y11861770D01*
X12178522Y11876121D01*
X12234378Y11931977D01*
X12300056Y11975862D01*
X12342805Y11993569D01*
X12373033Y12006090D01*
X12411769Y12013795D01*
X12450504Y12021500D01*
X12529496Y12021500D01*
X12568231Y12013795D01*
X12606967Y12006090D01*
X12637195Y11993569D01*
X12679944Y11975862D01*
X12745622Y11931977D01*
X12801478Y11876121D01*
X12811067Y11861770D01*
X12826613Y11842828D01*
X12845555Y11827283D01*
X12867165Y11815732D01*
X12890614Y11808619D01*
X12915001Y11806217D01*
X12939387Y11808619D01*
X12962836Y11815732D01*
X12984446Y11827283D01*
X13003388Y11842829D01*
X13018933Y11861770D01*
X13028522Y11876121D01*
X13084378Y11931977D01*
X13150056Y11975862D01*
X13192805Y11993569D01*
X13223033Y12006090D01*
X13261769Y12013795D01*
X13300504Y12021500D01*
X13379496Y12021500D01*
X13418231Y12013795D01*
X13456967Y12006090D01*
X13487195Y11993569D01*
X13529944Y11975862D01*
X13595622Y11931977D01*
X13651478Y11876121D01*
X13661067Y11861770D01*
X13676613Y11842828D01*
X13695555Y11827283D01*
X13717165Y11815732D01*
X13740614Y11808619D01*
X13765001Y11806217D01*
X13789387Y11808619D01*
X13812836Y11815732D01*
X13834446Y11827283D01*
X13853388Y11842829D01*
X13868933Y11861770D01*
X13878522Y11876121D01*
X13934378Y11931977D01*
X14000056Y11975862D01*
X14042805Y11993569D01*
X14073033Y12006090D01*
X14111769Y12013795D01*
X14150504Y12021500D01*
X14229496Y12021500D01*
X14268231Y12013795D01*
X14306967Y12006090D01*
X14337195Y11993569D01*
X14379944Y11975862D01*
X14445622Y11931977D01*
X14501478Y11876121D01*
X14511067Y11861770D01*
X14526613Y11842828D01*
X14545555Y11827283D01*
X14567165Y11815732D01*
X14590614Y11808619D01*
X14615001Y11806217D01*
X14639387Y11808619D01*
X14662836Y11815732D01*
X14684446Y11827283D01*
X14703388Y11842829D01*
X14718933Y11861770D01*
X14728522Y11876121D01*
X14784378Y11931977D01*
X14850056Y11975862D01*
X14892805Y11993569D01*
X14923033Y12006090D01*
X14961769Y12013795D01*
X15000504Y12021500D01*
X15079496Y12021500D01*
X15118231Y12013795D01*
X15156967Y12006090D01*
X15187195Y11993569D01*
X15229944Y11975862D01*
X15295622Y11931977D01*
X15351477Y11876122D01*
X15395362Y11810444D01*
X15413069Y11767695D01*
X15425590Y11737467D01*
X15441000Y11659995D01*
X15441000Y11581005D01*
X15425590Y11503533D01*
X15413069Y11473305D01*
X15395362Y11430556D01*
X15351477Y11364878D01*
X15295622Y11309023D01*
X15229944Y11265138D01*
X15187195Y11247431D01*
X15156967Y11234910D01*
X15118231Y11227205D01*
X15079496Y11219500D01*
X15000504Y11219500D01*
X14961769Y11227205D01*
X14923033Y11234910D01*
X14892805Y11247431D01*
X14850056Y11265138D01*
X14784378Y11309023D01*
X14728522Y11364879D01*
X14718933Y11379230D01*
X14703387Y11398172D01*
X14684445Y11413717D01*
X14662835Y11425268D01*
X14639386Y11432381D01*
X14614999Y11434783D01*
X14590613Y11432381D01*
X14567164Y11425268D01*
X14545554Y11413717D01*
X14526612Y11398171D01*
X14511067Y11379230D01*
X14501478Y11364879D01*
X14445622Y11309023D01*
X14379944Y11265138D01*
X14337195Y11247431D01*
X14306967Y11234910D01*
X14268231Y11227205D01*
X14229496Y11219500D01*
X14150504Y11219500D01*
X14111769Y11227205D01*
X14073033Y11234910D01*
X14042805Y11247431D01*
X14000056Y11265138D01*
X13934378Y11309023D01*
X13878522Y11364879D01*
X13868933Y11379230D01*
X13853387Y11398172D01*
X13834445Y11413717D01*
X13812835Y11425268D01*
X13789386Y11432381D01*
X13764999Y11434783D01*
X13740613Y11432381D01*
X13717164Y11425268D01*
X13695554Y11413717D01*
X13676612Y11398171D01*
X13661067Y11379230D01*
X13651478Y11364879D01*
X13595622Y11309023D01*
X13529944Y11265138D01*
X13487195Y11247431D01*
X13456967Y11234910D01*
X13418231Y11227205D01*
X13379496Y11219500D01*
X13300504Y11219500D01*
X13261769Y11227205D01*
X13223033Y11234910D01*
X13192805Y11247431D01*
X13150056Y11265138D01*
X13084378Y11309023D01*
X13028522Y11364879D01*
X13018933Y11379230D01*
X13003387Y11398172D01*
X12984445Y11413717D01*
X12962835Y11425268D01*
X12939386Y11432381D01*
X12914999Y11434783D01*
X12890613Y11432381D01*
X12867164Y11425268D01*
X12845554Y11413717D01*
X12826612Y11398171D01*
X12811067Y11379230D01*
X12801478Y11364879D01*
X12745622Y11309023D01*
X12679944Y11265138D01*
X12637195Y11247431D01*
X12606967Y11234910D01*
X12568231Y11227205D01*
X12529496Y11219500D01*
X12450504Y11219500D01*
X12411769Y11227205D01*
X12373033Y11234910D01*
X12342805Y11247431D01*
X12300056Y11265138D01*
X12234378Y11309023D01*
X12178522Y11364879D01*
X12168933Y11379230D01*
X12153387Y11398172D01*
X12134445Y11413717D01*
X12112835Y11425268D01*
X12089386Y11432381D01*
X12064999Y11434783D01*
X12040613Y11432381D01*
X12017164Y11425268D01*
X11995554Y11413717D01*
X11976612Y11398171D01*
X11961067Y11379230D01*
X11951478Y11364879D01*
X11895622Y11309023D01*
X11829944Y11265138D01*
X11787195Y11247431D01*
X11756967Y11234910D01*
X11718231Y11227205D01*
X11679496Y11219500D01*
X11600504Y11219500D01*
X11561769Y11227205D01*
X11523033Y11234910D01*
X11492805Y11247431D01*
X11450056Y11265138D01*
X11384378Y11309023D01*
X11328522Y11364879D01*
X11318933Y11379230D01*
X11303387Y11398172D01*
X11284445Y11413717D01*
X11262835Y11425268D01*
X11239386Y11432381D01*
X11214999Y11434783D01*
X11190613Y11432381D01*
X11167164Y11425268D01*
X11145554Y11413717D01*
X11126612Y11398171D01*
X11111067Y11379230D01*
X11101478Y11364879D01*
X11045622Y11309023D01*
X10979944Y11265138D01*
X10937195Y11247431D01*
X10906967Y11234910D01*
X10868231Y11227205D01*
X10829496Y11219500D01*
X10750504Y11219500D01*
X10711769Y11227205D01*
X10673033Y11234910D01*
X10642805Y11247431D01*
X10600056Y11265138D01*
X10534378Y11309023D01*
X10478522Y11364879D01*
X10468933Y11379230D01*
X10453387Y11398172D01*
X10434445Y11413717D01*
X10412835Y11425268D01*
X10389386Y11432381D01*
X10364999Y11434783D01*
X10340613Y11432381D01*
X10317164Y11425268D01*
X10295554Y11413717D01*
X10276612Y11398171D01*
X10261067Y11379230D01*
X10251478Y11364879D01*
X10195622Y11309023D01*
X10129944Y11265138D01*
X10087195Y11247431D01*
X10056967Y11234910D01*
X10018231Y11227205D01*
X9979496Y11219500D01*
X9900504Y11219500D01*
X9861769Y11227205D01*
X9823033Y11234910D01*
X9792805Y11247431D01*
X9750056Y11265138D01*
X9684378Y11309023D01*
X9628522Y11364879D01*
X9618933Y11379230D01*
X9603387Y11398172D01*
X9584445Y11413717D01*
X9562835Y11425268D01*
X9539386Y11432381D01*
X9514999Y11434783D01*
X9490613Y11432381D01*
X9467164Y11425268D01*
X9445554Y11413717D01*
X9426612Y11398171D01*
X9411067Y11379230D01*
X9401478Y11364879D01*
X9345622Y11309023D01*
X9279944Y11265138D01*
X9237195Y11247431D01*
X9206967Y11234910D01*
X9168231Y11227205D01*
X9129496Y11219500D01*
X9050504Y11219500D01*
X9011769Y11227205D01*
X8973033Y11234910D01*
X8942805Y11247431D01*
X8900056Y11265138D01*
X8834378Y11309023D01*
X8778523Y11364878D01*
X8734638Y11430556D01*
X8716931Y11473305D01*
X8704410Y11503533D01*
X8689000Y11581005D01*
X8689000Y11659995D01*
X8704410Y11737467D01*
X8716931Y11767695D01*
X8734638Y11810444D01*
X8778523Y11876122D01*
X8834378Y11931977D01*
X8900056Y11975862D01*
X8942805Y11993569D01*
X8973033Y12006090D01*
X9011769Y12013795D01*
X9050504Y12021500D01*
X9129496Y12021500D01*
X9168231Y12013795D01*
G37*
G36*
X16488212Y13844251D02*
G01*
X16582651Y13815603D01*
X16669687Y13769082D01*
X16745975Y13706475D01*
X16808582Y13630187D01*
X16855103Y13543152D01*
X16883751Y13448713D01*
X16891000Y13375112D01*
X16891000Y11825888D01*
X16883751Y11752287D01*
X16855103Y11657848D01*
X16808582Y11570813D01*
X16745975Y11494525D01*
X16669687Y11431918D01*
X16582652Y11385397D01*
X16488213Y11356749D01*
X16390000Y11347076D01*
X16291788Y11356749D01*
X16197349Y11385397D01*
X16110314Y11431918D01*
X16034026Y11494525D01*
X15971419Y11570813D01*
X15924898Y11657848D01*
X15896250Y11752287D01*
X15889001Y11825888D01*
X15889000Y13375111D01*
X15896249Y13448712D01*
X15924897Y13543151D01*
X15971418Y13630187D01*
X16034025Y13706475D01*
X16110313Y13769082D01*
X16197348Y13815603D01*
X16291787Y13844251D01*
X16390000Y13853924D01*
X16488212Y13844251D01*
G37*
G36*
X7838212Y13844251D02*
G01*
X7932651Y13815603D01*
X8019687Y13769082D01*
X8095975Y13706475D01*
X8158582Y13630187D01*
X8205103Y13543152D01*
X8233751Y13448713D01*
X8241000Y13375112D01*
X8241000Y11825888D01*
X8233751Y11752287D01*
X8205103Y11657848D01*
X8158582Y11570813D01*
X8095975Y11494525D01*
X8019687Y11431918D01*
X7932652Y11385397D01*
X7838213Y11356749D01*
X7740000Y11347076D01*
X7641788Y11356749D01*
X7547349Y11385397D01*
X7460314Y11431918D01*
X7384026Y11494525D01*
X7321419Y11570813D01*
X7274898Y11657848D01*
X7246250Y11752287D01*
X7239001Y11825888D01*
X7239000Y13375111D01*
X7246249Y13448712D01*
X7274897Y13543151D01*
X7321418Y13630187D01*
X7384025Y13706475D01*
X7460313Y13769082D01*
X7547348Y13815603D01*
X7641787Y13844251D01*
X7740000Y13853924D01*
X7838212Y13844251D01*
G37*
G36*
X9168231Y13363795D02*
G01*
X9206967Y13356090D01*
X9237195Y13343569D01*
X9279944Y13325862D01*
X9345622Y13281977D01*
X9401478Y13226121D01*
X9411067Y13211770D01*
X9426613Y13192828D01*
X9445555Y13177283D01*
X9467165Y13165732D01*
X9490614Y13158619D01*
X9515001Y13156217D01*
X9539387Y13158619D01*
X9562836Y13165732D01*
X9584446Y13177283D01*
X9603388Y13192829D01*
X9618933Y13211770D01*
X9628522Y13226121D01*
X9684378Y13281977D01*
X9750056Y13325862D01*
X9792805Y13343569D01*
X9823033Y13356090D01*
X9861769Y13363795D01*
X9900504Y13371500D01*
X9979496Y13371500D01*
X10018231Y13363795D01*
X10056967Y13356090D01*
X10087195Y13343569D01*
X10129944Y13325862D01*
X10195622Y13281977D01*
X10251478Y13226121D01*
X10261067Y13211770D01*
X10276613Y13192828D01*
X10295555Y13177283D01*
X10317165Y13165732D01*
X10340614Y13158619D01*
X10365001Y13156217D01*
X10389387Y13158619D01*
X10412836Y13165732D01*
X10434446Y13177283D01*
X10453388Y13192829D01*
X10468933Y13211770D01*
X10478522Y13226121D01*
X10534378Y13281977D01*
X10600056Y13325862D01*
X10642805Y13343569D01*
X10673033Y13356090D01*
X10711769Y13363795D01*
X10750504Y13371500D01*
X10829496Y13371500D01*
X10868231Y13363795D01*
X10906967Y13356090D01*
X10937195Y13343569D01*
X10979944Y13325862D01*
X11045622Y13281977D01*
X11101478Y13226121D01*
X11111067Y13211770D01*
X11126613Y13192828D01*
X11145555Y13177283D01*
X11167165Y13165732D01*
X11190614Y13158619D01*
X11215001Y13156217D01*
X11239387Y13158619D01*
X11262836Y13165732D01*
X11284446Y13177283D01*
X11303388Y13192829D01*
X11318933Y13211770D01*
X11328522Y13226121D01*
X11384378Y13281977D01*
X11450056Y13325862D01*
X11492805Y13343569D01*
X11523033Y13356090D01*
X11561769Y13363795D01*
X11600504Y13371500D01*
X11679496Y13371500D01*
X11718231Y13363795D01*
X11756967Y13356090D01*
X11787195Y13343569D01*
X11829944Y13325862D01*
X11895622Y13281977D01*
X11951478Y13226121D01*
X11961067Y13211770D01*
X11976613Y13192828D01*
X11995555Y13177283D01*
X12017165Y13165732D01*
X12040614Y13158619D01*
X12065001Y13156217D01*
X12089387Y13158619D01*
X12112836Y13165732D01*
X12134446Y13177283D01*
X12153388Y13192829D01*
X12168933Y13211770D01*
X12178522Y13226121D01*
X12234378Y13281977D01*
X12300056Y13325862D01*
X12342805Y13343569D01*
X12373033Y13356090D01*
X12411769Y13363795D01*
X12450504Y13371500D01*
X12529496Y13371500D01*
X12568231Y13363795D01*
X12606967Y13356090D01*
X12637195Y13343569D01*
X12679944Y13325862D01*
X12745622Y13281977D01*
X12801478Y13226121D01*
X12811067Y13211770D01*
X12826613Y13192828D01*
X12845555Y13177283D01*
X12867165Y13165732D01*
X12890614Y13158619D01*
X12915001Y13156217D01*
X12939387Y13158619D01*
X12962836Y13165732D01*
X12984446Y13177283D01*
X13003388Y13192829D01*
X13018933Y13211770D01*
X13028522Y13226121D01*
X13084378Y13281977D01*
X13150056Y13325862D01*
X13192805Y13343569D01*
X13223033Y13356090D01*
X13261769Y13363795D01*
X13300504Y13371500D01*
X13379496Y13371500D01*
X13418231Y13363795D01*
X13456967Y13356090D01*
X13487195Y13343569D01*
X13529944Y13325862D01*
X13595622Y13281977D01*
X13651478Y13226121D01*
X13661067Y13211770D01*
X13676613Y13192828D01*
X13695555Y13177283D01*
X13717165Y13165732D01*
X13740614Y13158619D01*
X13765001Y13156217D01*
X13789387Y13158619D01*
X13812836Y13165732D01*
X13834446Y13177283D01*
X13853388Y13192829D01*
X13868933Y13211770D01*
X13878522Y13226121D01*
X13934378Y13281977D01*
X14000056Y13325862D01*
X14042805Y13343569D01*
X14073033Y13356090D01*
X14111769Y13363795D01*
X14150504Y13371500D01*
X14229496Y13371500D01*
X14268231Y13363795D01*
X14306967Y13356090D01*
X14337195Y13343569D01*
X14379944Y13325862D01*
X14445622Y13281977D01*
X14501478Y13226121D01*
X14511067Y13211770D01*
X14526613Y13192828D01*
X14545555Y13177283D01*
X14567165Y13165732D01*
X14590614Y13158619D01*
X14615001Y13156217D01*
X14639387Y13158619D01*
X14662836Y13165732D01*
X14684446Y13177283D01*
X14703388Y13192829D01*
X14718933Y13211770D01*
X14728522Y13226121D01*
X14784378Y13281977D01*
X14850056Y13325862D01*
X14892805Y13343569D01*
X14923033Y13356090D01*
X14961769Y13363795D01*
X15000504Y13371500D01*
X15079496Y13371500D01*
X15118231Y13363795D01*
X15156967Y13356090D01*
X15187195Y13343569D01*
X15229944Y13325862D01*
X15295622Y13281977D01*
X15351477Y13226122D01*
X15395362Y13160444D01*
X15425590Y13087466D01*
X15441000Y13009996D01*
X15441000Y12931004D01*
X15425590Y12853534D01*
X15395362Y12780556D01*
X15351477Y12714878D01*
X15295622Y12659023D01*
X15229944Y12615138D01*
X15187195Y12597431D01*
X15156967Y12584910D01*
X15118231Y12577205D01*
X15079496Y12569500D01*
X15000504Y12569500D01*
X14961769Y12577205D01*
X14923033Y12584910D01*
X14892805Y12597431D01*
X14850056Y12615138D01*
X14784378Y12659023D01*
X14728522Y12714879D01*
X14718933Y12729230D01*
X14703387Y12748172D01*
X14684445Y12763717D01*
X14662835Y12775268D01*
X14639386Y12782381D01*
X14614999Y12784783D01*
X14590613Y12782381D01*
X14567164Y12775268D01*
X14545554Y12763717D01*
X14526612Y12748171D01*
X14511067Y12729230D01*
X14501478Y12714879D01*
X14445622Y12659023D01*
X14379944Y12615138D01*
X14337195Y12597431D01*
X14306967Y12584910D01*
X14268231Y12577205D01*
X14229496Y12569500D01*
X14150504Y12569500D01*
X14111769Y12577205D01*
X14073033Y12584910D01*
X14042805Y12597431D01*
X14000056Y12615138D01*
X13934378Y12659023D01*
X13878522Y12714879D01*
X13868933Y12729230D01*
X13853387Y12748172D01*
X13834445Y12763717D01*
X13812835Y12775268D01*
X13789386Y12782381D01*
X13764999Y12784783D01*
X13740613Y12782381D01*
X13717164Y12775268D01*
X13695554Y12763717D01*
X13676612Y12748171D01*
X13661067Y12729230D01*
X13651478Y12714879D01*
X13595622Y12659023D01*
X13529944Y12615138D01*
X13487195Y12597431D01*
X13456967Y12584910D01*
X13418231Y12577205D01*
X13379496Y12569500D01*
X13300504Y12569500D01*
X13261769Y12577205D01*
X13223033Y12584910D01*
X13192805Y12597431D01*
X13150056Y12615138D01*
X13084378Y12659023D01*
X13028522Y12714879D01*
X13018933Y12729230D01*
X13003387Y12748172D01*
X12984445Y12763717D01*
X12962835Y12775268D01*
X12939386Y12782381D01*
X12914999Y12784783D01*
X12890613Y12782381D01*
X12867164Y12775268D01*
X12845554Y12763717D01*
X12826612Y12748171D01*
X12811067Y12729230D01*
X12801478Y12714879D01*
X12745622Y12659023D01*
X12679944Y12615138D01*
X12637195Y12597431D01*
X12606967Y12584910D01*
X12568231Y12577205D01*
X12529496Y12569500D01*
X12450504Y12569500D01*
X12411769Y12577205D01*
X12373033Y12584910D01*
X12342805Y12597431D01*
X12300056Y12615138D01*
X12234378Y12659023D01*
X12178522Y12714879D01*
X12168933Y12729230D01*
X12153387Y12748172D01*
X12134445Y12763717D01*
X12112835Y12775268D01*
X12089386Y12782381D01*
X12064999Y12784783D01*
X12040613Y12782381D01*
X12017164Y12775268D01*
X11995554Y12763717D01*
X11976612Y12748171D01*
X11961067Y12729230D01*
X11951478Y12714879D01*
X11895622Y12659023D01*
X11829944Y12615138D01*
X11787195Y12597431D01*
X11756967Y12584910D01*
X11718231Y12577205D01*
X11679496Y12569500D01*
X11600504Y12569500D01*
X11561769Y12577205D01*
X11523033Y12584910D01*
X11492805Y12597431D01*
X11450056Y12615138D01*
X11384378Y12659023D01*
X11328522Y12714879D01*
X11318933Y12729230D01*
X11303387Y12748172D01*
X11284445Y12763717D01*
X11262835Y12775268D01*
X11239386Y12782381D01*
X11214999Y12784783D01*
X11190613Y12782381D01*
X11167164Y12775268D01*
X11145554Y12763717D01*
X11126612Y12748171D01*
X11111067Y12729230D01*
X11101478Y12714879D01*
X11045622Y12659023D01*
X10979944Y12615138D01*
X10937195Y12597431D01*
X10906967Y12584910D01*
X10868231Y12577205D01*
X10829496Y12569500D01*
X10750504Y12569500D01*
X10711769Y12577205D01*
X10673033Y12584910D01*
X10642805Y12597431D01*
X10600056Y12615138D01*
X10534378Y12659023D01*
X10478522Y12714879D01*
X10468933Y12729230D01*
X10453387Y12748172D01*
X10434445Y12763717D01*
X10412835Y12775268D01*
X10389386Y12782381D01*
X10364999Y12784783D01*
X10340613Y12782381D01*
X10317164Y12775268D01*
X10295554Y12763717D01*
X10276612Y12748171D01*
X10261067Y12729230D01*
X10251478Y12714879D01*
X10195622Y12659023D01*
X10129944Y12615138D01*
X10087195Y12597431D01*
X10056967Y12584910D01*
X10018231Y12577205D01*
X9979496Y12569500D01*
X9900504Y12569500D01*
X9861769Y12577205D01*
X9823033Y12584910D01*
X9792805Y12597431D01*
X9750056Y12615138D01*
X9684378Y12659023D01*
X9628522Y12714879D01*
X9618933Y12729230D01*
X9603387Y12748172D01*
X9584445Y12763717D01*
X9562835Y12775268D01*
X9539386Y12782381D01*
X9514999Y12784783D01*
X9490613Y12782381D01*
X9467164Y12775268D01*
X9445554Y12763717D01*
X9426612Y12748171D01*
X9411067Y12729230D01*
X9401478Y12714879D01*
X9345622Y12659023D01*
X9279944Y12615138D01*
X9237195Y12597431D01*
X9206967Y12584910D01*
X9168231Y12577205D01*
X9129496Y12569500D01*
X9050504Y12569500D01*
X9011769Y12577205D01*
X8973033Y12584910D01*
X8942805Y12597431D01*
X8900056Y12615138D01*
X8834378Y12659023D01*
X8778523Y12714878D01*
X8734638Y12780556D01*
X8704410Y12853534D01*
X8689000Y12931004D01*
X8689000Y13009996D01*
X8704410Y13087466D01*
X8734638Y13160444D01*
X8778523Y13226122D01*
X8834378Y13281977D01*
X8900056Y13325862D01*
X8942805Y13343569D01*
X8973033Y13356090D01*
X9011769Y13363795D01*
X9050504Y13371500D01*
X9129496Y13371500D01*
X9168231Y13363795D01*
G37*
G36*
X7838212Y16874251D02*
G01*
X7932651Y16845603D01*
X8019687Y16799082D01*
X8095975Y16736475D01*
X8158582Y16660187D01*
X8205103Y16573152D01*
X8233751Y16478713D01*
X8241000Y16405112D01*
X8241000Y15555888D01*
X8233751Y15482287D01*
X8205103Y15387848D01*
X8158582Y15300813D01*
X8095975Y15224525D01*
X8019687Y15161918D01*
X7932652Y15115397D01*
X7838213Y15086749D01*
X7740000Y15077076D01*
X7641788Y15086749D01*
X7547349Y15115397D01*
X7460314Y15161918D01*
X7384026Y15224525D01*
X7321419Y15300813D01*
X7274898Y15387848D01*
X7246250Y15482287D01*
X7239001Y15555888D01*
X7239000Y15555898D01*
X7239000Y16405111D01*
X7246249Y16478712D01*
X7274897Y16573151D01*
X7321418Y16660187D01*
X7384025Y16736475D01*
X7460313Y16799082D01*
X7547348Y16845603D01*
X7641787Y16874251D01*
X7740000Y16883924D01*
X7838212Y16874251D01*
G37*
G36*
X16488212Y16874251D02*
G01*
X16582651Y16845603D01*
X16669687Y16799082D01*
X16745975Y16736475D01*
X16808582Y16660187D01*
X16855103Y16573152D01*
X16883751Y16478713D01*
X16891000Y16405112D01*
X16891000Y15555888D01*
X16883751Y15482287D01*
X16855103Y15387848D01*
X16808582Y15300813D01*
X16745975Y15224525D01*
X16669687Y15161918D01*
X16582652Y15115397D01*
X16488213Y15086749D01*
X16390000Y15077076D01*
X16291788Y15086749D01*
X16197349Y15115397D01*
X16110314Y15161918D01*
X16034026Y15224525D01*
X15971419Y15300813D01*
X15924898Y15387848D01*
X15896250Y15482287D01*
X15889001Y15555888D01*
X15889000Y15555898D01*
X15889000Y16405111D01*
X15896249Y16478712D01*
X15924897Y16573151D01*
X15971418Y16660187D01*
X16034025Y16736475D01*
X16110313Y16799082D01*
X16197348Y16845603D01*
X16291787Y16874251D01*
X16390000Y16883924D01*
X16488212Y16874251D01*
G37*
M02*
