G04 #@! TF.GenerationSoftware,KiCad,Pcbnew,5.1.5+dfsg1-2build2*
G04 #@! TF.CreationDate,2020-08-03T15:49:09+10:00*
G04 #@! TF.ProjectId,macr0,6d616372-302e-46b6-9963-61645f706362,rev?*
G04 #@! TF.SameCoordinates,Original*
G04 #@! TF.FileFunction,Legend,Bot*
G04 #@! TF.FilePolarity,Positive*
%FSLAX46Y46*%
G04 Gerber Fmt 4.6, Leading zero omitted, Abs format (unit mm)*
G04 Created by KiCad (PCBNEW 5.1.5+dfsg1-2build2) date 2020-08-03 15:49:09*
%MOMM*%
%LPD*%
G04 APERTURE LIST*
%ADD10C,0.125000*%
%ADD11C,0.010000*%
%ADD12C,0.120000*%
%ADD13C,0.150000*%
G04 APERTURE END LIST*
D10*
X129410714Y-117651571D02*
X129482142Y-117687285D01*
X129625000Y-117687285D01*
X129696428Y-117651571D01*
X129732142Y-117615857D01*
X129767857Y-117544428D01*
X129767857Y-117330142D01*
X129732142Y-117258714D01*
X129696428Y-117223000D01*
X129625000Y-117187285D01*
X129482142Y-117187285D01*
X129410714Y-117223000D01*
X128982142Y-117687285D02*
X129053571Y-117651571D01*
X129089285Y-117580142D01*
X129089285Y-116937285D01*
X128410714Y-117651571D02*
X128482142Y-117687285D01*
X128625000Y-117687285D01*
X128696428Y-117651571D01*
X128732142Y-117580142D01*
X128732142Y-117294428D01*
X128696428Y-117223000D01*
X128625000Y-117187285D01*
X128482142Y-117187285D01*
X128410714Y-117223000D01*
X128375000Y-117294428D01*
X128375000Y-117365857D01*
X128732142Y-117437285D01*
X128125000Y-117187285D02*
X127982142Y-117687285D01*
X127839285Y-117330142D01*
X127696428Y-117687285D01*
X127553571Y-117187285D01*
X127303571Y-117651571D02*
X127232142Y-117687285D01*
X127089285Y-117687285D01*
X127017857Y-117651571D01*
X126982142Y-117580142D01*
X126982142Y-117544428D01*
X127017857Y-117473000D01*
X127089285Y-117437285D01*
X127196428Y-117437285D01*
X127267857Y-117401571D01*
X127303571Y-117330142D01*
X127303571Y-117294428D01*
X127267857Y-117223000D01*
X127196428Y-117187285D01*
X127089285Y-117187285D01*
X127017857Y-117223000D01*
X126732142Y-117187285D02*
X126553571Y-117687285D01*
X126375000Y-117187285D02*
X126553571Y-117687285D01*
X126625000Y-117865857D01*
X126660714Y-117901571D01*
X126732142Y-117937285D01*
X126089285Y-117615857D02*
X126053571Y-117651571D01*
X126089285Y-117687285D01*
X126125000Y-117651571D01*
X126089285Y-117615857D01*
X126089285Y-117687285D01*
X125732142Y-117187285D02*
X125732142Y-117937285D01*
X125732142Y-117223000D02*
X125660714Y-117187285D01*
X125517857Y-117187285D01*
X125446428Y-117223000D01*
X125410714Y-117258714D01*
X125375000Y-117330142D01*
X125375000Y-117544428D01*
X125410714Y-117615857D01*
X125446428Y-117651571D01*
X125517857Y-117687285D01*
X125660714Y-117687285D01*
X125732142Y-117651571D01*
X125053571Y-117687285D02*
X125053571Y-117187285D01*
X125053571Y-117330142D02*
X125017857Y-117258714D01*
X124982142Y-117223000D01*
X124910714Y-117187285D01*
X124839285Y-117187285D01*
X124482142Y-117687285D02*
X124553571Y-117651571D01*
X124589285Y-117615857D01*
X124625000Y-117544428D01*
X124625000Y-117330142D01*
X124589285Y-117258714D01*
X124553571Y-117223000D01*
X124482142Y-117187285D01*
X124375000Y-117187285D01*
X124303571Y-117223000D01*
X124267857Y-117258714D01*
X124232142Y-117330142D01*
X124232142Y-117544428D01*
X124267857Y-117615857D01*
X124303571Y-117651571D01*
X124375000Y-117687285D01*
X124482142Y-117687285D01*
D11*
G36*
X120597640Y-110027533D02*
G01*
X120204791Y-110102179D01*
X119817960Y-110215889D01*
X119489954Y-110345898D01*
X119140320Y-110523894D01*
X118809197Y-110736587D01*
X118499530Y-110981133D01*
X118214262Y-111254688D01*
X117956338Y-111554408D01*
X117728702Y-111877451D01*
X117534297Y-112220972D01*
X117521041Y-112247680D01*
X117360946Y-112617618D01*
X117239695Y-112994361D01*
X117156561Y-113375456D01*
X117110814Y-113758452D01*
X117101727Y-114140899D01*
X117128571Y-114520345D01*
X117190619Y-114894340D01*
X117287142Y-115260431D01*
X117417413Y-115616169D01*
X117580703Y-115959103D01*
X117776284Y-116286780D01*
X118003427Y-116596750D01*
X118261406Y-116886563D01*
X118549491Y-117153767D01*
X118866954Y-117395910D01*
X119093714Y-117541701D01*
X119430641Y-117720286D01*
X119788251Y-117866326D01*
X120161439Y-117978688D01*
X120545101Y-118056238D01*
X120934132Y-118097841D01*
X121323427Y-118102364D01*
X121549829Y-118087310D01*
X121944382Y-118029330D01*
X122327260Y-117933598D01*
X122696216Y-117801891D01*
X123049005Y-117635987D01*
X123383383Y-117437663D01*
X123697103Y-117208698D01*
X123987920Y-116950869D01*
X124253590Y-116665955D01*
X124491866Y-116355732D01*
X124513052Y-116321840D01*
X123462408Y-116321840D01*
X123382084Y-116405049D01*
X123257492Y-116519533D01*
X123102259Y-116639096D01*
X122925057Y-116758513D01*
X122734557Y-116872561D01*
X122539431Y-116976015D01*
X122348350Y-117063650D01*
X122188502Y-117124178D01*
X121852244Y-117216201D01*
X121506906Y-117272138D01*
X121160020Y-117291137D01*
X120850273Y-117275699D01*
X120579212Y-117238622D01*
X120328083Y-117183168D01*
X120083880Y-117105530D01*
X119833593Y-117001901D01*
X119704664Y-116940418D01*
X119550452Y-116857465D01*
X119390863Y-116759915D01*
X119235567Y-116654485D01*
X119094236Y-116547894D01*
X118976541Y-116446859D01*
X118933917Y-116405049D01*
X118853593Y-116321840D01*
X123462408Y-116321840D01*
X124513052Y-116321840D01*
X124700503Y-116021979D01*
X124877256Y-115666473D01*
X124997746Y-115357303D01*
X125108665Y-114973089D01*
X125109785Y-114967000D01*
X124266960Y-114967000D01*
X124259547Y-114998460D01*
X124239628Y-115058191D01*
X124210688Y-115137103D01*
X124176209Y-115226104D01*
X124139674Y-115316102D01*
X124104568Y-115398007D01*
X124087226Y-115436106D01*
X124005437Y-115610640D01*
X122022919Y-115610640D01*
X121742865Y-115610525D01*
X121474597Y-115610191D01*
X121220869Y-115609655D01*
X120984434Y-115608931D01*
X120768047Y-115608036D01*
X120574462Y-115606986D01*
X120406434Y-115605797D01*
X120266716Y-115604485D01*
X120158063Y-115603065D01*
X120083228Y-115601553D01*
X120044967Y-115599965D01*
X120040400Y-115599187D01*
X120050234Y-115578831D01*
X120077540Y-115529331D01*
X120119023Y-115456478D01*
X120171391Y-115366061D01*
X120225335Y-115274067D01*
X120410269Y-114960400D01*
X122338615Y-114960400D01*
X122614740Y-114960467D01*
X122879042Y-114960665D01*
X123128728Y-114960982D01*
X123361005Y-114961410D01*
X123573080Y-114961939D01*
X123762161Y-114962559D01*
X123925455Y-114963261D01*
X124060170Y-114964035D01*
X124163513Y-114964872D01*
X124232691Y-114965762D01*
X124264911Y-114966695D01*
X124266960Y-114967000D01*
X125109785Y-114967000D01*
X125180286Y-114583942D01*
X125213218Y-114192598D01*
X125212481Y-114136624D01*
X124401631Y-114136624D01*
X124392286Y-114297434D01*
X124379165Y-114421236D01*
X124363209Y-114542516D01*
X124345566Y-114655204D01*
X124327390Y-114753229D01*
X124309828Y-114830520D01*
X124294033Y-114881005D01*
X124281154Y-114898613D01*
X124278619Y-114897268D01*
X124267653Y-114878966D01*
X124237682Y-114827691D01*
X124189998Y-114745679D01*
X124125895Y-114635165D01*
X124046666Y-114498385D01*
X123953603Y-114337572D01*
X123889380Y-114226517D01*
X123075052Y-114226517D01*
X123070136Y-114235580D01*
X123050504Y-114241687D01*
X123011123Y-114245254D01*
X122946959Y-114246697D01*
X122852978Y-114246432D01*
X122724146Y-114244877D01*
X122701741Y-114244562D01*
X122313178Y-114239040D01*
X122311002Y-114235272D01*
X121483120Y-114235272D01*
X121463935Y-114239974D01*
X121410912Y-114243999D01*
X121330852Y-114247054D01*
X121230556Y-114248848D01*
X121158000Y-114249200D01*
X121048227Y-114248378D01*
X120954284Y-114246106D01*
X120882974Y-114242677D01*
X120841096Y-114238380D01*
X120832880Y-114235272D01*
X120842565Y-114211322D01*
X120868756Y-114160946D01*
X120907163Y-114091470D01*
X120953496Y-114010221D01*
X121003461Y-113924524D01*
X121052768Y-113841706D01*
X121097126Y-113769091D01*
X121132243Y-113714008D01*
X121153827Y-113683781D01*
X121158000Y-113680240D01*
X121172030Y-113696772D01*
X121201538Y-113741485D01*
X121242235Y-113807053D01*
X121289828Y-113886149D01*
X121340026Y-113971448D01*
X121388539Y-114055623D01*
X121431074Y-114131349D01*
X121463340Y-114191299D01*
X121481046Y-114228148D01*
X121483120Y-114235272D01*
X122311002Y-114235272D01*
X121567268Y-112947707D01*
X120731280Y-112947707D01*
X120721390Y-112967778D01*
X120692830Y-113020124D01*
X120647268Y-113101838D01*
X120586371Y-113210008D01*
X120511806Y-113341727D01*
X120425241Y-113494083D01*
X120328342Y-113664169D01*
X120222777Y-113849074D01*
X120110213Y-114045889D01*
X119992317Y-114251704D01*
X119870756Y-114463610D01*
X119747199Y-114678698D01*
X119623311Y-114894058D01*
X119500760Y-115106780D01*
X119381213Y-115313955D01*
X119266338Y-115512674D01*
X119157802Y-115700027D01*
X119057272Y-115873105D01*
X118966414Y-116028998D01*
X118926506Y-116097248D01*
X118814112Y-116289216D01*
X118714714Y-116178528D01*
X118656679Y-116109419D01*
X118588599Y-116021667D01*
X118522402Y-115930814D01*
X118502187Y-115901602D01*
X118452623Y-115824191D01*
X118417487Y-115760040D01*
X118400752Y-115716826D01*
X118400566Y-115705371D01*
X118412785Y-115682249D01*
X118443607Y-115627090D01*
X118491314Y-115542867D01*
X118554190Y-115432554D01*
X118630517Y-115299123D01*
X118718578Y-115145548D01*
X118816656Y-114974802D01*
X118923034Y-114789858D01*
X119035996Y-114593690D01*
X119153823Y-114389269D01*
X119274799Y-114179570D01*
X119397207Y-113967565D01*
X119519330Y-113756227D01*
X119639451Y-113548531D01*
X119755852Y-113347448D01*
X119866817Y-113155952D01*
X119970628Y-112977015D01*
X120065569Y-112813612D01*
X120149922Y-112668715D01*
X120221970Y-112545298D01*
X120279997Y-112446333D01*
X120322285Y-112374793D01*
X120347117Y-112333652D01*
X120353016Y-112324689D01*
X120366661Y-112324266D01*
X120389482Y-112346394D01*
X120423710Y-112394269D01*
X120471577Y-112471086D01*
X120535313Y-112580041D01*
X120553480Y-112611786D01*
X120611148Y-112714194D01*
X120661010Y-112805254D01*
X120699795Y-112878786D01*
X120724233Y-112928609D01*
X120731280Y-112947707D01*
X121567268Y-112947707D01*
X121350711Y-112572800D01*
X121212854Y-112333735D01*
X121081195Y-112104636D01*
X120957115Y-111887945D01*
X120841991Y-111686107D01*
X120737204Y-111501566D01*
X120644132Y-111336765D01*
X120564153Y-111194148D01*
X120498647Y-111076160D01*
X120448993Y-110985245D01*
X120416569Y-110923845D01*
X120411979Y-110914062D01*
X120341595Y-110914062D01*
X120327547Y-110941331D01*
X120294944Y-111000160D01*
X120245356Y-111087857D01*
X120180351Y-111201730D01*
X120101500Y-111339090D01*
X120010372Y-111497243D01*
X119908537Y-111673500D01*
X119797563Y-111865170D01*
X119679021Y-112069560D01*
X119554479Y-112283980D01*
X119425508Y-112505739D01*
X119293676Y-112732146D01*
X119160554Y-112960509D01*
X119027710Y-113188138D01*
X118896715Y-113412341D01*
X118769138Y-113630427D01*
X118646547Y-113839705D01*
X118530513Y-114037484D01*
X118422606Y-114221073D01*
X118324394Y-114387780D01*
X118237447Y-114534914D01*
X118163334Y-114659785D01*
X118103626Y-114759701D01*
X118059891Y-114831971D01*
X118033699Y-114873903D01*
X118026435Y-114883803D01*
X118015549Y-114857818D01*
X117999791Y-114803425D01*
X117982441Y-114732028D01*
X117981258Y-114726720D01*
X117928721Y-114401156D01*
X117911197Y-114063322D01*
X117928400Y-113721079D01*
X117980041Y-113382289D01*
X118039372Y-113141486D01*
X118155355Y-112810964D01*
X118306661Y-112495700D01*
X118490559Y-112198734D01*
X118704315Y-111923103D01*
X118945196Y-111671846D01*
X119210469Y-111448000D01*
X119497400Y-111254604D01*
X119803257Y-111094695D01*
X119928640Y-111041443D01*
X120048005Y-110995491D01*
X120153747Y-110957686D01*
X120240697Y-110929622D01*
X120303687Y-110912893D01*
X120337548Y-110909092D01*
X120341595Y-110914062D01*
X120411979Y-110914062D01*
X120402756Y-110894406D01*
X120402453Y-110892165D01*
X120431505Y-110880135D01*
X120491965Y-110865886D01*
X120574759Y-110850803D01*
X120670814Y-110836269D01*
X120771059Y-110823667D01*
X120866420Y-110814382D01*
X120941272Y-110809983D01*
X121100463Y-110804960D01*
X122075365Y-112491520D01*
X122214796Y-112732747D01*
X122348677Y-112964398D01*
X122475578Y-113184000D01*
X122594071Y-113389078D01*
X122702726Y-113577158D01*
X122800114Y-113745766D01*
X122884806Y-113892427D01*
X122955374Y-114014667D01*
X123010387Y-114110011D01*
X123048417Y-114175987D01*
X123068035Y-114210118D01*
X123070286Y-114214082D01*
X123075052Y-114226517D01*
X123889380Y-114226517D01*
X123848000Y-114154964D01*
X123731149Y-113952794D01*
X123604344Y-113733299D01*
X123468877Y-113498714D01*
X123326041Y-113251273D01*
X123177130Y-112993213D01*
X123129734Y-112911057D01*
X122979404Y-112650210D01*
X122835047Y-112399238D01*
X122697934Y-112160376D01*
X122569337Y-111935859D01*
X122450526Y-111727925D01*
X122342773Y-111538808D01*
X122247348Y-111370744D01*
X122165524Y-111225970D01*
X122098570Y-111106721D01*
X122047759Y-111015233D01*
X122014361Y-110953742D01*
X121999648Y-110924484D01*
X121999087Y-110922300D01*
X122024496Y-110922070D01*
X122079968Y-110935687D01*
X122158383Y-110960606D01*
X122252617Y-110994280D01*
X122355547Y-111034164D01*
X122460051Y-111077711D01*
X122559006Y-111122377D01*
X122559510Y-111122616D01*
X122865011Y-111289361D01*
X123150269Y-111489480D01*
X123412738Y-111719760D01*
X123649869Y-111976990D01*
X123859113Y-112257957D01*
X124037924Y-112559448D01*
X124183754Y-112878253D01*
X124294053Y-113211158D01*
X124328928Y-113353305D01*
X124373160Y-113608418D01*
X124397777Y-113875220D01*
X124401631Y-114136624D01*
X125212481Y-114136624D01*
X125208071Y-113801796D01*
X125165455Y-113414271D01*
X125085982Y-113032760D01*
X124970262Y-112660001D01*
X124818904Y-112298731D01*
X124632519Y-111951686D01*
X124411718Y-111621604D01*
X124157111Y-111311221D01*
X124076071Y-111224276D01*
X123863690Y-111021990D01*
X123622585Y-110825436D01*
X123364572Y-110643180D01*
X123101469Y-110483789D01*
X122936000Y-110397798D01*
X122561462Y-110238884D01*
X122177392Y-110118800D01*
X121786384Y-110037583D01*
X121391028Y-109995274D01*
X120993916Y-109991911D01*
X120597640Y-110027533D01*
G37*
X120597640Y-110027533D02*
X120204791Y-110102179D01*
X119817960Y-110215889D01*
X119489954Y-110345898D01*
X119140320Y-110523894D01*
X118809197Y-110736587D01*
X118499530Y-110981133D01*
X118214262Y-111254688D01*
X117956338Y-111554408D01*
X117728702Y-111877451D01*
X117534297Y-112220972D01*
X117521041Y-112247680D01*
X117360946Y-112617618D01*
X117239695Y-112994361D01*
X117156561Y-113375456D01*
X117110814Y-113758452D01*
X117101727Y-114140899D01*
X117128571Y-114520345D01*
X117190619Y-114894340D01*
X117287142Y-115260431D01*
X117417413Y-115616169D01*
X117580703Y-115959103D01*
X117776284Y-116286780D01*
X118003427Y-116596750D01*
X118261406Y-116886563D01*
X118549491Y-117153767D01*
X118866954Y-117395910D01*
X119093714Y-117541701D01*
X119430641Y-117720286D01*
X119788251Y-117866326D01*
X120161439Y-117978688D01*
X120545101Y-118056238D01*
X120934132Y-118097841D01*
X121323427Y-118102364D01*
X121549829Y-118087310D01*
X121944382Y-118029330D01*
X122327260Y-117933598D01*
X122696216Y-117801891D01*
X123049005Y-117635987D01*
X123383383Y-117437663D01*
X123697103Y-117208698D01*
X123987920Y-116950869D01*
X124253590Y-116665955D01*
X124491866Y-116355732D01*
X124513052Y-116321840D01*
X123462408Y-116321840D01*
X123382084Y-116405049D01*
X123257492Y-116519533D01*
X123102259Y-116639096D01*
X122925057Y-116758513D01*
X122734557Y-116872561D01*
X122539431Y-116976015D01*
X122348350Y-117063650D01*
X122188502Y-117124178D01*
X121852244Y-117216201D01*
X121506906Y-117272138D01*
X121160020Y-117291137D01*
X120850273Y-117275699D01*
X120579212Y-117238622D01*
X120328083Y-117183168D01*
X120083880Y-117105530D01*
X119833593Y-117001901D01*
X119704664Y-116940418D01*
X119550452Y-116857465D01*
X119390863Y-116759915D01*
X119235567Y-116654485D01*
X119094236Y-116547894D01*
X118976541Y-116446859D01*
X118933917Y-116405049D01*
X118853593Y-116321840D01*
X123462408Y-116321840D01*
X124513052Y-116321840D01*
X124700503Y-116021979D01*
X124877256Y-115666473D01*
X124997746Y-115357303D01*
X125108665Y-114973089D01*
X125109785Y-114967000D01*
X124266960Y-114967000D01*
X124259547Y-114998460D01*
X124239628Y-115058191D01*
X124210688Y-115137103D01*
X124176209Y-115226104D01*
X124139674Y-115316102D01*
X124104568Y-115398007D01*
X124087226Y-115436106D01*
X124005437Y-115610640D01*
X122022919Y-115610640D01*
X121742865Y-115610525D01*
X121474597Y-115610191D01*
X121220869Y-115609655D01*
X120984434Y-115608931D01*
X120768047Y-115608036D01*
X120574462Y-115606986D01*
X120406434Y-115605797D01*
X120266716Y-115604485D01*
X120158063Y-115603065D01*
X120083228Y-115601553D01*
X120044967Y-115599965D01*
X120040400Y-115599187D01*
X120050234Y-115578831D01*
X120077540Y-115529331D01*
X120119023Y-115456478D01*
X120171391Y-115366061D01*
X120225335Y-115274067D01*
X120410269Y-114960400D01*
X122338615Y-114960400D01*
X122614740Y-114960467D01*
X122879042Y-114960665D01*
X123128728Y-114960982D01*
X123361005Y-114961410D01*
X123573080Y-114961939D01*
X123762161Y-114962559D01*
X123925455Y-114963261D01*
X124060170Y-114964035D01*
X124163513Y-114964872D01*
X124232691Y-114965762D01*
X124264911Y-114966695D01*
X124266960Y-114967000D01*
X125109785Y-114967000D01*
X125180286Y-114583942D01*
X125213218Y-114192598D01*
X125212481Y-114136624D01*
X124401631Y-114136624D01*
X124392286Y-114297434D01*
X124379165Y-114421236D01*
X124363209Y-114542516D01*
X124345566Y-114655204D01*
X124327390Y-114753229D01*
X124309828Y-114830520D01*
X124294033Y-114881005D01*
X124281154Y-114898613D01*
X124278619Y-114897268D01*
X124267653Y-114878966D01*
X124237682Y-114827691D01*
X124189998Y-114745679D01*
X124125895Y-114635165D01*
X124046666Y-114498385D01*
X123953603Y-114337572D01*
X123889380Y-114226517D01*
X123075052Y-114226517D01*
X123070136Y-114235580D01*
X123050504Y-114241687D01*
X123011123Y-114245254D01*
X122946959Y-114246697D01*
X122852978Y-114246432D01*
X122724146Y-114244877D01*
X122701741Y-114244562D01*
X122313178Y-114239040D01*
X122311002Y-114235272D01*
X121483120Y-114235272D01*
X121463935Y-114239974D01*
X121410912Y-114243999D01*
X121330852Y-114247054D01*
X121230556Y-114248848D01*
X121158000Y-114249200D01*
X121048227Y-114248378D01*
X120954284Y-114246106D01*
X120882974Y-114242677D01*
X120841096Y-114238380D01*
X120832880Y-114235272D01*
X120842565Y-114211322D01*
X120868756Y-114160946D01*
X120907163Y-114091470D01*
X120953496Y-114010221D01*
X121003461Y-113924524D01*
X121052768Y-113841706D01*
X121097126Y-113769091D01*
X121132243Y-113714008D01*
X121153827Y-113683781D01*
X121158000Y-113680240D01*
X121172030Y-113696772D01*
X121201538Y-113741485D01*
X121242235Y-113807053D01*
X121289828Y-113886149D01*
X121340026Y-113971448D01*
X121388539Y-114055623D01*
X121431074Y-114131349D01*
X121463340Y-114191299D01*
X121481046Y-114228148D01*
X121483120Y-114235272D01*
X122311002Y-114235272D01*
X121567268Y-112947707D01*
X120731280Y-112947707D01*
X120721390Y-112967778D01*
X120692830Y-113020124D01*
X120647268Y-113101838D01*
X120586371Y-113210008D01*
X120511806Y-113341727D01*
X120425241Y-113494083D01*
X120328342Y-113664169D01*
X120222777Y-113849074D01*
X120110213Y-114045889D01*
X119992317Y-114251704D01*
X119870756Y-114463610D01*
X119747199Y-114678698D01*
X119623311Y-114894058D01*
X119500760Y-115106780D01*
X119381213Y-115313955D01*
X119266338Y-115512674D01*
X119157802Y-115700027D01*
X119057272Y-115873105D01*
X118966414Y-116028998D01*
X118926506Y-116097248D01*
X118814112Y-116289216D01*
X118714714Y-116178528D01*
X118656679Y-116109419D01*
X118588599Y-116021667D01*
X118522402Y-115930814D01*
X118502187Y-115901602D01*
X118452623Y-115824191D01*
X118417487Y-115760040D01*
X118400752Y-115716826D01*
X118400566Y-115705371D01*
X118412785Y-115682249D01*
X118443607Y-115627090D01*
X118491314Y-115542867D01*
X118554190Y-115432554D01*
X118630517Y-115299123D01*
X118718578Y-115145548D01*
X118816656Y-114974802D01*
X118923034Y-114789858D01*
X119035996Y-114593690D01*
X119153823Y-114389269D01*
X119274799Y-114179570D01*
X119397207Y-113967565D01*
X119519330Y-113756227D01*
X119639451Y-113548531D01*
X119755852Y-113347448D01*
X119866817Y-113155952D01*
X119970628Y-112977015D01*
X120065569Y-112813612D01*
X120149922Y-112668715D01*
X120221970Y-112545298D01*
X120279997Y-112446333D01*
X120322285Y-112374793D01*
X120347117Y-112333652D01*
X120353016Y-112324689D01*
X120366661Y-112324266D01*
X120389482Y-112346394D01*
X120423710Y-112394269D01*
X120471577Y-112471086D01*
X120535313Y-112580041D01*
X120553480Y-112611786D01*
X120611148Y-112714194D01*
X120661010Y-112805254D01*
X120699795Y-112878786D01*
X120724233Y-112928609D01*
X120731280Y-112947707D01*
X121567268Y-112947707D01*
X121350711Y-112572800D01*
X121212854Y-112333735D01*
X121081195Y-112104636D01*
X120957115Y-111887945D01*
X120841991Y-111686107D01*
X120737204Y-111501566D01*
X120644132Y-111336765D01*
X120564153Y-111194148D01*
X120498647Y-111076160D01*
X120448993Y-110985245D01*
X120416569Y-110923845D01*
X120411979Y-110914062D01*
X120341595Y-110914062D01*
X120327547Y-110941331D01*
X120294944Y-111000160D01*
X120245356Y-111087857D01*
X120180351Y-111201730D01*
X120101500Y-111339090D01*
X120010372Y-111497243D01*
X119908537Y-111673500D01*
X119797563Y-111865170D01*
X119679021Y-112069560D01*
X119554479Y-112283980D01*
X119425508Y-112505739D01*
X119293676Y-112732146D01*
X119160554Y-112960509D01*
X119027710Y-113188138D01*
X118896715Y-113412341D01*
X118769138Y-113630427D01*
X118646547Y-113839705D01*
X118530513Y-114037484D01*
X118422606Y-114221073D01*
X118324394Y-114387780D01*
X118237447Y-114534914D01*
X118163334Y-114659785D01*
X118103626Y-114759701D01*
X118059891Y-114831971D01*
X118033699Y-114873903D01*
X118026435Y-114883803D01*
X118015549Y-114857818D01*
X117999791Y-114803425D01*
X117982441Y-114732028D01*
X117981258Y-114726720D01*
X117928721Y-114401156D01*
X117911197Y-114063322D01*
X117928400Y-113721079D01*
X117980041Y-113382289D01*
X118039372Y-113141486D01*
X118155355Y-112810964D01*
X118306661Y-112495700D01*
X118490559Y-112198734D01*
X118704315Y-111923103D01*
X118945196Y-111671846D01*
X119210469Y-111448000D01*
X119497400Y-111254604D01*
X119803257Y-111094695D01*
X119928640Y-111041443D01*
X120048005Y-110995491D01*
X120153747Y-110957686D01*
X120240697Y-110929622D01*
X120303687Y-110912893D01*
X120337548Y-110909092D01*
X120341595Y-110914062D01*
X120411979Y-110914062D01*
X120402756Y-110894406D01*
X120402453Y-110892165D01*
X120431505Y-110880135D01*
X120491965Y-110865886D01*
X120574759Y-110850803D01*
X120670814Y-110836269D01*
X120771059Y-110823667D01*
X120866420Y-110814382D01*
X120941272Y-110809983D01*
X121100463Y-110804960D01*
X122075365Y-112491520D01*
X122214796Y-112732747D01*
X122348677Y-112964398D01*
X122475578Y-113184000D01*
X122594071Y-113389078D01*
X122702726Y-113577158D01*
X122800114Y-113745766D01*
X122884806Y-113892427D01*
X122955374Y-114014667D01*
X123010387Y-114110011D01*
X123048417Y-114175987D01*
X123068035Y-114210118D01*
X123070286Y-114214082D01*
X123075052Y-114226517D01*
X123889380Y-114226517D01*
X123848000Y-114154964D01*
X123731149Y-113952794D01*
X123604344Y-113733299D01*
X123468877Y-113498714D01*
X123326041Y-113251273D01*
X123177130Y-112993213D01*
X123129734Y-112911057D01*
X122979404Y-112650210D01*
X122835047Y-112399238D01*
X122697934Y-112160376D01*
X122569337Y-111935859D01*
X122450526Y-111727925D01*
X122342773Y-111538808D01*
X122247348Y-111370744D01*
X122165524Y-111225970D01*
X122098570Y-111106721D01*
X122047759Y-111015233D01*
X122014361Y-110953742D01*
X121999648Y-110924484D01*
X121999087Y-110922300D01*
X122024496Y-110922070D01*
X122079968Y-110935687D01*
X122158383Y-110960606D01*
X122252617Y-110994280D01*
X122355547Y-111034164D01*
X122460051Y-111077711D01*
X122559006Y-111122377D01*
X122559510Y-111122616D01*
X122865011Y-111289361D01*
X123150269Y-111489480D01*
X123412738Y-111719760D01*
X123649869Y-111976990D01*
X123859113Y-112257957D01*
X124037924Y-112559448D01*
X124183754Y-112878253D01*
X124294053Y-113211158D01*
X124328928Y-113353305D01*
X124373160Y-113608418D01*
X124397777Y-113875220D01*
X124401631Y-114136624D01*
X125212481Y-114136624D01*
X125208071Y-113801796D01*
X125165455Y-113414271D01*
X125085982Y-113032760D01*
X124970262Y-112660001D01*
X124818904Y-112298731D01*
X124632519Y-111951686D01*
X124411718Y-111621604D01*
X124157111Y-111311221D01*
X124076071Y-111224276D01*
X123863690Y-111021990D01*
X123622585Y-110825436D01*
X123364572Y-110643180D01*
X123101469Y-110483789D01*
X122936000Y-110397798D01*
X122561462Y-110238884D01*
X122177392Y-110118800D01*
X121786384Y-110037583D01*
X121391028Y-109995274D01*
X120993916Y-109991911D01*
X120597640Y-110027533D01*
D12*
X122788000Y-95627436D02*
X122788000Y-96831564D01*
X124608000Y-95627436D02*
X124608000Y-96831564D01*
X124583436Y-104542000D02*
X125787564Y-104542000D01*
X124583436Y-102722000D02*
X125787564Y-102722000D01*
X132482000Y-112464436D02*
X132482000Y-113668564D01*
X130662000Y-112464436D02*
X130662000Y-113668564D01*
X131768436Y-107167000D02*
X132972564Y-107167000D01*
X131768436Y-108987000D02*
X132972564Y-108987000D01*
X120558000Y-82407000D02*
X124458000Y-82407000D01*
X120558000Y-80407000D02*
X124458000Y-80407000D01*
X120558000Y-82407000D02*
X120558000Y-80407000D01*
X148753000Y-82407000D02*
X148753000Y-80407000D01*
X148753000Y-80407000D02*
X152653000Y-80407000D01*
X148753000Y-82407000D02*
X152653000Y-82407000D01*
X122718000Y-101457000D02*
X122718000Y-99457000D01*
X122718000Y-99457000D02*
X126618000Y-99457000D01*
X122718000Y-101457000D02*
X126618000Y-101457000D01*
X148118000Y-100822000D02*
X152018000Y-100822000D01*
X148118000Y-98822000D02*
X152018000Y-98822000D01*
X148118000Y-100822000D02*
X148118000Y-98822000D01*
X142896000Y-114496436D02*
X142896000Y-115700564D01*
X141076000Y-114496436D02*
X141076000Y-115700564D01*
X150818436Y-98192000D02*
X152022564Y-98192000D01*
X150818436Y-96372000D02*
X152022564Y-96372000D01*
X131301309Y-91766077D02*
X132152756Y-90914630D01*
X132588244Y-93053012D02*
X133439691Y-92201565D01*
X143400370Y-92202435D02*
X142548923Y-91350988D01*
X142113435Y-93489370D02*
X141261988Y-92637923D01*
X127323436Y-82317000D02*
X128527564Y-82317000D01*
X127323436Y-80497000D02*
X128527564Y-80497000D01*
X145472564Y-82317000D02*
X144268436Y-82317000D01*
X145472564Y-80497000D02*
X144268436Y-80497000D01*
X153031436Y-104542000D02*
X154235564Y-104542000D01*
X153031436Y-102722000D02*
X154235564Y-102722000D01*
X149678000Y-94162000D02*
X149708000Y-94162000D01*
X156138000Y-94162000D02*
X156108000Y-94162000D01*
X156138000Y-87702000D02*
X156108000Y-87702000D01*
X149708000Y-87702000D02*
X149678000Y-87702000D01*
X151608000Y-94162000D02*
X154208000Y-94162000D01*
X149678000Y-87702000D02*
X149678000Y-94162000D01*
X151608000Y-87702000D02*
X154208000Y-87702000D01*
X156138000Y-87702000D02*
X156138000Y-94162000D01*
D13*
X137668000Y-107140555D02*
X137261414Y-106733969D01*
X144986555Y-99822000D02*
X144509258Y-99344703D01*
X137668000Y-92503445D02*
X138145297Y-92980742D01*
X130349445Y-99822000D02*
X130826742Y-100299297D01*
X137668000Y-107140555D02*
X138145297Y-106663258D01*
X130349445Y-99822000D02*
X130826742Y-99344703D01*
X137668000Y-92503445D02*
X137190703Y-92980742D01*
X144986555Y-99822000D02*
X144509258Y-100299297D01*
X137261414Y-106733969D02*
X136359852Y-107635530D01*
D12*
X154813000Y-114182000D02*
X155613000Y-113382000D01*
X155613000Y-113382000D02*
X155613000Y-105782000D01*
X155613000Y-105782000D02*
X150203000Y-105782000D01*
X150203000Y-105782000D02*
X150203000Y-114182000D01*
X150203000Y-114182000D02*
X154813000Y-114182000D01*
X117338000Y-104864500D02*
X117338000Y-88889500D01*
X117338000Y-88889500D02*
X122438000Y-88889500D01*
X122438000Y-88889500D02*
X122438000Y-104864500D01*
X139760000Y-110176000D02*
X138430000Y-110176000D01*
X139760000Y-111506000D02*
X139760000Y-110176000D01*
X137160000Y-110176000D02*
X134560000Y-110176000D01*
X137160000Y-112776000D02*
X137160000Y-110176000D01*
X139760000Y-112776000D02*
X137160000Y-112776000D01*
X134560000Y-110176000D02*
X134560000Y-117916000D01*
X139760000Y-112776000D02*
X139760000Y-117916000D01*
X139760000Y-117916000D02*
X134560000Y-117916000D01*
X132492000Y-77376000D02*
X141682000Y-77376000D01*
X132612000Y-86786000D02*
X141562000Y-86786000D01*
X141682000Y-80106000D02*
X141682000Y-77376000D01*
X132492000Y-80106000D02*
X132492000Y-77376000D01*
X141682000Y-83706000D02*
X141682000Y-82806000D01*
X132492000Y-83706000D02*
X132492000Y-82806000D01*
D13*
X126102857Y-92511619D02*
X126055238Y-92464000D01*
X125960000Y-92416380D01*
X125721904Y-92416380D01*
X125626666Y-92464000D01*
X125579047Y-92511619D01*
X125531428Y-92606857D01*
X125531428Y-92702095D01*
X125579047Y-92844952D01*
X126150476Y-93416380D01*
X125531428Y-93416380D01*
X125150476Y-92511619D02*
X125102857Y-92464000D01*
X125007619Y-92416380D01*
X124769523Y-92416380D01*
X124674285Y-92464000D01*
X124626666Y-92511619D01*
X124579047Y-92606857D01*
X124579047Y-92702095D01*
X124626666Y-92844952D01*
X125198095Y-93416380D01*
X124579047Y-93416380D01*
X124150476Y-92749714D02*
X124150476Y-93749714D01*
X124150476Y-92797333D02*
X124055238Y-92749714D01*
X123864761Y-92749714D01*
X123769523Y-92797333D01*
X123721904Y-92844952D01*
X123674285Y-92940190D01*
X123674285Y-93225904D01*
X123721904Y-93321142D01*
X123769523Y-93368761D01*
X123864761Y-93416380D01*
X124055238Y-93416380D01*
X124150476Y-93368761D01*
X122912380Y-92892571D02*
X123245714Y-92892571D01*
X123245714Y-93416380D02*
X123245714Y-92416380D01*
X122769523Y-92416380D01*
X128134857Y-104957619D02*
X128087238Y-104910000D01*
X127992000Y-104862380D01*
X127753904Y-104862380D01*
X127658666Y-104910000D01*
X127611047Y-104957619D01*
X127563428Y-105052857D01*
X127563428Y-105148095D01*
X127611047Y-105290952D01*
X128182476Y-105862380D01*
X127563428Y-105862380D01*
X127182476Y-104957619D02*
X127134857Y-104910000D01*
X127039619Y-104862380D01*
X126801523Y-104862380D01*
X126706285Y-104910000D01*
X126658666Y-104957619D01*
X126611047Y-105052857D01*
X126611047Y-105148095D01*
X126658666Y-105290952D01*
X127230095Y-105862380D01*
X126611047Y-105862380D01*
X125753904Y-105195714D02*
X125753904Y-105862380D01*
X126182476Y-105195714D02*
X126182476Y-105719523D01*
X126134857Y-105814761D01*
X126039619Y-105862380D01*
X125896761Y-105862380D01*
X125801523Y-105814761D01*
X125753904Y-105767142D01*
X124944380Y-105338571D02*
X125277714Y-105338571D01*
X125277714Y-105862380D02*
X125277714Y-104862380D01*
X124801523Y-104862380D01*
X132167238Y-116784380D02*
X132738666Y-116784380D01*
X132452952Y-116784380D02*
X132452952Y-115784380D01*
X132548190Y-115927238D01*
X132643428Y-116022476D01*
X132738666Y-116070095D01*
X131310095Y-116117714D02*
X131310095Y-116784380D01*
X131738666Y-116117714D02*
X131738666Y-116641523D01*
X131691047Y-116736761D01*
X131595809Y-116784380D01*
X131452952Y-116784380D01*
X131357714Y-116736761D01*
X131310095Y-116689142D01*
X130500571Y-116260571D02*
X130833904Y-116260571D01*
X130833904Y-116784380D02*
X130833904Y-115784380D01*
X130357714Y-115784380D01*
X133441928Y-106709380D02*
X134013357Y-106709380D01*
X133727642Y-106709380D02*
X133727642Y-105709380D01*
X133822880Y-105852238D01*
X133918119Y-105947476D01*
X134013357Y-105995095D01*
X132822880Y-105709380D02*
X132727642Y-105709380D01*
X132632404Y-105757000D01*
X132584785Y-105804619D01*
X132537166Y-105899857D01*
X132489547Y-106090333D01*
X132489547Y-106328428D01*
X132537166Y-106518904D01*
X132584785Y-106614142D01*
X132632404Y-106661761D01*
X132727642Y-106709380D01*
X132822880Y-106709380D01*
X132918119Y-106661761D01*
X132965738Y-106614142D01*
X133013357Y-106518904D01*
X133060976Y-106328428D01*
X133060976Y-106090333D01*
X133013357Y-105899857D01*
X132965738Y-105804619D01*
X132918119Y-105757000D01*
X132822880Y-105709380D01*
X131632404Y-106042714D02*
X131632404Y-106709380D01*
X132060976Y-106042714D02*
X132060976Y-106566523D01*
X132013357Y-106661761D01*
X131918119Y-106709380D01*
X131775261Y-106709380D01*
X131680023Y-106661761D01*
X131632404Y-106614142D01*
X130822880Y-106185571D02*
X131156214Y-106185571D01*
X131156214Y-106709380D02*
X131156214Y-105709380D01*
X130680023Y-105709380D01*
X124950857Y-83764380D02*
X125522285Y-83764380D01*
X125236571Y-83764380D02*
X125236571Y-82764380D01*
X125331809Y-82907238D01*
X125427047Y-83002476D01*
X125522285Y-83050095D01*
X124522285Y-83764380D02*
X124522285Y-82764380D01*
X123950857Y-83764380D01*
X123950857Y-82764380D01*
X123046095Y-83097714D02*
X123046095Y-83764380D01*
X123284190Y-82716761D02*
X123522285Y-83431047D01*
X122903238Y-83431047D01*
X121998476Y-83764380D02*
X122569904Y-83764380D01*
X122284190Y-83764380D02*
X122284190Y-82764380D01*
X122379428Y-82907238D01*
X122474666Y-83002476D01*
X122569904Y-83050095D01*
X121141333Y-83097714D02*
X121141333Y-83764380D01*
X121379428Y-82716761D02*
X121617523Y-83431047D01*
X120998476Y-83431047D01*
X120474666Y-83192952D02*
X120569904Y-83145333D01*
X120617523Y-83097714D01*
X120665142Y-83002476D01*
X120665142Y-82954857D01*
X120617523Y-82859619D01*
X120569904Y-82812000D01*
X120474666Y-82764380D01*
X120284190Y-82764380D01*
X120188952Y-82812000D01*
X120141333Y-82859619D01*
X120093714Y-82954857D01*
X120093714Y-83002476D01*
X120141333Y-83097714D01*
X120188952Y-83145333D01*
X120284190Y-83192952D01*
X120474666Y-83192952D01*
X120569904Y-83240571D01*
X120617523Y-83288190D01*
X120665142Y-83383428D01*
X120665142Y-83573904D01*
X120617523Y-83669142D01*
X120569904Y-83716761D01*
X120474666Y-83764380D01*
X120284190Y-83764380D01*
X120188952Y-83716761D01*
X120141333Y-83669142D01*
X120093714Y-83573904D01*
X120093714Y-83383428D01*
X120141333Y-83288190D01*
X120188952Y-83240571D01*
X120284190Y-83192952D01*
X154542857Y-83764380D02*
X155114285Y-83764380D01*
X154828571Y-83764380D02*
X154828571Y-82764380D01*
X154923809Y-82907238D01*
X155019047Y-83002476D01*
X155114285Y-83050095D01*
X154114285Y-83764380D02*
X154114285Y-82764380D01*
X153542857Y-83764380D01*
X153542857Y-82764380D01*
X152638095Y-83097714D02*
X152638095Y-83764380D01*
X152876190Y-82716761D02*
X153114285Y-83431047D01*
X152495238Y-83431047D01*
X151590476Y-83764380D02*
X152161904Y-83764380D01*
X151876190Y-83764380D02*
X151876190Y-82764380D01*
X151971428Y-82907238D01*
X152066666Y-83002476D01*
X152161904Y-83050095D01*
X150733333Y-83097714D02*
X150733333Y-83764380D01*
X150971428Y-82716761D02*
X151209523Y-83431047D01*
X150590476Y-83431047D01*
X150066666Y-83192952D02*
X150161904Y-83145333D01*
X150209523Y-83097714D01*
X150257142Y-83002476D01*
X150257142Y-82954857D01*
X150209523Y-82859619D01*
X150161904Y-82812000D01*
X150066666Y-82764380D01*
X149876190Y-82764380D01*
X149780952Y-82812000D01*
X149733333Y-82859619D01*
X149685714Y-82954857D01*
X149685714Y-83002476D01*
X149733333Y-83097714D01*
X149780952Y-83145333D01*
X149876190Y-83192952D01*
X150066666Y-83192952D01*
X150161904Y-83240571D01*
X150209523Y-83288190D01*
X150257142Y-83383428D01*
X150257142Y-83573904D01*
X150209523Y-83669142D01*
X150161904Y-83716761D01*
X150066666Y-83764380D01*
X149876190Y-83764380D01*
X149780952Y-83716761D01*
X149733333Y-83669142D01*
X149685714Y-83573904D01*
X149685714Y-83383428D01*
X149733333Y-83288190D01*
X149780952Y-83240571D01*
X149876190Y-83192952D01*
X128888857Y-99004380D02*
X129460285Y-99004380D01*
X129174571Y-99004380D02*
X129174571Y-98004380D01*
X129269809Y-98147238D01*
X129365047Y-98242476D01*
X129460285Y-98290095D01*
X128460285Y-99004380D02*
X128460285Y-98004380D01*
X127888857Y-99004380D01*
X127888857Y-98004380D01*
X126984095Y-98337714D02*
X126984095Y-99004380D01*
X127222190Y-97956761D02*
X127460285Y-98671047D01*
X126841238Y-98671047D01*
X125936476Y-99004380D02*
X126507904Y-99004380D01*
X126222190Y-99004380D02*
X126222190Y-98004380D01*
X126317428Y-98147238D01*
X126412666Y-98242476D01*
X126507904Y-98290095D01*
X125079333Y-98337714D02*
X125079333Y-99004380D01*
X125317428Y-97956761D02*
X125555523Y-98671047D01*
X124936476Y-98671047D01*
X124412666Y-98432952D02*
X124507904Y-98385333D01*
X124555523Y-98337714D01*
X124603142Y-98242476D01*
X124603142Y-98194857D01*
X124555523Y-98099619D01*
X124507904Y-98052000D01*
X124412666Y-98004380D01*
X124222190Y-98004380D01*
X124126952Y-98052000D01*
X124079333Y-98099619D01*
X124031714Y-98194857D01*
X124031714Y-98242476D01*
X124079333Y-98337714D01*
X124126952Y-98385333D01*
X124222190Y-98432952D01*
X124412666Y-98432952D01*
X124507904Y-98480571D01*
X124555523Y-98528190D01*
X124603142Y-98623428D01*
X124603142Y-98813904D01*
X124555523Y-98909142D01*
X124507904Y-98956761D01*
X124412666Y-99004380D01*
X124222190Y-99004380D01*
X124126952Y-98956761D01*
X124079333Y-98909142D01*
X124031714Y-98813904D01*
X124031714Y-98623428D01*
X124079333Y-98528190D01*
X124126952Y-98480571D01*
X124222190Y-98432952D01*
X152510857Y-102052380D02*
X153082285Y-102052380D01*
X152796571Y-102052380D02*
X152796571Y-101052380D01*
X152891809Y-101195238D01*
X152987047Y-101290476D01*
X153082285Y-101338095D01*
X152082285Y-102052380D02*
X152082285Y-101052380D01*
X151510857Y-102052380D01*
X151510857Y-101052380D01*
X150606095Y-101385714D02*
X150606095Y-102052380D01*
X150844190Y-101004761D02*
X151082285Y-101719047D01*
X150463238Y-101719047D01*
X149558476Y-102052380D02*
X150129904Y-102052380D01*
X149844190Y-102052380D02*
X149844190Y-101052380D01*
X149939428Y-101195238D01*
X150034666Y-101290476D01*
X150129904Y-101338095D01*
X148701333Y-101385714D02*
X148701333Y-102052380D01*
X148939428Y-101004761D02*
X149177523Y-101719047D01*
X148558476Y-101719047D01*
X148034666Y-101480952D02*
X148129904Y-101433333D01*
X148177523Y-101385714D01*
X148225142Y-101290476D01*
X148225142Y-101242857D01*
X148177523Y-101147619D01*
X148129904Y-101100000D01*
X148034666Y-101052380D01*
X147844190Y-101052380D01*
X147748952Y-101100000D01*
X147701333Y-101147619D01*
X147653714Y-101242857D01*
X147653714Y-101290476D01*
X147701333Y-101385714D01*
X147748952Y-101433333D01*
X147844190Y-101480952D01*
X148034666Y-101480952D01*
X148129904Y-101528571D01*
X148177523Y-101576190D01*
X148225142Y-101671428D01*
X148225142Y-101861904D01*
X148177523Y-101957142D01*
X148129904Y-102004761D01*
X148034666Y-102052380D01*
X147844190Y-102052380D01*
X147748952Y-102004761D01*
X147701333Y-101957142D01*
X147653714Y-101861904D01*
X147653714Y-101671428D01*
X147701333Y-101576190D01*
X147748952Y-101528571D01*
X147844190Y-101480952D01*
X143851238Y-112212380D02*
X144422666Y-112212380D01*
X144136952Y-112212380D02*
X144136952Y-111212380D01*
X144232190Y-111355238D01*
X144327428Y-111450476D01*
X144422666Y-111498095D01*
X143232190Y-111212380D02*
X143136952Y-111212380D01*
X143041714Y-111260000D01*
X142994095Y-111307619D01*
X142946476Y-111402857D01*
X142898857Y-111593333D01*
X142898857Y-111831428D01*
X142946476Y-112021904D01*
X142994095Y-112117142D01*
X143041714Y-112164761D01*
X143136952Y-112212380D01*
X143232190Y-112212380D01*
X143327428Y-112164761D01*
X143375047Y-112117142D01*
X143422666Y-112021904D01*
X143470285Y-111831428D01*
X143470285Y-111593333D01*
X143422666Y-111402857D01*
X143375047Y-111307619D01*
X143327428Y-111260000D01*
X143232190Y-111212380D01*
X142470285Y-112212380D02*
X142470285Y-111212380D01*
X142375047Y-111831428D02*
X142089333Y-112212380D01*
X142089333Y-111545714D02*
X142470285Y-111926666D01*
X155789238Y-97734380D02*
X156360666Y-97734380D01*
X156074952Y-97734380D02*
X156074952Y-96734380D01*
X156170190Y-96877238D01*
X156265428Y-96972476D01*
X156360666Y-97020095D01*
X155170190Y-96734380D02*
X155074952Y-96734380D01*
X154979714Y-96782000D01*
X154932095Y-96829619D01*
X154884476Y-96924857D01*
X154836857Y-97115333D01*
X154836857Y-97353428D01*
X154884476Y-97543904D01*
X154932095Y-97639142D01*
X154979714Y-97686761D01*
X155074952Y-97734380D01*
X155170190Y-97734380D01*
X155265428Y-97686761D01*
X155313047Y-97639142D01*
X155360666Y-97543904D01*
X155408285Y-97353428D01*
X155408285Y-97115333D01*
X155360666Y-96924857D01*
X155313047Y-96829619D01*
X155265428Y-96782000D01*
X155170190Y-96734380D01*
X154408285Y-97734380D02*
X154408285Y-96734380D01*
X154313047Y-97353428D02*
X154027333Y-97734380D01*
X154027333Y-97067714D02*
X154408285Y-97448666D01*
X131452857Y-89622380D02*
X131929047Y-89622380D01*
X131976666Y-90098571D01*
X131929047Y-90050952D01*
X131833809Y-90003333D01*
X131595714Y-90003333D01*
X131500476Y-90050952D01*
X131452857Y-90098571D01*
X131405238Y-90193809D01*
X131405238Y-90431904D01*
X131452857Y-90527142D01*
X131500476Y-90574761D01*
X131595714Y-90622380D01*
X131833809Y-90622380D01*
X131929047Y-90574761D01*
X131976666Y-90527142D01*
X130976666Y-90622380D02*
X130976666Y-89622380D01*
X130881428Y-90241428D02*
X130595714Y-90622380D01*
X130595714Y-89955714D02*
X130976666Y-90336666D01*
X129643333Y-90622380D02*
X130214761Y-90622380D01*
X129929047Y-90622380D02*
X129929047Y-89622380D01*
X130024285Y-89765238D01*
X130119523Y-89860476D01*
X130214761Y-89908095D01*
X146692857Y-92162380D02*
X147169047Y-92162380D01*
X147216666Y-92638571D01*
X147169047Y-92590952D01*
X147073809Y-92543333D01*
X146835714Y-92543333D01*
X146740476Y-92590952D01*
X146692857Y-92638571D01*
X146645238Y-92733809D01*
X146645238Y-92971904D01*
X146692857Y-93067142D01*
X146740476Y-93114761D01*
X146835714Y-93162380D01*
X147073809Y-93162380D01*
X147169047Y-93114761D01*
X147216666Y-93067142D01*
X146216666Y-93162380D02*
X146216666Y-92162380D01*
X146121428Y-92781428D02*
X145835714Y-93162380D01*
X145835714Y-92495714D02*
X146216666Y-92876666D01*
X144883333Y-93162380D02*
X145454761Y-93162380D01*
X145169047Y-93162380D02*
X145169047Y-92162380D01*
X145264285Y-92305238D01*
X145359523Y-92400476D01*
X145454761Y-92448095D01*
X128523904Y-82859619D02*
X128476285Y-82812000D01*
X128381047Y-82764380D01*
X128142952Y-82764380D01*
X128047714Y-82812000D01*
X128000095Y-82859619D01*
X127952476Y-82954857D01*
X127952476Y-83050095D01*
X128000095Y-83192952D01*
X128571523Y-83764380D01*
X127952476Y-83764380D01*
X127571523Y-82859619D02*
X127523904Y-82812000D01*
X127428666Y-82764380D01*
X127190571Y-82764380D01*
X127095333Y-82812000D01*
X127047714Y-82859619D01*
X127000095Y-82954857D01*
X127000095Y-83050095D01*
X127047714Y-83192952D01*
X127619142Y-83764380D01*
X127000095Y-83764380D01*
X145541904Y-82859619D02*
X145494285Y-82812000D01*
X145399047Y-82764380D01*
X145160952Y-82764380D01*
X145065714Y-82812000D01*
X145018095Y-82859619D01*
X144970476Y-82954857D01*
X144970476Y-83050095D01*
X145018095Y-83192952D01*
X145589523Y-83764380D01*
X144970476Y-83764380D01*
X144589523Y-82859619D02*
X144541904Y-82812000D01*
X144446666Y-82764380D01*
X144208571Y-82764380D01*
X144113333Y-82812000D01*
X144065714Y-82859619D01*
X144018095Y-82954857D01*
X144018095Y-83050095D01*
X144065714Y-83192952D01*
X144637142Y-83764380D01*
X144018095Y-83764380D01*
X153884285Y-101306380D02*
X154074761Y-101306380D01*
X154170000Y-101354000D01*
X154217619Y-101401619D01*
X154312857Y-101544476D01*
X154360476Y-101734952D01*
X154360476Y-102115904D01*
X154312857Y-102211142D01*
X154265238Y-102258761D01*
X154170000Y-102306380D01*
X153979523Y-102306380D01*
X153884285Y-102258761D01*
X153836666Y-102211142D01*
X153789047Y-102115904D01*
X153789047Y-101877809D01*
X153836666Y-101782571D01*
X153884285Y-101734952D01*
X153979523Y-101687333D01*
X154170000Y-101687333D01*
X154265238Y-101734952D01*
X154312857Y-101782571D01*
X154360476Y-101877809D01*
X153360476Y-102306380D02*
X153360476Y-101306380D01*
X153265238Y-101925428D02*
X152979523Y-102306380D01*
X152979523Y-101639714D02*
X153360476Y-102020666D01*
X157162000Y-85272571D02*
X157019142Y-85320190D01*
X156971523Y-85367809D01*
X156923904Y-85463047D01*
X156923904Y-85605904D01*
X156971523Y-85701142D01*
X157019142Y-85748761D01*
X157114380Y-85796380D01*
X157495333Y-85796380D01*
X157495333Y-84796380D01*
X157162000Y-84796380D01*
X157066761Y-84844000D01*
X157019142Y-84891619D01*
X156971523Y-84986857D01*
X156971523Y-85082095D01*
X157019142Y-85177333D01*
X157066761Y-85224952D01*
X157162000Y-85272571D01*
X157495333Y-85272571D01*
X155923904Y-85796380D02*
X156257238Y-85320190D01*
X156495333Y-85796380D02*
X156495333Y-84796380D01*
X156114380Y-84796380D01*
X156019142Y-84844000D01*
X155971523Y-84891619D01*
X155923904Y-84986857D01*
X155923904Y-85129714D01*
X155971523Y-85224952D01*
X156019142Y-85272571D01*
X156114380Y-85320190D01*
X156495333Y-85320190D01*
X155495333Y-85796380D02*
X155495333Y-84796380D01*
X154495333Y-84844000D02*
X154590571Y-84796380D01*
X154733428Y-84796380D01*
X154876285Y-84844000D01*
X154971523Y-84939238D01*
X155019142Y-85034476D01*
X155066761Y-85224952D01*
X155066761Y-85367809D01*
X155019142Y-85558285D01*
X154971523Y-85653523D01*
X154876285Y-85748761D01*
X154733428Y-85796380D01*
X154638190Y-85796380D01*
X154495333Y-85748761D01*
X154447714Y-85701142D01*
X154447714Y-85367809D01*
X154638190Y-85367809D01*
X154019142Y-85796380D02*
X154019142Y-84796380D01*
X154019142Y-85272571D02*
X153447714Y-85272571D01*
X153447714Y-85796380D02*
X153447714Y-84796380D01*
X153114380Y-84796380D02*
X152542952Y-84796380D01*
X152828666Y-85796380D02*
X152828666Y-84796380D01*
X152209619Y-85796380D02*
X152209619Y-84796380D01*
X151638190Y-85796380D01*
X151638190Y-84796380D01*
X151162000Y-85272571D02*
X150828666Y-85272571D01*
X150685809Y-85796380D02*
X151162000Y-85796380D01*
X151162000Y-84796380D01*
X150685809Y-84796380D01*
X150304857Y-85748761D02*
X150162000Y-85796380D01*
X149923904Y-85796380D01*
X149828666Y-85748761D01*
X149781047Y-85701142D01*
X149733428Y-85605904D01*
X149733428Y-85510666D01*
X149781047Y-85415428D01*
X149828666Y-85367809D01*
X149923904Y-85320190D01*
X150114380Y-85272571D01*
X150209619Y-85224952D01*
X150257238Y-85177333D01*
X150304857Y-85082095D01*
X150304857Y-84986857D01*
X150257238Y-84891619D01*
X150209619Y-84844000D01*
X150114380Y-84796380D01*
X149876285Y-84796380D01*
X149733428Y-84844000D01*
X149352476Y-85748761D02*
X149209619Y-85796380D01*
X148971523Y-85796380D01*
X148876285Y-85748761D01*
X148828666Y-85701142D01*
X148781047Y-85605904D01*
X148781047Y-85510666D01*
X148828666Y-85415428D01*
X148876285Y-85367809D01*
X148971523Y-85320190D01*
X149162000Y-85272571D01*
X149257238Y-85224952D01*
X149304857Y-85177333D01*
X149352476Y-85082095D01*
X149352476Y-84986857D01*
X149304857Y-84891619D01*
X149257238Y-84844000D01*
X149162000Y-84796380D01*
X148923904Y-84796380D01*
X148781047Y-84844000D01*
X143087468Y-104163972D02*
X143659888Y-104736392D01*
X143693560Y-104837407D01*
X143693560Y-104904751D01*
X143659888Y-105005766D01*
X143525201Y-105140453D01*
X143424186Y-105174125D01*
X143356842Y-105174125D01*
X143255827Y-105140453D01*
X142683407Y-104568033D01*
X142683407Y-105982247D02*
X143087468Y-105578186D01*
X142885438Y-105780216D02*
X142178331Y-105073110D01*
X142346690Y-105106781D01*
X142481377Y-105106781D01*
X142582392Y-105073110D01*
X143556857Y-99734666D02*
X143080666Y-99734666D01*
X143652095Y-100020380D02*
X143318761Y-99020380D01*
X142985428Y-100020380D01*
X142794952Y-99020380D02*
X142223523Y-99020380D01*
X142509238Y-100020380D02*
X142509238Y-99020380D01*
X141890190Y-100020380D02*
X141890190Y-99353714D01*
X141890190Y-99448952D02*
X141842571Y-99401333D01*
X141747333Y-99353714D01*
X141604476Y-99353714D01*
X141509238Y-99401333D01*
X141461619Y-99496571D01*
X141461619Y-100020380D01*
X141461619Y-99496571D02*
X141414000Y-99401333D01*
X141318761Y-99353714D01*
X141175904Y-99353714D01*
X141080666Y-99401333D01*
X141033047Y-99496571D01*
X141033047Y-100020380D01*
X140175904Y-99972761D02*
X140271142Y-100020380D01*
X140461619Y-100020380D01*
X140556857Y-99972761D01*
X140604476Y-99877523D01*
X140604476Y-99496571D01*
X140556857Y-99401333D01*
X140461619Y-99353714D01*
X140271142Y-99353714D01*
X140175904Y-99401333D01*
X140128285Y-99496571D01*
X140128285Y-99591809D01*
X140604476Y-99687047D01*
X139271142Y-99353714D02*
X139271142Y-100163238D01*
X139318761Y-100258476D01*
X139366380Y-100306095D01*
X139461619Y-100353714D01*
X139604476Y-100353714D01*
X139699714Y-100306095D01*
X139271142Y-99972761D02*
X139366380Y-100020380D01*
X139556857Y-100020380D01*
X139652095Y-99972761D01*
X139699714Y-99925142D01*
X139747333Y-99829904D01*
X139747333Y-99544190D01*
X139699714Y-99448952D01*
X139652095Y-99401333D01*
X139556857Y-99353714D01*
X139366380Y-99353714D01*
X139271142Y-99401333D01*
X138366380Y-100020380D02*
X138366380Y-99496571D01*
X138414000Y-99401333D01*
X138509238Y-99353714D01*
X138699714Y-99353714D01*
X138794952Y-99401333D01*
X138366380Y-99972761D02*
X138461619Y-100020380D01*
X138699714Y-100020380D01*
X138794952Y-99972761D01*
X138842571Y-99877523D01*
X138842571Y-99782285D01*
X138794952Y-99687047D01*
X138699714Y-99639428D01*
X138461619Y-99639428D01*
X138366380Y-99591809D01*
X137985428Y-99020380D02*
X137366380Y-99020380D01*
X137699714Y-99401333D01*
X137556857Y-99401333D01*
X137461619Y-99448952D01*
X137414000Y-99496571D01*
X137366380Y-99591809D01*
X137366380Y-99829904D01*
X137414000Y-99925142D01*
X137461619Y-99972761D01*
X137556857Y-100020380D01*
X137842571Y-100020380D01*
X137937809Y-99972761D01*
X137985428Y-99925142D01*
X136985428Y-99115619D02*
X136937809Y-99068000D01*
X136842571Y-99020380D01*
X136604476Y-99020380D01*
X136509238Y-99068000D01*
X136461619Y-99115619D01*
X136414000Y-99210857D01*
X136414000Y-99306095D01*
X136461619Y-99448952D01*
X137033047Y-100020380D01*
X136414000Y-100020380D01*
X135985428Y-99020380D02*
X135985428Y-99829904D01*
X135937809Y-99925142D01*
X135890190Y-99972761D01*
X135794952Y-100020380D01*
X135604476Y-100020380D01*
X135509238Y-99972761D01*
X135461619Y-99925142D01*
X135414000Y-99829904D01*
X135414000Y-99020380D01*
X134509238Y-99353714D02*
X134509238Y-100020380D01*
X134747333Y-98972761D02*
X134985428Y-99687047D01*
X134366380Y-99687047D01*
X133985428Y-99639428D02*
X133223523Y-99639428D01*
X132794952Y-99734666D02*
X132318761Y-99734666D01*
X132890190Y-100020380D02*
X132556857Y-99020380D01*
X132223523Y-100020380D01*
X131890190Y-99020380D02*
X131890190Y-99829904D01*
X131842571Y-99925142D01*
X131794952Y-99972761D01*
X131699714Y-100020380D01*
X131509238Y-100020380D01*
X131414000Y-99972761D01*
X131366380Y-99925142D01*
X131318761Y-99829904D01*
X131318761Y-99020380D01*
X154804761Y-115419142D02*
X154852380Y-115466761D01*
X154995238Y-115514380D01*
X155090476Y-115514380D01*
X155233333Y-115466761D01*
X155328571Y-115371523D01*
X155376190Y-115276285D01*
X155423809Y-115085809D01*
X155423809Y-114942952D01*
X155376190Y-114752476D01*
X155328571Y-114657238D01*
X155233333Y-114562000D01*
X155090476Y-114514380D01*
X154995238Y-114514380D01*
X154852380Y-114562000D01*
X154804761Y-114609619D01*
X154423809Y-115228666D02*
X153947619Y-115228666D01*
X154519047Y-115514380D02*
X154185714Y-114514380D01*
X153852380Y-115514380D01*
X153661904Y-114514380D02*
X153090476Y-114514380D01*
X153376190Y-115514380D02*
X153376190Y-114514380D01*
X152328571Y-114847714D02*
X152328571Y-115514380D01*
X152566666Y-114466761D02*
X152804761Y-115181047D01*
X152185714Y-115181047D01*
X151280952Y-115514380D02*
X151852380Y-115514380D01*
X151566666Y-115514380D02*
X151566666Y-114514380D01*
X151661904Y-114657238D01*
X151757142Y-114752476D01*
X151852380Y-114800095D01*
X150661904Y-114514380D02*
X150566666Y-114514380D01*
X150471428Y-114562000D01*
X150423809Y-114609619D01*
X150376190Y-114704857D01*
X150328571Y-114895333D01*
X150328571Y-115133428D01*
X150376190Y-115323904D01*
X150423809Y-115419142D01*
X150471428Y-115466761D01*
X150566666Y-115514380D01*
X150661904Y-115514380D01*
X150757142Y-115466761D01*
X150804761Y-115419142D01*
X150852380Y-115323904D01*
X150900000Y-115133428D01*
X150900000Y-114895333D01*
X150852380Y-114704857D01*
X150804761Y-114609619D01*
X150757142Y-114562000D01*
X150661904Y-114514380D01*
X149471428Y-114847714D02*
X149471428Y-115514380D01*
X149709523Y-114466761D02*
X149947619Y-115181047D01*
X149328571Y-115181047D01*
X121578476Y-88590380D02*
X122149904Y-88590380D01*
X121864190Y-88590380D02*
X121864190Y-87590380D01*
X121959428Y-87733238D01*
X122054666Y-87828476D01*
X122149904Y-87876095D01*
X120721333Y-87590380D02*
X120911809Y-87590380D01*
X121007047Y-87638000D01*
X121054666Y-87685619D01*
X121149904Y-87828476D01*
X121197523Y-88018952D01*
X121197523Y-88399904D01*
X121149904Y-88495142D01*
X121102285Y-88542761D01*
X121007047Y-88590380D01*
X120816571Y-88590380D01*
X120721333Y-88542761D01*
X120673714Y-88495142D01*
X120626095Y-88399904D01*
X120626095Y-88161809D01*
X120673714Y-88066571D01*
X120721333Y-88018952D01*
X120816571Y-87971333D01*
X121007047Y-87971333D01*
X121102285Y-88018952D01*
X121149904Y-88066571D01*
X121197523Y-88161809D01*
X120197523Y-88590380D02*
X120197523Y-87590380D01*
X119864190Y-88304666D01*
X119530857Y-87590380D01*
X119530857Y-88590380D01*
X119054666Y-88590380D02*
X119054666Y-87590380D01*
X119054666Y-88066571D02*
X118483238Y-88066571D01*
X118483238Y-88590380D02*
X118483238Y-87590380D01*
X118102285Y-87923714D02*
X117578476Y-87923714D01*
X118102285Y-88590380D01*
X117578476Y-88590380D01*
X141255238Y-119082666D02*
X140779047Y-119082666D01*
X141350476Y-119368380D02*
X141017142Y-118368380D01*
X140683809Y-119368380D01*
X140493333Y-118368380D02*
X140160000Y-119368380D01*
X139826666Y-118368380D01*
X138921904Y-119368380D02*
X139255238Y-118892190D01*
X139493333Y-119368380D02*
X139493333Y-118368380D01*
X139112380Y-118368380D01*
X139017142Y-118416000D01*
X138969523Y-118463619D01*
X138921904Y-118558857D01*
X138921904Y-118701714D01*
X138969523Y-118796952D01*
X139017142Y-118844571D01*
X139112380Y-118892190D01*
X139493333Y-118892190D01*
X138493333Y-118987428D02*
X137731428Y-118987428D01*
X137255238Y-119368380D02*
X137255238Y-118368380D01*
X136826666Y-119320761D02*
X136683809Y-119368380D01*
X136445714Y-119368380D01*
X136350476Y-119320761D01*
X136302857Y-119273142D01*
X136255238Y-119177904D01*
X136255238Y-119082666D01*
X136302857Y-118987428D01*
X136350476Y-118939809D01*
X136445714Y-118892190D01*
X136636190Y-118844571D01*
X136731428Y-118796952D01*
X136779047Y-118749333D01*
X136826666Y-118654095D01*
X136826666Y-118558857D01*
X136779047Y-118463619D01*
X136731428Y-118416000D01*
X136636190Y-118368380D01*
X136398095Y-118368380D01*
X136255238Y-118416000D01*
X135826666Y-119368380D02*
X135826666Y-118368380D01*
X135445714Y-118368380D01*
X135350476Y-118416000D01*
X135302857Y-118463619D01*
X135255238Y-118558857D01*
X135255238Y-118701714D01*
X135302857Y-118796952D01*
X135350476Y-118844571D01*
X135445714Y-118892190D01*
X135826666Y-118892190D01*
X134826666Y-118987428D02*
X134064761Y-118987428D01*
X133160000Y-118368380D02*
X133350476Y-118368380D01*
X133445714Y-118416000D01*
X133493333Y-118463619D01*
X133588571Y-118606476D01*
X133636190Y-118796952D01*
X133636190Y-119177904D01*
X133588571Y-119273142D01*
X133540952Y-119320761D01*
X133445714Y-119368380D01*
X133255238Y-119368380D01*
X133160000Y-119320761D01*
X133112380Y-119273142D01*
X133064761Y-119177904D01*
X133064761Y-118939809D01*
X133112380Y-118844571D01*
X133160000Y-118796952D01*
X133255238Y-118749333D01*
X133445714Y-118749333D01*
X133540952Y-118796952D01*
X133588571Y-118844571D01*
X133636190Y-118939809D01*
X139286952Y-87336380D02*
X139286952Y-88145904D01*
X139239333Y-88241142D01*
X139191714Y-88288761D01*
X139096476Y-88336380D01*
X138906000Y-88336380D01*
X138810761Y-88288761D01*
X138763142Y-88241142D01*
X138715523Y-88145904D01*
X138715523Y-87336380D01*
X138286952Y-88288761D02*
X138144095Y-88336380D01*
X137906000Y-88336380D01*
X137810761Y-88288761D01*
X137763142Y-88241142D01*
X137715523Y-88145904D01*
X137715523Y-88050666D01*
X137763142Y-87955428D01*
X137810761Y-87907809D01*
X137906000Y-87860190D01*
X138096476Y-87812571D01*
X138191714Y-87764952D01*
X138239333Y-87717333D01*
X138286952Y-87622095D01*
X138286952Y-87526857D01*
X138239333Y-87431619D01*
X138191714Y-87384000D01*
X138096476Y-87336380D01*
X137858380Y-87336380D01*
X137715523Y-87384000D01*
X136953619Y-87812571D02*
X136810761Y-87860190D01*
X136763142Y-87907809D01*
X136715523Y-88003047D01*
X136715523Y-88145904D01*
X136763142Y-88241142D01*
X136810761Y-88288761D01*
X136906000Y-88336380D01*
X137286952Y-88336380D01*
X137286952Y-87336380D01*
X136953619Y-87336380D01*
X136858380Y-87384000D01*
X136810761Y-87431619D01*
X136763142Y-87526857D01*
X136763142Y-87622095D01*
X136810761Y-87717333D01*
X136858380Y-87764952D01*
X136953619Y-87812571D01*
X137286952Y-87812571D01*
X136286952Y-87955428D02*
X135525047Y-87955428D01*
X134477428Y-88241142D02*
X134525047Y-88288761D01*
X134667904Y-88336380D01*
X134763142Y-88336380D01*
X134906000Y-88288761D01*
X135001238Y-88193523D01*
X135048857Y-88098285D01*
X135096476Y-87907809D01*
X135096476Y-87764952D01*
X135048857Y-87574476D01*
X135001238Y-87479238D01*
X134906000Y-87384000D01*
X134763142Y-87336380D01*
X134667904Y-87336380D01*
X134525047Y-87384000D01*
X134477428Y-87431619D01*
M02*
