G04 #@! TF.GenerationSoftware,KiCad,Pcbnew,5.1.5+dfsg1-2build2*
G04 #@! TF.CreationDate,2020-08-03T15:49:09+10:00*
G04 #@! TF.ProjectId,macr0,6d616372-302e-46b6-9963-61645f706362,rev?*
G04 #@! TF.SameCoordinates,Original*
G04 #@! TF.FileFunction,Copper,L1,Top*
G04 #@! TF.FilePolarity,Positive*
%FSLAX46Y46*%
G04 Gerber Fmt 4.6, Leading zero omitted, Abs format (unit mm)*
G04 Created by KiCad (PCBNEW 5.1.5+dfsg1-2build2) date 2020-08-03 15:49:09*
%MOMM*%
%LPD*%
G04 APERTURE LIST*
%ADD10C,2.200000*%
%ADD11C,1.524000*%
%ADD12O,1.700000X1.700000*%
%ADD13R,1.700000X1.700000*%
%ADD14C,0.700000*%
%ADD15O,0.900000X2.400000*%
%ADD16O,0.900000X1.700000*%
%ADD17C,0.800000*%
%ADD18C,0.250000*%
%ADD19C,0.254000*%
G04 APERTURE END LIST*
D10*
X149098000Y-84582000D03*
X142748000Y-87122000D03*
D11*
X147828000Y-94742000D03*
X145288000Y-94742000D03*
D10*
X130048000Y-84582000D03*
X123698000Y-87122000D03*
D11*
X128778000Y-94742000D03*
X126238000Y-94742000D03*
X126238000Y-113792000D03*
X128778000Y-113792000D03*
D10*
X123698000Y-106172000D03*
X130048000Y-103632000D03*
D11*
X145288000Y-113792000D03*
X147828000Y-113792000D03*
D10*
X142748000Y-106172000D03*
X149098000Y-103632000D03*
D12*
X135890000Y-116586000D03*
X138430000Y-116586000D03*
X135890000Y-114046000D03*
X138430000Y-114046000D03*
X135890000Y-111506000D03*
D13*
X138430000Y-111506000D03*
D14*
X134112000Y-86106000D03*
X134962000Y-86106000D03*
X135812000Y-86106000D03*
X136662000Y-86106000D03*
X137512000Y-86106000D03*
X138362000Y-86106000D03*
X139212000Y-86106000D03*
X140062000Y-86106000D03*
X134962000Y-84756000D03*
X136662000Y-84756000D03*
X135812000Y-84756000D03*
X134112000Y-84756000D03*
X138362000Y-84756000D03*
X139212000Y-84756000D03*
X140062000Y-84756000D03*
X137512000Y-84756000D03*
D15*
X132762000Y-85126000D03*
X141412000Y-85126000D03*
D16*
X132762000Y-81746000D03*
X141412000Y-81746000D03*
D17*
X138938000Y-97282000D03*
X144653000Y-102997000D03*
X135128000Y-102997000D03*
X131953000Y-109347000D03*
X126873000Y-111887000D03*
X140208000Y-107442000D03*
X152273000Y-101727000D03*
X139573000Y-101092000D03*
X134493000Y-97917000D03*
X149733000Y-106172000D03*
X129794000Y-91694000D03*
X130048000Y-111506000D03*
X134282436Y-102688298D03*
X137414000Y-105156000D03*
X138430000Y-109728000D03*
X134620000Y-101854000D03*
X147574000Y-99822000D03*
X135636000Y-100584000D03*
X128243057Y-96493057D03*
X128143000Y-100457000D03*
X138176000Y-103378000D03*
X136790712Y-103378000D03*
X154686000Y-110490000D03*
X136652000Y-94742000D03*
D18*
X135128000Y-106172000D02*
X135128000Y-102997000D01*
X131953000Y-109347000D02*
X135128000Y-106172000D01*
X127117001Y-112131001D02*
X126873000Y-111887000D01*
X131953000Y-110526002D02*
X130348001Y-112131001D01*
X130348001Y-112131001D02*
X127117001Y-112131001D01*
X131953000Y-109347000D02*
X131953000Y-110526002D01*
X129794000Y-90424000D02*
X134112000Y-86106000D01*
X129794000Y-91694000D02*
X129794000Y-90424000D01*
X140062000Y-86106000D02*
X140062000Y-84756000D01*
X134112000Y-86106000D02*
X134112000Y-84756000D01*
X139712001Y-84406001D02*
X140062000Y-84756000D01*
X139136989Y-83830989D02*
X139712001Y-84406001D01*
X135037011Y-83830989D02*
X139136989Y-83830989D01*
X134112000Y-84756000D02*
X135037011Y-83830989D01*
X130048000Y-110940315D02*
X130048000Y-111506000D01*
X133716751Y-102688298D02*
X129997057Y-106407992D01*
X129997057Y-110889372D02*
X130048000Y-110940315D01*
X129997057Y-106407992D02*
X129997057Y-110889372D01*
X134282436Y-102688298D02*
X133716751Y-102688298D01*
X135890000Y-106680000D02*
X137414000Y-105156000D01*
X135890000Y-111506000D02*
X135890000Y-106680000D01*
X137668000Y-109728000D02*
X135890000Y-111506000D01*
X138430000Y-109728000D02*
X137668000Y-109728000D01*
X137014001Y-104756001D02*
X137414000Y-105156000D01*
X136165711Y-103907711D02*
X137014001Y-104756001D01*
X136165711Y-103077999D02*
X136165711Y-103907711D01*
X135341711Y-102253999D02*
X136165711Y-103077999D01*
X135019999Y-102253999D02*
X135341711Y-102253999D01*
X134620000Y-101854000D02*
X135019999Y-102253999D01*
X138862001Y-84406001D02*
X139212000Y-84756000D01*
X138636999Y-84180999D02*
X138862001Y-84406001D01*
X135537001Y-84180999D02*
X138636999Y-84180999D01*
X134962000Y-84756000D02*
X135537001Y-84180999D01*
X134962000Y-84756000D02*
X134962000Y-86106000D01*
X139212000Y-84756000D02*
X139212000Y-86106000D01*
X139212000Y-88666000D02*
X145288000Y-94742000D01*
X139212000Y-86106000D02*
X139212000Y-88666000D01*
X139954000Y-99822000D02*
X147574000Y-99822000D01*
X139192000Y-100584000D02*
X139954000Y-99822000D01*
X135636000Y-100584000D02*
X139192000Y-100584000D01*
X135236001Y-100184001D02*
X135636000Y-100584000D01*
X131145058Y-96093058D02*
X135236001Y-100184001D01*
X128643056Y-96093058D02*
X131145058Y-96093058D01*
X128243057Y-96493057D02*
X128643056Y-96093058D01*
X128143000Y-101727000D02*
X130048000Y-103632000D01*
X128143000Y-100457000D02*
X128143000Y-101727000D01*
X132762000Y-83676000D02*
X132762000Y-81746000D01*
X132762000Y-85126000D02*
X132762000Y-83676000D01*
X141412000Y-81746000D02*
X141412000Y-85126000D01*
X141412000Y-81746000D02*
X132762000Y-81746000D01*
X137512000Y-85606000D02*
X136662000Y-84756000D01*
X137512000Y-86106000D02*
X137512000Y-85606000D01*
X138176000Y-103378000D02*
X136790712Y-103378000D01*
X122598001Y-88221999D02*
X123698000Y-87122000D01*
X121548999Y-89271001D02*
X122598001Y-88221999D01*
X121548999Y-104022999D02*
X121548999Y-89271001D01*
X123698000Y-106172000D02*
X121548999Y-104022999D01*
X154238999Y-110937001D02*
X154686000Y-110490000D01*
X141422999Y-106808001D02*
X145551999Y-110937001D01*
X127943056Y-97118058D02*
X131154058Y-97118058D01*
X137831002Y-102108000D02*
X141422999Y-105699997D01*
X127618056Y-96793058D02*
X127943056Y-97118058D01*
X145551999Y-110937001D02*
X154238999Y-110937001D01*
X141422999Y-105699997D02*
X141422999Y-106808001D01*
X127618056Y-95901944D02*
X127618056Y-96793058D01*
X128778000Y-94742000D02*
X127618056Y-95901944D01*
X137831002Y-102108000D02*
X137414000Y-102108000D01*
X137414000Y-102108000D02*
X136398000Y-101092000D01*
X135245001Y-101209001D02*
X131154058Y-97118058D01*
X135936001Y-101209001D02*
X135245001Y-101209001D01*
X136053002Y-101092000D02*
X135936001Y-101209001D01*
X136398000Y-101092000D02*
X136053002Y-101092000D01*
X146050000Y-96520000D02*
X147828000Y-94742000D01*
X144780000Y-96520000D02*
X146050000Y-96520000D01*
X142014999Y-93754999D02*
X144780000Y-96520000D01*
X127225001Y-93754999D02*
X142014999Y-93754999D01*
X126238000Y-94742000D02*
X127225001Y-93754999D01*
X142748000Y-88677634D02*
X142748000Y-87122000D01*
X142748000Y-89145002D02*
X142748000Y-88677634D01*
X145489999Y-91887001D02*
X142748000Y-89145002D01*
X146433763Y-91887001D02*
X145489999Y-91887001D01*
X148815001Y-94268239D02*
X146433763Y-91887001D01*
X148815001Y-95215761D02*
X148815001Y-94268239D01*
X148301761Y-95729001D02*
X148815001Y-95215761D01*
X142748000Y-106172000D02*
X148301761Y-100618239D01*
X146812000Y-97282000D02*
X148336000Y-95758000D01*
X138430000Y-94742000D02*
X140970000Y-97282000D01*
X136652000Y-94742000D02*
X138430000Y-94742000D01*
X148336000Y-95758000D02*
X148301761Y-95729001D01*
X140970000Y-97282000D02*
X146812000Y-97282000D01*
X148301761Y-100618239D02*
X148336000Y-95758000D01*
X147066001Y-113030001D02*
X147828000Y-113792000D01*
X146840999Y-112804999D02*
X147066001Y-113030001D01*
X128302631Y-112804999D02*
X146840999Y-112804999D01*
X127315630Y-113792000D02*
X128302631Y-112804999D01*
X126238000Y-113792000D02*
X127315630Y-113792000D01*
D19*
G36*
X157963000Y-120117000D02*
G01*
X116103000Y-120117000D01*
X116103000Y-116942890D01*
X134448524Y-116942890D01*
X134493175Y-117090099D01*
X134618359Y-117352920D01*
X134792412Y-117586269D01*
X135008645Y-117781178D01*
X135258748Y-117930157D01*
X135533109Y-118027481D01*
X135763000Y-117906814D01*
X135763000Y-116713000D01*
X134569845Y-116713000D01*
X134448524Y-116942890D01*
X116103000Y-116942890D01*
X116103000Y-89271001D01*
X120785323Y-89271001D01*
X120789000Y-89308333D01*
X120788999Y-103985677D01*
X120785323Y-104022999D01*
X120788999Y-104060321D01*
X120788999Y-104060331D01*
X120799996Y-104171984D01*
X120837374Y-104295205D01*
X120843453Y-104315245D01*
X120914025Y-104447275D01*
X120927550Y-104463755D01*
X121008998Y-104563000D01*
X121038002Y-104586803D01*
X122055286Y-105604088D01*
X122029675Y-105665919D01*
X121963000Y-106001117D01*
X121963000Y-106342883D01*
X122029675Y-106678081D01*
X122160463Y-106993831D01*
X122350337Y-107277998D01*
X122592002Y-107519663D01*
X122876169Y-107709537D01*
X123191919Y-107840325D01*
X123527117Y-107907000D01*
X123868883Y-107907000D01*
X124204081Y-107840325D01*
X124519831Y-107709537D01*
X124803998Y-107519663D01*
X125045663Y-107277998D01*
X125235537Y-106993831D01*
X125366325Y-106678081D01*
X125433000Y-106342883D01*
X125433000Y-106001117D01*
X125366325Y-105665919D01*
X125235537Y-105350169D01*
X125045663Y-105066002D01*
X124803998Y-104824337D01*
X124519831Y-104634463D01*
X124204081Y-104503675D01*
X123868883Y-104437000D01*
X123527117Y-104437000D01*
X123191919Y-104503675D01*
X123130088Y-104529286D01*
X122308999Y-103708198D01*
X122308999Y-94604408D01*
X124841000Y-94604408D01*
X124841000Y-94879592D01*
X124894686Y-95149490D01*
X124999995Y-95403727D01*
X125152880Y-95632535D01*
X125347465Y-95827120D01*
X125576273Y-95980005D01*
X125830510Y-96085314D01*
X126100408Y-96139000D01*
X126375592Y-96139000D01*
X126645490Y-96085314D01*
X126858056Y-95997266D01*
X126858056Y-96755736D01*
X126854380Y-96793058D01*
X126858056Y-96830380D01*
X126858056Y-96830391D01*
X126869054Y-96942044D01*
X126877253Y-96969072D01*
X126912510Y-97085304D01*
X126983082Y-97217334D01*
X127036152Y-97281999D01*
X127078056Y-97333059D01*
X127107053Y-97356857D01*
X127379256Y-97629060D01*
X127403055Y-97658059D01*
X127518780Y-97753032D01*
X127650809Y-97823604D01*
X127794070Y-97867061D01*
X127905723Y-97878058D01*
X127905732Y-97878058D01*
X127943055Y-97881734D01*
X127980378Y-97878058D01*
X130839257Y-97878058D01*
X133990819Y-101029621D01*
X133960226Y-101050063D01*
X133816063Y-101194226D01*
X133702795Y-101363744D01*
X133624774Y-101552102D01*
X133585000Y-101752061D01*
X133585000Y-101922023D01*
X133567712Y-101939311D01*
X133424504Y-101982752D01*
X133292475Y-102053324D01*
X133176750Y-102148297D01*
X133152952Y-102177295D01*
X131783000Y-103547247D01*
X131783000Y-103461117D01*
X131716325Y-103125919D01*
X131585537Y-102810169D01*
X131395663Y-102526002D01*
X131153998Y-102284337D01*
X130869831Y-102094463D01*
X130554081Y-101963675D01*
X130218883Y-101897000D01*
X129877117Y-101897000D01*
X129541919Y-101963675D01*
X129480088Y-101989286D01*
X128903000Y-101412199D01*
X128903000Y-101160711D01*
X128946937Y-101116774D01*
X129060205Y-100947256D01*
X129138226Y-100758898D01*
X129178000Y-100558939D01*
X129178000Y-100355061D01*
X129138226Y-100155102D01*
X129060205Y-99966744D01*
X128946937Y-99797226D01*
X128802774Y-99653063D01*
X128633256Y-99539795D01*
X128444898Y-99461774D01*
X128244939Y-99422000D01*
X128041061Y-99422000D01*
X127841102Y-99461774D01*
X127652744Y-99539795D01*
X127483226Y-99653063D01*
X127339063Y-99797226D01*
X127225795Y-99966744D01*
X127147774Y-100155102D01*
X127108000Y-100355061D01*
X127108000Y-100558939D01*
X127147774Y-100758898D01*
X127225795Y-100947256D01*
X127339063Y-101116774D01*
X127383001Y-101160712D01*
X127383001Y-101689668D01*
X127379324Y-101727000D01*
X127383001Y-101764333D01*
X127393998Y-101875986D01*
X127405695Y-101914547D01*
X127437454Y-102019246D01*
X127508026Y-102151276D01*
X127579201Y-102238002D01*
X127603000Y-102267001D01*
X127631998Y-102290799D01*
X128405286Y-103064088D01*
X128379675Y-103125919D01*
X128313000Y-103461117D01*
X128313000Y-103802883D01*
X128379675Y-104138081D01*
X128510463Y-104453831D01*
X128700337Y-104737998D01*
X128942002Y-104979663D01*
X129226169Y-105169537D01*
X129541919Y-105300325D01*
X129877117Y-105367000D01*
X129963248Y-105367000D01*
X129486060Y-105844188D01*
X129457056Y-105867991D01*
X129414640Y-105919676D01*
X129362083Y-105983716D01*
X129341077Y-106023015D01*
X129291511Y-106115746D01*
X129248054Y-106259007D01*
X129237057Y-106370660D01*
X129237057Y-106370670D01*
X129233381Y-106407992D01*
X129237057Y-106445315D01*
X129237057Y-106714604D01*
X129187715Y-106665262D01*
X128756141Y-106376893D01*
X128276601Y-106178261D01*
X127767525Y-106077000D01*
X127248475Y-106077000D01*
X126739399Y-106178261D01*
X126259859Y-106376893D01*
X125828285Y-106665262D01*
X125461262Y-107032285D01*
X125172893Y-107463859D01*
X124974261Y-107943399D01*
X124873000Y-108452475D01*
X124873000Y-108971525D01*
X124974261Y-109480601D01*
X125172893Y-109960141D01*
X125461262Y-110391715D01*
X125828285Y-110758738D01*
X126259859Y-111047107D01*
X126739399Y-111245739D01*
X127248475Y-111347000D01*
X127767525Y-111347000D01*
X128276601Y-111245739D01*
X128756141Y-111047107D01*
X129187715Y-110758738D01*
X129237058Y-110709395D01*
X129237058Y-110852040D01*
X129236518Y-110857517D01*
X129130795Y-111015744D01*
X129052774Y-111204102D01*
X129013000Y-111404061D01*
X129013000Y-111607939D01*
X129052774Y-111807898D01*
X129130795Y-111996256D01*
X129163364Y-112044999D01*
X128339953Y-112044999D01*
X128302630Y-112041323D01*
X128265307Y-112044999D01*
X128265298Y-112044999D01*
X128153645Y-112055996D01*
X128010384Y-112099453D01*
X127878355Y-112170025D01*
X127762630Y-112264998D01*
X127738832Y-112293996D01*
X127227242Y-112805587D01*
X127128535Y-112706880D01*
X126899727Y-112553995D01*
X126645490Y-112448686D01*
X126375592Y-112395000D01*
X126100408Y-112395000D01*
X125830510Y-112448686D01*
X125576273Y-112553995D01*
X125347465Y-112706880D01*
X125152880Y-112901465D01*
X124999995Y-113130273D01*
X124894686Y-113384510D01*
X124841000Y-113654408D01*
X124841000Y-113929592D01*
X124894686Y-114199490D01*
X124999995Y-114453727D01*
X125152880Y-114682535D01*
X125347465Y-114877120D01*
X125576273Y-115030005D01*
X125830510Y-115135314D01*
X126100408Y-115189000D01*
X126375592Y-115189000D01*
X126645490Y-115135314D01*
X126899727Y-115030005D01*
X127128535Y-114877120D01*
X127323120Y-114682535D01*
X127414383Y-114545951D01*
X127464616Y-114541003D01*
X127575780Y-114507282D01*
X127692880Y-114682535D01*
X127887465Y-114877120D01*
X128116273Y-115030005D01*
X128370510Y-115135314D01*
X128640408Y-115189000D01*
X128915592Y-115189000D01*
X129185490Y-115135314D01*
X129439727Y-115030005D01*
X129668535Y-114877120D01*
X129863120Y-114682535D01*
X130016005Y-114453727D01*
X130121314Y-114199490D01*
X130175000Y-113929592D01*
X130175000Y-113654408D01*
X130157215Y-113564999D01*
X134481885Y-113564999D01*
X134462068Y-113612842D01*
X134405000Y-113899740D01*
X134405000Y-114192260D01*
X134462068Y-114479158D01*
X134574010Y-114749411D01*
X134736525Y-114992632D01*
X134943368Y-115199475D01*
X135125534Y-115321195D01*
X135008645Y-115390822D01*
X134792412Y-115585731D01*
X134618359Y-115819080D01*
X134493175Y-116081901D01*
X134448524Y-116229110D01*
X134569845Y-116459000D01*
X135763000Y-116459000D01*
X135763000Y-116439000D01*
X136017000Y-116439000D01*
X136017000Y-116459000D01*
X136037000Y-116459000D01*
X136037000Y-116713000D01*
X136017000Y-116713000D01*
X136017000Y-117906814D01*
X136246891Y-118027481D01*
X136521252Y-117930157D01*
X136771355Y-117781178D01*
X136987588Y-117586269D01*
X137158900Y-117356594D01*
X137276525Y-117532632D01*
X137483368Y-117739475D01*
X137726589Y-117901990D01*
X137996842Y-118013932D01*
X138283740Y-118071000D01*
X138576260Y-118071000D01*
X138863158Y-118013932D01*
X139133411Y-117901990D01*
X139376632Y-117739475D01*
X139583475Y-117532632D01*
X139745990Y-117289411D01*
X139857932Y-117019158D01*
X139915000Y-116732260D01*
X139915000Y-116439740D01*
X139857932Y-116152842D01*
X139745990Y-115882589D01*
X139583475Y-115639368D01*
X139376632Y-115432525D01*
X139202240Y-115316000D01*
X139376632Y-115199475D01*
X139583475Y-114992632D01*
X139745990Y-114749411D01*
X139857932Y-114479158D01*
X139915000Y-114192260D01*
X139915000Y-113899740D01*
X139857932Y-113612842D01*
X139838115Y-113564999D01*
X143908785Y-113564999D01*
X143891000Y-113654408D01*
X143891000Y-113929592D01*
X143944686Y-114199490D01*
X144049995Y-114453727D01*
X144202880Y-114682535D01*
X144397465Y-114877120D01*
X144626273Y-115030005D01*
X144880510Y-115135314D01*
X145150408Y-115189000D01*
X145425592Y-115189000D01*
X145695490Y-115135314D01*
X145949727Y-115030005D01*
X146178535Y-114877120D01*
X146373120Y-114682535D01*
X146526005Y-114453727D01*
X146558000Y-114376485D01*
X146589995Y-114453727D01*
X146742880Y-114682535D01*
X146937465Y-114877120D01*
X147166273Y-115030005D01*
X147420510Y-115135314D01*
X147690408Y-115189000D01*
X147965592Y-115189000D01*
X148235490Y-115135314D01*
X148489727Y-115030005D01*
X148718535Y-114877120D01*
X148913120Y-114682535D01*
X149066005Y-114453727D01*
X149171314Y-114199490D01*
X149225000Y-113929592D01*
X149225000Y-113654408D01*
X149171314Y-113384510D01*
X149066005Y-113130273D01*
X148913120Y-112901465D01*
X148718535Y-112706880D01*
X148489727Y-112553995D01*
X148235490Y-112448686D01*
X147965592Y-112395000D01*
X147690408Y-112395000D01*
X147536429Y-112425628D01*
X147404803Y-112294002D01*
X147381000Y-112264998D01*
X147265275Y-112170025D01*
X147133246Y-112099453D01*
X146989985Y-112055996D01*
X146878332Y-112044999D01*
X146878321Y-112044999D01*
X146840999Y-112041323D01*
X146803677Y-112044999D01*
X139918072Y-112044999D01*
X139918072Y-110656000D01*
X139905812Y-110531518D01*
X139869502Y-110411820D01*
X139810537Y-110301506D01*
X139731185Y-110204815D01*
X139634494Y-110125463D01*
X139524180Y-110066498D01*
X139422804Y-110035746D01*
X139425226Y-110029898D01*
X139465000Y-109829939D01*
X139465000Y-109626061D01*
X139425226Y-109426102D01*
X139347205Y-109237744D01*
X139233937Y-109068226D01*
X139089774Y-108924063D01*
X138920256Y-108810795D01*
X138731898Y-108732774D01*
X138531939Y-108693000D01*
X138328061Y-108693000D01*
X138128102Y-108732774D01*
X137939744Y-108810795D01*
X137770226Y-108924063D01*
X137726289Y-108968000D01*
X137705325Y-108968000D01*
X137668000Y-108964324D01*
X137630675Y-108968000D01*
X137630667Y-108968000D01*
X137519014Y-108978997D01*
X137375753Y-109022454D01*
X137243724Y-109093026D01*
X137127999Y-109187999D01*
X137104201Y-109216997D01*
X136650000Y-109671198D01*
X136650000Y-106994801D01*
X137453802Y-106191000D01*
X137515939Y-106191000D01*
X137715898Y-106151226D01*
X137904256Y-106073205D01*
X138073774Y-105959937D01*
X138217937Y-105815774D01*
X138331205Y-105646256D01*
X138409226Y-105457898D01*
X138449000Y-105257939D01*
X138449000Y-105054061D01*
X138409226Y-104854102D01*
X138331205Y-104665744D01*
X138217937Y-104496226D01*
X138134711Y-104413000D01*
X138277939Y-104413000D01*
X138477898Y-104373226D01*
X138666256Y-104295205D01*
X138832395Y-104184195D01*
X140662999Y-106014799D01*
X140663000Y-106770669D01*
X140659323Y-106808001D01*
X140673997Y-106956986D01*
X140717453Y-107100247D01*
X140788025Y-107232277D01*
X140859200Y-107319003D01*
X140882999Y-107348002D01*
X140911997Y-107371800D01*
X144988200Y-111448004D01*
X145011998Y-111477002D01*
X145127723Y-111571975D01*
X145259752Y-111642547D01*
X145403013Y-111686004D01*
X145514666Y-111697001D01*
X145514674Y-111697001D01*
X145551999Y-111700677D01*
X145589324Y-111697001D01*
X154201677Y-111697001D01*
X154238999Y-111700677D01*
X154276321Y-111697001D01*
X154276332Y-111697001D01*
X154387985Y-111686004D01*
X154531246Y-111642547D01*
X154663275Y-111571975D01*
X154720514Y-111525000D01*
X154787939Y-111525000D01*
X154987898Y-111485226D01*
X155176256Y-111407205D01*
X155345774Y-111293937D01*
X155489937Y-111149774D01*
X155603205Y-110980256D01*
X155681226Y-110791898D01*
X155721000Y-110591939D01*
X155721000Y-110388061D01*
X155681226Y-110188102D01*
X155603205Y-109999744D01*
X155489937Y-109830226D01*
X155345774Y-109686063D01*
X155176256Y-109572795D01*
X154987898Y-109494774D01*
X154787939Y-109455000D01*
X154584061Y-109455000D01*
X154384102Y-109494774D01*
X154195744Y-109572795D01*
X154026226Y-109686063D01*
X153882063Y-109830226D01*
X153768795Y-109999744D01*
X153695372Y-110177001D01*
X148748206Y-110177001D01*
X148893107Y-109960141D01*
X149091739Y-109480601D01*
X149193000Y-108971525D01*
X149193000Y-108452475D01*
X149091739Y-107943399D01*
X148893107Y-107463859D01*
X148604738Y-107032285D01*
X148237715Y-106665262D01*
X147806141Y-106376893D01*
X147326601Y-106178261D01*
X146817525Y-106077000D01*
X146298475Y-106077000D01*
X145789399Y-106178261D01*
X145309859Y-106376893D01*
X144878285Y-106665262D01*
X144511262Y-107032285D01*
X144222893Y-107463859D01*
X144024261Y-107943399D01*
X143959380Y-108269580D01*
X143449273Y-107759474D01*
X143569831Y-107709537D01*
X143853998Y-107519663D01*
X144095663Y-107277998D01*
X144285537Y-106993831D01*
X144416325Y-106678081D01*
X144483000Y-106342883D01*
X144483000Y-106001117D01*
X144416325Y-105665919D01*
X144390714Y-105604088D01*
X146533685Y-103461117D01*
X147363000Y-103461117D01*
X147363000Y-103802883D01*
X147429675Y-104138081D01*
X147560463Y-104453831D01*
X147750337Y-104737998D01*
X147992002Y-104979663D01*
X148276169Y-105169537D01*
X148591919Y-105300325D01*
X148927117Y-105367000D01*
X149268883Y-105367000D01*
X149604081Y-105300325D01*
X149919831Y-105169537D01*
X150203998Y-104979663D01*
X150445663Y-104737998D01*
X150635537Y-104453831D01*
X150766325Y-104138081D01*
X150833000Y-103802883D01*
X150833000Y-103461117D01*
X150766325Y-103125919D01*
X150635537Y-102810169D01*
X150445663Y-102526002D01*
X150203998Y-102284337D01*
X149919831Y-102094463D01*
X149604081Y-101963675D01*
X149268883Y-101897000D01*
X148927117Y-101897000D01*
X148591919Y-101963675D01*
X148276169Y-102094463D01*
X147992002Y-102284337D01*
X147750337Y-102526002D01*
X147560463Y-102810169D01*
X147429675Y-103125919D01*
X147363000Y-103461117D01*
X146533685Y-103461117D01*
X148810871Y-101183931D01*
X148837944Y-101162030D01*
X148863657Y-101131145D01*
X148865560Y-101129242D01*
X148887635Y-101102344D01*
X148933730Y-101046977D01*
X148935017Y-101044609D01*
X148936735Y-101042516D01*
X148970833Y-100978723D01*
X149005230Y-100915448D01*
X149006031Y-100912874D01*
X149007307Y-100910486D01*
X149028288Y-100841318D01*
X149049695Y-100772497D01*
X149049979Y-100769812D01*
X149050763Y-100767226D01*
X149057831Y-100695460D01*
X149061479Y-100660924D01*
X149061498Y-100658233D01*
X149065437Y-100618240D01*
X149062024Y-100583586D01*
X149094234Y-96011329D01*
X149326004Y-95779559D01*
X149355002Y-95755762D01*
X149426385Y-95668782D01*
X149449975Y-95640038D01*
X149520547Y-95508008D01*
X149529750Y-95477668D01*
X149564004Y-95364747D01*
X149575001Y-95253094D01*
X149575001Y-95253084D01*
X149578677Y-95215761D01*
X149575001Y-95178438D01*
X149575001Y-94305561D01*
X149578677Y-94268238D01*
X149575001Y-94230915D01*
X149575001Y-94230906D01*
X149564004Y-94119253D01*
X149520547Y-93975992D01*
X149500273Y-93938063D01*
X149449975Y-93843962D01*
X149378800Y-93757236D01*
X149355002Y-93728238D01*
X149326004Y-93704440D01*
X147673579Y-92052016D01*
X147806141Y-91997107D01*
X148237715Y-91708738D01*
X148604738Y-91341715D01*
X148893107Y-90910141D01*
X149091739Y-90430601D01*
X149193000Y-89921525D01*
X149193000Y-89402475D01*
X149091739Y-88893399D01*
X148893107Y-88413859D01*
X148604738Y-87982285D01*
X148237715Y-87615262D01*
X147806141Y-87326893D01*
X147326601Y-87128261D01*
X146817525Y-87027000D01*
X146298475Y-87027000D01*
X145789399Y-87128261D01*
X145309859Y-87326893D01*
X144878285Y-87615262D01*
X144511262Y-87982285D01*
X144222893Y-88413859D01*
X144024261Y-88893399D01*
X143949093Y-89271294D01*
X143508000Y-88830201D01*
X143508000Y-88685148D01*
X143569831Y-88659537D01*
X143853998Y-88469663D01*
X144095663Y-88227998D01*
X144285537Y-87943831D01*
X144416325Y-87628081D01*
X144483000Y-87292883D01*
X144483000Y-86951117D01*
X144416325Y-86615919D01*
X144285537Y-86300169D01*
X144095663Y-86016002D01*
X143853998Y-85774337D01*
X143569831Y-85584463D01*
X143254081Y-85453675D01*
X142918883Y-85387000D01*
X142577117Y-85387000D01*
X142497000Y-85402936D01*
X142497000Y-84411117D01*
X147363000Y-84411117D01*
X147363000Y-84752883D01*
X147429675Y-85088081D01*
X147560463Y-85403831D01*
X147750337Y-85687998D01*
X147992002Y-85929663D01*
X148276169Y-86119537D01*
X148591919Y-86250325D01*
X148927117Y-86317000D01*
X149268883Y-86317000D01*
X149604081Y-86250325D01*
X149919831Y-86119537D01*
X150203998Y-85929663D01*
X150445663Y-85687998D01*
X150635537Y-85403831D01*
X150766325Y-85088081D01*
X150833000Y-84752883D01*
X150833000Y-84411117D01*
X150766325Y-84075919D01*
X150635537Y-83760169D01*
X150445663Y-83476002D01*
X150203998Y-83234337D01*
X149919831Y-83044463D01*
X149604081Y-82913675D01*
X149268883Y-82847000D01*
X148927117Y-82847000D01*
X148591919Y-82913675D01*
X148276169Y-83044463D01*
X147992002Y-83234337D01*
X147750337Y-83476002D01*
X147560463Y-83760169D01*
X147429675Y-84075919D01*
X147363000Y-84411117D01*
X142497000Y-84411117D01*
X142497000Y-84322706D01*
X142481300Y-84163303D01*
X142419259Y-83958780D01*
X142318509Y-83770290D01*
X142182922Y-83605078D01*
X142172000Y-83596114D01*
X142172000Y-82925886D01*
X142182922Y-82916922D01*
X142318509Y-82751710D01*
X142419259Y-82563220D01*
X142481300Y-82358696D01*
X142497000Y-82199293D01*
X142497000Y-81292706D01*
X142481300Y-81133303D01*
X142419259Y-80928780D01*
X142318509Y-80740290D01*
X142182922Y-80575078D01*
X142017710Y-80439491D01*
X141829219Y-80338741D01*
X141624696Y-80276700D01*
X141412000Y-80255751D01*
X141199303Y-80276700D01*
X140994780Y-80338741D01*
X140806290Y-80439491D01*
X140641078Y-80575078D01*
X140505491Y-80740290D01*
X140404741Y-80928781D01*
X140387384Y-80986000D01*
X133786616Y-80986000D01*
X133769259Y-80928780D01*
X133668509Y-80740290D01*
X133532922Y-80575078D01*
X133367710Y-80439491D01*
X133179219Y-80338741D01*
X132974696Y-80276700D01*
X132762000Y-80255751D01*
X132549303Y-80276700D01*
X132344780Y-80338741D01*
X132156290Y-80439491D01*
X131991078Y-80575078D01*
X131855491Y-80740290D01*
X131754741Y-80928781D01*
X131692700Y-81133304D01*
X131677000Y-81292707D01*
X131677000Y-82199294D01*
X131692700Y-82358697D01*
X131754742Y-82563220D01*
X131855492Y-82751710D01*
X131991079Y-82916922D01*
X132002000Y-82925885D01*
X132002000Y-83596114D01*
X131991078Y-83605078D01*
X131855491Y-83770290D01*
X131754741Y-83958781D01*
X131717467Y-84081659D01*
X131716325Y-84075919D01*
X131585537Y-83760169D01*
X131395663Y-83476002D01*
X131153998Y-83234337D01*
X130869831Y-83044463D01*
X130554081Y-82913675D01*
X130218883Y-82847000D01*
X129877117Y-82847000D01*
X129541919Y-82913675D01*
X129226169Y-83044463D01*
X128942002Y-83234337D01*
X128700337Y-83476002D01*
X128510463Y-83760169D01*
X128379675Y-84075919D01*
X128313000Y-84411117D01*
X128313000Y-84752883D01*
X128379675Y-85088081D01*
X128510463Y-85403831D01*
X128700337Y-85687998D01*
X128942002Y-85929663D01*
X129226169Y-86119537D01*
X129541919Y-86250325D01*
X129877117Y-86317000D01*
X130218883Y-86317000D01*
X130554081Y-86250325D01*
X130869831Y-86119537D01*
X131153998Y-85929663D01*
X131395663Y-85687998D01*
X131585537Y-85403831D01*
X131677000Y-85183020D01*
X131677000Y-85929294D01*
X131692700Y-86088697D01*
X131754742Y-86293220D01*
X131855492Y-86481710D01*
X131991079Y-86646922D01*
X132156291Y-86782509D01*
X132344781Y-86883259D01*
X132549304Y-86945300D01*
X132762000Y-86966249D01*
X132974697Y-86945300D01*
X133179220Y-86883259D01*
X133367710Y-86782509D01*
X133532922Y-86646922D01*
X133668509Y-86481710D01*
X133769259Y-86293220D01*
X133779746Y-86258649D01*
X133932395Y-86106000D01*
X133918253Y-86091858D01*
X133977000Y-86033110D01*
X133977000Y-86203014D01*
X134013101Y-86384504D01*
X133621088Y-86776517D01*
X133637784Y-86974767D01*
X133816384Y-87050589D01*
X134006344Y-87090110D01*
X134200364Y-87091813D01*
X134390989Y-87055632D01*
X134537651Y-86996385D01*
X134674686Y-87053147D01*
X134864986Y-87091000D01*
X135059014Y-87091000D01*
X135249314Y-87053147D01*
X135387000Y-86996116D01*
X135524686Y-87053147D01*
X135714986Y-87091000D01*
X135909014Y-87091000D01*
X136099314Y-87053147D01*
X136237000Y-86996116D01*
X136374686Y-87053147D01*
X136564986Y-87091000D01*
X136759014Y-87091000D01*
X136949314Y-87053147D01*
X137087000Y-86996116D01*
X137224686Y-87053147D01*
X137414986Y-87091000D01*
X137609014Y-87091000D01*
X137799314Y-87053147D01*
X137937000Y-86996116D01*
X138074686Y-87053147D01*
X138264986Y-87091000D01*
X138452000Y-87091000D01*
X138452001Y-88628668D01*
X138448324Y-88666000D01*
X138462998Y-88814985D01*
X138506454Y-88958246D01*
X138577026Y-89090276D01*
X138603075Y-89122016D01*
X138672000Y-89206001D01*
X138700998Y-89229799D01*
X143921628Y-94450430D01*
X143898998Y-94564197D01*
X142578803Y-93244002D01*
X142555000Y-93214998D01*
X142439275Y-93120025D01*
X142307246Y-93049453D01*
X142163985Y-93005996D01*
X142052332Y-92994999D01*
X142052321Y-92994999D01*
X142014999Y-92991323D01*
X141977677Y-92994999D01*
X127262323Y-92994999D01*
X127225000Y-92991323D01*
X127187677Y-92994999D01*
X127187668Y-92994999D01*
X127076015Y-93005996D01*
X126932754Y-93049453D01*
X126800725Y-93120025D01*
X126685000Y-93214998D01*
X126661202Y-93243996D01*
X126529570Y-93375628D01*
X126375592Y-93345000D01*
X126100408Y-93345000D01*
X125830510Y-93398686D01*
X125576273Y-93503995D01*
X125347465Y-93656880D01*
X125152880Y-93851465D01*
X124999995Y-94080273D01*
X124894686Y-94334510D01*
X124841000Y-94604408D01*
X122308999Y-94604408D01*
X122308999Y-89585802D01*
X122492326Y-89402475D01*
X124873000Y-89402475D01*
X124873000Y-89921525D01*
X124974261Y-90430601D01*
X125172893Y-90910141D01*
X125461262Y-91341715D01*
X125828285Y-91708738D01*
X126259859Y-91997107D01*
X126739399Y-92195739D01*
X127248475Y-92297000D01*
X127767525Y-92297000D01*
X128276601Y-92195739D01*
X128756141Y-91997107D01*
X129187715Y-91708738D01*
X129554738Y-91341715D01*
X129843107Y-90910141D01*
X130041739Y-90430601D01*
X130143000Y-89921525D01*
X130143000Y-89402475D01*
X130041739Y-88893399D01*
X129843107Y-88413859D01*
X129554738Y-87982285D01*
X129187715Y-87615262D01*
X128756141Y-87326893D01*
X128276601Y-87128261D01*
X127767525Y-87027000D01*
X127248475Y-87027000D01*
X126739399Y-87128261D01*
X126259859Y-87326893D01*
X125828285Y-87615262D01*
X125461262Y-87982285D01*
X125172893Y-88413859D01*
X124974261Y-88893399D01*
X124873000Y-89402475D01*
X122492326Y-89402475D01*
X123130088Y-88764714D01*
X123191919Y-88790325D01*
X123527117Y-88857000D01*
X123868883Y-88857000D01*
X124204081Y-88790325D01*
X124519831Y-88659537D01*
X124803998Y-88469663D01*
X125045663Y-88227998D01*
X125235537Y-87943831D01*
X125366325Y-87628081D01*
X125433000Y-87292883D01*
X125433000Y-86951117D01*
X125366325Y-86615919D01*
X125235537Y-86300169D01*
X125045663Y-86016002D01*
X124803998Y-85774337D01*
X124519831Y-85584463D01*
X124204081Y-85453675D01*
X123868883Y-85387000D01*
X123527117Y-85387000D01*
X123191919Y-85453675D01*
X122876169Y-85584463D01*
X122592002Y-85774337D01*
X122350337Y-86016002D01*
X122160463Y-86300169D01*
X122029675Y-86615919D01*
X121963000Y-86951117D01*
X121963000Y-87292883D01*
X122029675Y-87628081D01*
X122055286Y-87689912D01*
X121037997Y-88707202D01*
X121008999Y-88731000D01*
X120985201Y-88759998D01*
X120985200Y-88759999D01*
X120914025Y-88846725D01*
X120843453Y-88978755D01*
X120799997Y-89122016D01*
X120785323Y-89271001D01*
X116103000Y-89271001D01*
X116103000Y-78257000D01*
X157963001Y-78257000D01*
X157963000Y-120117000D01*
G37*
X157963000Y-120117000D02*
X116103000Y-120117000D01*
X116103000Y-116942890D01*
X134448524Y-116942890D01*
X134493175Y-117090099D01*
X134618359Y-117352920D01*
X134792412Y-117586269D01*
X135008645Y-117781178D01*
X135258748Y-117930157D01*
X135533109Y-118027481D01*
X135763000Y-117906814D01*
X135763000Y-116713000D01*
X134569845Y-116713000D01*
X134448524Y-116942890D01*
X116103000Y-116942890D01*
X116103000Y-89271001D01*
X120785323Y-89271001D01*
X120789000Y-89308333D01*
X120788999Y-103985677D01*
X120785323Y-104022999D01*
X120788999Y-104060321D01*
X120788999Y-104060331D01*
X120799996Y-104171984D01*
X120837374Y-104295205D01*
X120843453Y-104315245D01*
X120914025Y-104447275D01*
X120927550Y-104463755D01*
X121008998Y-104563000D01*
X121038002Y-104586803D01*
X122055286Y-105604088D01*
X122029675Y-105665919D01*
X121963000Y-106001117D01*
X121963000Y-106342883D01*
X122029675Y-106678081D01*
X122160463Y-106993831D01*
X122350337Y-107277998D01*
X122592002Y-107519663D01*
X122876169Y-107709537D01*
X123191919Y-107840325D01*
X123527117Y-107907000D01*
X123868883Y-107907000D01*
X124204081Y-107840325D01*
X124519831Y-107709537D01*
X124803998Y-107519663D01*
X125045663Y-107277998D01*
X125235537Y-106993831D01*
X125366325Y-106678081D01*
X125433000Y-106342883D01*
X125433000Y-106001117D01*
X125366325Y-105665919D01*
X125235537Y-105350169D01*
X125045663Y-105066002D01*
X124803998Y-104824337D01*
X124519831Y-104634463D01*
X124204081Y-104503675D01*
X123868883Y-104437000D01*
X123527117Y-104437000D01*
X123191919Y-104503675D01*
X123130088Y-104529286D01*
X122308999Y-103708198D01*
X122308999Y-94604408D01*
X124841000Y-94604408D01*
X124841000Y-94879592D01*
X124894686Y-95149490D01*
X124999995Y-95403727D01*
X125152880Y-95632535D01*
X125347465Y-95827120D01*
X125576273Y-95980005D01*
X125830510Y-96085314D01*
X126100408Y-96139000D01*
X126375592Y-96139000D01*
X126645490Y-96085314D01*
X126858056Y-95997266D01*
X126858056Y-96755736D01*
X126854380Y-96793058D01*
X126858056Y-96830380D01*
X126858056Y-96830391D01*
X126869054Y-96942044D01*
X126877253Y-96969072D01*
X126912510Y-97085304D01*
X126983082Y-97217334D01*
X127036152Y-97281999D01*
X127078056Y-97333059D01*
X127107053Y-97356857D01*
X127379256Y-97629060D01*
X127403055Y-97658059D01*
X127518780Y-97753032D01*
X127650809Y-97823604D01*
X127794070Y-97867061D01*
X127905723Y-97878058D01*
X127905732Y-97878058D01*
X127943055Y-97881734D01*
X127980378Y-97878058D01*
X130839257Y-97878058D01*
X133990819Y-101029621D01*
X133960226Y-101050063D01*
X133816063Y-101194226D01*
X133702795Y-101363744D01*
X133624774Y-101552102D01*
X133585000Y-101752061D01*
X133585000Y-101922023D01*
X133567712Y-101939311D01*
X133424504Y-101982752D01*
X133292475Y-102053324D01*
X133176750Y-102148297D01*
X133152952Y-102177295D01*
X131783000Y-103547247D01*
X131783000Y-103461117D01*
X131716325Y-103125919D01*
X131585537Y-102810169D01*
X131395663Y-102526002D01*
X131153998Y-102284337D01*
X130869831Y-102094463D01*
X130554081Y-101963675D01*
X130218883Y-101897000D01*
X129877117Y-101897000D01*
X129541919Y-101963675D01*
X129480088Y-101989286D01*
X128903000Y-101412199D01*
X128903000Y-101160711D01*
X128946937Y-101116774D01*
X129060205Y-100947256D01*
X129138226Y-100758898D01*
X129178000Y-100558939D01*
X129178000Y-100355061D01*
X129138226Y-100155102D01*
X129060205Y-99966744D01*
X128946937Y-99797226D01*
X128802774Y-99653063D01*
X128633256Y-99539795D01*
X128444898Y-99461774D01*
X128244939Y-99422000D01*
X128041061Y-99422000D01*
X127841102Y-99461774D01*
X127652744Y-99539795D01*
X127483226Y-99653063D01*
X127339063Y-99797226D01*
X127225795Y-99966744D01*
X127147774Y-100155102D01*
X127108000Y-100355061D01*
X127108000Y-100558939D01*
X127147774Y-100758898D01*
X127225795Y-100947256D01*
X127339063Y-101116774D01*
X127383001Y-101160712D01*
X127383001Y-101689668D01*
X127379324Y-101727000D01*
X127383001Y-101764333D01*
X127393998Y-101875986D01*
X127405695Y-101914547D01*
X127437454Y-102019246D01*
X127508026Y-102151276D01*
X127579201Y-102238002D01*
X127603000Y-102267001D01*
X127631998Y-102290799D01*
X128405286Y-103064088D01*
X128379675Y-103125919D01*
X128313000Y-103461117D01*
X128313000Y-103802883D01*
X128379675Y-104138081D01*
X128510463Y-104453831D01*
X128700337Y-104737998D01*
X128942002Y-104979663D01*
X129226169Y-105169537D01*
X129541919Y-105300325D01*
X129877117Y-105367000D01*
X129963248Y-105367000D01*
X129486060Y-105844188D01*
X129457056Y-105867991D01*
X129414640Y-105919676D01*
X129362083Y-105983716D01*
X129341077Y-106023015D01*
X129291511Y-106115746D01*
X129248054Y-106259007D01*
X129237057Y-106370660D01*
X129237057Y-106370670D01*
X129233381Y-106407992D01*
X129237057Y-106445315D01*
X129237057Y-106714604D01*
X129187715Y-106665262D01*
X128756141Y-106376893D01*
X128276601Y-106178261D01*
X127767525Y-106077000D01*
X127248475Y-106077000D01*
X126739399Y-106178261D01*
X126259859Y-106376893D01*
X125828285Y-106665262D01*
X125461262Y-107032285D01*
X125172893Y-107463859D01*
X124974261Y-107943399D01*
X124873000Y-108452475D01*
X124873000Y-108971525D01*
X124974261Y-109480601D01*
X125172893Y-109960141D01*
X125461262Y-110391715D01*
X125828285Y-110758738D01*
X126259859Y-111047107D01*
X126739399Y-111245739D01*
X127248475Y-111347000D01*
X127767525Y-111347000D01*
X128276601Y-111245739D01*
X128756141Y-111047107D01*
X129187715Y-110758738D01*
X129237058Y-110709395D01*
X129237058Y-110852040D01*
X129236518Y-110857517D01*
X129130795Y-111015744D01*
X129052774Y-111204102D01*
X129013000Y-111404061D01*
X129013000Y-111607939D01*
X129052774Y-111807898D01*
X129130795Y-111996256D01*
X129163364Y-112044999D01*
X128339953Y-112044999D01*
X128302630Y-112041323D01*
X128265307Y-112044999D01*
X128265298Y-112044999D01*
X128153645Y-112055996D01*
X128010384Y-112099453D01*
X127878355Y-112170025D01*
X127762630Y-112264998D01*
X127738832Y-112293996D01*
X127227242Y-112805587D01*
X127128535Y-112706880D01*
X126899727Y-112553995D01*
X126645490Y-112448686D01*
X126375592Y-112395000D01*
X126100408Y-112395000D01*
X125830510Y-112448686D01*
X125576273Y-112553995D01*
X125347465Y-112706880D01*
X125152880Y-112901465D01*
X124999995Y-113130273D01*
X124894686Y-113384510D01*
X124841000Y-113654408D01*
X124841000Y-113929592D01*
X124894686Y-114199490D01*
X124999995Y-114453727D01*
X125152880Y-114682535D01*
X125347465Y-114877120D01*
X125576273Y-115030005D01*
X125830510Y-115135314D01*
X126100408Y-115189000D01*
X126375592Y-115189000D01*
X126645490Y-115135314D01*
X126899727Y-115030005D01*
X127128535Y-114877120D01*
X127323120Y-114682535D01*
X127414383Y-114545951D01*
X127464616Y-114541003D01*
X127575780Y-114507282D01*
X127692880Y-114682535D01*
X127887465Y-114877120D01*
X128116273Y-115030005D01*
X128370510Y-115135314D01*
X128640408Y-115189000D01*
X128915592Y-115189000D01*
X129185490Y-115135314D01*
X129439727Y-115030005D01*
X129668535Y-114877120D01*
X129863120Y-114682535D01*
X130016005Y-114453727D01*
X130121314Y-114199490D01*
X130175000Y-113929592D01*
X130175000Y-113654408D01*
X130157215Y-113564999D01*
X134481885Y-113564999D01*
X134462068Y-113612842D01*
X134405000Y-113899740D01*
X134405000Y-114192260D01*
X134462068Y-114479158D01*
X134574010Y-114749411D01*
X134736525Y-114992632D01*
X134943368Y-115199475D01*
X135125534Y-115321195D01*
X135008645Y-115390822D01*
X134792412Y-115585731D01*
X134618359Y-115819080D01*
X134493175Y-116081901D01*
X134448524Y-116229110D01*
X134569845Y-116459000D01*
X135763000Y-116459000D01*
X135763000Y-116439000D01*
X136017000Y-116439000D01*
X136017000Y-116459000D01*
X136037000Y-116459000D01*
X136037000Y-116713000D01*
X136017000Y-116713000D01*
X136017000Y-117906814D01*
X136246891Y-118027481D01*
X136521252Y-117930157D01*
X136771355Y-117781178D01*
X136987588Y-117586269D01*
X137158900Y-117356594D01*
X137276525Y-117532632D01*
X137483368Y-117739475D01*
X137726589Y-117901990D01*
X137996842Y-118013932D01*
X138283740Y-118071000D01*
X138576260Y-118071000D01*
X138863158Y-118013932D01*
X139133411Y-117901990D01*
X139376632Y-117739475D01*
X139583475Y-117532632D01*
X139745990Y-117289411D01*
X139857932Y-117019158D01*
X139915000Y-116732260D01*
X139915000Y-116439740D01*
X139857932Y-116152842D01*
X139745990Y-115882589D01*
X139583475Y-115639368D01*
X139376632Y-115432525D01*
X139202240Y-115316000D01*
X139376632Y-115199475D01*
X139583475Y-114992632D01*
X139745990Y-114749411D01*
X139857932Y-114479158D01*
X139915000Y-114192260D01*
X139915000Y-113899740D01*
X139857932Y-113612842D01*
X139838115Y-113564999D01*
X143908785Y-113564999D01*
X143891000Y-113654408D01*
X143891000Y-113929592D01*
X143944686Y-114199490D01*
X144049995Y-114453727D01*
X144202880Y-114682535D01*
X144397465Y-114877120D01*
X144626273Y-115030005D01*
X144880510Y-115135314D01*
X145150408Y-115189000D01*
X145425592Y-115189000D01*
X145695490Y-115135314D01*
X145949727Y-115030005D01*
X146178535Y-114877120D01*
X146373120Y-114682535D01*
X146526005Y-114453727D01*
X146558000Y-114376485D01*
X146589995Y-114453727D01*
X146742880Y-114682535D01*
X146937465Y-114877120D01*
X147166273Y-115030005D01*
X147420510Y-115135314D01*
X147690408Y-115189000D01*
X147965592Y-115189000D01*
X148235490Y-115135314D01*
X148489727Y-115030005D01*
X148718535Y-114877120D01*
X148913120Y-114682535D01*
X149066005Y-114453727D01*
X149171314Y-114199490D01*
X149225000Y-113929592D01*
X149225000Y-113654408D01*
X149171314Y-113384510D01*
X149066005Y-113130273D01*
X148913120Y-112901465D01*
X148718535Y-112706880D01*
X148489727Y-112553995D01*
X148235490Y-112448686D01*
X147965592Y-112395000D01*
X147690408Y-112395000D01*
X147536429Y-112425628D01*
X147404803Y-112294002D01*
X147381000Y-112264998D01*
X147265275Y-112170025D01*
X147133246Y-112099453D01*
X146989985Y-112055996D01*
X146878332Y-112044999D01*
X146878321Y-112044999D01*
X146840999Y-112041323D01*
X146803677Y-112044999D01*
X139918072Y-112044999D01*
X139918072Y-110656000D01*
X139905812Y-110531518D01*
X139869502Y-110411820D01*
X139810537Y-110301506D01*
X139731185Y-110204815D01*
X139634494Y-110125463D01*
X139524180Y-110066498D01*
X139422804Y-110035746D01*
X139425226Y-110029898D01*
X139465000Y-109829939D01*
X139465000Y-109626061D01*
X139425226Y-109426102D01*
X139347205Y-109237744D01*
X139233937Y-109068226D01*
X139089774Y-108924063D01*
X138920256Y-108810795D01*
X138731898Y-108732774D01*
X138531939Y-108693000D01*
X138328061Y-108693000D01*
X138128102Y-108732774D01*
X137939744Y-108810795D01*
X137770226Y-108924063D01*
X137726289Y-108968000D01*
X137705325Y-108968000D01*
X137668000Y-108964324D01*
X137630675Y-108968000D01*
X137630667Y-108968000D01*
X137519014Y-108978997D01*
X137375753Y-109022454D01*
X137243724Y-109093026D01*
X137127999Y-109187999D01*
X137104201Y-109216997D01*
X136650000Y-109671198D01*
X136650000Y-106994801D01*
X137453802Y-106191000D01*
X137515939Y-106191000D01*
X137715898Y-106151226D01*
X137904256Y-106073205D01*
X138073774Y-105959937D01*
X138217937Y-105815774D01*
X138331205Y-105646256D01*
X138409226Y-105457898D01*
X138449000Y-105257939D01*
X138449000Y-105054061D01*
X138409226Y-104854102D01*
X138331205Y-104665744D01*
X138217937Y-104496226D01*
X138134711Y-104413000D01*
X138277939Y-104413000D01*
X138477898Y-104373226D01*
X138666256Y-104295205D01*
X138832395Y-104184195D01*
X140662999Y-106014799D01*
X140663000Y-106770669D01*
X140659323Y-106808001D01*
X140673997Y-106956986D01*
X140717453Y-107100247D01*
X140788025Y-107232277D01*
X140859200Y-107319003D01*
X140882999Y-107348002D01*
X140911997Y-107371800D01*
X144988200Y-111448004D01*
X145011998Y-111477002D01*
X145127723Y-111571975D01*
X145259752Y-111642547D01*
X145403013Y-111686004D01*
X145514666Y-111697001D01*
X145514674Y-111697001D01*
X145551999Y-111700677D01*
X145589324Y-111697001D01*
X154201677Y-111697001D01*
X154238999Y-111700677D01*
X154276321Y-111697001D01*
X154276332Y-111697001D01*
X154387985Y-111686004D01*
X154531246Y-111642547D01*
X154663275Y-111571975D01*
X154720514Y-111525000D01*
X154787939Y-111525000D01*
X154987898Y-111485226D01*
X155176256Y-111407205D01*
X155345774Y-111293937D01*
X155489937Y-111149774D01*
X155603205Y-110980256D01*
X155681226Y-110791898D01*
X155721000Y-110591939D01*
X155721000Y-110388061D01*
X155681226Y-110188102D01*
X155603205Y-109999744D01*
X155489937Y-109830226D01*
X155345774Y-109686063D01*
X155176256Y-109572795D01*
X154987898Y-109494774D01*
X154787939Y-109455000D01*
X154584061Y-109455000D01*
X154384102Y-109494774D01*
X154195744Y-109572795D01*
X154026226Y-109686063D01*
X153882063Y-109830226D01*
X153768795Y-109999744D01*
X153695372Y-110177001D01*
X148748206Y-110177001D01*
X148893107Y-109960141D01*
X149091739Y-109480601D01*
X149193000Y-108971525D01*
X149193000Y-108452475D01*
X149091739Y-107943399D01*
X148893107Y-107463859D01*
X148604738Y-107032285D01*
X148237715Y-106665262D01*
X147806141Y-106376893D01*
X147326601Y-106178261D01*
X146817525Y-106077000D01*
X146298475Y-106077000D01*
X145789399Y-106178261D01*
X145309859Y-106376893D01*
X144878285Y-106665262D01*
X144511262Y-107032285D01*
X144222893Y-107463859D01*
X144024261Y-107943399D01*
X143959380Y-108269580D01*
X143449273Y-107759474D01*
X143569831Y-107709537D01*
X143853998Y-107519663D01*
X144095663Y-107277998D01*
X144285537Y-106993831D01*
X144416325Y-106678081D01*
X144483000Y-106342883D01*
X144483000Y-106001117D01*
X144416325Y-105665919D01*
X144390714Y-105604088D01*
X146533685Y-103461117D01*
X147363000Y-103461117D01*
X147363000Y-103802883D01*
X147429675Y-104138081D01*
X147560463Y-104453831D01*
X147750337Y-104737998D01*
X147992002Y-104979663D01*
X148276169Y-105169537D01*
X148591919Y-105300325D01*
X148927117Y-105367000D01*
X149268883Y-105367000D01*
X149604081Y-105300325D01*
X149919831Y-105169537D01*
X150203998Y-104979663D01*
X150445663Y-104737998D01*
X150635537Y-104453831D01*
X150766325Y-104138081D01*
X150833000Y-103802883D01*
X150833000Y-103461117D01*
X150766325Y-103125919D01*
X150635537Y-102810169D01*
X150445663Y-102526002D01*
X150203998Y-102284337D01*
X149919831Y-102094463D01*
X149604081Y-101963675D01*
X149268883Y-101897000D01*
X148927117Y-101897000D01*
X148591919Y-101963675D01*
X148276169Y-102094463D01*
X147992002Y-102284337D01*
X147750337Y-102526002D01*
X147560463Y-102810169D01*
X147429675Y-103125919D01*
X147363000Y-103461117D01*
X146533685Y-103461117D01*
X148810871Y-101183931D01*
X148837944Y-101162030D01*
X148863657Y-101131145D01*
X148865560Y-101129242D01*
X148887635Y-101102344D01*
X148933730Y-101046977D01*
X148935017Y-101044609D01*
X148936735Y-101042516D01*
X148970833Y-100978723D01*
X149005230Y-100915448D01*
X149006031Y-100912874D01*
X149007307Y-100910486D01*
X149028288Y-100841318D01*
X149049695Y-100772497D01*
X149049979Y-100769812D01*
X149050763Y-100767226D01*
X149057831Y-100695460D01*
X149061479Y-100660924D01*
X149061498Y-100658233D01*
X149065437Y-100618240D01*
X149062024Y-100583586D01*
X149094234Y-96011329D01*
X149326004Y-95779559D01*
X149355002Y-95755762D01*
X149426385Y-95668782D01*
X149449975Y-95640038D01*
X149520547Y-95508008D01*
X149529750Y-95477668D01*
X149564004Y-95364747D01*
X149575001Y-95253094D01*
X149575001Y-95253084D01*
X149578677Y-95215761D01*
X149575001Y-95178438D01*
X149575001Y-94305561D01*
X149578677Y-94268238D01*
X149575001Y-94230915D01*
X149575001Y-94230906D01*
X149564004Y-94119253D01*
X149520547Y-93975992D01*
X149500273Y-93938063D01*
X149449975Y-93843962D01*
X149378800Y-93757236D01*
X149355002Y-93728238D01*
X149326004Y-93704440D01*
X147673579Y-92052016D01*
X147806141Y-91997107D01*
X148237715Y-91708738D01*
X148604738Y-91341715D01*
X148893107Y-90910141D01*
X149091739Y-90430601D01*
X149193000Y-89921525D01*
X149193000Y-89402475D01*
X149091739Y-88893399D01*
X148893107Y-88413859D01*
X148604738Y-87982285D01*
X148237715Y-87615262D01*
X147806141Y-87326893D01*
X147326601Y-87128261D01*
X146817525Y-87027000D01*
X146298475Y-87027000D01*
X145789399Y-87128261D01*
X145309859Y-87326893D01*
X144878285Y-87615262D01*
X144511262Y-87982285D01*
X144222893Y-88413859D01*
X144024261Y-88893399D01*
X143949093Y-89271294D01*
X143508000Y-88830201D01*
X143508000Y-88685148D01*
X143569831Y-88659537D01*
X143853998Y-88469663D01*
X144095663Y-88227998D01*
X144285537Y-87943831D01*
X144416325Y-87628081D01*
X144483000Y-87292883D01*
X144483000Y-86951117D01*
X144416325Y-86615919D01*
X144285537Y-86300169D01*
X144095663Y-86016002D01*
X143853998Y-85774337D01*
X143569831Y-85584463D01*
X143254081Y-85453675D01*
X142918883Y-85387000D01*
X142577117Y-85387000D01*
X142497000Y-85402936D01*
X142497000Y-84411117D01*
X147363000Y-84411117D01*
X147363000Y-84752883D01*
X147429675Y-85088081D01*
X147560463Y-85403831D01*
X147750337Y-85687998D01*
X147992002Y-85929663D01*
X148276169Y-86119537D01*
X148591919Y-86250325D01*
X148927117Y-86317000D01*
X149268883Y-86317000D01*
X149604081Y-86250325D01*
X149919831Y-86119537D01*
X150203998Y-85929663D01*
X150445663Y-85687998D01*
X150635537Y-85403831D01*
X150766325Y-85088081D01*
X150833000Y-84752883D01*
X150833000Y-84411117D01*
X150766325Y-84075919D01*
X150635537Y-83760169D01*
X150445663Y-83476002D01*
X150203998Y-83234337D01*
X149919831Y-83044463D01*
X149604081Y-82913675D01*
X149268883Y-82847000D01*
X148927117Y-82847000D01*
X148591919Y-82913675D01*
X148276169Y-83044463D01*
X147992002Y-83234337D01*
X147750337Y-83476002D01*
X147560463Y-83760169D01*
X147429675Y-84075919D01*
X147363000Y-84411117D01*
X142497000Y-84411117D01*
X142497000Y-84322706D01*
X142481300Y-84163303D01*
X142419259Y-83958780D01*
X142318509Y-83770290D01*
X142182922Y-83605078D01*
X142172000Y-83596114D01*
X142172000Y-82925886D01*
X142182922Y-82916922D01*
X142318509Y-82751710D01*
X142419259Y-82563220D01*
X142481300Y-82358696D01*
X142497000Y-82199293D01*
X142497000Y-81292706D01*
X142481300Y-81133303D01*
X142419259Y-80928780D01*
X142318509Y-80740290D01*
X142182922Y-80575078D01*
X142017710Y-80439491D01*
X141829219Y-80338741D01*
X141624696Y-80276700D01*
X141412000Y-80255751D01*
X141199303Y-80276700D01*
X140994780Y-80338741D01*
X140806290Y-80439491D01*
X140641078Y-80575078D01*
X140505491Y-80740290D01*
X140404741Y-80928781D01*
X140387384Y-80986000D01*
X133786616Y-80986000D01*
X133769259Y-80928780D01*
X133668509Y-80740290D01*
X133532922Y-80575078D01*
X133367710Y-80439491D01*
X133179219Y-80338741D01*
X132974696Y-80276700D01*
X132762000Y-80255751D01*
X132549303Y-80276700D01*
X132344780Y-80338741D01*
X132156290Y-80439491D01*
X131991078Y-80575078D01*
X131855491Y-80740290D01*
X131754741Y-80928781D01*
X131692700Y-81133304D01*
X131677000Y-81292707D01*
X131677000Y-82199294D01*
X131692700Y-82358697D01*
X131754742Y-82563220D01*
X131855492Y-82751710D01*
X131991079Y-82916922D01*
X132002000Y-82925885D01*
X132002000Y-83596114D01*
X131991078Y-83605078D01*
X131855491Y-83770290D01*
X131754741Y-83958781D01*
X131717467Y-84081659D01*
X131716325Y-84075919D01*
X131585537Y-83760169D01*
X131395663Y-83476002D01*
X131153998Y-83234337D01*
X130869831Y-83044463D01*
X130554081Y-82913675D01*
X130218883Y-82847000D01*
X129877117Y-82847000D01*
X129541919Y-82913675D01*
X129226169Y-83044463D01*
X128942002Y-83234337D01*
X128700337Y-83476002D01*
X128510463Y-83760169D01*
X128379675Y-84075919D01*
X128313000Y-84411117D01*
X128313000Y-84752883D01*
X128379675Y-85088081D01*
X128510463Y-85403831D01*
X128700337Y-85687998D01*
X128942002Y-85929663D01*
X129226169Y-86119537D01*
X129541919Y-86250325D01*
X129877117Y-86317000D01*
X130218883Y-86317000D01*
X130554081Y-86250325D01*
X130869831Y-86119537D01*
X131153998Y-85929663D01*
X131395663Y-85687998D01*
X131585537Y-85403831D01*
X131677000Y-85183020D01*
X131677000Y-85929294D01*
X131692700Y-86088697D01*
X131754742Y-86293220D01*
X131855492Y-86481710D01*
X131991079Y-86646922D01*
X132156291Y-86782509D01*
X132344781Y-86883259D01*
X132549304Y-86945300D01*
X132762000Y-86966249D01*
X132974697Y-86945300D01*
X133179220Y-86883259D01*
X133367710Y-86782509D01*
X133532922Y-86646922D01*
X133668509Y-86481710D01*
X133769259Y-86293220D01*
X133779746Y-86258649D01*
X133932395Y-86106000D01*
X133918253Y-86091858D01*
X133977000Y-86033110D01*
X133977000Y-86203014D01*
X134013101Y-86384504D01*
X133621088Y-86776517D01*
X133637784Y-86974767D01*
X133816384Y-87050589D01*
X134006344Y-87090110D01*
X134200364Y-87091813D01*
X134390989Y-87055632D01*
X134537651Y-86996385D01*
X134674686Y-87053147D01*
X134864986Y-87091000D01*
X135059014Y-87091000D01*
X135249314Y-87053147D01*
X135387000Y-86996116D01*
X135524686Y-87053147D01*
X135714986Y-87091000D01*
X135909014Y-87091000D01*
X136099314Y-87053147D01*
X136237000Y-86996116D01*
X136374686Y-87053147D01*
X136564986Y-87091000D01*
X136759014Y-87091000D01*
X136949314Y-87053147D01*
X137087000Y-86996116D01*
X137224686Y-87053147D01*
X137414986Y-87091000D01*
X137609014Y-87091000D01*
X137799314Y-87053147D01*
X137937000Y-86996116D01*
X138074686Y-87053147D01*
X138264986Y-87091000D01*
X138452000Y-87091000D01*
X138452001Y-88628668D01*
X138448324Y-88666000D01*
X138462998Y-88814985D01*
X138506454Y-88958246D01*
X138577026Y-89090276D01*
X138603075Y-89122016D01*
X138672000Y-89206001D01*
X138700998Y-89229799D01*
X143921628Y-94450430D01*
X143898998Y-94564197D01*
X142578803Y-93244002D01*
X142555000Y-93214998D01*
X142439275Y-93120025D01*
X142307246Y-93049453D01*
X142163985Y-93005996D01*
X142052332Y-92994999D01*
X142052321Y-92994999D01*
X142014999Y-92991323D01*
X141977677Y-92994999D01*
X127262323Y-92994999D01*
X127225000Y-92991323D01*
X127187677Y-92994999D01*
X127187668Y-92994999D01*
X127076015Y-93005996D01*
X126932754Y-93049453D01*
X126800725Y-93120025D01*
X126685000Y-93214998D01*
X126661202Y-93243996D01*
X126529570Y-93375628D01*
X126375592Y-93345000D01*
X126100408Y-93345000D01*
X125830510Y-93398686D01*
X125576273Y-93503995D01*
X125347465Y-93656880D01*
X125152880Y-93851465D01*
X124999995Y-94080273D01*
X124894686Y-94334510D01*
X124841000Y-94604408D01*
X122308999Y-94604408D01*
X122308999Y-89585802D01*
X122492326Y-89402475D01*
X124873000Y-89402475D01*
X124873000Y-89921525D01*
X124974261Y-90430601D01*
X125172893Y-90910141D01*
X125461262Y-91341715D01*
X125828285Y-91708738D01*
X126259859Y-91997107D01*
X126739399Y-92195739D01*
X127248475Y-92297000D01*
X127767525Y-92297000D01*
X128276601Y-92195739D01*
X128756141Y-91997107D01*
X129187715Y-91708738D01*
X129554738Y-91341715D01*
X129843107Y-90910141D01*
X130041739Y-90430601D01*
X130143000Y-89921525D01*
X130143000Y-89402475D01*
X130041739Y-88893399D01*
X129843107Y-88413859D01*
X129554738Y-87982285D01*
X129187715Y-87615262D01*
X128756141Y-87326893D01*
X128276601Y-87128261D01*
X127767525Y-87027000D01*
X127248475Y-87027000D01*
X126739399Y-87128261D01*
X126259859Y-87326893D01*
X125828285Y-87615262D01*
X125461262Y-87982285D01*
X125172893Y-88413859D01*
X124974261Y-88893399D01*
X124873000Y-89402475D01*
X122492326Y-89402475D01*
X123130088Y-88764714D01*
X123191919Y-88790325D01*
X123527117Y-88857000D01*
X123868883Y-88857000D01*
X124204081Y-88790325D01*
X124519831Y-88659537D01*
X124803998Y-88469663D01*
X125045663Y-88227998D01*
X125235537Y-87943831D01*
X125366325Y-87628081D01*
X125433000Y-87292883D01*
X125433000Y-86951117D01*
X125366325Y-86615919D01*
X125235537Y-86300169D01*
X125045663Y-86016002D01*
X124803998Y-85774337D01*
X124519831Y-85584463D01*
X124204081Y-85453675D01*
X123868883Y-85387000D01*
X123527117Y-85387000D01*
X123191919Y-85453675D01*
X122876169Y-85584463D01*
X122592002Y-85774337D01*
X122350337Y-86016002D01*
X122160463Y-86300169D01*
X122029675Y-86615919D01*
X121963000Y-86951117D01*
X121963000Y-87292883D01*
X122029675Y-87628081D01*
X122055286Y-87689912D01*
X121037997Y-88707202D01*
X121008999Y-88731000D01*
X120985201Y-88759998D01*
X120985200Y-88759999D01*
X120914025Y-88846725D01*
X120843453Y-88978755D01*
X120799997Y-89122016D01*
X120785323Y-89271001D01*
X116103000Y-89271001D01*
X116103000Y-78257000D01*
X157963001Y-78257000D01*
X157963000Y-120117000D01*
G36*
X135405711Y-103392801D02*
G01*
X135405711Y-103870389D01*
X135402035Y-103907711D01*
X135405711Y-103945033D01*
X135405711Y-103945044D01*
X135416709Y-104056697D01*
X135429891Y-104100153D01*
X135460165Y-104199957D01*
X135530737Y-104331987D01*
X135601912Y-104418713D01*
X135625711Y-104447712D01*
X135654709Y-104471510D01*
X136339198Y-105156000D01*
X135378998Y-106116201D01*
X135350000Y-106139999D01*
X135326202Y-106168997D01*
X135326201Y-106168998D01*
X135255026Y-106255724D01*
X135184454Y-106387754D01*
X135140998Y-106531015D01*
X135126324Y-106680000D01*
X135130001Y-106717332D01*
X135130000Y-110227821D01*
X134943368Y-110352525D01*
X134736525Y-110559368D01*
X134574010Y-110802589D01*
X134462068Y-111072842D01*
X134405000Y-111359740D01*
X134405000Y-111652260D01*
X134462068Y-111939158D01*
X134505909Y-112044999D01*
X130932636Y-112044999D01*
X130965205Y-111996256D01*
X131043226Y-111807898D01*
X131083000Y-111607939D01*
X131083000Y-111404061D01*
X131043226Y-111204102D01*
X130965205Y-111015744D01*
X130851937Y-110846226D01*
X130796987Y-110791276D01*
X130757057Y-110659642D01*
X130757057Y-106722793D01*
X133850281Y-103629570D01*
X133980538Y-103683524D01*
X134180497Y-103723298D01*
X134384375Y-103723298D01*
X134584334Y-103683524D01*
X134772692Y-103605503D01*
X134942210Y-103492235D01*
X135086373Y-103348072D01*
X135196366Y-103183455D01*
X135405711Y-103392801D01*
G37*
X135405711Y-103392801D02*
X135405711Y-103870389D01*
X135402035Y-103907711D01*
X135405711Y-103945033D01*
X135405711Y-103945044D01*
X135416709Y-104056697D01*
X135429891Y-104100153D01*
X135460165Y-104199957D01*
X135530737Y-104331987D01*
X135601912Y-104418713D01*
X135625711Y-104447712D01*
X135654709Y-104471510D01*
X136339198Y-105156000D01*
X135378998Y-106116201D01*
X135350000Y-106139999D01*
X135326202Y-106168997D01*
X135326201Y-106168998D01*
X135255026Y-106255724D01*
X135184454Y-106387754D01*
X135140998Y-106531015D01*
X135126324Y-106680000D01*
X135130001Y-106717332D01*
X135130000Y-110227821D01*
X134943368Y-110352525D01*
X134736525Y-110559368D01*
X134574010Y-110802589D01*
X134462068Y-111072842D01*
X134405000Y-111359740D01*
X134405000Y-111652260D01*
X134462068Y-111939158D01*
X134505909Y-112044999D01*
X130932636Y-112044999D01*
X130965205Y-111996256D01*
X131043226Y-111807898D01*
X131083000Y-111607939D01*
X131083000Y-111404061D01*
X131043226Y-111204102D01*
X130965205Y-111015744D01*
X130851937Y-110846226D01*
X130796987Y-110791276D01*
X130757057Y-110659642D01*
X130757057Y-106722793D01*
X133850281Y-103629570D01*
X133980538Y-103683524D01*
X134180497Y-103723298D01*
X134384375Y-103723298D01*
X134584334Y-103683524D01*
X134772692Y-103605503D01*
X134942210Y-103492235D01*
X135086373Y-103348072D01*
X135196366Y-103183455D01*
X135405711Y-103392801D01*
G36*
X146914226Y-100625937D02*
G01*
X147083744Y-100739205D01*
X147099476Y-100745722D01*
X143315912Y-104529286D01*
X143254081Y-104503675D01*
X142918883Y-104437000D01*
X142577117Y-104437000D01*
X142241919Y-104503675D01*
X141926169Y-104634463D01*
X141642002Y-104824337D01*
X141632071Y-104834268D01*
X138394806Y-101597003D01*
X138371003Y-101567999D01*
X138255278Y-101473026D01*
X138123249Y-101402454D01*
X137979988Y-101358997D01*
X137868335Y-101348000D01*
X137868324Y-101348000D01*
X137831002Y-101344324D01*
X137793680Y-101348000D01*
X137728802Y-101348000D01*
X137724802Y-101344000D01*
X139154678Y-101344000D01*
X139192000Y-101347676D01*
X139229322Y-101344000D01*
X139229333Y-101344000D01*
X139340986Y-101333003D01*
X139484247Y-101289546D01*
X139616276Y-101218974D01*
X139732001Y-101124001D01*
X139755803Y-101094998D01*
X140268802Y-100582000D01*
X146870289Y-100582000D01*
X146914226Y-100625937D01*
G37*
X146914226Y-100625937D02*
X147083744Y-100739205D01*
X147099476Y-100745722D01*
X143315912Y-104529286D01*
X143254081Y-104503675D01*
X142918883Y-104437000D01*
X142577117Y-104437000D01*
X142241919Y-104503675D01*
X141926169Y-104634463D01*
X141642002Y-104824337D01*
X141632071Y-104834268D01*
X138394806Y-101597003D01*
X138371003Y-101567999D01*
X138255278Y-101473026D01*
X138123249Y-101402454D01*
X137979988Y-101358997D01*
X137868335Y-101348000D01*
X137868324Y-101348000D01*
X137831002Y-101344324D01*
X137793680Y-101348000D01*
X137728802Y-101348000D01*
X137724802Y-101344000D01*
X139154678Y-101344000D01*
X139192000Y-101347676D01*
X139229322Y-101344000D01*
X139229333Y-101344000D01*
X139340986Y-101333003D01*
X139484247Y-101289546D01*
X139616276Y-101218974D01*
X139732001Y-101124001D01*
X139755803Y-101094998D01*
X140268802Y-100582000D01*
X146870289Y-100582000D01*
X146914226Y-100625937D01*
G36*
X135617000Y-94640061D02*
G01*
X135617000Y-94843939D01*
X135656774Y-95043898D01*
X135734795Y-95232256D01*
X135848063Y-95401774D01*
X135992226Y-95545937D01*
X136161744Y-95659205D01*
X136350102Y-95737226D01*
X136550061Y-95777000D01*
X136753939Y-95777000D01*
X136953898Y-95737226D01*
X137142256Y-95659205D01*
X137311774Y-95545937D01*
X137355711Y-95502000D01*
X138115199Y-95502000D01*
X140406205Y-97793008D01*
X140429999Y-97822001D01*
X140458992Y-97845795D01*
X140458996Y-97845799D01*
X140502784Y-97881734D01*
X140545724Y-97916974D01*
X140677753Y-97987546D01*
X140821014Y-98031003D01*
X140932667Y-98042000D01*
X140932676Y-98042000D01*
X140969999Y-98045676D01*
X141007322Y-98042000D01*
X146774678Y-98042000D01*
X146812000Y-98045676D01*
X146849322Y-98042000D01*
X146849333Y-98042000D01*
X146960986Y-98031003D01*
X147104247Y-97987546D01*
X147236276Y-97916974D01*
X147352001Y-97822001D01*
X147375803Y-97792998D01*
X147562964Y-97605838D01*
X147554643Y-98787000D01*
X147472061Y-98787000D01*
X147272102Y-98826774D01*
X147083744Y-98904795D01*
X146914226Y-99018063D01*
X146870289Y-99062000D01*
X139991325Y-99062000D01*
X139954000Y-99058324D01*
X139916675Y-99062000D01*
X139916667Y-99062000D01*
X139805014Y-99072997D01*
X139661753Y-99116454D01*
X139529724Y-99187026D01*
X139413999Y-99281999D01*
X139390201Y-99310998D01*
X138877199Y-99824000D01*
X136339711Y-99824000D01*
X136295774Y-99780063D01*
X136126256Y-99666795D01*
X135937898Y-99588774D01*
X135737939Y-99549000D01*
X135675802Y-99549000D01*
X131708862Y-95582061D01*
X131685059Y-95553057D01*
X131569334Y-95458084D01*
X131437305Y-95387512D01*
X131294044Y-95344055D01*
X131182391Y-95333058D01*
X131182380Y-95333058D01*
X131145058Y-95329382D01*
X131107736Y-95333058D01*
X130045277Y-95333058D01*
X130121314Y-95149490D01*
X130175000Y-94879592D01*
X130175000Y-94604408D01*
X130157215Y-94514999D01*
X135641876Y-94514999D01*
X135617000Y-94640061D01*
G37*
X135617000Y-94640061D02*
X135617000Y-94843939D01*
X135656774Y-95043898D01*
X135734795Y-95232256D01*
X135848063Y-95401774D01*
X135992226Y-95545937D01*
X136161744Y-95659205D01*
X136350102Y-95737226D01*
X136550061Y-95777000D01*
X136753939Y-95777000D01*
X136953898Y-95737226D01*
X137142256Y-95659205D01*
X137311774Y-95545937D01*
X137355711Y-95502000D01*
X138115199Y-95502000D01*
X140406205Y-97793008D01*
X140429999Y-97822001D01*
X140458992Y-97845795D01*
X140458996Y-97845799D01*
X140502784Y-97881734D01*
X140545724Y-97916974D01*
X140677753Y-97987546D01*
X140821014Y-98031003D01*
X140932667Y-98042000D01*
X140932676Y-98042000D01*
X140969999Y-98045676D01*
X141007322Y-98042000D01*
X146774678Y-98042000D01*
X146812000Y-98045676D01*
X146849322Y-98042000D01*
X146849333Y-98042000D01*
X146960986Y-98031003D01*
X147104247Y-97987546D01*
X147236276Y-97916974D01*
X147352001Y-97822001D01*
X147375803Y-97792998D01*
X147562964Y-97605838D01*
X147554643Y-98787000D01*
X147472061Y-98787000D01*
X147272102Y-98826774D01*
X147083744Y-98904795D01*
X146914226Y-99018063D01*
X146870289Y-99062000D01*
X139991325Y-99062000D01*
X139954000Y-99058324D01*
X139916675Y-99062000D01*
X139916667Y-99062000D01*
X139805014Y-99072997D01*
X139661753Y-99116454D01*
X139529724Y-99187026D01*
X139413999Y-99281999D01*
X139390201Y-99310998D01*
X138877199Y-99824000D01*
X136339711Y-99824000D01*
X136295774Y-99780063D01*
X136126256Y-99666795D01*
X135937898Y-99588774D01*
X135737939Y-99549000D01*
X135675802Y-99549000D01*
X131708862Y-95582061D01*
X131685059Y-95553057D01*
X131569334Y-95458084D01*
X131437305Y-95387512D01*
X131294044Y-95344055D01*
X131182391Y-95333058D01*
X131182380Y-95333058D01*
X131145058Y-95329382D01*
X131107736Y-95333058D01*
X130045277Y-95333058D01*
X130121314Y-95149490D01*
X130175000Y-94879592D01*
X130175000Y-94604408D01*
X130157215Y-94514999D01*
X135641876Y-94514999D01*
X135617000Y-94640061D01*
M02*
