G04 #@! TF.GenerationSoftware,KiCad,Pcbnew,5.1.5+dfsg1-2build2*
G04 #@! TF.CreationDate,2020-07-26T19:57:25+10:00*
G04 #@! TF.ProjectId,macr0,6d616372-302e-46b6-9963-61645f706362,rev?*
G04 #@! TF.SameCoordinates,Original*
G04 #@! TF.FileFunction,Soldermask,Bot*
G04 #@! TF.FilePolarity,Negative*
%FSLAX46Y46*%
G04 Gerber Fmt 4.6, Leading zero omitted, Abs format (unit mm)*
G04 Created by KiCad (PCBNEW 5.1.5+dfsg1-2build2) date 2020-07-26 19:57:25*
%MOMM*%
%LPD*%
G04 APERTURE LIST*
%ADD10C,0.100000*%
G04 APERTURE END LIST*
D10*
G36*
X138543512Y-115689927D02*
G01*
X138692812Y-115719624D01*
X138856784Y-115787544D01*
X139004354Y-115886147D01*
X139129853Y-116011646D01*
X139228456Y-116159216D01*
X139296376Y-116323188D01*
X139331000Y-116497259D01*
X139331000Y-116674741D01*
X139296376Y-116848812D01*
X139228456Y-117012784D01*
X139129853Y-117160354D01*
X139004354Y-117285853D01*
X138856784Y-117384456D01*
X138692812Y-117452376D01*
X138543512Y-117482073D01*
X138518742Y-117487000D01*
X138341258Y-117487000D01*
X138316488Y-117482073D01*
X138167188Y-117452376D01*
X138003216Y-117384456D01*
X137855646Y-117285853D01*
X137730147Y-117160354D01*
X137631544Y-117012784D01*
X137563624Y-116848812D01*
X137529000Y-116674741D01*
X137529000Y-116497259D01*
X137563624Y-116323188D01*
X137631544Y-116159216D01*
X137730147Y-116011646D01*
X137855646Y-115886147D01*
X138003216Y-115787544D01*
X138167188Y-115719624D01*
X138316488Y-115689927D01*
X138341258Y-115685000D01*
X138518742Y-115685000D01*
X138543512Y-115689927D01*
G37*
G36*
X136003512Y-115689927D02*
G01*
X136152812Y-115719624D01*
X136316784Y-115787544D01*
X136464354Y-115886147D01*
X136589853Y-116011646D01*
X136688456Y-116159216D01*
X136756376Y-116323188D01*
X136791000Y-116497259D01*
X136791000Y-116674741D01*
X136756376Y-116848812D01*
X136688456Y-117012784D01*
X136589853Y-117160354D01*
X136464354Y-117285853D01*
X136316784Y-117384456D01*
X136152812Y-117452376D01*
X136003512Y-117482073D01*
X135978742Y-117487000D01*
X135801258Y-117487000D01*
X135776488Y-117482073D01*
X135627188Y-117452376D01*
X135463216Y-117384456D01*
X135315646Y-117285853D01*
X135190147Y-117160354D01*
X135091544Y-117012784D01*
X135023624Y-116848812D01*
X134989000Y-116674741D01*
X134989000Y-116497259D01*
X135023624Y-116323188D01*
X135091544Y-116159216D01*
X135190147Y-116011646D01*
X135315646Y-115886147D01*
X135463216Y-115787544D01*
X135627188Y-115719624D01*
X135776488Y-115689927D01*
X135801258Y-115685000D01*
X135978742Y-115685000D01*
X136003512Y-115689927D01*
G37*
G36*
X142761562Y-115826681D02*
G01*
X142796481Y-115837274D01*
X142828663Y-115854476D01*
X142856873Y-115877627D01*
X142880024Y-115905837D01*
X142897226Y-115938019D01*
X142907819Y-115972938D01*
X142912000Y-116015395D01*
X142912000Y-117156605D01*
X142907819Y-117199062D01*
X142897226Y-117233981D01*
X142880024Y-117266163D01*
X142856873Y-117294373D01*
X142828663Y-117317524D01*
X142796481Y-117334726D01*
X142761562Y-117345319D01*
X142719105Y-117349500D01*
X141252895Y-117349500D01*
X141210438Y-117345319D01*
X141175519Y-117334726D01*
X141143337Y-117317524D01*
X141115127Y-117294373D01*
X141091976Y-117266163D01*
X141074774Y-117233981D01*
X141064181Y-117199062D01*
X141060000Y-117156605D01*
X141060000Y-116015395D01*
X141064181Y-115972938D01*
X141074774Y-115938019D01*
X141091976Y-115905837D01*
X141115127Y-115877627D01*
X141143337Y-115854476D01*
X141175519Y-115837274D01*
X141210438Y-115826681D01*
X141252895Y-115822500D01*
X142719105Y-115822500D01*
X142761562Y-115826681D01*
G37*
G36*
X132347562Y-113794681D02*
G01*
X132382481Y-113805274D01*
X132414663Y-113822476D01*
X132442873Y-113845627D01*
X132466024Y-113873837D01*
X132483226Y-113906019D01*
X132493819Y-113940938D01*
X132498000Y-113983395D01*
X132498000Y-115124605D01*
X132493819Y-115167062D01*
X132483226Y-115201981D01*
X132466024Y-115234163D01*
X132442873Y-115262373D01*
X132414663Y-115285524D01*
X132382481Y-115302726D01*
X132347562Y-115313319D01*
X132305105Y-115317500D01*
X130838895Y-115317500D01*
X130796438Y-115313319D01*
X130761519Y-115302726D01*
X130729337Y-115285524D01*
X130701127Y-115262373D01*
X130677976Y-115234163D01*
X130660774Y-115201981D01*
X130650181Y-115167062D01*
X130646000Y-115124605D01*
X130646000Y-113983395D01*
X130650181Y-113940938D01*
X130660774Y-113906019D01*
X130677976Y-113873837D01*
X130701127Y-113845627D01*
X130729337Y-113822476D01*
X130761519Y-113805274D01*
X130796438Y-113794681D01*
X130838895Y-113790500D01*
X132305105Y-113790500D01*
X132347562Y-113794681D01*
G37*
G36*
X138543512Y-113149927D02*
G01*
X138692812Y-113179624D01*
X138856784Y-113247544D01*
X139004354Y-113346147D01*
X139129853Y-113471646D01*
X139228456Y-113619216D01*
X139296376Y-113783188D01*
X139331000Y-113957259D01*
X139331000Y-114134741D01*
X139296376Y-114308812D01*
X139228456Y-114472784D01*
X139129853Y-114620354D01*
X139004354Y-114745853D01*
X138856784Y-114844456D01*
X138692812Y-114912376D01*
X138543512Y-114942073D01*
X138518742Y-114947000D01*
X138341258Y-114947000D01*
X138316488Y-114942073D01*
X138167188Y-114912376D01*
X138003216Y-114844456D01*
X137855646Y-114745853D01*
X137730147Y-114620354D01*
X137631544Y-114472784D01*
X137563624Y-114308812D01*
X137529000Y-114134741D01*
X137529000Y-113957259D01*
X137563624Y-113783188D01*
X137631544Y-113619216D01*
X137730147Y-113471646D01*
X137855646Y-113346147D01*
X138003216Y-113247544D01*
X138167188Y-113179624D01*
X138316488Y-113149927D01*
X138341258Y-113145000D01*
X138518742Y-113145000D01*
X138543512Y-113149927D01*
G37*
G36*
X136003512Y-113149927D02*
G01*
X136152812Y-113179624D01*
X136316784Y-113247544D01*
X136464354Y-113346147D01*
X136589853Y-113471646D01*
X136688456Y-113619216D01*
X136756376Y-113783188D01*
X136791000Y-113957259D01*
X136791000Y-114134741D01*
X136756376Y-114308812D01*
X136688456Y-114472784D01*
X136589853Y-114620354D01*
X136464354Y-114745853D01*
X136316784Y-114844456D01*
X136152812Y-114912376D01*
X136003512Y-114942073D01*
X135978742Y-114947000D01*
X135801258Y-114947000D01*
X135776488Y-114942073D01*
X135627188Y-114912376D01*
X135463216Y-114844456D01*
X135315646Y-114745853D01*
X135190147Y-114620354D01*
X135091544Y-114472784D01*
X135023624Y-114308812D01*
X134989000Y-114134741D01*
X134989000Y-113957259D01*
X135023624Y-113783188D01*
X135091544Y-113619216D01*
X135190147Y-113471646D01*
X135315646Y-113346147D01*
X135463216Y-113247544D01*
X135627188Y-113179624D01*
X135776488Y-113149927D01*
X135801258Y-113145000D01*
X135978742Y-113145000D01*
X136003512Y-113149927D01*
G37*
G36*
X129015142Y-113010242D02*
G01*
X129163101Y-113071529D01*
X129296255Y-113160499D01*
X129409501Y-113273745D01*
X129498471Y-113406899D01*
X129559758Y-113554858D01*
X129591000Y-113711925D01*
X129591000Y-113872075D01*
X129559758Y-114029142D01*
X129498471Y-114177101D01*
X129409501Y-114310255D01*
X129296255Y-114423501D01*
X129163101Y-114512471D01*
X129015142Y-114573758D01*
X128858075Y-114605000D01*
X128697925Y-114605000D01*
X128540858Y-114573758D01*
X128392899Y-114512471D01*
X128259745Y-114423501D01*
X128146499Y-114310255D01*
X128057529Y-114177101D01*
X127996242Y-114029142D01*
X127965000Y-113872075D01*
X127965000Y-113711925D01*
X127996242Y-113554858D01*
X128057529Y-113406899D01*
X128146499Y-113273745D01*
X128259745Y-113160499D01*
X128392899Y-113071529D01*
X128540858Y-113010242D01*
X128697925Y-112979000D01*
X128858075Y-112979000D01*
X129015142Y-113010242D01*
G37*
G36*
X126475142Y-113010242D02*
G01*
X126623101Y-113071529D01*
X126756255Y-113160499D01*
X126869501Y-113273745D01*
X126958471Y-113406899D01*
X127019758Y-113554858D01*
X127051000Y-113711925D01*
X127051000Y-113872075D01*
X127019758Y-114029142D01*
X126958471Y-114177101D01*
X126869501Y-114310255D01*
X126756255Y-114423501D01*
X126623101Y-114512471D01*
X126475142Y-114573758D01*
X126318075Y-114605000D01*
X126157925Y-114605000D01*
X126000858Y-114573758D01*
X125852899Y-114512471D01*
X125719745Y-114423501D01*
X125606499Y-114310255D01*
X125517529Y-114177101D01*
X125456242Y-114029142D01*
X125425000Y-113872075D01*
X125425000Y-113711925D01*
X125456242Y-113554858D01*
X125517529Y-113406899D01*
X125606499Y-113273745D01*
X125719745Y-113160499D01*
X125852899Y-113071529D01*
X126000858Y-113010242D01*
X126157925Y-112979000D01*
X126318075Y-112979000D01*
X126475142Y-113010242D01*
G37*
G36*
X145525142Y-113010242D02*
G01*
X145673101Y-113071529D01*
X145806255Y-113160499D01*
X145919501Y-113273745D01*
X146008471Y-113406899D01*
X146069758Y-113554858D01*
X146101000Y-113711925D01*
X146101000Y-113872075D01*
X146069758Y-114029142D01*
X146008471Y-114177101D01*
X145919501Y-114310255D01*
X145806255Y-114423501D01*
X145673101Y-114512471D01*
X145525142Y-114573758D01*
X145368075Y-114605000D01*
X145207925Y-114605000D01*
X145050858Y-114573758D01*
X144902899Y-114512471D01*
X144769745Y-114423501D01*
X144656499Y-114310255D01*
X144567529Y-114177101D01*
X144506242Y-114029142D01*
X144475000Y-113872075D01*
X144475000Y-113711925D01*
X144506242Y-113554858D01*
X144567529Y-113406899D01*
X144656499Y-113273745D01*
X144769745Y-113160499D01*
X144902899Y-113071529D01*
X145050858Y-113010242D01*
X145207925Y-112979000D01*
X145368075Y-112979000D01*
X145525142Y-113010242D01*
G37*
G36*
X148065142Y-113010242D02*
G01*
X148213101Y-113071529D01*
X148346255Y-113160499D01*
X148459501Y-113273745D01*
X148548471Y-113406899D01*
X148609758Y-113554858D01*
X148641000Y-113711925D01*
X148641000Y-113872075D01*
X148609758Y-114029142D01*
X148548471Y-114177101D01*
X148459501Y-114310255D01*
X148346255Y-114423501D01*
X148213101Y-114512471D01*
X148065142Y-114573758D01*
X147908075Y-114605000D01*
X147747925Y-114605000D01*
X147590858Y-114573758D01*
X147442899Y-114512471D01*
X147309745Y-114423501D01*
X147196499Y-114310255D01*
X147107529Y-114177101D01*
X147046242Y-114029142D01*
X147015000Y-113872075D01*
X147015000Y-113711925D01*
X147046242Y-113554858D01*
X147107529Y-113406899D01*
X147196499Y-113273745D01*
X147309745Y-113160499D01*
X147442899Y-113071529D01*
X147590858Y-113010242D01*
X147747925Y-112979000D01*
X147908075Y-112979000D01*
X148065142Y-113010242D01*
G37*
G36*
X142761562Y-112851681D02*
G01*
X142796481Y-112862274D01*
X142828663Y-112879476D01*
X142856873Y-112902627D01*
X142880024Y-112930837D01*
X142897226Y-112963019D01*
X142907819Y-112997938D01*
X142912000Y-113040395D01*
X142912000Y-114181605D01*
X142907819Y-114224062D01*
X142897226Y-114258981D01*
X142880024Y-114291163D01*
X142856873Y-114319373D01*
X142828663Y-114342524D01*
X142796481Y-114359726D01*
X142761562Y-114370319D01*
X142719105Y-114374500D01*
X141252895Y-114374500D01*
X141210438Y-114370319D01*
X141175519Y-114359726D01*
X141143337Y-114342524D01*
X141115127Y-114319373D01*
X141091976Y-114291163D01*
X141074774Y-114258981D01*
X141064181Y-114224062D01*
X141060000Y-114181605D01*
X141060000Y-113040395D01*
X141064181Y-112997938D01*
X141074774Y-112963019D01*
X141091976Y-112930837D01*
X141115127Y-112902627D01*
X141143337Y-112879476D01*
X141175519Y-112862274D01*
X141210438Y-112851681D01*
X141252895Y-112847500D01*
X142719105Y-112847500D01*
X142761562Y-112851681D01*
G37*
G36*
X152624000Y-113733000D02*
G01*
X151922000Y-113733000D01*
X151922000Y-111431000D01*
X152624000Y-111431000D01*
X152624000Y-113733000D01*
G37*
G36*
X155164000Y-113733000D02*
G01*
X154462000Y-113733000D01*
X154462000Y-111431000D01*
X155164000Y-111431000D01*
X155164000Y-113733000D01*
G37*
G36*
X153894000Y-113733000D02*
G01*
X153192000Y-113733000D01*
X153192000Y-111431000D01*
X153894000Y-111431000D01*
X153894000Y-113733000D01*
G37*
G36*
X151354000Y-113733000D02*
G01*
X150652000Y-113733000D01*
X150652000Y-111431000D01*
X151354000Y-111431000D01*
X151354000Y-113733000D01*
G37*
G36*
X136003512Y-110609927D02*
G01*
X136152812Y-110639624D01*
X136316784Y-110707544D01*
X136464354Y-110806147D01*
X136589853Y-110931646D01*
X136688456Y-111079216D01*
X136756376Y-111243188D01*
X136791000Y-111417259D01*
X136791000Y-111594741D01*
X136756376Y-111768812D01*
X136688456Y-111932784D01*
X136589853Y-112080354D01*
X136464354Y-112205853D01*
X136316784Y-112304456D01*
X136152812Y-112372376D01*
X136003512Y-112402073D01*
X135978742Y-112407000D01*
X135801258Y-112407000D01*
X135776488Y-112402073D01*
X135627188Y-112372376D01*
X135463216Y-112304456D01*
X135315646Y-112205853D01*
X135190147Y-112080354D01*
X135091544Y-111932784D01*
X135023624Y-111768812D01*
X134989000Y-111594741D01*
X134989000Y-111417259D01*
X135023624Y-111243188D01*
X135091544Y-111079216D01*
X135190147Y-110931646D01*
X135315646Y-110806147D01*
X135463216Y-110707544D01*
X135627188Y-110639624D01*
X135776488Y-110609927D01*
X135801258Y-110605000D01*
X135978742Y-110605000D01*
X136003512Y-110609927D01*
G37*
G36*
X139331000Y-112407000D02*
G01*
X137529000Y-112407000D01*
X137529000Y-110605000D01*
X139331000Y-110605000D01*
X139331000Y-112407000D01*
G37*
G36*
X132347562Y-110819681D02*
G01*
X132382481Y-110830274D01*
X132414663Y-110847476D01*
X132442873Y-110870627D01*
X132466024Y-110898837D01*
X132483226Y-110931019D01*
X132493819Y-110965938D01*
X132498000Y-111008395D01*
X132498000Y-112149605D01*
X132493819Y-112192062D01*
X132483226Y-112226981D01*
X132466024Y-112259163D01*
X132442873Y-112287373D01*
X132414663Y-112310524D01*
X132382481Y-112327726D01*
X132347562Y-112338319D01*
X132305105Y-112342500D01*
X130838895Y-112342500D01*
X130796438Y-112338319D01*
X130761519Y-112327726D01*
X130729337Y-112310524D01*
X130701127Y-112287373D01*
X130677976Y-112259163D01*
X130660774Y-112226981D01*
X130650181Y-112192062D01*
X130646000Y-112149605D01*
X130646000Y-111008395D01*
X130650181Y-110965938D01*
X130660774Y-110931019D01*
X130677976Y-110898837D01*
X130701127Y-110870627D01*
X130729337Y-110847476D01*
X130761519Y-110830274D01*
X130796438Y-110819681D01*
X130838895Y-110815500D01*
X132305105Y-110815500D01*
X132347562Y-110819681D01*
G37*
G36*
X147156254Y-106739818D02*
G01*
X147529511Y-106894426D01*
X147529513Y-106894427D01*
X147865436Y-107118884D01*
X148151116Y-107404564D01*
X148375574Y-107740489D01*
X148530182Y-108113746D01*
X148609000Y-108509993D01*
X148609000Y-108914007D01*
X148530182Y-109310254D01*
X148375574Y-109683511D01*
X148375573Y-109683513D01*
X148151116Y-110019436D01*
X147865436Y-110305116D01*
X147529513Y-110529573D01*
X147529512Y-110529574D01*
X147529511Y-110529574D01*
X147156254Y-110684182D01*
X146760007Y-110763000D01*
X146355993Y-110763000D01*
X145959746Y-110684182D01*
X145586489Y-110529574D01*
X145586488Y-110529574D01*
X145586487Y-110529573D01*
X145250564Y-110305116D01*
X144964884Y-110019436D01*
X144740427Y-109683513D01*
X144740426Y-109683511D01*
X144585818Y-109310254D01*
X144507000Y-108914007D01*
X144507000Y-108509993D01*
X144585818Y-108113746D01*
X144740426Y-107740489D01*
X144964884Y-107404564D01*
X145250564Y-107118884D01*
X145586487Y-106894427D01*
X145586489Y-106894426D01*
X145959746Y-106739818D01*
X146355993Y-106661000D01*
X146760007Y-106661000D01*
X147156254Y-106739818D01*
G37*
G36*
X128106254Y-106739818D02*
G01*
X128479511Y-106894426D01*
X128479513Y-106894427D01*
X128815436Y-107118884D01*
X129101116Y-107404564D01*
X129325574Y-107740489D01*
X129480182Y-108113746D01*
X129559000Y-108509993D01*
X129559000Y-108914007D01*
X129480182Y-109310254D01*
X129325574Y-109683511D01*
X129325573Y-109683513D01*
X129101116Y-110019436D01*
X128815436Y-110305116D01*
X128479513Y-110529573D01*
X128479512Y-110529574D01*
X128479511Y-110529574D01*
X128106254Y-110684182D01*
X127710007Y-110763000D01*
X127305993Y-110763000D01*
X126909746Y-110684182D01*
X126536489Y-110529574D01*
X126536488Y-110529574D01*
X126536487Y-110529573D01*
X126200564Y-110305116D01*
X125914884Y-110019436D01*
X125690427Y-109683513D01*
X125690426Y-109683511D01*
X125535818Y-109310254D01*
X125457000Y-108914007D01*
X125457000Y-108509993D01*
X125535818Y-108113746D01*
X125690426Y-107740489D01*
X125914884Y-107404564D01*
X126200564Y-107118884D01*
X126536487Y-106894427D01*
X126536489Y-106894426D01*
X126909746Y-106739818D01*
X127305993Y-106661000D01*
X127710007Y-106661000D01*
X128106254Y-106739818D01*
G37*
G36*
X131496062Y-107155181D02*
G01*
X131530981Y-107165774D01*
X131563163Y-107182976D01*
X131591373Y-107206127D01*
X131614524Y-107234337D01*
X131631726Y-107266519D01*
X131642319Y-107301438D01*
X131646500Y-107343895D01*
X131646500Y-108810105D01*
X131642319Y-108852562D01*
X131631726Y-108887481D01*
X131614524Y-108919663D01*
X131591373Y-108947873D01*
X131563163Y-108971024D01*
X131530981Y-108988226D01*
X131496062Y-108998819D01*
X131453605Y-109003000D01*
X130312395Y-109003000D01*
X130269938Y-108998819D01*
X130235019Y-108988226D01*
X130202837Y-108971024D01*
X130174627Y-108947873D01*
X130151476Y-108919663D01*
X130134274Y-108887481D01*
X130123681Y-108852562D01*
X130119500Y-108810105D01*
X130119500Y-107343895D01*
X130123681Y-107301438D01*
X130134274Y-107266519D01*
X130151476Y-107234337D01*
X130174627Y-107206127D01*
X130202837Y-107182976D01*
X130235019Y-107165774D01*
X130269938Y-107155181D01*
X130312395Y-107151000D01*
X131453605Y-107151000D01*
X131496062Y-107155181D01*
G37*
G36*
X134471062Y-107155181D02*
G01*
X134505981Y-107165774D01*
X134538163Y-107182976D01*
X134566373Y-107206127D01*
X134589524Y-107234337D01*
X134606726Y-107266519D01*
X134617319Y-107301438D01*
X134621500Y-107343895D01*
X134621500Y-108810105D01*
X134617319Y-108852562D01*
X134606726Y-108887481D01*
X134589524Y-108919663D01*
X134566373Y-108947873D01*
X134538163Y-108971024D01*
X134505981Y-108988226D01*
X134471062Y-108998819D01*
X134428605Y-109003000D01*
X133287395Y-109003000D01*
X133244938Y-108998819D01*
X133210019Y-108988226D01*
X133177837Y-108971024D01*
X133149627Y-108947873D01*
X133126476Y-108919663D01*
X133109274Y-108887481D01*
X133098681Y-108852562D01*
X133094500Y-108810105D01*
X133094500Y-107343895D01*
X133098681Y-107301438D01*
X133109274Y-107266519D01*
X133126476Y-107234337D01*
X133149627Y-107206127D01*
X133177837Y-107182976D01*
X133210019Y-107165774D01*
X133244938Y-107155181D01*
X133287395Y-107151000D01*
X134428605Y-107151000D01*
X134471062Y-107155181D01*
G37*
G36*
X120939000Y-108890500D02*
G01*
X118837000Y-108890500D01*
X118837000Y-100913500D01*
X120939000Y-100913500D01*
X120939000Y-108890500D01*
G37*
G36*
X152624000Y-108533000D02*
G01*
X151922000Y-108533000D01*
X151922000Y-106231000D01*
X152624000Y-106231000D01*
X152624000Y-108533000D01*
G37*
G36*
X153894000Y-108533000D02*
G01*
X153192000Y-108533000D01*
X153192000Y-106231000D01*
X153894000Y-106231000D01*
X153894000Y-108533000D01*
G37*
G36*
X155164000Y-108533000D02*
G01*
X154462000Y-108533000D01*
X154462000Y-106231000D01*
X155164000Y-106231000D01*
X155164000Y-108533000D01*
G37*
G36*
X151354000Y-108533000D02*
G01*
X150652000Y-108533000D01*
X150652000Y-106231000D01*
X151354000Y-106231000D01*
X151354000Y-108533000D01*
G37*
G36*
X145323845Y-101359958D02*
G01*
X144774424Y-101909379D01*
X144208738Y-102475064D01*
X143715177Y-102968626D01*
X140814626Y-105869177D01*
X140248940Y-106434862D01*
X139755379Y-106928424D01*
X139205958Y-107477845D01*
X138073173Y-106345060D01*
X138534206Y-105884027D01*
X138550471Y-105867763D01*
X138550480Y-105867752D01*
X139753954Y-104664278D01*
X139753965Y-104664269D01*
X139770230Y-104648005D01*
X139770229Y-104648004D01*
X140231262Y-104186971D01*
X140231263Y-104186972D01*
X140247527Y-104170707D01*
X140247536Y-104170696D01*
X140885325Y-103532907D01*
X140885336Y-103532898D01*
X140901601Y-103516634D01*
X140901600Y-103516633D01*
X141362633Y-103055600D01*
X141362634Y-103055601D01*
X141378898Y-103039336D01*
X141378907Y-103039325D01*
X142016696Y-102401536D01*
X142016707Y-102401527D01*
X142032972Y-102385263D01*
X142032971Y-102385262D01*
X142494004Y-101924229D01*
X142494005Y-101924230D01*
X142510269Y-101907965D01*
X142510278Y-101907954D01*
X143713752Y-100704480D01*
X143713763Y-100704471D01*
X143730027Y-100688206D01*
X144191060Y-100227173D01*
X145323845Y-101359958D01*
G37*
G36*
X131622238Y-100704471D02*
G01*
X131622244Y-100704476D01*
X132825727Y-101907959D01*
X132825732Y-101907965D01*
X133319294Y-102401527D01*
X133319300Y-102401532D01*
X133957098Y-103039330D01*
X133957103Y-103039336D01*
X134450665Y-103532898D01*
X134450671Y-103532903D01*
X135088469Y-104170701D01*
X135088474Y-104170707D01*
X135582036Y-104664269D01*
X135582042Y-104664274D01*
X136785525Y-105867757D01*
X136785530Y-105867763D01*
X137262827Y-106345060D01*
X136130042Y-107477845D01*
X135580627Y-106928430D01*
X135580622Y-106928424D01*
X134521375Y-105869177D01*
X134521369Y-105869172D01*
X133883571Y-105231374D01*
X133883566Y-105231368D01*
X133390004Y-104737806D01*
X133389998Y-104737801D01*
X132752200Y-104100003D01*
X132752195Y-104099997D01*
X132258633Y-103606435D01*
X132258627Y-103606430D01*
X131620829Y-102968632D01*
X131620824Y-102968626D01*
X130561577Y-101909379D01*
X130561571Y-101909374D01*
X130012155Y-101359958D01*
X131144940Y-100227173D01*
X131622238Y-100704471D01*
G37*
G36*
X142972549Y-105043116D02*
G01*
X143083734Y-105065232D01*
X143293203Y-105151997D01*
X143481720Y-105277960D01*
X143642040Y-105438280D01*
X143768003Y-105626797D01*
X143854768Y-105836266D01*
X143899000Y-106058636D01*
X143899000Y-106285364D01*
X143854768Y-106507734D01*
X143768003Y-106717203D01*
X143642040Y-106905720D01*
X143481720Y-107066040D01*
X143293203Y-107192003D01*
X143083734Y-107278768D01*
X142972549Y-107300884D01*
X142861365Y-107323000D01*
X142634635Y-107323000D01*
X142523451Y-107300884D01*
X142412266Y-107278768D01*
X142202797Y-107192003D01*
X142014280Y-107066040D01*
X141853960Y-106905720D01*
X141727997Y-106717203D01*
X141641232Y-106507734D01*
X141597000Y-106285364D01*
X141597000Y-106058636D01*
X141641232Y-105836266D01*
X141727997Y-105626797D01*
X141853960Y-105438280D01*
X142014280Y-105277960D01*
X142202797Y-105151997D01*
X142412266Y-105065232D01*
X142523451Y-105043116D01*
X142634635Y-105021000D01*
X142861365Y-105021000D01*
X142972549Y-105043116D01*
G37*
G36*
X123922549Y-105043116D02*
G01*
X124033734Y-105065232D01*
X124243203Y-105151997D01*
X124431720Y-105277960D01*
X124592040Y-105438280D01*
X124718003Y-105626797D01*
X124804768Y-105836266D01*
X124849000Y-106058636D01*
X124849000Y-106285364D01*
X124804768Y-106507734D01*
X124718003Y-106717203D01*
X124592040Y-106905720D01*
X124431720Y-107066040D01*
X124243203Y-107192003D01*
X124033734Y-107278768D01*
X123922549Y-107300884D01*
X123811365Y-107323000D01*
X123584635Y-107323000D01*
X123473451Y-107300884D01*
X123362266Y-107278768D01*
X123152797Y-107192003D01*
X122964280Y-107066040D01*
X122803960Y-106905720D01*
X122677997Y-106717203D01*
X122591232Y-106507734D01*
X122547000Y-106285364D01*
X122547000Y-106058636D01*
X122591232Y-105836266D01*
X122677997Y-105626797D01*
X122803960Y-105438280D01*
X122964280Y-105277960D01*
X123152797Y-105151997D01*
X123362266Y-105065232D01*
X123473451Y-105043116D01*
X123584635Y-105021000D01*
X123811365Y-105021000D01*
X123922549Y-105043116D01*
G37*
G36*
X130206178Y-102489914D02*
G01*
X130383734Y-102525232D01*
X130593203Y-102611997D01*
X130781720Y-102737960D01*
X130942040Y-102898280D01*
X131068003Y-103086797D01*
X131154768Y-103296266D01*
X131199000Y-103518636D01*
X131199000Y-103745364D01*
X131154768Y-103967734D01*
X131068003Y-104177203D01*
X130942040Y-104365720D01*
X130781720Y-104526040D01*
X130593203Y-104652003D01*
X130593202Y-104652004D01*
X130593201Y-104652004D01*
X130563578Y-104664274D01*
X130383734Y-104738768D01*
X130313914Y-104752656D01*
X130161365Y-104783000D01*
X129934635Y-104783000D01*
X129782086Y-104752656D01*
X129712266Y-104738768D01*
X129532422Y-104664274D01*
X129502799Y-104652004D01*
X129502798Y-104652004D01*
X129502797Y-104652003D01*
X129314280Y-104526040D01*
X129153960Y-104365720D01*
X129027997Y-104177203D01*
X128941232Y-103967734D01*
X128897000Y-103745364D01*
X128897000Y-103518636D01*
X128941232Y-103296266D01*
X129027997Y-103086797D01*
X129153960Y-102898280D01*
X129314280Y-102737960D01*
X129502797Y-102611997D01*
X129712266Y-102525232D01*
X129889822Y-102489914D01*
X129934635Y-102481000D01*
X130161365Y-102481000D01*
X130206178Y-102489914D01*
G37*
G36*
X149256178Y-102489914D02*
G01*
X149433734Y-102525232D01*
X149643203Y-102611997D01*
X149831720Y-102737960D01*
X149992040Y-102898280D01*
X150118003Y-103086797D01*
X150204768Y-103296266D01*
X150249000Y-103518636D01*
X150249000Y-103745364D01*
X150204768Y-103967734D01*
X150118003Y-104177203D01*
X149992040Y-104365720D01*
X149831720Y-104526040D01*
X149643203Y-104652003D01*
X149643202Y-104652004D01*
X149643201Y-104652004D01*
X149613578Y-104664274D01*
X149433734Y-104738768D01*
X149363914Y-104752656D01*
X149211365Y-104783000D01*
X148984635Y-104783000D01*
X148832086Y-104752656D01*
X148762266Y-104738768D01*
X148582422Y-104664274D01*
X148552799Y-104652004D01*
X148552798Y-104652004D01*
X148552797Y-104652003D01*
X148364280Y-104526040D01*
X148203960Y-104365720D01*
X148077997Y-104177203D01*
X147991232Y-103967734D01*
X147947000Y-103745364D01*
X147947000Y-103518636D01*
X147991232Y-103296266D01*
X148077997Y-103086797D01*
X148203960Y-102898280D01*
X148364280Y-102737960D01*
X148552797Y-102611997D01*
X148762266Y-102525232D01*
X148939822Y-102489914D01*
X148984635Y-102481000D01*
X149211365Y-102481000D01*
X149256178Y-102489914D01*
G37*
G36*
X124311062Y-102710181D02*
G01*
X124345981Y-102720774D01*
X124378163Y-102737976D01*
X124406373Y-102761127D01*
X124429524Y-102789337D01*
X124446726Y-102821519D01*
X124457319Y-102856438D01*
X124461500Y-102898895D01*
X124461500Y-104365105D01*
X124457319Y-104407562D01*
X124446726Y-104442481D01*
X124429524Y-104474663D01*
X124406373Y-104502873D01*
X124378163Y-104526024D01*
X124345981Y-104543226D01*
X124311062Y-104553819D01*
X124268605Y-104558000D01*
X123127395Y-104558000D01*
X123084938Y-104553819D01*
X123050019Y-104543226D01*
X123017837Y-104526024D01*
X122989627Y-104502873D01*
X122966476Y-104474663D01*
X122949274Y-104442481D01*
X122938681Y-104407562D01*
X122934500Y-104365105D01*
X122934500Y-102898895D01*
X122938681Y-102856438D01*
X122949274Y-102821519D01*
X122966476Y-102789337D01*
X122989627Y-102761127D01*
X123017837Y-102737976D01*
X123050019Y-102720774D01*
X123084938Y-102710181D01*
X123127395Y-102706000D01*
X124268605Y-102706000D01*
X124311062Y-102710181D01*
G37*
G36*
X127286062Y-102710181D02*
G01*
X127320981Y-102720774D01*
X127353163Y-102737976D01*
X127381373Y-102761127D01*
X127404524Y-102789337D01*
X127421726Y-102821519D01*
X127432319Y-102856438D01*
X127436500Y-102898895D01*
X127436500Y-104365105D01*
X127432319Y-104407562D01*
X127421726Y-104442481D01*
X127404524Y-104474663D01*
X127381373Y-104502873D01*
X127353163Y-104526024D01*
X127320981Y-104543226D01*
X127286062Y-104553819D01*
X127243605Y-104558000D01*
X126102395Y-104558000D01*
X126059938Y-104553819D01*
X126025019Y-104543226D01*
X125992837Y-104526024D01*
X125964627Y-104502873D01*
X125941476Y-104474663D01*
X125924274Y-104442481D01*
X125913681Y-104407562D01*
X125909500Y-104365105D01*
X125909500Y-102898895D01*
X125913681Y-102856438D01*
X125924274Y-102821519D01*
X125941476Y-102789337D01*
X125964627Y-102761127D01*
X125992837Y-102737976D01*
X126025019Y-102720774D01*
X126059938Y-102710181D01*
X126102395Y-102706000D01*
X127243605Y-102706000D01*
X127286062Y-102710181D01*
G37*
G36*
X152759062Y-102710181D02*
G01*
X152793981Y-102720774D01*
X152826163Y-102737976D01*
X152854373Y-102761127D01*
X152877524Y-102789337D01*
X152894726Y-102821519D01*
X152905319Y-102856438D01*
X152909500Y-102898895D01*
X152909500Y-104365105D01*
X152905319Y-104407562D01*
X152894726Y-104442481D01*
X152877524Y-104474663D01*
X152854373Y-104502873D01*
X152826163Y-104526024D01*
X152793981Y-104543226D01*
X152759062Y-104553819D01*
X152716605Y-104558000D01*
X151575395Y-104558000D01*
X151532938Y-104553819D01*
X151498019Y-104543226D01*
X151465837Y-104526024D01*
X151437627Y-104502873D01*
X151414476Y-104474663D01*
X151397274Y-104442481D01*
X151386681Y-104407562D01*
X151382500Y-104365105D01*
X151382500Y-102898895D01*
X151386681Y-102856438D01*
X151397274Y-102821519D01*
X151414476Y-102789337D01*
X151437627Y-102761127D01*
X151465837Y-102737976D01*
X151498019Y-102720774D01*
X151532938Y-102710181D01*
X151575395Y-102706000D01*
X152716605Y-102706000D01*
X152759062Y-102710181D01*
G37*
G36*
X155734062Y-102710181D02*
G01*
X155768981Y-102720774D01*
X155801163Y-102737976D01*
X155829373Y-102761127D01*
X155852524Y-102789337D01*
X155869726Y-102821519D01*
X155880319Y-102856438D01*
X155884500Y-102898895D01*
X155884500Y-104365105D01*
X155880319Y-104407562D01*
X155869726Y-104442481D01*
X155852524Y-104474663D01*
X155829373Y-104502873D01*
X155801163Y-104526024D01*
X155768981Y-104543226D01*
X155734062Y-104553819D01*
X155691605Y-104558000D01*
X154550395Y-104558000D01*
X154507938Y-104553819D01*
X154473019Y-104543226D01*
X154440837Y-104526024D01*
X154412627Y-104502873D01*
X154389476Y-104474663D01*
X154372274Y-104442481D01*
X154361681Y-104407562D01*
X154357500Y-104365105D01*
X154357500Y-102898895D01*
X154361681Y-102856438D01*
X154372274Y-102821519D01*
X154389476Y-102789337D01*
X154412627Y-102761127D01*
X154440837Y-102737976D01*
X154473019Y-102720774D01*
X154507938Y-102710181D01*
X154550395Y-102706000D01*
X155691605Y-102706000D01*
X155734062Y-102710181D01*
G37*
G36*
X127119000Y-101108000D02*
G01*
X126117000Y-101108000D01*
X126117000Y-99806000D01*
X127119000Y-99806000D01*
X127119000Y-101108000D01*
G37*
G36*
X123819000Y-101108000D02*
G01*
X122817000Y-101108000D01*
X122817000Y-99806000D01*
X123819000Y-99806000D01*
X123819000Y-101108000D01*
G37*
G36*
X152519000Y-100473000D02*
G01*
X151517000Y-100473000D01*
X151517000Y-99171000D01*
X152519000Y-99171000D01*
X152519000Y-100473000D01*
G37*
G36*
X149219000Y-100473000D02*
G01*
X148217000Y-100473000D01*
X148217000Y-99171000D01*
X149219000Y-99171000D01*
X149219000Y-100473000D01*
G37*
G36*
X139755374Y-92715571D02*
G01*
X139755379Y-92715577D01*
X140814626Y-93774824D01*
X140814632Y-93774829D01*
X141452430Y-94412627D01*
X141452435Y-94412633D01*
X141945997Y-94906195D01*
X141946003Y-94906200D01*
X142583801Y-95543998D01*
X142583806Y-95544004D01*
X143077368Y-96037566D01*
X143077374Y-96037571D01*
X143715172Y-96675369D01*
X143715177Y-96675375D01*
X144774424Y-97734622D01*
X144774430Y-97734627D01*
X145323845Y-98284042D01*
X144191060Y-99416827D01*
X143713763Y-98939530D01*
X143713757Y-98939525D01*
X142510274Y-97736042D01*
X142510269Y-97736036D01*
X142016707Y-97242474D01*
X142016701Y-97242469D01*
X141378903Y-96604671D01*
X141378898Y-96604665D01*
X140885336Y-96111103D01*
X140885330Y-96111098D01*
X140247532Y-95473300D01*
X140247527Y-95473294D01*
X139753965Y-94979732D01*
X139753959Y-94979727D01*
X138550476Y-93776244D01*
X138550471Y-93776238D01*
X138073173Y-93298940D01*
X139205958Y-92166155D01*
X139755374Y-92715571D01*
G37*
G36*
X137262827Y-93298940D02*
G01*
X136785530Y-93776238D01*
X131622238Y-98939530D01*
X131144940Y-99416827D01*
X130012155Y-98284042D01*
X130561566Y-97734631D01*
X130561577Y-97734622D01*
X130577841Y-97718357D01*
X131604559Y-96691639D01*
X131620824Y-96675375D01*
X131620833Y-96675364D01*
X132258622Y-96037575D01*
X132258633Y-96037566D01*
X132274898Y-96021302D01*
X132274897Y-96021301D01*
X132735930Y-95560268D01*
X132735931Y-95560269D01*
X132752195Y-95544004D01*
X132752204Y-95543993D01*
X133389993Y-94906204D01*
X133390004Y-94906195D01*
X133406269Y-94889931D01*
X133406268Y-94889930D01*
X133867301Y-94428897D01*
X133867302Y-94428898D01*
X133883566Y-94412633D01*
X133883575Y-94412622D01*
X134521364Y-93774833D01*
X134521375Y-93774824D01*
X134537639Y-93758559D01*
X135564357Y-92731841D01*
X135580622Y-92715577D01*
X135580631Y-92715566D01*
X136130042Y-92166155D01*
X137262827Y-93298940D01*
G37*
G36*
X124473562Y-96957681D02*
G01*
X124508481Y-96968274D01*
X124540663Y-96985476D01*
X124568873Y-97008627D01*
X124592024Y-97036837D01*
X124609226Y-97069019D01*
X124619819Y-97103938D01*
X124624000Y-97146395D01*
X124624000Y-98287605D01*
X124619819Y-98330062D01*
X124609226Y-98364981D01*
X124592024Y-98397163D01*
X124568873Y-98425373D01*
X124540663Y-98448524D01*
X124508481Y-98465726D01*
X124473562Y-98476319D01*
X124431105Y-98480500D01*
X122964895Y-98480500D01*
X122922438Y-98476319D01*
X122887519Y-98465726D01*
X122855337Y-98448524D01*
X122827127Y-98425373D01*
X122803976Y-98397163D01*
X122786774Y-98364981D01*
X122776181Y-98330062D01*
X122772000Y-98287605D01*
X122772000Y-97146395D01*
X122776181Y-97103938D01*
X122786774Y-97069019D01*
X122803976Y-97036837D01*
X122827127Y-97008627D01*
X122855337Y-96985476D01*
X122887519Y-96968274D01*
X122922438Y-96957681D01*
X122964895Y-96953500D01*
X124431105Y-96953500D01*
X124473562Y-96957681D01*
G37*
G36*
X150546062Y-96360181D02*
G01*
X150580981Y-96370774D01*
X150613163Y-96387976D01*
X150641373Y-96411127D01*
X150664524Y-96439337D01*
X150681726Y-96471519D01*
X150692319Y-96506438D01*
X150696500Y-96548895D01*
X150696500Y-98015105D01*
X150692319Y-98057562D01*
X150681726Y-98092481D01*
X150664524Y-98124663D01*
X150641373Y-98152873D01*
X150613163Y-98176024D01*
X150580981Y-98193226D01*
X150546062Y-98203819D01*
X150503605Y-98208000D01*
X149362395Y-98208000D01*
X149319938Y-98203819D01*
X149285019Y-98193226D01*
X149252837Y-98176024D01*
X149224627Y-98152873D01*
X149201476Y-98124663D01*
X149184274Y-98092481D01*
X149173681Y-98057562D01*
X149169500Y-98015105D01*
X149169500Y-96548895D01*
X149173681Y-96506438D01*
X149184274Y-96471519D01*
X149201476Y-96439337D01*
X149224627Y-96411127D01*
X149252837Y-96387976D01*
X149285019Y-96370774D01*
X149319938Y-96360181D01*
X149362395Y-96356000D01*
X150503605Y-96356000D01*
X150546062Y-96360181D01*
G37*
G36*
X153521062Y-96360181D02*
G01*
X153555981Y-96370774D01*
X153588163Y-96387976D01*
X153616373Y-96411127D01*
X153639524Y-96439337D01*
X153656726Y-96471519D01*
X153667319Y-96506438D01*
X153671500Y-96548895D01*
X153671500Y-98015105D01*
X153667319Y-98057562D01*
X153656726Y-98092481D01*
X153639524Y-98124663D01*
X153616373Y-98152873D01*
X153588163Y-98176024D01*
X153555981Y-98193226D01*
X153521062Y-98203819D01*
X153478605Y-98208000D01*
X152337395Y-98208000D01*
X152294938Y-98203819D01*
X152260019Y-98193226D01*
X152227837Y-98176024D01*
X152199627Y-98152873D01*
X152176476Y-98124663D01*
X152159274Y-98092481D01*
X152148681Y-98057562D01*
X152144500Y-98015105D01*
X152144500Y-96548895D01*
X152148681Y-96506438D01*
X152159274Y-96471519D01*
X152176476Y-96439337D01*
X152199627Y-96411127D01*
X152227837Y-96387976D01*
X152260019Y-96370774D01*
X152294938Y-96360181D01*
X152337395Y-96356000D01*
X153478605Y-96356000D01*
X153521062Y-96360181D01*
G37*
G36*
X120939000Y-97015500D02*
G01*
X118837000Y-97015500D01*
X118837000Y-89038500D01*
X120939000Y-89038500D01*
X120939000Y-97015500D01*
G37*
G36*
X155859000Y-95733000D02*
G01*
X154457000Y-95733000D01*
X154457000Y-94081000D01*
X155859000Y-94081000D01*
X155859000Y-95733000D01*
G37*
G36*
X151359000Y-95733000D02*
G01*
X149957000Y-95733000D01*
X149957000Y-94081000D01*
X151359000Y-94081000D01*
X151359000Y-95733000D01*
G37*
G36*
X129015142Y-93960242D02*
G01*
X129163101Y-94021529D01*
X129296255Y-94110499D01*
X129409501Y-94223745D01*
X129498471Y-94356899D01*
X129559758Y-94504858D01*
X129591000Y-94661925D01*
X129591000Y-94822075D01*
X129559758Y-94979142D01*
X129498471Y-95127101D01*
X129409501Y-95260255D01*
X129296255Y-95373501D01*
X129163101Y-95462471D01*
X129015142Y-95523758D01*
X128858075Y-95555000D01*
X128697925Y-95555000D01*
X128540858Y-95523758D01*
X128392899Y-95462471D01*
X128259745Y-95373501D01*
X128146499Y-95260255D01*
X128057529Y-95127101D01*
X127996242Y-94979142D01*
X127965000Y-94822075D01*
X127965000Y-94661925D01*
X127996242Y-94504858D01*
X128057529Y-94356899D01*
X128146499Y-94223745D01*
X128259745Y-94110499D01*
X128392899Y-94021529D01*
X128540858Y-93960242D01*
X128697925Y-93929000D01*
X128858075Y-93929000D01*
X129015142Y-93960242D01*
G37*
G36*
X126475142Y-93960242D02*
G01*
X126623101Y-94021529D01*
X126756255Y-94110499D01*
X126869501Y-94223745D01*
X126958471Y-94356899D01*
X127019758Y-94504858D01*
X127051000Y-94661925D01*
X127051000Y-94822075D01*
X127019758Y-94979142D01*
X126958471Y-95127101D01*
X126869501Y-95260255D01*
X126756255Y-95373501D01*
X126623101Y-95462471D01*
X126475142Y-95523758D01*
X126318075Y-95555000D01*
X126157925Y-95555000D01*
X126000858Y-95523758D01*
X125852899Y-95462471D01*
X125719745Y-95373501D01*
X125606499Y-95260255D01*
X125517529Y-95127101D01*
X125456242Y-94979142D01*
X125425000Y-94822075D01*
X125425000Y-94661925D01*
X125456242Y-94504858D01*
X125517529Y-94356899D01*
X125606499Y-94223745D01*
X125719745Y-94110499D01*
X125852899Y-94021529D01*
X126000858Y-93960242D01*
X126157925Y-93929000D01*
X126318075Y-93929000D01*
X126475142Y-93960242D01*
G37*
G36*
X148065142Y-93960242D02*
G01*
X148213101Y-94021529D01*
X148346255Y-94110499D01*
X148459501Y-94223745D01*
X148548471Y-94356899D01*
X148609758Y-94504858D01*
X148641000Y-94661925D01*
X148641000Y-94822075D01*
X148609758Y-94979142D01*
X148548471Y-95127101D01*
X148459501Y-95260255D01*
X148346255Y-95373501D01*
X148213101Y-95462471D01*
X148065142Y-95523758D01*
X147908075Y-95555000D01*
X147747925Y-95555000D01*
X147590858Y-95523758D01*
X147442899Y-95462471D01*
X147309745Y-95373501D01*
X147196499Y-95260255D01*
X147107529Y-95127101D01*
X147046242Y-94979142D01*
X147015000Y-94822075D01*
X147015000Y-94661925D01*
X147046242Y-94504858D01*
X147107529Y-94356899D01*
X147196499Y-94223745D01*
X147309745Y-94110499D01*
X147442899Y-94021529D01*
X147590858Y-93960242D01*
X147747925Y-93929000D01*
X147908075Y-93929000D01*
X148065142Y-93960242D01*
G37*
G36*
X145525142Y-93960242D02*
G01*
X145673101Y-94021529D01*
X145806255Y-94110499D01*
X145919501Y-94223745D01*
X146008471Y-94356899D01*
X146069758Y-94504858D01*
X146101000Y-94661925D01*
X146101000Y-94822075D01*
X146069758Y-94979142D01*
X146008471Y-95127101D01*
X145919501Y-95260255D01*
X145806255Y-95373501D01*
X145673101Y-95462471D01*
X145525142Y-95523758D01*
X145368075Y-95555000D01*
X145207925Y-95555000D01*
X145050858Y-95523758D01*
X144902899Y-95462471D01*
X144769745Y-95373501D01*
X144656499Y-95260255D01*
X144567529Y-95127101D01*
X144506242Y-94979142D01*
X144475000Y-94822075D01*
X144475000Y-94661925D01*
X144506242Y-94504858D01*
X144567529Y-94356899D01*
X144656499Y-94223745D01*
X144769745Y-94110499D01*
X144902899Y-94021529D01*
X145050858Y-93960242D01*
X145207925Y-93929000D01*
X145368075Y-93929000D01*
X145525142Y-93960242D01*
G37*
G36*
X124473562Y-93982681D02*
G01*
X124508481Y-93993274D01*
X124540663Y-94010476D01*
X124568873Y-94033627D01*
X124592024Y-94061837D01*
X124609226Y-94094019D01*
X124619819Y-94128938D01*
X124624000Y-94171395D01*
X124624000Y-95312605D01*
X124619819Y-95355062D01*
X124609226Y-95389981D01*
X124592024Y-95422163D01*
X124568873Y-95450373D01*
X124540663Y-95473524D01*
X124508481Y-95490726D01*
X124473562Y-95501319D01*
X124431105Y-95505500D01*
X122964895Y-95505500D01*
X122922438Y-95501319D01*
X122887519Y-95490726D01*
X122855337Y-95473524D01*
X122827127Y-95450373D01*
X122803976Y-95422163D01*
X122786774Y-95389981D01*
X122776181Y-95355062D01*
X122772000Y-95312605D01*
X122772000Y-94171395D01*
X122776181Y-94128938D01*
X122786774Y-94094019D01*
X122803976Y-94061837D01*
X122827127Y-94033627D01*
X122855337Y-94010476D01*
X122887519Y-93993274D01*
X122922438Y-93982681D01*
X122964895Y-93978500D01*
X124431105Y-93978500D01*
X124473562Y-93982681D01*
G37*
G36*
X143534222Y-92358881D02*
G01*
X143569141Y-92369474D01*
X143601323Y-92386676D01*
X143634297Y-92413737D01*
X143687329Y-92466769D01*
X143687335Y-92466774D01*
X144388226Y-93167665D01*
X144388231Y-93167671D01*
X144441263Y-93220703D01*
X144468324Y-93253677D01*
X144485526Y-93285859D01*
X144496119Y-93320778D01*
X144499695Y-93357095D01*
X144496119Y-93393412D01*
X144485526Y-93428331D01*
X144468324Y-93460513D01*
X144441263Y-93493487D01*
X144388231Y-93546519D01*
X144388226Y-93546525D01*
X143457525Y-94477226D01*
X143457519Y-94477231D01*
X143404487Y-94530263D01*
X143371513Y-94557324D01*
X143339331Y-94574526D01*
X143304412Y-94585119D01*
X143268095Y-94588695D01*
X143231778Y-94585119D01*
X143196859Y-94574526D01*
X143164677Y-94557324D01*
X143131703Y-94530263D01*
X143078671Y-94477231D01*
X143078665Y-94477226D01*
X142377774Y-93776335D01*
X142377769Y-93776329D01*
X142324737Y-93723297D01*
X142297676Y-93690323D01*
X142280474Y-93658141D01*
X142269881Y-93623222D01*
X142266305Y-93586905D01*
X142269881Y-93550588D01*
X142280474Y-93515669D01*
X142297676Y-93483487D01*
X142324737Y-93450513D01*
X142377769Y-93397481D01*
X142377774Y-93397475D01*
X143308475Y-92466774D01*
X143308481Y-92466769D01*
X143361513Y-92413737D01*
X143394487Y-92386676D01*
X143426669Y-92369474D01*
X143461588Y-92358881D01*
X143497905Y-92355305D01*
X143534222Y-92358881D01*
G37*
G36*
X131240091Y-91922523D02*
G01*
X131275010Y-91933116D01*
X131307192Y-91950318D01*
X131340166Y-91977379D01*
X131393198Y-92030411D01*
X131393204Y-92030416D01*
X132323905Y-92961117D01*
X132323910Y-92961123D01*
X132376942Y-93014155D01*
X132404003Y-93047129D01*
X132421205Y-93079311D01*
X132431798Y-93114230D01*
X132435374Y-93150547D01*
X132431798Y-93186864D01*
X132421205Y-93221783D01*
X132404003Y-93253965D01*
X132376942Y-93286939D01*
X132323910Y-93339971D01*
X132323905Y-93339977D01*
X131623014Y-94040868D01*
X131623008Y-94040873D01*
X131569976Y-94093905D01*
X131537002Y-94120966D01*
X131504820Y-94138168D01*
X131469901Y-94148761D01*
X131433584Y-94152337D01*
X131397267Y-94148761D01*
X131362348Y-94138168D01*
X131330166Y-94120966D01*
X131297192Y-94093905D01*
X131244160Y-94040873D01*
X131244154Y-94040868D01*
X130313453Y-93110167D01*
X130313448Y-93110161D01*
X130260416Y-93057129D01*
X130233355Y-93024155D01*
X130216153Y-92991973D01*
X130205560Y-92957054D01*
X130201984Y-92920737D01*
X130205560Y-92884420D01*
X130216153Y-92849501D01*
X130233355Y-92817319D01*
X130260416Y-92784345D01*
X130313448Y-92731313D01*
X130313453Y-92731307D01*
X131014344Y-92030416D01*
X131014350Y-92030411D01*
X131067382Y-91977379D01*
X131100356Y-91950318D01*
X131132538Y-91933116D01*
X131167457Y-91922523D01*
X131203774Y-91918947D01*
X131240091Y-91922523D01*
G37*
G36*
X141430580Y-90255239D02*
G01*
X141465499Y-90265832D01*
X141497681Y-90283034D01*
X141530655Y-90310095D01*
X141583687Y-90363127D01*
X141583693Y-90363132D01*
X142284584Y-91064023D01*
X142284589Y-91064029D01*
X142337621Y-91117061D01*
X142364682Y-91150035D01*
X142381884Y-91182217D01*
X142392477Y-91217136D01*
X142396053Y-91253453D01*
X142392477Y-91289770D01*
X142381884Y-91324689D01*
X142364682Y-91356871D01*
X142337621Y-91389845D01*
X142284589Y-91442877D01*
X142284584Y-91442883D01*
X141353883Y-92373584D01*
X141353877Y-92373589D01*
X141300845Y-92426621D01*
X141267871Y-92453682D01*
X141235689Y-92470884D01*
X141200770Y-92481477D01*
X141164453Y-92485053D01*
X141128136Y-92481477D01*
X141093217Y-92470884D01*
X141061035Y-92453682D01*
X141028061Y-92426621D01*
X140975029Y-92373589D01*
X140975023Y-92373584D01*
X140274132Y-91672693D01*
X140274127Y-91672687D01*
X140221095Y-91619655D01*
X140194034Y-91586681D01*
X140176832Y-91554499D01*
X140166239Y-91519580D01*
X140162663Y-91483263D01*
X140166239Y-91446946D01*
X140176832Y-91412027D01*
X140194034Y-91379845D01*
X140221095Y-91346871D01*
X140274127Y-91293839D01*
X140274132Y-91293833D01*
X141204833Y-90363132D01*
X141204839Y-90363127D01*
X141257871Y-90310095D01*
X141290845Y-90283034D01*
X141323027Y-90265832D01*
X141357946Y-90255239D01*
X141394263Y-90251663D01*
X141430580Y-90255239D01*
G37*
G36*
X133343733Y-89818881D02*
G01*
X133378652Y-89829474D01*
X133410834Y-89846676D01*
X133443808Y-89873737D01*
X133496840Y-89926769D01*
X133496846Y-89926774D01*
X134427547Y-90857475D01*
X134427552Y-90857481D01*
X134480584Y-90910513D01*
X134507645Y-90943487D01*
X134524847Y-90975669D01*
X134535440Y-91010588D01*
X134539016Y-91046905D01*
X134535440Y-91083222D01*
X134524847Y-91118141D01*
X134507645Y-91150323D01*
X134480584Y-91183297D01*
X134427552Y-91236329D01*
X134427547Y-91236335D01*
X133726656Y-91937226D01*
X133726650Y-91937231D01*
X133673618Y-91990263D01*
X133640644Y-92017324D01*
X133608462Y-92034526D01*
X133573543Y-92045119D01*
X133537226Y-92048695D01*
X133500909Y-92045119D01*
X133465990Y-92034526D01*
X133433808Y-92017324D01*
X133400834Y-91990263D01*
X133347802Y-91937231D01*
X133347796Y-91937226D01*
X132417095Y-91006525D01*
X132417090Y-91006519D01*
X132364058Y-90953487D01*
X132336997Y-90920513D01*
X132319795Y-90888331D01*
X132309202Y-90853412D01*
X132305626Y-90817095D01*
X132309202Y-90780778D01*
X132319795Y-90745859D01*
X132336997Y-90713677D01*
X132364058Y-90680703D01*
X132417090Y-90627671D01*
X132417095Y-90627665D01*
X133117986Y-89926774D01*
X133117992Y-89926769D01*
X133171024Y-89873737D01*
X133203998Y-89846676D01*
X133236180Y-89829474D01*
X133271099Y-89818881D01*
X133307416Y-89815305D01*
X133343733Y-89818881D01*
G37*
G36*
X147156254Y-87689818D02*
G01*
X147529511Y-87844426D01*
X147529513Y-87844427D01*
X147826038Y-88042559D01*
X147865436Y-88068884D01*
X148151116Y-88354564D01*
X148375574Y-88690489D01*
X148530182Y-89063746D01*
X148609000Y-89459993D01*
X148609000Y-89864007D01*
X148530182Y-90260254D01*
X148377995Y-90627665D01*
X148375573Y-90633513D01*
X148151116Y-90969436D01*
X147865436Y-91255116D01*
X147529513Y-91479573D01*
X147529512Y-91479574D01*
X147529511Y-91479574D01*
X147156254Y-91634182D01*
X146760007Y-91713000D01*
X146355993Y-91713000D01*
X145959746Y-91634182D01*
X145586489Y-91479574D01*
X145586488Y-91479574D01*
X145586487Y-91479573D01*
X145250564Y-91255116D01*
X144964884Y-90969436D01*
X144740427Y-90633513D01*
X144738005Y-90627665D01*
X144585818Y-90260254D01*
X144507000Y-89864007D01*
X144507000Y-89459993D01*
X144585818Y-89063746D01*
X144740426Y-88690489D01*
X144964884Y-88354564D01*
X145250564Y-88068884D01*
X145289962Y-88042559D01*
X145586487Y-87844427D01*
X145586489Y-87844426D01*
X145959746Y-87689818D01*
X146355993Y-87611000D01*
X146760007Y-87611000D01*
X147156254Y-87689818D01*
G37*
G36*
X128106254Y-87689818D02*
G01*
X128479511Y-87844426D01*
X128479513Y-87844427D01*
X128776038Y-88042559D01*
X128815436Y-88068884D01*
X129101116Y-88354564D01*
X129325574Y-88690489D01*
X129480182Y-89063746D01*
X129559000Y-89459993D01*
X129559000Y-89864007D01*
X129480182Y-90260254D01*
X129327995Y-90627665D01*
X129325573Y-90633513D01*
X129101116Y-90969436D01*
X128815436Y-91255116D01*
X128479513Y-91479573D01*
X128479512Y-91479574D01*
X128479511Y-91479574D01*
X128106254Y-91634182D01*
X127710007Y-91713000D01*
X127305993Y-91713000D01*
X126909746Y-91634182D01*
X126536489Y-91479574D01*
X126536488Y-91479574D01*
X126536487Y-91479573D01*
X126200564Y-91255116D01*
X125914884Y-90969436D01*
X125690427Y-90633513D01*
X125688005Y-90627665D01*
X125535818Y-90260254D01*
X125457000Y-89864007D01*
X125457000Y-89459993D01*
X125535818Y-89063746D01*
X125690426Y-88690489D01*
X125914884Y-88354564D01*
X126200564Y-88068884D01*
X126239962Y-88042559D01*
X126536487Y-87844427D01*
X126536489Y-87844426D01*
X126909746Y-87689818D01*
X127305993Y-87611000D01*
X127710007Y-87611000D01*
X128106254Y-87689818D01*
G37*
G36*
X139363760Y-87947084D02*
G01*
X139354382Y-87969723D01*
X139349602Y-87993756D01*
X139349000Y-88006008D01*
X139349000Y-88733000D01*
X133447000Y-88733000D01*
X133447000Y-87931000D01*
X139365106Y-87931000D01*
X139375169Y-87930009D01*
X139363760Y-87947084D01*
G37*
G36*
X123900816Y-85988793D02*
G01*
X124033734Y-86015232D01*
X124078056Y-86033591D01*
X124238013Y-86099847D01*
X124243203Y-86101997D01*
X124431720Y-86227960D01*
X124592040Y-86388280D01*
X124718003Y-86576797D01*
X124804768Y-86786266D01*
X124821206Y-86868904D01*
X124849000Y-87008635D01*
X124849000Y-87235365D01*
X124837417Y-87293598D01*
X124804768Y-87457734D01*
X124718003Y-87667203D01*
X124592040Y-87855720D01*
X124431720Y-88016040D01*
X124243203Y-88142003D01*
X124033734Y-88228768D01*
X123922549Y-88250884D01*
X123811365Y-88273000D01*
X123584635Y-88273000D01*
X123473451Y-88250884D01*
X123362266Y-88228768D01*
X123152797Y-88142003D01*
X122964280Y-88016040D01*
X122803960Y-87855720D01*
X122677997Y-87667203D01*
X122591232Y-87457734D01*
X122558583Y-87293598D01*
X122547000Y-87235365D01*
X122547000Y-87008635D01*
X122574794Y-86868904D01*
X122591232Y-86786266D01*
X122677997Y-86576797D01*
X122803960Y-86388280D01*
X122964280Y-86227960D01*
X123152797Y-86101997D01*
X123157988Y-86099847D01*
X123317944Y-86033591D01*
X123362266Y-86015232D01*
X123495184Y-85988793D01*
X123584635Y-85971000D01*
X123811365Y-85971000D01*
X123900816Y-85988793D01*
G37*
G36*
X142950816Y-85988793D02*
G01*
X143083734Y-86015232D01*
X143128056Y-86033591D01*
X143288013Y-86099847D01*
X143293203Y-86101997D01*
X143481720Y-86227960D01*
X143642040Y-86388280D01*
X143768003Y-86576797D01*
X143854768Y-86786266D01*
X143871206Y-86868904D01*
X143899000Y-87008635D01*
X143899000Y-87235365D01*
X143887417Y-87293598D01*
X143854768Y-87457734D01*
X143768003Y-87667203D01*
X143642040Y-87855720D01*
X143481720Y-88016040D01*
X143293203Y-88142003D01*
X143083734Y-88228768D01*
X142972549Y-88250884D01*
X142861365Y-88273000D01*
X142634635Y-88273000D01*
X142523451Y-88250884D01*
X142412266Y-88228768D01*
X142202797Y-88142003D01*
X142014280Y-88016040D01*
X141853960Y-87855720D01*
X141727997Y-87667203D01*
X141641232Y-87457734D01*
X141608583Y-87293598D01*
X141597000Y-87235365D01*
X141597000Y-87008635D01*
X141624794Y-86868904D01*
X141641232Y-86786266D01*
X141727997Y-86576797D01*
X141853960Y-86388280D01*
X142014280Y-86227960D01*
X142202797Y-86101997D01*
X142207988Y-86099847D01*
X142367944Y-86033591D01*
X142412266Y-86015232D01*
X142545184Y-85988793D01*
X142634635Y-85971000D01*
X142861365Y-85971000D01*
X142950816Y-85988793D01*
G37*
G36*
X132907672Y-87310449D02*
G01*
X132907674Y-87310450D01*
X132907675Y-87310450D01*
X132976103Y-87338793D01*
X133037686Y-87379942D01*
X133090058Y-87432314D01*
X133131207Y-87493897D01*
X133144162Y-87525175D01*
X133159551Y-87562328D01*
X133174000Y-87634966D01*
X133174000Y-87709034D01*
X133166705Y-87745709D01*
X133159550Y-87781675D01*
X133131207Y-87850103D01*
X133090058Y-87911686D01*
X133037686Y-87964058D01*
X132976103Y-88005207D01*
X132907675Y-88033550D01*
X132907674Y-88033550D01*
X132907672Y-88033551D01*
X132835034Y-88048000D01*
X132760966Y-88048000D01*
X132688328Y-88033551D01*
X132688326Y-88033550D01*
X132688325Y-88033550D01*
X132619897Y-88005207D01*
X132558314Y-87964058D01*
X132505942Y-87911686D01*
X132464793Y-87850103D01*
X132436450Y-87781675D01*
X132429296Y-87745709D01*
X132422000Y-87709034D01*
X132422000Y-87634966D01*
X132436449Y-87562328D01*
X132451838Y-87525175D01*
X132464793Y-87493897D01*
X132505942Y-87432314D01*
X132558314Y-87379942D01*
X132619897Y-87338793D01*
X132688325Y-87310450D01*
X132688326Y-87310450D01*
X132688328Y-87310449D01*
X132760966Y-87296000D01*
X132835034Y-87296000D01*
X132907672Y-87310449D01*
G37*
G36*
X140616409Y-85677525D02*
G01*
X140701425Y-85703314D01*
X140779774Y-85745193D01*
X140848449Y-85801552D01*
X140904807Y-85870225D01*
X140946686Y-85948574D01*
X140972475Y-86033590D01*
X140979000Y-86099842D01*
X140979000Y-86744158D01*
X140972475Y-86810410D01*
X140946686Y-86895426D01*
X140904807Y-86973775D01*
X140848449Y-87042449D01*
X140779775Y-87098807D01*
X140701426Y-87140686D01*
X140616410Y-87166475D01*
X140536707Y-87174324D01*
X140528000Y-87175182D01*
X140527999Y-87175182D01*
X140491846Y-87171622D01*
X140467342Y-87171622D01*
X140443309Y-87176403D01*
X140420670Y-87185780D01*
X140400296Y-87199394D01*
X140382969Y-87216721D01*
X140369355Y-87237096D01*
X140359978Y-87259735D01*
X140355198Y-87283768D01*
X140355198Y-87308272D01*
X140359979Y-87332305D01*
X140369356Y-87354944D01*
X140382970Y-87375318D01*
X140400297Y-87392645D01*
X140415159Y-87404842D01*
X140462146Y-87462096D01*
X140497060Y-87527415D01*
X140518560Y-87598290D01*
X140525819Y-87672000D01*
X140518560Y-87745710D01*
X140497060Y-87816585D01*
X140462146Y-87881904D01*
X140415159Y-87939159D01*
X140357904Y-87986146D01*
X140292585Y-88021060D01*
X140221710Y-88042560D01*
X140166472Y-88048000D01*
X139829528Y-88048000D01*
X139774290Y-88042560D01*
X139703415Y-88021060D01*
X139638096Y-87986146D01*
X139580841Y-87939159D01*
X139570625Y-87926710D01*
X139553298Y-87909383D01*
X139532923Y-87895769D01*
X139510284Y-87886391D01*
X139486251Y-87881611D01*
X139463980Y-87881611D01*
X139469039Y-87875447D01*
X139480590Y-87853836D01*
X139487703Y-87830387D01*
X139490105Y-87806001D01*
X139484723Y-87769716D01*
X139477440Y-87745707D01*
X139470181Y-87672000D01*
X139477440Y-87598290D01*
X139499620Y-87525175D01*
X139504401Y-87501142D01*
X139504401Y-87476638D01*
X139499621Y-87452604D01*
X139490244Y-87429965D01*
X139476630Y-87409591D01*
X139459303Y-87392264D01*
X139438929Y-87378650D01*
X139416290Y-87369273D01*
X139392257Y-87364492D01*
X139367753Y-87364492D01*
X139343719Y-87369272D01*
X139332169Y-87373405D01*
X139307674Y-87383551D01*
X139235034Y-87398000D01*
X139160966Y-87398000D01*
X139088328Y-87383551D01*
X139088326Y-87383550D01*
X139088325Y-87383550D01*
X139019897Y-87355207D01*
X138958314Y-87314058D01*
X138905942Y-87261686D01*
X138864793Y-87200103D01*
X138836450Y-87131675D01*
X138830459Y-87101555D01*
X138822000Y-87059034D01*
X138822000Y-86984966D01*
X138836449Y-86912326D01*
X138854435Y-86868904D01*
X138861548Y-86845455D01*
X138863950Y-86821069D01*
X138861548Y-86796683D01*
X138854435Y-86773234D01*
X138842884Y-86751624D01*
X138827339Y-86732682D01*
X138808397Y-86717136D01*
X138786786Y-86705585D01*
X138763338Y-86698472D01*
X138688327Y-86683551D01*
X138678304Y-86679399D01*
X138619897Y-86655207D01*
X138558314Y-86614058D01*
X138505942Y-86561686D01*
X138501928Y-86555679D01*
X138486388Y-86536744D01*
X138467447Y-86521199D01*
X138445836Y-86509647D01*
X138422387Y-86502534D01*
X138398001Y-86500132D01*
X138373615Y-86502534D01*
X138350166Y-86509647D01*
X138328555Y-86521197D01*
X138309613Y-86536743D01*
X138294072Y-86555679D01*
X138290058Y-86561686D01*
X138237686Y-86614058D01*
X138176103Y-86655207D01*
X138117696Y-86679399D01*
X138107673Y-86683551D01*
X138032662Y-86698472D01*
X138009214Y-86705585D01*
X137987603Y-86717136D01*
X137968661Y-86732682D01*
X137953116Y-86751624D01*
X137941565Y-86773234D01*
X137934452Y-86796683D01*
X137932050Y-86821069D01*
X137934452Y-86845456D01*
X137941565Y-86868904D01*
X137959551Y-86912326D01*
X137974000Y-86984966D01*
X137974000Y-87059034D01*
X137965542Y-87101555D01*
X137959550Y-87131675D01*
X137931207Y-87200103D01*
X137890058Y-87261686D01*
X137837686Y-87314058D01*
X137776103Y-87355207D01*
X137707675Y-87383550D01*
X137707674Y-87383550D01*
X137707672Y-87383551D01*
X137635034Y-87398000D01*
X137560966Y-87398000D01*
X137488328Y-87383551D01*
X137488326Y-87383550D01*
X137488325Y-87383550D01*
X137419897Y-87355207D01*
X137358314Y-87314058D01*
X137305942Y-87261686D01*
X137301928Y-87255679D01*
X137286388Y-87236744D01*
X137267447Y-87221199D01*
X137245836Y-87209647D01*
X137222387Y-87202534D01*
X137198001Y-87200132D01*
X137173615Y-87202534D01*
X137150166Y-87209647D01*
X137128555Y-87221197D01*
X137109613Y-87236743D01*
X137094072Y-87255679D01*
X137090058Y-87261686D01*
X137037686Y-87314058D01*
X136976103Y-87355207D01*
X136907675Y-87383550D01*
X136907674Y-87383550D01*
X136907672Y-87383551D01*
X136835034Y-87398000D01*
X136760966Y-87398000D01*
X136688328Y-87383551D01*
X136688326Y-87383550D01*
X136688325Y-87383550D01*
X136619897Y-87355207D01*
X136558314Y-87314058D01*
X136505942Y-87261686D01*
X136501928Y-87255679D01*
X136486388Y-87236744D01*
X136467447Y-87221199D01*
X136445836Y-87209647D01*
X136422387Y-87202534D01*
X136398001Y-87200132D01*
X136373615Y-87202534D01*
X136350166Y-87209647D01*
X136328555Y-87221197D01*
X136309613Y-87236743D01*
X136294072Y-87255679D01*
X136290058Y-87261686D01*
X136237686Y-87314058D01*
X136176103Y-87355207D01*
X136107675Y-87383550D01*
X136107674Y-87383550D01*
X136107672Y-87383551D01*
X136035034Y-87398000D01*
X135960966Y-87398000D01*
X135888328Y-87383551D01*
X135888326Y-87383550D01*
X135888325Y-87383550D01*
X135819897Y-87355207D01*
X135758314Y-87314058D01*
X135705942Y-87261686D01*
X135701928Y-87255679D01*
X135686388Y-87236744D01*
X135667447Y-87221199D01*
X135645836Y-87209647D01*
X135622387Y-87202534D01*
X135598001Y-87200132D01*
X135573615Y-87202534D01*
X135550166Y-87209647D01*
X135528555Y-87221197D01*
X135509613Y-87236743D01*
X135494072Y-87255679D01*
X135490058Y-87261686D01*
X135437686Y-87314058D01*
X135376103Y-87355207D01*
X135307675Y-87383550D01*
X135307674Y-87383550D01*
X135307672Y-87383551D01*
X135235034Y-87398000D01*
X135160966Y-87398000D01*
X135088328Y-87383551D01*
X135088326Y-87383550D01*
X135088325Y-87383550D01*
X135019897Y-87355207D01*
X134958314Y-87314058D01*
X134905942Y-87261686D01*
X134864793Y-87200103D01*
X134836450Y-87131675D01*
X134830459Y-87101555D01*
X134822000Y-87059034D01*
X134822000Y-86984966D01*
X134836449Y-86912326D01*
X134854435Y-86868904D01*
X134861548Y-86845455D01*
X134863950Y-86821069D01*
X134861548Y-86796683D01*
X134854435Y-86773234D01*
X134842884Y-86751624D01*
X134827339Y-86732682D01*
X134808397Y-86717136D01*
X134786786Y-86705585D01*
X134763338Y-86698472D01*
X134688327Y-86683551D01*
X134678304Y-86679399D01*
X134619897Y-86655207D01*
X134558314Y-86614058D01*
X134505942Y-86561686D01*
X134501928Y-86555679D01*
X134486388Y-86536744D01*
X134467447Y-86521199D01*
X134445836Y-86509647D01*
X134422387Y-86502534D01*
X134398001Y-86500132D01*
X134373615Y-86502534D01*
X134350166Y-86509647D01*
X134328555Y-86521197D01*
X134309613Y-86536743D01*
X134294072Y-86555679D01*
X134290058Y-86561686D01*
X134237686Y-86614058D01*
X134176103Y-86655207D01*
X134117696Y-86679399D01*
X134107673Y-86683551D01*
X134032662Y-86698472D01*
X134009214Y-86705585D01*
X133987603Y-86717136D01*
X133968661Y-86732682D01*
X133953116Y-86751624D01*
X133941565Y-86773234D01*
X133934452Y-86796683D01*
X133932050Y-86821069D01*
X133934452Y-86845456D01*
X133941565Y-86868904D01*
X133959551Y-86912326D01*
X133974000Y-86984966D01*
X133974000Y-87059034D01*
X133965542Y-87101555D01*
X133959550Y-87131675D01*
X133931207Y-87200103D01*
X133890058Y-87261686D01*
X133837686Y-87314058D01*
X133776103Y-87355207D01*
X133707675Y-87383550D01*
X133707674Y-87383550D01*
X133707672Y-87383551D01*
X133635034Y-87398000D01*
X133560966Y-87398000D01*
X133488328Y-87383551D01*
X133488326Y-87383550D01*
X133488325Y-87383550D01*
X133419897Y-87355207D01*
X133358314Y-87314058D01*
X133305942Y-87261686D01*
X133264793Y-87200103D01*
X133236450Y-87131675D01*
X133230459Y-87101555D01*
X133222000Y-87059034D01*
X133222000Y-86984966D01*
X133236449Y-86912328D01*
X133243451Y-86895423D01*
X133264793Y-86843897D01*
X133305942Y-86782314D01*
X133358314Y-86729942D01*
X133419897Y-86688793D01*
X133488325Y-86660450D01*
X133488324Y-86660450D01*
X133488327Y-86660449D01*
X133563338Y-86645528D01*
X133586786Y-86638415D01*
X133608397Y-86626864D01*
X133627339Y-86611318D01*
X133642884Y-86592376D01*
X133654435Y-86570766D01*
X133661548Y-86547317D01*
X133663950Y-86522931D01*
X133661548Y-86498544D01*
X133654435Y-86475096D01*
X133636449Y-86431674D01*
X133622000Y-86359034D01*
X133622000Y-86284966D01*
X133636449Y-86212328D01*
X133636450Y-86212325D01*
X133664793Y-86143897D01*
X133705942Y-86082314D01*
X133758314Y-86029942D01*
X133819897Y-85988793D01*
X133888325Y-85960450D01*
X133888326Y-85960450D01*
X133888328Y-85960449D01*
X133960966Y-85946000D01*
X134035034Y-85946000D01*
X134107672Y-85960449D01*
X134107674Y-85960450D01*
X134107675Y-85960450D01*
X134176103Y-85988793D01*
X134237686Y-86029942D01*
X134290058Y-86082314D01*
X134294072Y-86088321D01*
X134309612Y-86107256D01*
X134328553Y-86122801D01*
X134350164Y-86134353D01*
X134373613Y-86141466D01*
X134397999Y-86143868D01*
X134422385Y-86141466D01*
X134445834Y-86134353D01*
X134467445Y-86122803D01*
X134486387Y-86107257D01*
X134501928Y-86088321D01*
X134505942Y-86082314D01*
X134558314Y-86029942D01*
X134619897Y-85988793D01*
X134688325Y-85960450D01*
X134688326Y-85960450D01*
X134688328Y-85960449D01*
X134760966Y-85946000D01*
X134835034Y-85946000D01*
X134907672Y-85960449D01*
X134907674Y-85960450D01*
X134907675Y-85960450D01*
X134976103Y-85988793D01*
X135037686Y-86029942D01*
X135090058Y-86082314D01*
X135094072Y-86088321D01*
X135109612Y-86107256D01*
X135128553Y-86122801D01*
X135150164Y-86134353D01*
X135173613Y-86141466D01*
X135197999Y-86143868D01*
X135222385Y-86141466D01*
X135245834Y-86134353D01*
X135267445Y-86122803D01*
X135286387Y-86107257D01*
X135301928Y-86088321D01*
X135305942Y-86082314D01*
X135358314Y-86029942D01*
X135419897Y-85988793D01*
X135488325Y-85960450D01*
X135488326Y-85960450D01*
X135488328Y-85960449D01*
X135560966Y-85946000D01*
X135635034Y-85946000D01*
X135707672Y-85960449D01*
X135707674Y-85960450D01*
X135707675Y-85960450D01*
X135776103Y-85988793D01*
X135837686Y-86029942D01*
X135890058Y-86082314D01*
X135931207Y-86143897D01*
X135959550Y-86212325D01*
X135959551Y-86212328D01*
X135974000Y-86284966D01*
X135974000Y-86359034D01*
X135959551Y-86431674D01*
X135941565Y-86475096D01*
X135934452Y-86498545D01*
X135932050Y-86522931D01*
X135934452Y-86547317D01*
X135941565Y-86570766D01*
X135953116Y-86592376D01*
X135968661Y-86611318D01*
X135987603Y-86626864D01*
X136009214Y-86638415D01*
X136032662Y-86645528D01*
X136107673Y-86660449D01*
X136107676Y-86660450D01*
X136107675Y-86660450D01*
X136176103Y-86688793D01*
X136237686Y-86729942D01*
X136290058Y-86782314D01*
X136294072Y-86788321D01*
X136309612Y-86807256D01*
X136328553Y-86822801D01*
X136350164Y-86834353D01*
X136373613Y-86841466D01*
X136397999Y-86843868D01*
X136422385Y-86841466D01*
X136445834Y-86834353D01*
X136467445Y-86822803D01*
X136486387Y-86807257D01*
X136501928Y-86788321D01*
X136505942Y-86782314D01*
X136558314Y-86729942D01*
X136619897Y-86688793D01*
X136688325Y-86660450D01*
X136688324Y-86660450D01*
X136688327Y-86660449D01*
X136763338Y-86645528D01*
X136786786Y-86638415D01*
X136808397Y-86626864D01*
X136827339Y-86611318D01*
X136842884Y-86592376D01*
X136854435Y-86570766D01*
X136861548Y-86547317D01*
X136863950Y-86522931D01*
X136861548Y-86498544D01*
X136854435Y-86475096D01*
X136836449Y-86431674D01*
X136822000Y-86359034D01*
X136822000Y-86284966D01*
X136836449Y-86212328D01*
X136836450Y-86212325D01*
X136864793Y-86143897D01*
X136905942Y-86082314D01*
X136958314Y-86029942D01*
X137019897Y-85988793D01*
X137088325Y-85960450D01*
X137088326Y-85960450D01*
X137088328Y-85960449D01*
X137160966Y-85946000D01*
X137235034Y-85946000D01*
X137307672Y-85960449D01*
X137307674Y-85960450D01*
X137307675Y-85960450D01*
X137376103Y-85988793D01*
X137437686Y-86029942D01*
X137490058Y-86082314D01*
X137494072Y-86088321D01*
X137509612Y-86107256D01*
X137528553Y-86122801D01*
X137550164Y-86134353D01*
X137573613Y-86141466D01*
X137597999Y-86143868D01*
X137622385Y-86141466D01*
X137645834Y-86134353D01*
X137667445Y-86122803D01*
X137686387Y-86107257D01*
X137701928Y-86088321D01*
X137705942Y-86082314D01*
X137758314Y-86029942D01*
X137819897Y-85988793D01*
X137888325Y-85960450D01*
X137888326Y-85960450D01*
X137888328Y-85960449D01*
X137960966Y-85946000D01*
X138035034Y-85946000D01*
X138107672Y-85960449D01*
X138107674Y-85960450D01*
X138107675Y-85960450D01*
X138176103Y-85988793D01*
X138237686Y-86029942D01*
X138290058Y-86082314D01*
X138294072Y-86088321D01*
X138309612Y-86107256D01*
X138328553Y-86122801D01*
X138350164Y-86134353D01*
X138373613Y-86141466D01*
X138397999Y-86143868D01*
X138422385Y-86141466D01*
X138445834Y-86134353D01*
X138467445Y-86122803D01*
X138486387Y-86107257D01*
X138501928Y-86088321D01*
X138505942Y-86082314D01*
X138558314Y-86029942D01*
X138619897Y-85988793D01*
X138688325Y-85960450D01*
X138688326Y-85960450D01*
X138688328Y-85960449D01*
X138760966Y-85946000D01*
X138835034Y-85946000D01*
X138907672Y-85960449D01*
X138907674Y-85960450D01*
X138907675Y-85960450D01*
X138976103Y-85988793D01*
X139037686Y-86029942D01*
X139090058Y-86082314D01*
X139131207Y-86143897D01*
X139159550Y-86212325D01*
X139159551Y-86212328D01*
X139174000Y-86284966D01*
X139174000Y-86359034D01*
X139159551Y-86431674D01*
X139141565Y-86475096D01*
X139134452Y-86498545D01*
X139132050Y-86522931D01*
X139134452Y-86547317D01*
X139141565Y-86570766D01*
X139153116Y-86592376D01*
X139168661Y-86611318D01*
X139187603Y-86626864D01*
X139209214Y-86638415D01*
X139232662Y-86645528D01*
X139307673Y-86660449D01*
X139307676Y-86660450D01*
X139307675Y-86660450D01*
X139376103Y-86688793D01*
X139437686Y-86729942D01*
X139490058Y-86782314D01*
X139531207Y-86843897D01*
X139552549Y-86895423D01*
X139559551Y-86912328D01*
X139574000Y-86984966D01*
X139574000Y-87059034D01*
X139559551Y-87131674D01*
X139549405Y-87156169D01*
X139542292Y-87179618D01*
X139539890Y-87204004D01*
X139542292Y-87228390D01*
X139549405Y-87251839D01*
X139560956Y-87273450D01*
X139576501Y-87292392D01*
X139595443Y-87307937D01*
X139617054Y-87319488D01*
X139640503Y-87326601D01*
X139664889Y-87329003D01*
X139689275Y-87326601D01*
X139701175Y-87323620D01*
X139774290Y-87301440D01*
X139829528Y-87296000D01*
X140167157Y-87296000D01*
X140191543Y-87293598D01*
X140214992Y-87286485D01*
X140236603Y-87274934D01*
X140255545Y-87259389D01*
X140271090Y-87240447D01*
X140282641Y-87218836D01*
X140289754Y-87195387D01*
X140292156Y-87171001D01*
X140289754Y-87146615D01*
X140282641Y-87123166D01*
X140271090Y-87101555D01*
X140255545Y-87082613D01*
X140246455Y-87074375D01*
X140207553Y-87042449D01*
X140151195Y-86973776D01*
X140109313Y-86895423D01*
X140083525Y-86810410D01*
X140077000Y-86744158D01*
X140077000Y-86099843D01*
X140083525Y-86033591D01*
X140109314Y-85948575D01*
X140151193Y-85870226D01*
X140207552Y-85801551D01*
X140276225Y-85745193D01*
X140354574Y-85703314D01*
X140439590Y-85677525D01*
X140528000Y-85668818D01*
X140616409Y-85677525D01*
G37*
G36*
X155859000Y-87783000D02*
G01*
X154457000Y-87783000D01*
X154457000Y-86131000D01*
X155859000Y-86131000D01*
X155859000Y-87783000D01*
G37*
G36*
X151359000Y-87783000D02*
G01*
X149957000Y-87783000D01*
X149957000Y-86131000D01*
X151359000Y-86131000D01*
X151359000Y-87783000D01*
G37*
G36*
X132356409Y-85677525D02*
G01*
X132441425Y-85703314D01*
X132519774Y-85745193D01*
X132588449Y-85801552D01*
X132644807Y-85870225D01*
X132686686Y-85948574D01*
X132712475Y-86033590D01*
X132719000Y-86099842D01*
X132719000Y-86744158D01*
X132712475Y-86810410D01*
X132686686Y-86895426D01*
X132644807Y-86973775D01*
X132588449Y-87042449D01*
X132519775Y-87098807D01*
X132441426Y-87140686D01*
X132356410Y-87166475D01*
X132268000Y-87175182D01*
X132179591Y-87166475D01*
X132094575Y-87140686D01*
X132016226Y-87098807D01*
X131947552Y-87042449D01*
X131891195Y-86973776D01*
X131849313Y-86895423D01*
X131823525Y-86810410D01*
X131817000Y-86744158D01*
X131817000Y-86099843D01*
X131823525Y-86033591D01*
X131849314Y-85948575D01*
X131891193Y-85870226D01*
X131947552Y-85801551D01*
X132016225Y-85745193D01*
X132094574Y-85703314D01*
X132179590Y-85677525D01*
X132268000Y-85668818D01*
X132356409Y-85677525D01*
G37*
G36*
X149322549Y-83453116D02*
G01*
X149433734Y-83475232D01*
X149643203Y-83561997D01*
X149831720Y-83687960D01*
X149992040Y-83848280D01*
X150118003Y-84036797D01*
X150204768Y-84246266D01*
X150249000Y-84468636D01*
X150249000Y-84695364D01*
X150204768Y-84917734D01*
X150118003Y-85127203D01*
X149992040Y-85315720D01*
X149831720Y-85476040D01*
X149643203Y-85602003D01*
X149433734Y-85688768D01*
X149360606Y-85703314D01*
X149211365Y-85733000D01*
X148984635Y-85733000D01*
X148835394Y-85703314D01*
X148762266Y-85688768D01*
X148552797Y-85602003D01*
X148364280Y-85476040D01*
X148203960Y-85315720D01*
X148077997Y-85127203D01*
X147991232Y-84917734D01*
X147947000Y-84695364D01*
X147947000Y-84468636D01*
X147991232Y-84246266D01*
X148077997Y-84036797D01*
X148203960Y-83848280D01*
X148364280Y-83687960D01*
X148552797Y-83561997D01*
X148762266Y-83475232D01*
X148873451Y-83453116D01*
X148984635Y-83431000D01*
X149211365Y-83431000D01*
X149322549Y-83453116D01*
G37*
G36*
X130272549Y-83453116D02*
G01*
X130383734Y-83475232D01*
X130593203Y-83561997D01*
X130781720Y-83687960D01*
X130942040Y-83848280D01*
X131068003Y-84036797D01*
X131154768Y-84246266D01*
X131199000Y-84468636D01*
X131199000Y-84695364D01*
X131154768Y-84917734D01*
X131068003Y-85127203D01*
X130942040Y-85315720D01*
X130781720Y-85476040D01*
X130593203Y-85602003D01*
X130383734Y-85688768D01*
X130310606Y-85703314D01*
X130161365Y-85733000D01*
X129934635Y-85733000D01*
X129785394Y-85703314D01*
X129712266Y-85688768D01*
X129502797Y-85602003D01*
X129314280Y-85476040D01*
X129153960Y-85315720D01*
X129027997Y-85127203D01*
X128941232Y-84917734D01*
X128897000Y-84695364D01*
X128897000Y-84468636D01*
X128941232Y-84246266D01*
X129027997Y-84036797D01*
X129153960Y-83848280D01*
X129314280Y-83687960D01*
X129502797Y-83561997D01*
X129712266Y-83475232D01*
X129823451Y-83453116D01*
X129934635Y-83431000D01*
X130161365Y-83431000D01*
X130272549Y-83453116D01*
G37*
G36*
X146971062Y-80485181D02*
G01*
X147005981Y-80495774D01*
X147038163Y-80512976D01*
X147066373Y-80536127D01*
X147089524Y-80564337D01*
X147106726Y-80596519D01*
X147117319Y-80631438D01*
X147121500Y-80673895D01*
X147121500Y-82140105D01*
X147117319Y-82182562D01*
X147106726Y-82217481D01*
X147089524Y-82249663D01*
X147066373Y-82277873D01*
X147038163Y-82301024D01*
X147005981Y-82318226D01*
X146971062Y-82328819D01*
X146928605Y-82333000D01*
X145787395Y-82333000D01*
X145744938Y-82328819D01*
X145710019Y-82318226D01*
X145677837Y-82301024D01*
X145649627Y-82277873D01*
X145626476Y-82249663D01*
X145609274Y-82217481D01*
X145598681Y-82182562D01*
X145594500Y-82140105D01*
X145594500Y-80673895D01*
X145598681Y-80631438D01*
X145609274Y-80596519D01*
X145626476Y-80564337D01*
X145649627Y-80536127D01*
X145677837Y-80512976D01*
X145710019Y-80495774D01*
X145744938Y-80485181D01*
X145787395Y-80481000D01*
X146928605Y-80481000D01*
X146971062Y-80485181D01*
G37*
G36*
X143996062Y-80485181D02*
G01*
X144030981Y-80495774D01*
X144063163Y-80512976D01*
X144091373Y-80536127D01*
X144114524Y-80564337D01*
X144131726Y-80596519D01*
X144142319Y-80631438D01*
X144146500Y-80673895D01*
X144146500Y-82140105D01*
X144142319Y-82182562D01*
X144131726Y-82217481D01*
X144114524Y-82249663D01*
X144091373Y-82277873D01*
X144063163Y-82301024D01*
X144030981Y-82318226D01*
X143996062Y-82328819D01*
X143953605Y-82333000D01*
X142812395Y-82333000D01*
X142769938Y-82328819D01*
X142735019Y-82318226D01*
X142702837Y-82301024D01*
X142674627Y-82277873D01*
X142651476Y-82249663D01*
X142634274Y-82217481D01*
X142623681Y-82182562D01*
X142619500Y-82140105D01*
X142619500Y-80673895D01*
X142623681Y-80631438D01*
X142634274Y-80596519D01*
X142651476Y-80564337D01*
X142674627Y-80536127D01*
X142702837Y-80512976D01*
X142735019Y-80495774D01*
X142769938Y-80485181D01*
X142812395Y-80481000D01*
X143953605Y-80481000D01*
X143996062Y-80485181D01*
G37*
G36*
X130026062Y-80485181D02*
G01*
X130060981Y-80495774D01*
X130093163Y-80512976D01*
X130121373Y-80536127D01*
X130144524Y-80564337D01*
X130161726Y-80596519D01*
X130172319Y-80631438D01*
X130176500Y-80673895D01*
X130176500Y-82140105D01*
X130172319Y-82182562D01*
X130161726Y-82217481D01*
X130144524Y-82249663D01*
X130121373Y-82277873D01*
X130093163Y-82301024D01*
X130060981Y-82318226D01*
X130026062Y-82328819D01*
X129983605Y-82333000D01*
X128842395Y-82333000D01*
X128799938Y-82328819D01*
X128765019Y-82318226D01*
X128732837Y-82301024D01*
X128704627Y-82277873D01*
X128681476Y-82249663D01*
X128664274Y-82217481D01*
X128653681Y-82182562D01*
X128649500Y-82140105D01*
X128649500Y-80673895D01*
X128653681Y-80631438D01*
X128664274Y-80596519D01*
X128681476Y-80564337D01*
X128704627Y-80536127D01*
X128732837Y-80512976D01*
X128765019Y-80495774D01*
X128799938Y-80485181D01*
X128842395Y-80481000D01*
X129983605Y-80481000D01*
X130026062Y-80485181D01*
G37*
G36*
X127051062Y-80485181D02*
G01*
X127085981Y-80495774D01*
X127118163Y-80512976D01*
X127146373Y-80536127D01*
X127169524Y-80564337D01*
X127186726Y-80596519D01*
X127197319Y-80631438D01*
X127201500Y-80673895D01*
X127201500Y-82140105D01*
X127197319Y-82182562D01*
X127186726Y-82217481D01*
X127169524Y-82249663D01*
X127146373Y-82277873D01*
X127118163Y-82301024D01*
X127085981Y-82318226D01*
X127051062Y-82328819D01*
X127008605Y-82333000D01*
X125867395Y-82333000D01*
X125824938Y-82328819D01*
X125790019Y-82318226D01*
X125757837Y-82301024D01*
X125729627Y-82277873D01*
X125706476Y-82249663D01*
X125689274Y-82217481D01*
X125678681Y-82182562D01*
X125674500Y-82140105D01*
X125674500Y-80673895D01*
X125678681Y-80631438D01*
X125689274Y-80596519D01*
X125706476Y-80564337D01*
X125729627Y-80536127D01*
X125757837Y-80512976D01*
X125790019Y-80495774D01*
X125824938Y-80485181D01*
X125867395Y-80481000D01*
X127008605Y-80481000D01*
X127051062Y-80485181D01*
G37*
G36*
X153154000Y-82058000D02*
G01*
X152152000Y-82058000D01*
X152152000Y-80756000D01*
X153154000Y-80756000D01*
X153154000Y-82058000D01*
G37*
G36*
X149854000Y-82058000D02*
G01*
X148852000Y-82058000D01*
X148852000Y-80756000D01*
X149854000Y-80756000D01*
X149854000Y-82058000D01*
G37*
G36*
X124959000Y-82058000D02*
G01*
X123957000Y-82058000D01*
X123957000Y-80756000D01*
X124959000Y-80756000D01*
X124959000Y-82058000D01*
G37*
G36*
X121659000Y-82058000D02*
G01*
X120657000Y-82058000D01*
X120657000Y-80756000D01*
X121659000Y-80756000D01*
X121659000Y-82058000D01*
G37*
G36*
X131996409Y-79727525D02*
G01*
X132081425Y-79753314D01*
X132159774Y-79795193D01*
X132228449Y-79851552D01*
X132284807Y-79920225D01*
X132326686Y-79998574D01*
X132352475Y-80083590D01*
X132359000Y-80149842D01*
X132359000Y-80794158D01*
X132352475Y-80860410D01*
X132326686Y-80945426D01*
X132284807Y-81023775D01*
X132228449Y-81092449D01*
X132159775Y-81148807D01*
X132081426Y-81190686D01*
X131996410Y-81216475D01*
X131908000Y-81225182D01*
X131819591Y-81216475D01*
X131734575Y-81190686D01*
X131656226Y-81148807D01*
X131587552Y-81092449D01*
X131531195Y-81023776D01*
X131489313Y-80945423D01*
X131463525Y-80860410D01*
X131457000Y-80794158D01*
X131457000Y-80149843D01*
X131463525Y-80083591D01*
X131489314Y-79998575D01*
X131531193Y-79920226D01*
X131587552Y-79851551D01*
X131656225Y-79795193D01*
X131734574Y-79753314D01*
X131819590Y-79727525D01*
X131908000Y-79718818D01*
X131996409Y-79727525D01*
G37*
G36*
X140976409Y-79727525D02*
G01*
X141061425Y-79753314D01*
X141139774Y-79795193D01*
X141208449Y-79851552D01*
X141264807Y-79920225D01*
X141306686Y-79998574D01*
X141332475Y-80083590D01*
X141339000Y-80149842D01*
X141339000Y-80794158D01*
X141332475Y-80860410D01*
X141306686Y-80945426D01*
X141264807Y-81023775D01*
X141208449Y-81092449D01*
X141139775Y-81148807D01*
X141061426Y-81190686D01*
X140976410Y-81216475D01*
X140888000Y-81225182D01*
X140799591Y-81216475D01*
X140714575Y-81190686D01*
X140636226Y-81148807D01*
X140567552Y-81092449D01*
X140511195Y-81023776D01*
X140469313Y-80945423D01*
X140443525Y-80860410D01*
X140437000Y-80794158D01*
X140437000Y-80149843D01*
X140443525Y-80083591D01*
X140469314Y-79998575D01*
X140511193Y-79920226D01*
X140567552Y-79851551D01*
X140636225Y-79795193D01*
X140714574Y-79753314D01*
X140799590Y-79727525D01*
X140888000Y-79718818D01*
X140976409Y-79727525D01*
G37*
M02*
