G04 #@! TF.GenerationSoftware,KiCad,Pcbnew,5.1.5+dfsg1-2build2*
G04 #@! TF.CreationDate,2020-07-26T19:57:25+10:00*
G04 #@! TF.ProjectId,macr0,6d616372-302e-46b6-9963-61645f706362,rev?*
G04 #@! TF.SameCoordinates,Original*
G04 #@! TF.FileFunction,Legend,Top*
G04 #@! TF.FilePolarity,Positive*
%FSLAX46Y46*%
G04 Gerber Fmt 4.6, Leading zero omitted, Abs format (unit mm)*
G04 Created by KiCad (PCBNEW 5.1.5+dfsg1-2build2) date 2020-07-26 19:57:25*
%MOMM*%
%LPD*%
G04 APERTURE LIST*
%ADD10C,0.120000*%
%ADD11C,0.150000*%
G04 APERTURE END LIST*
D10*
X120523000Y-82677000D02*
X134493000Y-82677000D01*
X134493000Y-82677000D02*
X134493000Y-96647000D01*
X134493000Y-96647000D02*
X120523000Y-96647000D01*
X120523000Y-96647000D02*
X120523000Y-82677000D01*
X127000000Y-94742000D02*
X128016000Y-94742000D01*
X127762000Y-94742000D02*
X127254000Y-94234000D01*
X127254000Y-94234000D02*
X127254000Y-95250000D01*
X127254000Y-95250000D02*
X127762000Y-94742000D01*
X127762000Y-94234000D02*
X127762000Y-95250000D01*
X127381000Y-93980000D02*
X127635000Y-93726000D01*
X127635000Y-93980000D02*
X127889000Y-93726000D01*
X126492000Y-86614000D02*
X128524000Y-86614000D01*
X127508000Y-86614000D02*
X127508000Y-86106000D01*
X128703605Y-87122000D02*
G75*
G03X128703605Y-87122000I-179605J0D01*
G01*
X126671605Y-87122000D02*
G75*
G03X126671605Y-87122000I-179605J0D01*
G01*
X124841000Y-87122000D02*
X126312395Y-87122000D01*
X128703605Y-87122000D02*
X130048000Y-87122000D01*
X130048000Y-87122000D02*
X130048000Y-85725000D01*
X139573000Y-82677000D02*
X153543000Y-82677000D01*
X153543000Y-82677000D02*
X153543000Y-96647000D01*
X153543000Y-96647000D02*
X139573000Y-96647000D01*
X139573000Y-96647000D02*
X139573000Y-82677000D01*
X146050000Y-94742000D02*
X147066000Y-94742000D01*
X146812000Y-94742000D02*
X146304000Y-94234000D01*
X146304000Y-94234000D02*
X146304000Y-95250000D01*
X146304000Y-95250000D02*
X146812000Y-94742000D01*
X146812000Y-94234000D02*
X146812000Y-95250000D01*
X146431000Y-93980000D02*
X146685000Y-93726000D01*
X146685000Y-93980000D02*
X146939000Y-93726000D01*
X145542000Y-86614000D02*
X147574000Y-86614000D01*
X146558000Y-86614000D02*
X146558000Y-86106000D01*
X147753605Y-87122000D02*
G75*
G03X147753605Y-87122000I-179605J0D01*
G01*
X145721605Y-87122000D02*
G75*
G03X145721605Y-87122000I-179605J0D01*
G01*
X143891000Y-87122000D02*
X145362395Y-87122000D01*
X147753605Y-87122000D02*
X149098000Y-87122000D01*
X149098000Y-87122000D02*
X149098000Y-85725000D01*
X130048000Y-106172000D02*
X130048000Y-104775000D01*
X128703605Y-106172000D02*
X130048000Y-106172000D01*
X124841000Y-106172000D02*
X126312395Y-106172000D01*
X126671605Y-106172000D02*
G75*
G03X126671605Y-106172000I-179605J0D01*
G01*
X128703605Y-106172000D02*
G75*
G03X128703605Y-106172000I-179605J0D01*
G01*
X127508000Y-105664000D02*
X127508000Y-105156000D01*
X126492000Y-105664000D02*
X128524000Y-105664000D01*
X127635000Y-113030000D02*
X127889000Y-112776000D01*
X127381000Y-113030000D02*
X127635000Y-112776000D01*
X127762000Y-113284000D02*
X127762000Y-114300000D01*
X127254000Y-114300000D02*
X127762000Y-113792000D01*
X127254000Y-113284000D02*
X127254000Y-114300000D01*
X127762000Y-113792000D02*
X127254000Y-113284000D01*
X127000000Y-113792000D02*
X128016000Y-113792000D01*
X120523000Y-115697000D02*
X120523000Y-101727000D01*
X134493000Y-115697000D02*
X120523000Y-115697000D01*
X134493000Y-101727000D02*
X134493000Y-115697000D01*
X120523000Y-101727000D02*
X134493000Y-101727000D01*
X149098000Y-106172000D02*
X149098000Y-104775000D01*
X147753605Y-106172000D02*
X149098000Y-106172000D01*
X143891000Y-106172000D02*
X145362395Y-106172000D01*
X145721605Y-106172000D02*
G75*
G03X145721605Y-106172000I-179605J0D01*
G01*
X147753605Y-106172000D02*
G75*
G03X147753605Y-106172000I-179605J0D01*
G01*
X146558000Y-105664000D02*
X146558000Y-105156000D01*
X145542000Y-105664000D02*
X147574000Y-105664000D01*
X146685000Y-113030000D02*
X146939000Y-112776000D01*
X146431000Y-113030000D02*
X146685000Y-112776000D01*
X146812000Y-113284000D02*
X146812000Y-114300000D01*
X146304000Y-114300000D02*
X146812000Y-113792000D01*
X146304000Y-113284000D02*
X146304000Y-114300000D01*
X146812000Y-113792000D02*
X146304000Y-113284000D01*
X146050000Y-113792000D02*
X147066000Y-113792000D01*
X139573000Y-115697000D02*
X139573000Y-101727000D01*
X153543000Y-115697000D02*
X139573000Y-115697000D01*
X153543000Y-101727000D02*
X153543000Y-115697000D01*
X139573000Y-101727000D02*
X153543000Y-101727000D01*
D11*
X126746095Y-82192761D02*
X126888952Y-82240380D01*
X127127047Y-82240380D01*
X127222285Y-82192761D01*
X127269904Y-82145142D01*
X127317523Y-82049904D01*
X127317523Y-81954666D01*
X127269904Y-81859428D01*
X127222285Y-81811809D01*
X127127047Y-81764190D01*
X126936571Y-81716571D01*
X126841333Y-81668952D01*
X126793714Y-81621333D01*
X126746095Y-81526095D01*
X126746095Y-81430857D01*
X126793714Y-81335619D01*
X126841333Y-81288000D01*
X126936571Y-81240380D01*
X127174666Y-81240380D01*
X127317523Y-81288000D01*
X128269904Y-82240380D02*
X127698476Y-82240380D01*
X127984190Y-82240380D02*
X127984190Y-81240380D01*
X127888952Y-81383238D01*
X127793714Y-81478476D01*
X127698476Y-81526095D01*
X145796095Y-82192761D02*
X145938952Y-82240380D01*
X146177047Y-82240380D01*
X146272285Y-82192761D01*
X146319904Y-82145142D01*
X146367523Y-82049904D01*
X146367523Y-81954666D01*
X146319904Y-81859428D01*
X146272285Y-81811809D01*
X146177047Y-81764190D01*
X145986571Y-81716571D01*
X145891333Y-81668952D01*
X145843714Y-81621333D01*
X145796095Y-81526095D01*
X145796095Y-81430857D01*
X145843714Y-81335619D01*
X145891333Y-81288000D01*
X145986571Y-81240380D01*
X146224666Y-81240380D01*
X146367523Y-81288000D01*
X146748476Y-81335619D02*
X146796095Y-81288000D01*
X146891333Y-81240380D01*
X147129428Y-81240380D01*
X147224666Y-81288000D01*
X147272285Y-81335619D01*
X147319904Y-81430857D01*
X147319904Y-81526095D01*
X147272285Y-81668952D01*
X146700857Y-82240380D01*
X147319904Y-82240380D01*
X126746095Y-101242761D02*
X126888952Y-101290380D01*
X127127047Y-101290380D01*
X127222285Y-101242761D01*
X127269904Y-101195142D01*
X127317523Y-101099904D01*
X127317523Y-101004666D01*
X127269904Y-100909428D01*
X127222285Y-100861809D01*
X127127047Y-100814190D01*
X126936571Y-100766571D01*
X126841333Y-100718952D01*
X126793714Y-100671333D01*
X126746095Y-100576095D01*
X126746095Y-100480857D01*
X126793714Y-100385619D01*
X126841333Y-100338000D01*
X126936571Y-100290380D01*
X127174666Y-100290380D01*
X127317523Y-100338000D01*
X127650857Y-100290380D02*
X128269904Y-100290380D01*
X127936571Y-100671333D01*
X128079428Y-100671333D01*
X128174666Y-100718952D01*
X128222285Y-100766571D01*
X128269904Y-100861809D01*
X128269904Y-101099904D01*
X128222285Y-101195142D01*
X128174666Y-101242761D01*
X128079428Y-101290380D01*
X127793714Y-101290380D01*
X127698476Y-101242761D01*
X127650857Y-101195142D01*
X145796095Y-101242761D02*
X145938952Y-101290380D01*
X146177047Y-101290380D01*
X146272285Y-101242761D01*
X146319904Y-101195142D01*
X146367523Y-101099904D01*
X146367523Y-101004666D01*
X146319904Y-100909428D01*
X146272285Y-100861809D01*
X146177047Y-100814190D01*
X145986571Y-100766571D01*
X145891333Y-100718952D01*
X145843714Y-100671333D01*
X145796095Y-100576095D01*
X145796095Y-100480857D01*
X145843714Y-100385619D01*
X145891333Y-100338000D01*
X145986571Y-100290380D01*
X146224666Y-100290380D01*
X146367523Y-100338000D01*
X147224666Y-100623714D02*
X147224666Y-101290380D01*
X146986571Y-100242761D02*
X146748476Y-100957047D01*
X147367523Y-100957047D01*
M02*
