G04 #@! TF.GenerationSoftware,KiCad,Pcbnew,5.1.5+dfsg1-2build2*
G04 #@! TF.CreationDate,2020-07-26T19:44:38+10:00*
G04 #@! TF.ProjectId,macr0,6d616372-302e-46b6-9963-61645f706362,rev?*
G04 #@! TF.SameCoordinates,Original*
G04 #@! TF.FileFunction,Legend,Bot*
G04 #@! TF.FilePolarity,Positive*
%FSLAX46Y46*%
G04 Gerber Fmt 4.6, Leading zero omitted, Abs format (unit mm)*
G04 Created by KiCad (PCBNEW 5.1.5+dfsg1-2build2) date 2020-07-26 19:44:38*
%MOMM*%
%LPD*%
G04 APERTURE LIST*
%ADD10C,0.120000*%
%ADD11C,0.150000*%
G04 APERTURE END LIST*
D10*
X122788000Y-95627436D02*
X122788000Y-96831564D01*
X124608000Y-95627436D02*
X124608000Y-96831564D01*
X124583436Y-104542000D02*
X125787564Y-104542000D01*
X124583436Y-102722000D02*
X125787564Y-102722000D01*
X132482000Y-112464436D02*
X132482000Y-113668564D01*
X130662000Y-112464436D02*
X130662000Y-113668564D01*
X131768436Y-107167000D02*
X132972564Y-107167000D01*
X131768436Y-108987000D02*
X132972564Y-108987000D01*
X120558000Y-82407000D02*
X124458000Y-82407000D01*
X120558000Y-80407000D02*
X124458000Y-80407000D01*
X120558000Y-82407000D02*
X120558000Y-80407000D01*
X148753000Y-82407000D02*
X148753000Y-80407000D01*
X148753000Y-80407000D02*
X152653000Y-80407000D01*
X148753000Y-82407000D02*
X152653000Y-82407000D01*
X122718000Y-101457000D02*
X122718000Y-99457000D01*
X122718000Y-99457000D02*
X126618000Y-99457000D01*
X122718000Y-101457000D02*
X126618000Y-101457000D01*
X148118000Y-100822000D02*
X152018000Y-100822000D01*
X148118000Y-98822000D02*
X152018000Y-98822000D01*
X148118000Y-100822000D02*
X148118000Y-98822000D01*
X139648000Y-88682000D02*
X141148000Y-88682000D01*
X141148000Y-88682000D02*
X141148000Y-81422000D01*
X131648000Y-88682000D02*
X131648000Y-81422000D01*
X131648000Y-88682000D02*
X133148000Y-88682000D01*
X142896000Y-114496436D02*
X142896000Y-115700564D01*
X141076000Y-114496436D02*
X141076000Y-115700564D01*
X150818436Y-98192000D02*
X152022564Y-98192000D01*
X150818436Y-96372000D02*
X152022564Y-96372000D01*
X131301309Y-91766077D02*
X132152756Y-90914630D01*
X132588244Y-93053012D02*
X133439691Y-92201565D01*
X143400370Y-92202435D02*
X142548923Y-91350988D01*
X142113435Y-93489370D02*
X141261988Y-92637923D01*
X127323436Y-82317000D02*
X128527564Y-82317000D01*
X127323436Y-80497000D02*
X128527564Y-80497000D01*
X145472564Y-82317000D02*
X144268436Y-82317000D01*
X145472564Y-80497000D02*
X144268436Y-80497000D01*
X153031436Y-104542000D02*
X154235564Y-104542000D01*
X153031436Y-102722000D02*
X154235564Y-102722000D01*
X149678000Y-94162000D02*
X149708000Y-94162000D01*
X156138000Y-94162000D02*
X156108000Y-94162000D01*
X156138000Y-87702000D02*
X156108000Y-87702000D01*
X149708000Y-87702000D02*
X149678000Y-87702000D01*
X151608000Y-94162000D02*
X154208000Y-94162000D01*
X149678000Y-87702000D02*
X149678000Y-94162000D01*
X151608000Y-87702000D02*
X154208000Y-87702000D01*
X156138000Y-87702000D02*
X156138000Y-94162000D01*
D11*
X137668000Y-107140555D02*
X137261414Y-106733969D01*
X144986555Y-99822000D02*
X144509258Y-99344703D01*
X137668000Y-92503445D02*
X138145297Y-92980742D01*
X130349445Y-99822000D02*
X130826742Y-100299297D01*
X137668000Y-107140555D02*
X138145297Y-106663258D01*
X130349445Y-99822000D02*
X130826742Y-99344703D01*
X137668000Y-92503445D02*
X137190703Y-92980742D01*
X144986555Y-99822000D02*
X144509258Y-100299297D01*
X137261414Y-106733969D02*
X136359852Y-107635530D01*
D10*
X154813000Y-114182000D02*
X155613000Y-113382000D01*
X155613000Y-113382000D02*
X155613000Y-105782000D01*
X155613000Y-105782000D02*
X150203000Y-105782000D01*
X150203000Y-105782000D02*
X150203000Y-114182000D01*
X150203000Y-114182000D02*
X154813000Y-114182000D01*
X117338000Y-104864500D02*
X117338000Y-88889500D01*
X117338000Y-88889500D02*
X122438000Y-88889500D01*
X122438000Y-88889500D02*
X122438000Y-104864500D01*
X139760000Y-110176000D02*
X138430000Y-110176000D01*
X139760000Y-111506000D02*
X139760000Y-110176000D01*
X137160000Y-110176000D02*
X134560000Y-110176000D01*
X137160000Y-112776000D02*
X137160000Y-110176000D01*
X139760000Y-112776000D02*
X137160000Y-112776000D01*
X134560000Y-110176000D02*
X134560000Y-117916000D01*
X139760000Y-112776000D02*
X139760000Y-117916000D01*
X139760000Y-117916000D02*
X134560000Y-117916000D01*
D11*
X126102857Y-92511619D02*
X126055238Y-92464000D01*
X125960000Y-92416380D01*
X125721904Y-92416380D01*
X125626666Y-92464000D01*
X125579047Y-92511619D01*
X125531428Y-92606857D01*
X125531428Y-92702095D01*
X125579047Y-92844952D01*
X126150476Y-93416380D01*
X125531428Y-93416380D01*
X125150476Y-92511619D02*
X125102857Y-92464000D01*
X125007619Y-92416380D01*
X124769523Y-92416380D01*
X124674285Y-92464000D01*
X124626666Y-92511619D01*
X124579047Y-92606857D01*
X124579047Y-92702095D01*
X124626666Y-92844952D01*
X125198095Y-93416380D01*
X124579047Y-93416380D01*
X124150476Y-92749714D02*
X124150476Y-93749714D01*
X124150476Y-92797333D02*
X124055238Y-92749714D01*
X123864761Y-92749714D01*
X123769523Y-92797333D01*
X123721904Y-92844952D01*
X123674285Y-92940190D01*
X123674285Y-93225904D01*
X123721904Y-93321142D01*
X123769523Y-93368761D01*
X123864761Y-93416380D01*
X124055238Y-93416380D01*
X124150476Y-93368761D01*
X122912380Y-92892571D02*
X123245714Y-92892571D01*
X123245714Y-93416380D02*
X123245714Y-92416380D01*
X122769523Y-92416380D01*
X128134857Y-104957619D02*
X128087238Y-104910000D01*
X127992000Y-104862380D01*
X127753904Y-104862380D01*
X127658666Y-104910000D01*
X127611047Y-104957619D01*
X127563428Y-105052857D01*
X127563428Y-105148095D01*
X127611047Y-105290952D01*
X128182476Y-105862380D01*
X127563428Y-105862380D01*
X127182476Y-104957619D02*
X127134857Y-104910000D01*
X127039619Y-104862380D01*
X126801523Y-104862380D01*
X126706285Y-104910000D01*
X126658666Y-104957619D01*
X126611047Y-105052857D01*
X126611047Y-105148095D01*
X126658666Y-105290952D01*
X127230095Y-105862380D01*
X126611047Y-105862380D01*
X125753904Y-105195714D02*
X125753904Y-105862380D01*
X126182476Y-105195714D02*
X126182476Y-105719523D01*
X126134857Y-105814761D01*
X126039619Y-105862380D01*
X125896761Y-105862380D01*
X125801523Y-105814761D01*
X125753904Y-105767142D01*
X124944380Y-105338571D02*
X125277714Y-105338571D01*
X125277714Y-105862380D02*
X125277714Y-104862380D01*
X124801523Y-104862380D01*
X132167238Y-116784380D02*
X132738666Y-116784380D01*
X132452952Y-116784380D02*
X132452952Y-115784380D01*
X132548190Y-115927238D01*
X132643428Y-116022476D01*
X132738666Y-116070095D01*
X131310095Y-116117714D02*
X131310095Y-116784380D01*
X131738666Y-116117714D02*
X131738666Y-116641523D01*
X131691047Y-116736761D01*
X131595809Y-116784380D01*
X131452952Y-116784380D01*
X131357714Y-116736761D01*
X131310095Y-116689142D01*
X130500571Y-116260571D02*
X130833904Y-116260571D01*
X130833904Y-116784380D02*
X130833904Y-115784380D01*
X130357714Y-115784380D01*
X133441928Y-106709380D02*
X134013357Y-106709380D01*
X133727642Y-106709380D02*
X133727642Y-105709380D01*
X133822880Y-105852238D01*
X133918119Y-105947476D01*
X134013357Y-105995095D01*
X132822880Y-105709380D02*
X132727642Y-105709380D01*
X132632404Y-105757000D01*
X132584785Y-105804619D01*
X132537166Y-105899857D01*
X132489547Y-106090333D01*
X132489547Y-106328428D01*
X132537166Y-106518904D01*
X132584785Y-106614142D01*
X132632404Y-106661761D01*
X132727642Y-106709380D01*
X132822880Y-106709380D01*
X132918119Y-106661761D01*
X132965738Y-106614142D01*
X133013357Y-106518904D01*
X133060976Y-106328428D01*
X133060976Y-106090333D01*
X133013357Y-105899857D01*
X132965738Y-105804619D01*
X132918119Y-105757000D01*
X132822880Y-105709380D01*
X131632404Y-106042714D02*
X131632404Y-106709380D01*
X132060976Y-106042714D02*
X132060976Y-106566523D01*
X132013357Y-106661761D01*
X131918119Y-106709380D01*
X131775261Y-106709380D01*
X131680023Y-106661761D01*
X131632404Y-106614142D01*
X130822880Y-106185571D02*
X131156214Y-106185571D01*
X131156214Y-106709380D02*
X131156214Y-105709380D01*
X130680023Y-105709380D01*
X124046095Y-83097714D02*
X124046095Y-83764380D01*
X124284190Y-82716761D02*
X124522285Y-83431047D01*
X123903238Y-83431047D01*
X122998476Y-83764380D02*
X123569904Y-83764380D01*
X123284190Y-83764380D02*
X123284190Y-82764380D01*
X123379428Y-82907238D01*
X123474666Y-83002476D01*
X123569904Y-83050095D01*
X122141333Y-83097714D02*
X122141333Y-83764380D01*
X122379428Y-82716761D02*
X122617523Y-83431047D01*
X121998476Y-83431047D01*
X121474666Y-83192952D02*
X121569904Y-83145333D01*
X121617523Y-83097714D01*
X121665142Y-83002476D01*
X121665142Y-82954857D01*
X121617523Y-82859619D01*
X121569904Y-82812000D01*
X121474666Y-82764380D01*
X121284190Y-82764380D01*
X121188952Y-82812000D01*
X121141333Y-82859619D01*
X121093714Y-82954857D01*
X121093714Y-83002476D01*
X121141333Y-83097714D01*
X121188952Y-83145333D01*
X121284190Y-83192952D01*
X121474666Y-83192952D01*
X121569904Y-83240571D01*
X121617523Y-83288190D01*
X121665142Y-83383428D01*
X121665142Y-83573904D01*
X121617523Y-83669142D01*
X121569904Y-83716761D01*
X121474666Y-83764380D01*
X121284190Y-83764380D01*
X121188952Y-83716761D01*
X121141333Y-83669142D01*
X121093714Y-83573904D01*
X121093714Y-83383428D01*
X121141333Y-83288190D01*
X121188952Y-83240571D01*
X121284190Y-83192952D01*
X153638095Y-83097714D02*
X153638095Y-83764380D01*
X153876190Y-82716761D02*
X154114285Y-83431047D01*
X153495238Y-83431047D01*
X152590476Y-83764380D02*
X153161904Y-83764380D01*
X152876190Y-83764380D02*
X152876190Y-82764380D01*
X152971428Y-82907238D01*
X153066666Y-83002476D01*
X153161904Y-83050095D01*
X151733333Y-83097714D02*
X151733333Y-83764380D01*
X151971428Y-82716761D02*
X152209523Y-83431047D01*
X151590476Y-83431047D01*
X151066666Y-83192952D02*
X151161904Y-83145333D01*
X151209523Y-83097714D01*
X151257142Y-83002476D01*
X151257142Y-82954857D01*
X151209523Y-82859619D01*
X151161904Y-82812000D01*
X151066666Y-82764380D01*
X150876190Y-82764380D01*
X150780952Y-82812000D01*
X150733333Y-82859619D01*
X150685714Y-82954857D01*
X150685714Y-83002476D01*
X150733333Y-83097714D01*
X150780952Y-83145333D01*
X150876190Y-83192952D01*
X151066666Y-83192952D01*
X151161904Y-83240571D01*
X151209523Y-83288190D01*
X151257142Y-83383428D01*
X151257142Y-83573904D01*
X151209523Y-83669142D01*
X151161904Y-83716761D01*
X151066666Y-83764380D01*
X150876190Y-83764380D01*
X150780952Y-83716761D01*
X150733333Y-83669142D01*
X150685714Y-83573904D01*
X150685714Y-83383428D01*
X150733333Y-83288190D01*
X150780952Y-83240571D01*
X150876190Y-83192952D01*
X127984095Y-98337714D02*
X127984095Y-99004380D01*
X128222190Y-97956761D02*
X128460285Y-98671047D01*
X127841238Y-98671047D01*
X126936476Y-99004380D02*
X127507904Y-99004380D01*
X127222190Y-99004380D02*
X127222190Y-98004380D01*
X127317428Y-98147238D01*
X127412666Y-98242476D01*
X127507904Y-98290095D01*
X126079333Y-98337714D02*
X126079333Y-99004380D01*
X126317428Y-97956761D02*
X126555523Y-98671047D01*
X125936476Y-98671047D01*
X125412666Y-98432952D02*
X125507904Y-98385333D01*
X125555523Y-98337714D01*
X125603142Y-98242476D01*
X125603142Y-98194857D01*
X125555523Y-98099619D01*
X125507904Y-98052000D01*
X125412666Y-98004380D01*
X125222190Y-98004380D01*
X125126952Y-98052000D01*
X125079333Y-98099619D01*
X125031714Y-98194857D01*
X125031714Y-98242476D01*
X125079333Y-98337714D01*
X125126952Y-98385333D01*
X125222190Y-98432952D01*
X125412666Y-98432952D01*
X125507904Y-98480571D01*
X125555523Y-98528190D01*
X125603142Y-98623428D01*
X125603142Y-98813904D01*
X125555523Y-98909142D01*
X125507904Y-98956761D01*
X125412666Y-99004380D01*
X125222190Y-99004380D01*
X125126952Y-98956761D01*
X125079333Y-98909142D01*
X125031714Y-98813904D01*
X125031714Y-98623428D01*
X125079333Y-98528190D01*
X125126952Y-98480571D01*
X125222190Y-98432952D01*
X151606095Y-101385714D02*
X151606095Y-102052380D01*
X151844190Y-101004761D02*
X152082285Y-101719047D01*
X151463238Y-101719047D01*
X150558476Y-102052380D02*
X151129904Y-102052380D01*
X150844190Y-102052380D02*
X150844190Y-101052380D01*
X150939428Y-101195238D01*
X151034666Y-101290476D01*
X151129904Y-101338095D01*
X149701333Y-101385714D02*
X149701333Y-102052380D01*
X149939428Y-101004761D02*
X150177523Y-101719047D01*
X149558476Y-101719047D01*
X149034666Y-101480952D02*
X149129904Y-101433333D01*
X149177523Y-101385714D01*
X149225142Y-101290476D01*
X149225142Y-101242857D01*
X149177523Y-101147619D01*
X149129904Y-101100000D01*
X149034666Y-101052380D01*
X148844190Y-101052380D01*
X148748952Y-101100000D01*
X148701333Y-101147619D01*
X148653714Y-101242857D01*
X148653714Y-101290476D01*
X148701333Y-101385714D01*
X148748952Y-101433333D01*
X148844190Y-101480952D01*
X149034666Y-101480952D01*
X149129904Y-101528571D01*
X149177523Y-101576190D01*
X149225142Y-101671428D01*
X149225142Y-101861904D01*
X149177523Y-101957142D01*
X149129904Y-102004761D01*
X149034666Y-102052380D01*
X148844190Y-102052380D01*
X148748952Y-102004761D01*
X148701333Y-101957142D01*
X148653714Y-101861904D01*
X148653714Y-101671428D01*
X148701333Y-101576190D01*
X148748952Y-101528571D01*
X148844190Y-101480952D01*
X139286952Y-89368380D02*
X139286952Y-90177904D01*
X139239333Y-90273142D01*
X139191714Y-90320761D01*
X139096476Y-90368380D01*
X138906000Y-90368380D01*
X138810761Y-90320761D01*
X138763142Y-90273142D01*
X138715523Y-90177904D01*
X138715523Y-89368380D01*
X138286952Y-90320761D02*
X138144095Y-90368380D01*
X137906000Y-90368380D01*
X137810761Y-90320761D01*
X137763142Y-90273142D01*
X137715523Y-90177904D01*
X137715523Y-90082666D01*
X137763142Y-89987428D01*
X137810761Y-89939809D01*
X137906000Y-89892190D01*
X138096476Y-89844571D01*
X138191714Y-89796952D01*
X138239333Y-89749333D01*
X138286952Y-89654095D01*
X138286952Y-89558857D01*
X138239333Y-89463619D01*
X138191714Y-89416000D01*
X138096476Y-89368380D01*
X137858380Y-89368380D01*
X137715523Y-89416000D01*
X136953619Y-89844571D02*
X136810761Y-89892190D01*
X136763142Y-89939809D01*
X136715523Y-90035047D01*
X136715523Y-90177904D01*
X136763142Y-90273142D01*
X136810761Y-90320761D01*
X136906000Y-90368380D01*
X137286952Y-90368380D01*
X137286952Y-89368380D01*
X136953619Y-89368380D01*
X136858380Y-89416000D01*
X136810761Y-89463619D01*
X136763142Y-89558857D01*
X136763142Y-89654095D01*
X136810761Y-89749333D01*
X136858380Y-89796952D01*
X136953619Y-89844571D01*
X137286952Y-89844571D01*
X136286952Y-89987428D02*
X135525047Y-89987428D01*
X134477428Y-90273142D02*
X134525047Y-90320761D01*
X134667904Y-90368380D01*
X134763142Y-90368380D01*
X134906000Y-90320761D01*
X135001238Y-90225523D01*
X135048857Y-90130285D01*
X135096476Y-89939809D01*
X135096476Y-89796952D01*
X135048857Y-89606476D01*
X135001238Y-89511238D01*
X134906000Y-89416000D01*
X134763142Y-89368380D01*
X134667904Y-89368380D01*
X134525047Y-89416000D01*
X134477428Y-89463619D01*
X143851238Y-112212380D02*
X144422666Y-112212380D01*
X144136952Y-112212380D02*
X144136952Y-111212380D01*
X144232190Y-111355238D01*
X144327428Y-111450476D01*
X144422666Y-111498095D01*
X143232190Y-111212380D02*
X143136952Y-111212380D01*
X143041714Y-111260000D01*
X142994095Y-111307619D01*
X142946476Y-111402857D01*
X142898857Y-111593333D01*
X142898857Y-111831428D01*
X142946476Y-112021904D01*
X142994095Y-112117142D01*
X143041714Y-112164761D01*
X143136952Y-112212380D01*
X143232190Y-112212380D01*
X143327428Y-112164761D01*
X143375047Y-112117142D01*
X143422666Y-112021904D01*
X143470285Y-111831428D01*
X143470285Y-111593333D01*
X143422666Y-111402857D01*
X143375047Y-111307619D01*
X143327428Y-111260000D01*
X143232190Y-111212380D01*
X142470285Y-112212380D02*
X142470285Y-111212380D01*
X142375047Y-111831428D02*
X142089333Y-112212380D01*
X142089333Y-111545714D02*
X142470285Y-111926666D01*
X155789238Y-97734380D02*
X156360666Y-97734380D01*
X156074952Y-97734380D02*
X156074952Y-96734380D01*
X156170190Y-96877238D01*
X156265428Y-96972476D01*
X156360666Y-97020095D01*
X155170190Y-96734380D02*
X155074952Y-96734380D01*
X154979714Y-96782000D01*
X154932095Y-96829619D01*
X154884476Y-96924857D01*
X154836857Y-97115333D01*
X154836857Y-97353428D01*
X154884476Y-97543904D01*
X154932095Y-97639142D01*
X154979714Y-97686761D01*
X155074952Y-97734380D01*
X155170190Y-97734380D01*
X155265428Y-97686761D01*
X155313047Y-97639142D01*
X155360666Y-97543904D01*
X155408285Y-97353428D01*
X155408285Y-97115333D01*
X155360666Y-96924857D01*
X155313047Y-96829619D01*
X155265428Y-96782000D01*
X155170190Y-96734380D01*
X154408285Y-97734380D02*
X154408285Y-96734380D01*
X154313047Y-97353428D02*
X154027333Y-97734380D01*
X154027333Y-97067714D02*
X154408285Y-97448666D01*
X131452857Y-89622380D02*
X131929047Y-89622380D01*
X131976666Y-90098571D01*
X131929047Y-90050952D01*
X131833809Y-90003333D01*
X131595714Y-90003333D01*
X131500476Y-90050952D01*
X131452857Y-90098571D01*
X131405238Y-90193809D01*
X131405238Y-90431904D01*
X131452857Y-90527142D01*
X131500476Y-90574761D01*
X131595714Y-90622380D01*
X131833809Y-90622380D01*
X131929047Y-90574761D01*
X131976666Y-90527142D01*
X130976666Y-90622380D02*
X130976666Y-89622380D01*
X130881428Y-90241428D02*
X130595714Y-90622380D01*
X130595714Y-89955714D02*
X130976666Y-90336666D01*
X129643333Y-90622380D02*
X130214761Y-90622380D01*
X129929047Y-90622380D02*
X129929047Y-89622380D01*
X130024285Y-89765238D01*
X130119523Y-89860476D01*
X130214761Y-89908095D01*
X146692857Y-92162380D02*
X147169047Y-92162380D01*
X147216666Y-92638571D01*
X147169047Y-92590952D01*
X147073809Y-92543333D01*
X146835714Y-92543333D01*
X146740476Y-92590952D01*
X146692857Y-92638571D01*
X146645238Y-92733809D01*
X146645238Y-92971904D01*
X146692857Y-93067142D01*
X146740476Y-93114761D01*
X146835714Y-93162380D01*
X147073809Y-93162380D01*
X147169047Y-93114761D01*
X147216666Y-93067142D01*
X146216666Y-93162380D02*
X146216666Y-92162380D01*
X146121428Y-92781428D02*
X145835714Y-93162380D01*
X145835714Y-92495714D02*
X146216666Y-92876666D01*
X144883333Y-93162380D02*
X145454761Y-93162380D01*
X145169047Y-93162380D02*
X145169047Y-92162380D01*
X145264285Y-92305238D01*
X145359523Y-92400476D01*
X145454761Y-92448095D01*
X128523904Y-82859619D02*
X128476285Y-82812000D01*
X128381047Y-82764380D01*
X128142952Y-82764380D01*
X128047714Y-82812000D01*
X128000095Y-82859619D01*
X127952476Y-82954857D01*
X127952476Y-83050095D01*
X128000095Y-83192952D01*
X128571523Y-83764380D01*
X127952476Y-83764380D01*
X127571523Y-82859619D02*
X127523904Y-82812000D01*
X127428666Y-82764380D01*
X127190571Y-82764380D01*
X127095333Y-82812000D01*
X127047714Y-82859619D01*
X127000095Y-82954857D01*
X127000095Y-83050095D01*
X127047714Y-83192952D01*
X127619142Y-83764380D01*
X127000095Y-83764380D01*
X145541904Y-82859619D02*
X145494285Y-82812000D01*
X145399047Y-82764380D01*
X145160952Y-82764380D01*
X145065714Y-82812000D01*
X145018095Y-82859619D01*
X144970476Y-82954857D01*
X144970476Y-83050095D01*
X145018095Y-83192952D01*
X145589523Y-83764380D01*
X144970476Y-83764380D01*
X144589523Y-82859619D02*
X144541904Y-82812000D01*
X144446666Y-82764380D01*
X144208571Y-82764380D01*
X144113333Y-82812000D01*
X144065714Y-82859619D01*
X144018095Y-82954857D01*
X144018095Y-83050095D01*
X144065714Y-83192952D01*
X144637142Y-83764380D01*
X144018095Y-83764380D01*
X153884285Y-101306380D02*
X154074761Y-101306380D01*
X154170000Y-101354000D01*
X154217619Y-101401619D01*
X154312857Y-101544476D01*
X154360476Y-101734952D01*
X154360476Y-102115904D01*
X154312857Y-102211142D01*
X154265238Y-102258761D01*
X154170000Y-102306380D01*
X153979523Y-102306380D01*
X153884285Y-102258761D01*
X153836666Y-102211142D01*
X153789047Y-102115904D01*
X153789047Y-101877809D01*
X153836666Y-101782571D01*
X153884285Y-101734952D01*
X153979523Y-101687333D01*
X154170000Y-101687333D01*
X154265238Y-101734952D01*
X154312857Y-101782571D01*
X154360476Y-101877809D01*
X153360476Y-102306380D02*
X153360476Y-101306380D01*
X153265238Y-101925428D02*
X152979523Y-102306380D01*
X152979523Y-101639714D02*
X153360476Y-102020666D01*
X155757238Y-85796380D02*
X155757238Y-84796380D01*
X155519142Y-84796380D01*
X155376285Y-84844000D01*
X155281047Y-84939238D01*
X155233428Y-85034476D01*
X155185809Y-85224952D01*
X155185809Y-85367809D01*
X155233428Y-85558285D01*
X155281047Y-85653523D01*
X155376285Y-85748761D01*
X155519142Y-85796380D01*
X155757238Y-85796380D01*
X154757238Y-85796380D02*
X154757238Y-84796380D01*
X154281047Y-85796380D02*
X154281047Y-84796380D01*
X153947714Y-85510666D01*
X153614380Y-84796380D01*
X153614380Y-85796380D01*
X153138190Y-85796380D02*
X153138190Y-84796380D01*
X152804857Y-85510666D01*
X152471523Y-84796380D01*
X152471523Y-85796380D01*
X151995333Y-85272571D02*
X151662000Y-85272571D01*
X151519142Y-85796380D02*
X151995333Y-85796380D01*
X151995333Y-84796380D01*
X151519142Y-84796380D01*
X150519142Y-85796380D02*
X150852476Y-85320190D01*
X151090571Y-85796380D02*
X151090571Y-84796380D01*
X150709619Y-84796380D01*
X150614380Y-84844000D01*
X150566761Y-84891619D01*
X150519142Y-84986857D01*
X150519142Y-85129714D01*
X150566761Y-85224952D01*
X150614380Y-85272571D01*
X150709619Y-85320190D01*
X151090571Y-85320190D01*
X143087468Y-104163972D02*
X143659888Y-104736392D01*
X143693560Y-104837407D01*
X143693560Y-104904751D01*
X143659888Y-105005766D01*
X143525201Y-105140453D01*
X143424186Y-105174125D01*
X143356842Y-105174125D01*
X143255827Y-105140453D01*
X142683407Y-104568033D01*
X142683407Y-105982247D02*
X143087468Y-105578186D01*
X142885438Y-105780216D02*
X142178331Y-105073110D01*
X142346690Y-105106781D01*
X142481377Y-105106781D01*
X142582392Y-105073110D01*
X141985428Y-99734666D02*
X141509238Y-99734666D01*
X142080666Y-100020380D02*
X141747333Y-99020380D01*
X141414000Y-100020380D01*
X141223523Y-99020380D02*
X140652095Y-99020380D01*
X140937809Y-100020380D02*
X140937809Y-99020380D01*
X140318761Y-100020380D02*
X140318761Y-99353714D01*
X140318761Y-99448952D02*
X140271142Y-99401333D01*
X140175904Y-99353714D01*
X140033047Y-99353714D01*
X139937809Y-99401333D01*
X139890190Y-99496571D01*
X139890190Y-100020380D01*
X139890190Y-99496571D02*
X139842571Y-99401333D01*
X139747333Y-99353714D01*
X139604476Y-99353714D01*
X139509238Y-99401333D01*
X139461619Y-99496571D01*
X139461619Y-100020380D01*
X138604476Y-99972761D02*
X138699714Y-100020380D01*
X138890190Y-100020380D01*
X138985428Y-99972761D01*
X139033047Y-99877523D01*
X139033047Y-99496571D01*
X138985428Y-99401333D01*
X138890190Y-99353714D01*
X138699714Y-99353714D01*
X138604476Y-99401333D01*
X138556857Y-99496571D01*
X138556857Y-99591809D01*
X139033047Y-99687047D01*
X137699714Y-99353714D02*
X137699714Y-100163238D01*
X137747333Y-100258476D01*
X137794952Y-100306095D01*
X137890190Y-100353714D01*
X138033047Y-100353714D01*
X138128285Y-100306095D01*
X137699714Y-99972761D02*
X137794952Y-100020380D01*
X137985428Y-100020380D01*
X138080666Y-99972761D01*
X138128285Y-99925142D01*
X138175904Y-99829904D01*
X138175904Y-99544190D01*
X138128285Y-99448952D01*
X138080666Y-99401333D01*
X137985428Y-99353714D01*
X137794952Y-99353714D01*
X137699714Y-99401333D01*
X136794952Y-100020380D02*
X136794952Y-99496571D01*
X136842571Y-99401333D01*
X136937809Y-99353714D01*
X137128285Y-99353714D01*
X137223523Y-99401333D01*
X136794952Y-99972761D02*
X136890190Y-100020380D01*
X137128285Y-100020380D01*
X137223523Y-99972761D01*
X137271142Y-99877523D01*
X137271142Y-99782285D01*
X137223523Y-99687047D01*
X137128285Y-99639428D01*
X136890190Y-99639428D01*
X136794952Y-99591809D01*
X136414000Y-99020380D02*
X135794952Y-99020380D01*
X136128285Y-99401333D01*
X135985428Y-99401333D01*
X135890190Y-99448952D01*
X135842571Y-99496571D01*
X135794952Y-99591809D01*
X135794952Y-99829904D01*
X135842571Y-99925142D01*
X135890190Y-99972761D01*
X135985428Y-100020380D01*
X136271142Y-100020380D01*
X136366380Y-99972761D01*
X136414000Y-99925142D01*
X135414000Y-99115619D02*
X135366380Y-99068000D01*
X135271142Y-99020380D01*
X135033047Y-99020380D01*
X134937809Y-99068000D01*
X134890190Y-99115619D01*
X134842571Y-99210857D01*
X134842571Y-99306095D01*
X134890190Y-99448952D01*
X135461619Y-100020380D01*
X134842571Y-100020380D01*
X134414000Y-99020380D02*
X134414000Y-99829904D01*
X134366380Y-99925142D01*
X134318761Y-99972761D01*
X134223523Y-100020380D01*
X134033047Y-100020380D01*
X133937809Y-99972761D01*
X133890190Y-99925142D01*
X133842571Y-99829904D01*
X133842571Y-99020380D01*
X132937809Y-99353714D02*
X132937809Y-100020380D01*
X133175904Y-98972761D02*
X133414000Y-99687047D01*
X132794952Y-99687047D01*
X154804761Y-115419142D02*
X154852380Y-115466761D01*
X154995238Y-115514380D01*
X155090476Y-115514380D01*
X155233333Y-115466761D01*
X155328571Y-115371523D01*
X155376190Y-115276285D01*
X155423809Y-115085809D01*
X155423809Y-114942952D01*
X155376190Y-114752476D01*
X155328571Y-114657238D01*
X155233333Y-114562000D01*
X155090476Y-114514380D01*
X154995238Y-114514380D01*
X154852380Y-114562000D01*
X154804761Y-114609619D01*
X154423809Y-115228666D02*
X153947619Y-115228666D01*
X154519047Y-115514380D02*
X154185714Y-114514380D01*
X153852380Y-115514380D01*
X153661904Y-114514380D02*
X153090476Y-114514380D01*
X153376190Y-115514380D02*
X153376190Y-114514380D01*
X152328571Y-114847714D02*
X152328571Y-115514380D01*
X152566666Y-114466761D02*
X152804761Y-115181047D01*
X152185714Y-115181047D01*
X151280952Y-115514380D02*
X151852380Y-115514380D01*
X151566666Y-115514380D02*
X151566666Y-114514380D01*
X151661904Y-114657238D01*
X151757142Y-114752476D01*
X151852380Y-114800095D01*
X150661904Y-114514380D02*
X150566666Y-114514380D01*
X150471428Y-114562000D01*
X150423809Y-114609619D01*
X150376190Y-114704857D01*
X150328571Y-114895333D01*
X150328571Y-115133428D01*
X150376190Y-115323904D01*
X150423809Y-115419142D01*
X150471428Y-115466761D01*
X150566666Y-115514380D01*
X150661904Y-115514380D01*
X150757142Y-115466761D01*
X150804761Y-115419142D01*
X150852380Y-115323904D01*
X150900000Y-115133428D01*
X150900000Y-114895333D01*
X150852380Y-114704857D01*
X150804761Y-114609619D01*
X150757142Y-114562000D01*
X150661904Y-114514380D01*
X149471428Y-114847714D02*
X149471428Y-115514380D01*
X149709523Y-114466761D02*
X149947619Y-115181047D01*
X149328571Y-115181047D01*
X121578476Y-88590380D02*
X122149904Y-88590380D01*
X121864190Y-88590380D02*
X121864190Y-87590380D01*
X121959428Y-87733238D01*
X122054666Y-87828476D01*
X122149904Y-87876095D01*
X120721333Y-87590380D02*
X120911809Y-87590380D01*
X121007047Y-87638000D01*
X121054666Y-87685619D01*
X121149904Y-87828476D01*
X121197523Y-88018952D01*
X121197523Y-88399904D01*
X121149904Y-88495142D01*
X121102285Y-88542761D01*
X121007047Y-88590380D01*
X120816571Y-88590380D01*
X120721333Y-88542761D01*
X120673714Y-88495142D01*
X120626095Y-88399904D01*
X120626095Y-88161809D01*
X120673714Y-88066571D01*
X120721333Y-88018952D01*
X120816571Y-87971333D01*
X121007047Y-87971333D01*
X121102285Y-88018952D01*
X121149904Y-88066571D01*
X121197523Y-88161809D01*
X120197523Y-88590380D02*
X120197523Y-87590380D01*
X119864190Y-88304666D01*
X119530857Y-87590380D01*
X119530857Y-88590380D01*
X119054666Y-88590380D02*
X119054666Y-87590380D01*
X119054666Y-88066571D02*
X118483238Y-88066571D01*
X118483238Y-88590380D02*
X118483238Y-87590380D01*
X118102285Y-87923714D02*
X117578476Y-87923714D01*
X118102285Y-88590380D01*
X117578476Y-88590380D01*
X138136190Y-119368380D02*
X138136190Y-118368380D01*
X137707619Y-119320761D02*
X137564761Y-119368380D01*
X137326666Y-119368380D01*
X137231428Y-119320761D01*
X137183809Y-119273142D01*
X137136190Y-119177904D01*
X137136190Y-119082666D01*
X137183809Y-118987428D01*
X137231428Y-118939809D01*
X137326666Y-118892190D01*
X137517142Y-118844571D01*
X137612380Y-118796952D01*
X137660000Y-118749333D01*
X137707619Y-118654095D01*
X137707619Y-118558857D01*
X137660000Y-118463619D01*
X137612380Y-118416000D01*
X137517142Y-118368380D01*
X137279047Y-118368380D01*
X137136190Y-118416000D01*
X136707619Y-119368380D02*
X136707619Y-118368380D01*
X136326666Y-118368380D01*
X136231428Y-118416000D01*
X136183809Y-118463619D01*
X136136190Y-118558857D01*
X136136190Y-118701714D01*
X136183809Y-118796952D01*
X136231428Y-118844571D01*
X136326666Y-118892190D01*
X136707619Y-118892190D01*
M02*
