M48
; DRILL file {KiCad 5.1.5+dfsg1-2build2} date Sun 26 Jul 2020 19:44:43
; FORMAT={-:-/ absolute / inch / decimal}
; #@! TF.CreationDate,2020-07-26T19:44:43+10:00
; #@! TF.GenerationSoftware,Kicad,Pcbnew,5.1.5+dfsg1-2build2
FMAT,2
INCH
T1C0.0157
T2C0.0197
T3C0.0300
T4C0.0394
T5C0.0591
T6C0.0256
T7C0.1575
%
G90
G05
T1
X4.995Y-4.405
X5.045Y-3.955
X5.0489Y-3.7989
X5.12Y-3.63
X5.12Y-4.39
X5.195Y-4.305
X5.2867Y-4.0428
X5.295Y-3.855
X5.3Y-4.01
X5.32Y-4.055
X5.34Y-3.96
X5.36Y-3.51
X5.38Y-3.73
X5.3855Y-4.07
X5.41Y-4.14
X5.44Y-4.07
X5.45Y-4.32
X5.47Y-3.83
X5.495Y-3.98
X5.52Y-4.23
X5.5833Y-3.6631
X5.695Y-4.055
X5.81Y-3.93
X5.895Y-4.18
X5.995Y-4.005
X6.09Y-4.35
X5.2598Y-3.4261
X5.2755Y-3.3985
X5.307Y-3.3985
X5.3228Y-3.4261
X5.3385Y-3.3985
X5.3543Y-3.4261
X5.3857Y-3.4261
X5.4015Y-3.3985
X5.4172Y-3.4261
X5.433Y-3.3985
X5.4645Y-3.3985
X5.4802Y-3.4261
T3
X4.97Y-3.73
X5.07Y-3.73
X5.72Y-4.48
X5.82Y-4.48
X4.97Y-4.48
X5.07Y-4.48
X5.72Y-3.73
X5.82Y-3.73
T4
X5.35Y-4.39
X5.35Y-4.49
X5.35Y-4.59
X5.45Y-4.39
X5.45Y-4.49
X5.45Y-4.59
T5
X5.62Y-4.18
X5.87Y-4.08
X4.87Y-4.18
X5.12Y-4.08
X5.62Y-3.43
X5.87Y-3.33
X4.87Y-3.43
X5.12Y-3.33
T6
X5.2283Y-3.4517
T7
X5.02Y-4.28
X5.77Y-3.53
X5.02Y-3.53
X5.77Y-4.28
T2
G00X5.1932Y-3.1564
M15
G01X5.1932Y-3.18
M16
G05
G00X5.2074Y-3.3906
M15
G01X5.2074Y-3.4143
M16
G05
G00X5.5326Y-3.3906
M15
G01X5.5326Y-3.4143
M16
G05
G00X5.5468Y-3.1564
M15
G01X5.5468Y-3.18
M16
G05
T6
G00X5.5058Y-3.4517
M15
G01X5.5176Y-3.4517
M16
G05
T0
M30
