M48
; DRILL file {KiCad 5.1.5+dfsg1-2build2} date Mon 03 Aug 2020 15:49:17
; FORMAT={-:-/ absolute / inch / decimal}
; #@! TF.CreationDate,2020-08-03T15:49:17+10:00
; #@! TF.GenerationSoftware,Kicad,Pcbnew,5.1.5+dfsg1-2build2
FMAT,2
INCH
T1C0.0157
T2C0.0236
T3C0.0300
T4C0.0394
T5C0.0591
T6C0.1575
%
G90
G05
T1
X4.995Y-4.405
X5.045Y-3.955
X5.0489Y-3.7989
X5.11Y-3.61
X5.12Y-4.39
X5.195Y-4.305
X5.2867Y-4.0428
X5.295Y-3.855
X5.3Y-4.01
X5.32Y-4.055
X5.34Y-3.96
X5.38Y-3.73
X5.3855Y-4.07
X5.41Y-4.14
X5.44Y-4.07
X5.45Y-4.32
X5.47Y-3.83
X5.495Y-3.98
X5.52Y-4.23
X5.695Y-4.055
X5.81Y-3.93
X5.895Y-4.18
X5.995Y-4.005
X6.09Y-4.35
X5.28Y-3.3369
X5.28Y-3.39
X5.3135Y-3.3369
X5.3135Y-3.39
X5.3469Y-3.3369
X5.3469Y-3.39
X5.3804Y-3.3369
X5.3804Y-3.39
X5.4139Y-3.3369
X5.4139Y-3.39
X5.4473Y-3.3369
X5.4473Y-3.39
X5.4808Y-3.3369
X5.4808Y-3.39
X5.5143Y-3.3369
X5.5143Y-3.39
T3
X4.97Y-4.48
X5.07Y-4.48
X4.97Y-3.73
X5.07Y-3.73
X5.72Y-3.73
X5.82Y-3.73
X5.72Y-4.48
X5.82Y-4.48
T4
X5.35Y-4.39
X5.35Y-4.49
X5.35Y-4.59
X5.45Y-4.39
X5.45Y-4.49
X5.45Y-4.59
T5
X4.87Y-3.43
X5.12Y-3.33
X5.62Y-3.43
X5.87Y-3.33
X5.62Y-4.18
X5.87Y-4.08
X4.87Y-4.18
X5.12Y-4.08
T6
X5.02Y-4.28
X5.02Y-3.53
X5.77Y-3.53
X5.77Y-4.28
T2
G00X5.2269Y-3.2026
M15
G01X5.2269Y-3.2341
M16
G05
G00X5.2269Y-3.3219
M15
G01X5.2269Y-3.3809
M16
G05
G00X5.5674Y-3.2026
M15
G01X5.5674Y-3.2341
M16
G05
G00X5.5674Y-3.3219
M15
G01X5.5674Y-3.3809
M16
G05
T0
M30
